<svg xmlns="http://www.w3.org/2000/svg" width="1920" height="1081" viewBox="0 0 1920 1081">
  <g fill="none" opacity=".163" transform="matrix(-1 0 0 1 1920 0)">
    <path fill="#091737" d="M0,0 L0,606.4 C117.2,494.6 344.4,437.1 499.3,312.2 C612.4,220.9 715.8,117.4 821,0"/>
    <path fill="#162A57" d="M499.3,312.2 C344.4,437.1 117.2,494.5 0,606.4 L0,1008.6 C42.9,915.6 86.5,822 173.6,743 C334.2,597.4 641.3,502.5 830.3,359.8 C974.9,250.6 1091.7,124.2 1204.3,0 L821,0 C715.8,117.4 612.4,220.9 499.3,312.2 Z"/>
    <path fill="#2E4475" d="M830.3,359.8 C641.3,502.5 334.1,597.4 173.6,743 C86.5,822 42.9,915.6 0,1008.6 L0,1080 L114.8,1080 C229.7,978.8 343.7,894.5 474.8,780.7 C654.8,624.4 872.6,475.9 1064.9,264.9 C1133.4,189.8 1201.9,96.9 1269.8,1.13686838e-13 L1204.2,1.13686838e-13 C1091.7,124.2 974.8,250.6 830.3,359.8 Z"/>
    <path fill="#51689B" d="M474.8,780.7 C343.7,894.5 229.7,978.8 114.8,1080 L408.5,1080 C444.9,1030.6 480.6,986.5 515.3,952.2 C659.7,809.2 793.5,838.6 927.1,708.1 C1060.7,577.6 1164.6,329 1316.8,169.2 C1376,107 1444.4,52.4 1515.3,0 L1269.8,0 C1201.9,96.9 1133.4,189.8 1064.9,264.9 C872.6,475.9 654.8,624.4 474.8,780.7 Z"/>
    <path fill="#768CBE" d="M1316.7,169.2 C1164.5,329 1060.6,577.6 927,708.1 C793.5,838.6 659.6,809.2 515.2,952.2 C480.5,986.5 444.8,1030.6 408.4,1080 L585,1080 C628.1,1023.9 672.6,969.7 720.5,919.7 C884.5,748.2 1073.9,640.6 1256.1,466.3 C1398,330.6 1541.6,155.1 1687.9,0 L1515.3,0 C1444.4,52.4 1376,107 1316.7,169.2 Z"/>
    <path fill="#87A0D8" d="M1256.2,466.3 C1074,640.6 884.6,748.2 720.6,919.7 C672.7,969.8 628.1,1023.9 585.1,1080 L901.3,1080 C960.9,1023.2 1015,969.8 1057.4,924.7 C1162.9,812.7 1127.9,773.9 1251.9,667.9 C1375.9,561.9 1649.3,412.7 1801.4,288.7 C1845.4,252.8 1884.2,217.8 1920,183.1 L1920,0 L1687.9,0 C1541.6,155.1 1398,330.6 1256.2,466.3 Z"/>
    <path fill="#B6C4E1" d="M1251.9,668 C1127.9,774 1162.9,812.8 1057.4,924.8 C1014.9,969.9 960.9,1023.2 901.3,1080.1 L1157.5,1080.1 C1230.5,994.5 1304.7,913.7 1382.2,849.3 C1551,708.8 1769.9,663 1920,543.3 L1920,183.2 C1884.1,217.9 1845.4,252.9 1801.4,288.8 C1649.3,412.8 1375.9,562 1251.9,668 Z"/>
    <path fill="#D7DBE4" d="M1920,1080 L1920,543.3 C1769.9,663 1551,708.8 1382.2,849.2 C1304.7,913.6 1230.4,994.5 1157.5,1080 L1920,1080"/>
  </g>
</svg>
