<?xml version="1.0" encoding="UTF-8"?>
<svg width="64px" height="54px" viewBox="0 0 64 54" version="1.1" xmlns="http://www.w3.org/2000/svg" xmlns:xlink="http://www.w3.org/1999/xlink">
    <title>Planet 2</title>
    <g id="页面-1" stroke="none" stroke-width="1" fill="none" fill-rule="evenodd" opacity="0.643948">
        <g id="自定义表单-子表单空" transform="translate(-686.000000, -733.000000)">
            <g id="Planet-2" transform="translate(686.000000, 733.000000)">
                <path d="M32,2 C18.193,2 7,13.193 7,27 C7,40.807 18.193,52 32,52 C45.807,52 57,40.807 57,27 C57,13.193 45.807,2 32,2 M32,3 C45.234,3 56,13.766 56,27 C56,40.234 45.234,51 32,51 C18.766,51 8,40.234 8,27 C8,13.766 18.766,3 32,3" id="Fill-60" fill="#257BFF"></path>
                <path d="M56.4067,3.1056 L58.7157,3.6276 C59.0947,3.7316 59.0947,4.2686 58.7157,4.3726 L56.4067,4.8946 C56.2127,4.9426 56.0607,5.0766 56.0077,5.2496 L55.3727,7.7156 C55.2687,8.0946 54.7317,8.0946 54.6277,7.7156 L53.9927,5.2496 C53.9397,5.0766 53.7877,4.9416 53.5937,4.8946 L51.2837,4.3726 C50.9057,4.2686 50.9057,3.7316 51.2837,3.6276 L53.5937,3.1056 C53.7877,3.0576 53.9397,2.9236 53.9927,2.7506 L54.6277,0.2836 C54.7317,-0.0944 55.2687,-0.0944 55.3727,0.2836 L56.0067,2.7506 C56.0607,2.9236 56.2127,3.0586 56.4067,3.1056" id="Fill-61" fill="#FFA932"></path>
                <path d="M43,40 C43,40.552 42.552,41 42,41 C41.448,41 41,40.552 41,40 C41,39.448 41.448,39 42,39 C42.552,39 43,39.448 43,40" id="Fill-62" fill="#FFA932"></path>
                <path d="M9,44 C9,44.552 8.552,45 8,45 C7.448,45 7,44.552 7,44 C7,43.448 7.448,43 8,43 C8.552,43 9,43.448 9,44" id="Fill-63" fill="#FFA932"></path>
                <path d="M51,52 C51,53.105 50.105,54 49,54 C47.895,54 47,53.105 47,52 C47,50.895 47.895,50 49,50 C50.105,50 51,50.895 51,52" id="Fill-64" fill="#FFA932"></path>
                <path d="M32,2 C27.5113027,2 23.2988842,3.18301021 19.6575256,5.25424952 C17.3104072,6.58931277 15.2005489,8.29341149 13.4068938,10.2876026 C9.42379515,14.7160237 7,20.5749867 7,27 C7,40.807 18.193,52 32,52 C45.807,52 57,40.807 57,27 C57,13.193 45.807,2 32,2 M32,3 C45.234,3 56,13.766 56,27 C56,40.234 45.234,51 32,51 C18.766,51 8,40.234 8,27 C8,13.766 18.766,3 32,3" id="Fill-60" fill="#257BFF"></path>
                <path d="M9.4411,7 L9.4411,7 C11.7041,7 14.2551,7.315 16.9991,7.916 L17.4581,7.001 C14.5081,6.339 11.8001,6 9.4411,6 C5.2011,6 2.0891,7.097 0.7311,9.391 C-3.0079,15.708 7.9611,28.712 25.2301,38.437 C36.2271,44.63 47.1261,48 54.5591,48 C58.7991,48 61.9111,46.903 63.2691,44.609 C65.4161,40.982 62.7131,35.15 56.7531,28.999 L56.3371,30.002 C59.6781,33.5 61.9371,36.895 62.7171,39.805 C63.1791,41.529 63.0751,42.974 62.4081,44.1 C60.9891,46.497 57.3571,47 54.5591,47 C46.9911,47 36.2101,43.473 25.7211,37.566 C12.9171,30.356 3.0961,20.964 1.2831,14.195 C0.8211,12.471 0.9251,11.026 1.5921,9.9 C3.0101,7.503 6.6431,7 9.4411,7" id="Fill-132" fill="#FF9400"></path>
                <path d="M56.6457,31.2177 C56.8787,29.8467 56.9997,28.4377 56.9997,26.9997 L55.9997,26.9997 C55.9997,27.0977 55.9997,27.1957 55.9987,27.2927 C55.9837,28.5207 55.8757,29.7267 55.6827,30.9047 L56.6457,31.2177 Z M15.6307,9.4637 C16.7837,8.3877 18.0417,7.4227 19.3887,6.5867 L18.7177,5.8157 C17.3097,6.7007 15.9957,7.7227 14.7947,8.8627 L15.6307,9.4637 Z" id="Fill-3" fill="#257BFF"></path>
            </g>
        </g>
    </g>
</svg>