<?xml version="1.0" standalone="no"?>
<!DOCTYPE svg PUBLIC "-//W3C//DTD SVG 1.1//EN" "http://www.w3.org/Graphics/SVG/1.1/DTD/svg11.dtd" >
<svg xmlns="http://www.w3.org/2000/svg">
<metadata>Generated by IcoMoon</metadata>
<defs>
<font id="adacloud" horiz-adv-x="1024">
<font-face units-per-em="1024" ascent="960" descent="-64" />
<missing-glyph horiz-adv-x="1024" />
<glyph unicode="&#x20;" horiz-adv-x="512" d="" />
<glyph unicode="&#xe900;" glyph-name="icon1" d="M589.625 49.75c1.667 15-7.917 30-28.75 33.333-62.083 9.167-189.583 37.917-283.75 132.917-153.333 153.333-182.917 387.5-57.5 513.333 101.667 101.25 270.833 89.167 395.417 21.667l44.583 43.75c-154.167 92.917-360.833 98.75-482.5-22.917-144.583-145-126.25-415 57.083-598.333 109.583-109.583 250-142.917 318.75-149.583 22.083-2.917 35.417 10 36.667 25.833zM819.208 736.417l32.083 32.5c15.833 15.833 16.667 38.75 0.833 54.167l-10.833 10c-14.167 12.917-36.25 12.5-51.25-2.5l-32.5-32.5 61.667-61.667zM355.875 322.25l79.583 31.25 355 354.167-62.083 61.667-354.167-354.167-33.333-77.5c-3.75-9.167 5.833-18.333 15-15.417zM834.625 228.5c95 95.417 84.167 265-18.333 411.25l-43.333-43.333c79.167-117.5 94.167-249.583 18.75-325-92.083-92.5-244.167-49.167-346.667 47.917l-65.417-27.083c127.917-130 338.333-180 455-63.75z" />
<glyph unicode="&#xe901;" glyph-name="icon2" d="M512.208 221.417c11.25 0 21.667 5 29.583 13.333l303.333 310.417c7.5 7.5 11.667 17.083 11.667 27.917 0 22.5-17.083 39.583-39.583 39.583-10.417 0-20.833-4.167-28.333-11.667l-276.667-283.333-277.083 283.333c-7.5 7.5-17.083 11.667-28.333 11.667-22.083 0-39.583-17.083-39.583-39.583 0-10.833 4.167-20.417 11.667-27.917l303.333-310.417c8.75-8.75 18.333-13.333 30-13.333z" />
<glyph unicode="&#xe902;" glyph-name="icon3" d="M817.208 253.083c22.5 0 39.583 17.5 39.583 40 0 10.833-4.167 20.417-11.667 27.917l-303.333 310.417c-7.917 8.333-18.333 12.917-29.583 12.917-11.667 0-21.667-4.583-30-12.917l-303.333-310.417c-7.5-7.083-11.667-17.083-11.667-27.917 0-22.5 17.5-40 39.583-40 11.25 0 21.25 4.167 28.333 11.667l277.083 283.333 276.667-283.333c7.083-7.5 17.917-11.667 28.333-11.667z" />
<glyph unicode="&#xe903;" glyph-name="icon4" d="M693.042 28.5c57.917 0 95.833 36.25 98.75 94.167l27.083 571.667h46.25c17.083 0 31.25 14.167 31.25 31.25 0 17.5-14.167 31.667-31.25 31.667h-178.75v57.083c0 57.917-39.167 95.417-102.083 95.417h-145c-62.917 0-102.083-37.5-102.083-95.417v-57.083h-177.917c-17.083 0-31.25-14.167-31.25-31.667 0-17.083 14.167-31.25 31.25-31.25h46.25l27.083-572.083c2.5-57.917 40.417-93.75 98.75-93.75h361.667zM620.125 757.25h-216.25v53.333c0 22.083 16.25 37.917 40 37.917h136.25c23.75 0 40-15.833 40-37.917v-53.333zM685.958 91.417h-347.917c-22.5 0-39.167 16.667-40.417 40l-27.083 562.917h481.667l-25.833-562.917c-0.833-23.75-17.083-40-40.417-40zM628.875 158.917c13.333 0 23.333 11.25 24.167 26.667l11.667 410.417c0.417 15-10 27.083-23.75 27.083-12.917 0-23.75-12.083-24.167-26.667l-11.667-410.417c-0.417-15 9.583-27.083 23.75-27.083zM395.542 158.917c13.75 0 24.167 12.083 23.75 27.083l-11.667 410.417c-0.417 14.583-11.667 26.667-24.167 26.667-14.167 0-24.167-11.667-23.75-27.083l11.667-410.417c0.417-15.417 10.417-26.667 24.167-26.667zM512.208 158.917c13.333 0 24.583 12.083 24.583 27.083v410c0 15-11.25 27.083-24.583 27.083s-24.583-12.083-24.583-27.083v-410c0-15 11.25-27.083 24.583-27.083z" />
<glyph unicode="&#xe904;" glyph-name="icon5" d="M501.75 328.083c17.917 0 32.917 14.583 32.917 32.5v402.083l-2.5 58.75 25.833-28.333 58.333-62.083c5.833-6.667 14.167-10 22.083-10 17.083 0 30.417 12.083 30.417 29.167 0 8.75-3.75 15.417-10 21.667l-132.5 128.333c-8.75 8.333-16.25 11.25-24.583 11.25-8.75 0-16.25-2.917-24.583-11.25l-132.917-128.333c-6.25-6.25-10-12.917-10-21.667 0-17.083 12.917-29.167 30-29.167 7.917 0 17.083 3.333 22.917 10l57.917 62.083 25.833 28.333-2.5-58.75v-402.083c0-17.917 15-32.5 33.333-32.5zM727.583 17.25c83.75 0 125.833 42.083 125.833 124.167v391.25c0 82.5-42.083 124.583-125.833 124.583h-108.333v-68.75h106.25c37.917 0 59.583-20.417 59.583-60.417v-382.083c0-40-21.667-60.417-59.583-60.417h-447.917c-38.333 0-59.583 20.417-59.583 60.417v382.083c0 40 21.25 60.417 59.583 60.417h106.667v68.75h-109.167c-83.333 0-125.833-42.083-125.833-124.583v-391.25c0-82.5 42.5-124.167 125.833-124.167h452.5z" />
<glyph unicode="&#xe905;" glyph-name="icon6" d="M512.208 406c8.333 0 15.833 2.917 24.167 10.833l131.25 127.083c6.25 6.25 9.583 12.5 9.583 21.25 0 16.667-12.917 28.75-29.583 28.75-8.333 0-16.667-3.333-22.5-9.583l-57.083-61.25-25.833-28.333 2.917 59.167v306.667c0 17.5-15 32.083-32.917 32.083-18.333 0-33.333-14.583-33.333-32.083v-306.667l2.917-59.167-25.833 28.333-57.083 61.25c-5.833 6.25-14.583 9.583-22.917 9.583-16.667 0-29.167-12.083-29.167-28.75 0-8.75 3.333-15 9.583-21.25l131.667-127.083c8.333-7.917 15.417-10.833 24.167-10.833zM851.792 17.25c83.333 0 125.833 42.083 125.833 124.167v232.917c0 37.5-5 56.667-22.917 79.583l-134.583 167.917c-46.25 57.917-75 90.417-145.833 90.417h-56.25v-58.333h60.417c28.333 0 57.5-24.583 76.25-48.75l138.333-176.667c15-19.167 9.583-27.083-11.667-27.083h-249.583c-20.417 0-30-15-30-31.25v-1.25c0-44.583-35-92.083-90-92.083-54.583 0-89.583 47.5-89.583 92.083v1.25c0 16.25-9.583 31.25-30 31.25h-249.583c-21.667 0-25.833 9.167-11.667 27.083l137.917 176.667c19.167 24.167 48.333 48.75 76.667 48.75h60.833v58.333h-56.667c-70.833 0-99.583-32.5-146.25-90.417l-134.167-167.917c-17.917-22.917-22.917-42.083-22.917-79.583v-232.917c0-82.5 42.5-124.167 125.833-124.167h679.583zM849.708 85.583h-675.417c-38.333 0-59.583 20.417-59.583 60.417v194.167h245.417c10.417-72.5 72.083-126.25 151.667-126.25 80 0 141.667 53.75 152.083 126.25h245.417v-194.167c0-40-21.667-60.417-59.583-60.417z" />
<glyph unicode="&#xe906;" glyph-name="icon7" d="M839.917 91.417c72.5 0 114.583 42.083 114.583 124.167v435.417c0 82.083-42.5 124.167-125.833 124.167h-635c-72.5 0-114.583-41.667-114.583-124.167v-435.417c0-82.083 42.5-124.167 125.833-124.167h635zM517.417 391.833c-15.417 0-30 7.083-46.667 23.75l-294.167 290.417c7.5 2.917 16.667 4.167 27.083 4.167h626.667c10.417 0 19.583-1.667 27.917-4.583l-294.167-290c-16.667-16.667-31.25-23.75-46.667-23.75zM144.083 213.5v438.333l222.083-218.333-222.083-220zM889.917 214.75l-221.25 218.75 221.25 217.083v-435.833zM830.333 156.417h-626.667c-10 0-18.75 1.25-26.25 4.167l232.5 230 24.167-23.75c27.917-27.917 55-39.167 83.333-39.167s55.417 11.25 83.333 39.167l24.167 23.75 232.083-229.583c-7.5-2.917-16.667-4.583-26.667-4.583z" />
<glyph unicode="&#xe907;" glyph-name="icon8" d="M501.542 29.75c221.25 0 403.75 182.917 403.75 404.167 0 220.833-182.5 403.75-403.333 403.75-22.083 0-33.75-13.333-33.75-35v-150c0-17.917 12.5-32.5 30.833-32.5s30.833 14.583 30.833 32.5v112.083c171.25-14.167 303.333-156.25 303.333-330.833 0-184.167-147.5-332.083-331.667-332.083-184.583 0-332.5 147.917-332.083 332.083 0.417 81.25 29.167 155.417 77.5 212.5 12.917 17.083 14.167 36.667 0 51.667-14.583 15-38.333 13.333-53.75-5.833-59.167-70.417-95.833-160.833-95.833-258.333 0-221.25 182.917-404.167 404.167-404.167zM564.458 372.25c31.667 32.917 25.417 77.5-12.5 103.75l-205.833 142.917c-20.833 14.583-42.5-7.083-27.917-27.917l142.917-205.417c26.25-37.917 70.833-45 103.333-13.333z" />
<glyph unicode="&#xe908;" glyph-name="icon9" d="M911.125 61.417c63.333 0 96.667 31.667 96.667 91.667v558.75c0 60-33.333 91.25-96.667 91.25h-103.75c-62.917 0-96.25-31.25-96.25-91.25v-558.75c0-60 33.333-91.667 96.25-91.667h103.75zM900.292 124.75h-81.667c-29.583 0-40.417 10.833-40.417 40v535.417c0 29.167 10.833 39.583 40.417 39.583h81.667c29.583 0 40.417-10.417 40.417-39.583v-535.417c0-29.167-10.833-40-40.417-40zM553.208 61.417c62.917 0 96.667 31.667 96.667 91.667v443.333c0 60.417-33.75 91.667-96.667 91.667h-103.75c-63.333 0-96.25-31.25-96.25-91.667v-443.333c0-60 32.917-91.667 96.25-91.667h103.75zM541.958 124.75h-81.25c-29.583 0-40.417 10.833-40.417 40v420.417c0 29.167 10.833 39.583 40.417 39.583h81.25c30 0 40.833-10.417 40.833-39.583v-420.417c0-29.167-10.833-40-40.833-40zM194.875 61.417c63.333 0 96.667 31.667 96.667 91.667v328.75c0 60-33.333 91.667-96.667 91.667h-103.75c-62.917 0-96.25-31.667-96.25-91.667v-328.75c0-60 33.333-91.667 96.25-91.667h103.75zM184.042 124.75h-81.25c-30 0-40.833 10.833-40.833 40v305.417c0 29.167 10.833 40 40.833 40h81.25c29.583 0 40.417-10.833 40.417-40v-305.417c0-29.167-10.833-40-40.417-40z" />
<glyph unicode="&#xe909;" glyph-name="icon10" d="M501.542 29.75c220.833 0 403.75 182.917 403.75 404.167 0 220.833-183.333 403.75-404.167 403.75s-403.75-182.917-403.75-403.75c0-221.25 183.333-404.167 404.167-404.167zM501.542 101.833c-184.167 0-331.667 147.5-331.667 332.083 0 184.167 147.083 332.083 331.25 332.083s332.083-147.917 332.501-332.083c0.416-184.583-147.918-332.083-332.084-332.083zM493.208 353.5c20.417 0 32.917 12.5 33.333 27.917v5c0.417 21.25 13.75 35.417 40.417 52.917 38.75 25 65 48.333 65 94.583 0 65.833-58.333 101.667-126.667 101.667-67.5 0-112.5-31.667-123.75-67.917-2.5-6.667-3.75-13.333-3.75-20 0-17.917 14.583-28.333 29.167-28.333 22.5 0 26.667 11.667 39.167 26.25 12.917 20.833 31.25 33.333 56.25 33.333 34.583 0 56.667-19.583 56.667-48.333 0-25.833-16.25-38.75-50.417-62.5-28.333-19.583-49.167-40.417-49.167-77.917v-4.583c0-21.25 12.083-32.083 33.75-32.083zM492.375 234.75c23.333 0 43.75 17.917 43.75 41.667s-20 41.667-43.75 41.667c-24.167 0-43.75-18.333-43.75-41.667s20-41.667 43.75-41.667z" />
<glyph unicode="&#xe90a;" glyph-name="icon11" d="M409.124 248.569v65.61h-166.826c-87.214 0-133.621 51.208-133.621 114.818 0 72.011 46.407 124.019 125.62 124.019 5.201 0 7.601 2.8 7.201 8.001-0.8 115.218 82.013 148.823 160.825 125.62 4.801-1.6 7.601-0.4 10.002 3.601 36.406 65.61 92.815 118.419 189.23 118.419 122.419 0 208.033-96.815 214.434-208.833 0.8-18.003-0.4-39.206-2-57.209-0.4-4.801 1.6-7.601 6.401-8.801 68.811-14.002 113.218-56.409 113.218-121.219 0-57.209-41.206-98.415-122.419-98.415h-176.428v-65.61h176.828c117.218 0 188.029 70.011 188.029 162.825 0 78.012-46.007 141.222-120.419 171.227 0.8 169.627-121.219 292.046-277.243 292.046-102.016 0-176.028-54.008-222.035-121.219-87.614 23.204-195.231-44.007-198.031-150.424-85.613-14.002-139.222-84.413-139.222-174.427 0-100.016 75.212-180.028 199.631-180.028h166.826zM521.942 21.333c8.401 0 15.202 3.2 23.604 10.802l127.62 119.619c6.401 5.601 9.201 12.402 9.201 20.803 0 16.003-12.402 27.604-28.805 27.604-8.001 0-15.602-3.201-21.603-9.201l-55.609-56.009-25.204-27.204 2.8 56.409v324.851c0 16.803-14.402 30.805-32.005 30.805-17.203 0-31.605-14.002-31.605-30.805v-324.851l2.8-56.409-25.204 27.204-56.009 56.009c-6.001 6.001-14.002 9.201-22.003 9.201-16.003 0-28.404-11.602-28.404-27.604 0-8.401 2.8-15.202 9.201-20.803l127.62-119.619c8.801-7.601 15.602-10.802 23.604-10.802z" />
<glyph unicode="&#xe90b;" glyph-name="icon12" d="M501.542 29.75c220.833 0 403.75 182.917 403.75 404.167 0 220.833-183.333 403.75-404.167 403.75s-403.75-182.917-403.75-403.75c0-221.25 183.333-404.167 404.167-404.167zM666.958 397.25h-331.25c-23.75 0-40.417 12.917-40.417 35.833 0 23.333 15.833 36.667 40.417 36.667h331.25c24.583 0 40-13.333 40-36.667 0-22.917-16.25-35.833-40-35.833z" />
<glyph unicode="&#xe90c;" glyph-name="icon13" d="M750.958 68.5c83.333 0 125.833 42.083 125.833 124.583v480.833c0 82.083-42.5 124.167-125.833 124.167h-477.917c-83.333 0-125.833-41.667-125.833-124.167v-480.833c0-82.5 42.5-124.583 125.833-124.583h477.917zM748.458 137.25h-472.917c-38.333 0-59.583 20.417-59.583 60.417v471.667c0 40 21.25 60 59.583 60h472.917c37.917 0 59.583-20 59.583-60v-471.667c0-40-21.667-60.417-59.583-60.417zM462.625 236.417c13.75 0 24.583 6.25 32.917 19.167l194.167 304.167c5 7.917 9.583 16.667 9.583 25.833 0 18.75-16.25 30.417-33.75 30.417-10.833 0-21.25-6.25-28.75-18.75l-175.833-280.833-90.417 116.25c-9.167 11.667-18.333 16.25-29.583 16.25-17.917 0-32.5-14.583-32.5-32.917 0-9.167 3.75-17.917 9.583-25.417l109.583-135.417c11.25-12.917 21.667-18.75 35-18.75z" />
<glyph unicode="&#xe90d;" glyph-name="icon14" d="M750.958 68.5c83.333 0 125.833 42.083 125.833 124.583v480.833c0 82.083-42.5 124.167-125.833 124.167h-477.917c-83.333 0-125.833-41.667-125.833-124.167v-480.833c0-82.5 42.5-124.583 125.833-124.583h477.917zM458.875 230.167c-14.167 0-25 6.25-36.25 20l-113.75 139.583c-6.25 7.5-10 17.083-10 26.25 0 19.167 15.417 34.167 33.75 34.167 11.667 0 21.667-4.167 30.833-16.667l93.75-120 181.25 290.417c7.917 12.917 18.75 19.167 29.583 19.167 18.333 0 35.417-12.083 35.417-31.667 0-9.167-4.583-18.75-10-27.083l-200.417-313.75c-8.75-13.75-20.417-20.417-34.167-20.417z" />
<glyph unicode="&#xe90e;" glyph-name="icon15" d="M836.583 64.333c27.917 0 47.917 21.25 47.917 48.75 0 12.917-4.167 25.417-13.75 35l-180.833 181.25c37.917 50.833 60.417 113.75 60.417 181.667 0 167.917-137.5 305.417-305.417 305.417-168.333 0-305.417-137.5-305.417-305.417s137.083-305.417 305.417-305.417c64.583 0 124.583 20.417 174.167 55l182.083-182.5c9.583-9.167 22.083-13.75 35.417-13.75zM444.917 276.833c-128.75 0-234.583 105.833-234.583 234.167s105.833 234.167 234.583 234.167c128.333 0 234.167-105.833 234.167-234.167s-105.833-234.167-234.167-234.167z" />
<glyph unicode="&#xe90f;" glyph-name="icon16" d="M644.167 23.884c15 0 30 4.167 42.917 11.667l204.167 115.833c24.583 13.75 35.833 33.333 35.833 60.833v547.917c0 30.833-17.5 48.333-47.5 48.333-11.25 0-21.667-3.75-35.417-11.25l-207.917-115.833-210.833 129.583c-12.917 7.917-27.5 12.5-42.5 12.5s-30.417-4.583-43.75-12.5l-202.917-115.417c-24.583-14.167-35.833-33.333-35.833-61.25v-547.5c0-30.417 17.5-48.333 47.5-48.333 11.25 0 21.667 4.167 35.417 11.667l199.583 107.917 214.583-121.25c15-8.333 31.25-12.917 46.667-12.917zM173.333 125.134c-3.75 0-5.833 2.917-5.833 7.083v485c0 10 3.75 17.083 13.333 22.5l159.167 93.333c4.583 2.5 8.75 5 13.75 7.5v-517.5l-174.167-95.833c-2.5-1.25-4.583-2.083-6.25-2.083zM606.667 113.884c-5.417 2.917-11.25 5.833-17.083 9.167l-168.75 95.833v513.333c4.167-2.083 8.75-4.583 12.5-7.083l173.333-105.833v-505.417zM673.75 106.801v517.917l174.167 95c2.5 1.25 4.583 2.083 6.25 2.083 3.75 0 5.833-2.5 5.833-7.083v-485c0-10-3.75-17.083-13.333-22.917l-155-90.417c-5.833-3.333-11.667-6.667-17.917-9.583z" />
<glyph unicode="&#xe910;" glyph-name="icon17" d="M501.333 146.417c16.667 0 37.917 64.167 37.917 177.083v249.167c65.417 16.667 112.917 76.25 112.917 146.25 0 83.333-67.083 151.25-150.833 151.25s-150.833-67.917-150.833-151.25c0-70 47.5-129.167 112.5-146.25v-249.167c0-112.5 22.083-177.083 38.333-177.083zM458.417 710.583c-27.5 0-51.667 24.167-51.667 52.083s24.167 51.25 51.667 51.25c28.333 0 51.25-23.333 51.25-51.25s-22.917-52.083-51.25-52.083zM501.333-1.5c242.083 0 383.333 82.917 383.333 172.917 0 104.583-164.583 170-280 172.5v-61.667c80-2.5 196.667-43.333 196.667-102.083 0-67.917-127.083-115.417-300-115.417-173.333 0-300 47.083-300 115.417 0 58.75 116.667 99.583 196.667 102.083v61.667c-115.417-2.5-280-67.917-280-172.5 0-90 141.25-172.917 383.333-172.917z" />
<glyph unicode="&#xe911;" glyph-name="icon18" d="M512 874.667c-164.907 0-298.667-133.76-298.667-298.667 0-224 298.667-554.667 298.667-554.667s298.667 330.667 298.667 554.667c0 164.907-133.76 298.667-298.667 298.667zM512 469.333c-58.88 0-106.667 47.787-106.667 106.667s47.787 106.667 106.667 106.667c58.88 0 106.667-47.787 106.667-106.667s-47.787-106.667-106.667-106.667z" />
<glyph unicode="&#xe912;" glyph-name="icon19" d="M501.542 29.75c220.833 0 403.75 182.917 403.75 404.167 0 220.833-183.333 403.75-404.167 403.75s-403.75-182.917-403.75-403.75c0-221.25 183.333-404.167 404.167-404.167zM640.708 258.917c-9.583 0-18.333 4.167-24.583 10.417l-115 115.417-115-115.417c-6.25-6.667-15-10.417-24.583-10.417-19.167 0-34.583 15.833-34.583 35 0 9.583 3.75 17.917 10 24.167l115.417 115.417-115.417 115.417c-6.25 6.25-10 14.583-10 23.75 0 19.583 15.417 34.583 34.583 34.583 9.583 0 17.917-3.75 24.167-10l115.417-115.417 116.25 115.417c7.083 7.5 14.583 10.417 23.75 10.417 19.583 0 35-15 35-34.583 0-9.167-3.333-17.083-10.417-23.75l-115.417-115.833 115-114.583c6.667-7.083 10.417-15 10.417-25 0-19.167-15.417-35-35-35z" />
<glyph unicode="&#xe913;" glyph-name="icon20" d="M218.667 353.083c45 0 81.25 35.833 81.25 80.417s-35.833 80.417-81.25 80.417c-44.583 0-80.833-35.833-80.833-80.417s36.25-80.417 80.833-80.417zM512 353.083c44.167 0 80 35.833 80 80.417s-35.417 80.417-80 80.417c-44.583 0-80.417-35.833-80.417-80.417s35.833-80.417 80.417-80.417zM805.333 353.083c44.167 0 80.417 35.833 80.417 80.417s-35.833 80.417-80.417 80.417c-45.417 0-81.25-35.833-81.25-80.417s35.833-80.417 81.25-80.417z" />
<glyph unicode="&#xe914;" glyph-name="icon21" d="M517.25 29.75c220.833 0 403.75 182.917 403.75 404.167 0 220.833-183.333 403.75-404.167 403.75s-403.75-182.917-403.75-403.75c0-221.25 183.333-404.167 404.167-404.167zM517.25 101.833c-184.167 0-331.667 147.5-331.667 332.083 0 184.167 147.083 332.083 331.25 332.083s332.083-147.917 332.501-332.083c0.416-184.583-147.918-332.083-332.084-332.083zM650.167 267.25c18.333 0 32.917 14.583 32.917 32.917 0 9.583-3.333 17.083-10 23.75l-109.583 109.167 110 110.417c6.667 6.667 10 14.167 10 22.917 0 18.333-14.583 32.917-32.917 32.917-9.167 0-16.25-2.917-23.333-10l-110.417-110-110 109.583c-6.25 6.667-13.75 9.583-22.917 9.583-18.333 0-32.917-14.167-32.917-32.5 0-8.75 3.333-16.667 9.583-22.917l109.583-110-109.583-109.583c-6.25-6.25-9.583-14.167-9.583-23.333 0-18.333 14.583-32.917 32.917-32.917 9.167 0 17.5 3.333 23.75 10l109.167 109.583 109.583-109.583c6.25-6.25 14.167-10 23.75-10z" />
<glyph unicode="&#xe915;" glyph-name="icon22" d="M501.542 29.75c220.833 0 403.75 182.917 403.75 404.167 0 220.833-183.333 403.75-404.167 403.75s-403.75-182.917-403.75-403.75c0-221.25 183.333-404.167 404.167-404.167zM501.542 101.833c-184.167 0-331.667 147.5-331.667 332.083 0 184.167 147.083 332.083 331.25 332.083s332.083-147.917 332.501-332.083c0.416-184.583-147.918-332.083-332.084-332.083zM501.125 388.917c16.25 0 28.75 12.5 28.75 29.167v262.917c0 15.833-12.5 28.75-28.75 28.75s-28.75-12.917-28.75-28.75v-234.583h-174.583c-16.25 0-28.75-12.5-28.75-28.333 0-16.667 12.5-29.167 28.75-29.167h203.333z" />
<glyph unicode="&#xe916;" glyph-name="icon23" d="M512.208 29.75c220.833 0 403.75 182.917 403.75 404.167 0 220.833-183.333 403.75-404.167 403.75s-403.75-182.917-403.75-403.75c0-221.25 183.333-404.167 404.167-404.167zM512.208 101.833c-184.167 0-331.667 147.5-331.667 332.083 0 184.167 147.083 332.083 331.25 332.083s332.083-147.917 332.501-332.083c0.416-184.583-147.918-332.083-332.084-332.083zM475.958 267.667c17.083 0 29.583 12.917 29.583 30 0 9.167-3.333 16.667-9.167 22.083l-49.167 47.5-46.25 38.75 82.5-3.333h201.25c17.917 0 30.833 13.333 30.833 31.25 0 18.333-12.917 31.667-30.833 31.667h-201.25l-82.5-3.333 46.667 38.333 48.75 47.917c5.417 5.417 9.167 13.333 9.167 22.083 0 17.083-12.5 29.583-29.583 29.583-8.75 0-15.833-2.5-21.667-8.333l-133.333-132.917c-8.333-8.333-12.083-15.833-12.083-24.583 0-10 4.167-17.5 12.083-25l133.333-132.917c5.833-5.833 12.917-8.75 21.667-8.75z" />
<glyph unicode="&#xe917;" glyph-name="icon24" d="M501.542 29.75c220.833 0 403.75 182.917 403.75 404.167 0 220.833-183.333 403.75-404.167 403.75s-403.75-182.917-403.75-403.75c0-221.25 183.333-404.167 404.167-404.167zM501.542 101.833c-184.167 0-331.667 147.5-331.667 332.083 0 175.417 133.75 318.333 305.833 330.833v-337.5c0-9.167 2.917-16.667 10-23.75l229.583-224.583c-57.5-48.333-132.083-77.083-213.75-77.083zM532.375 470.167v294.167c105-9.583 195.417-67.5 248.75-151.667l-248.75-142.5zM756.542 220.167l-200.417 197.917 251.25 144.583c16.667-39.583 26.25-82.917 26.25-128.75 0-81.667-28.75-155.833-77.083-213.75z" />
<glyph unicode="&#xe918;" glyph-name="icon25" d="M505.417 28.917c17.5 0 31.25 12.083 37.5 24.167l-210.417 362.917c-3.75 7.083-6.667 12.5-6.667 17.917s2.917 10.833 6.667 17.917l210.417 362.917c-6.25 12.083-20.417 24.167-37.5 24.167-14.167 0-28.333-8.333-37.917-24.167l-198.333-336.25c-10-17.083-17.083-29.583-17.083-44.583 0-14.583 7.083-27.083 17.083-44.583l198.75-335.833c9.583-16.667 23.75-24.583 37.5-24.583zM704.583 29.333c22.917 0 37.917 13.333 57.083 45.417l178.75 307.917c11.25 19.583 16.667 35 16.667 51.25s-5.417 31.667-16.667 51.25l-178.75 307.917c-19.167 32.083-34.167 45.417-57.083 45.417s-37.917-13.333-56.667-45.417l-179.167-307.917c-11.25-19.583-16.667-35-16.667-51.25 0.417-16.25 5.417-31.667 17.083-51.25l178.75-307.917c18.75-32.083 33.75-45.417 56.667-45.417zM313.333 778.083c14.583 0 26.25 11.667 26.25 26.25s-11.667 26.25-26.25 26.25c-14.583 0-26.25-11.667-26.25-26.25s11.667-26.25 26.25-26.25zM272.5 704.75c14.167 0 26.25 11.667 26.25 26.25s-12.083 26.25-26.25 26.25c-14.583 0-26.667-11.667-26.667-26.25s12.083-26.25 26.667-26.25zM704.583 117.667c-1.667 0-2.917 1.25-3.75 2.917l-169.583 296.25c-3.333 6.667-5.417 11.667-5.417 17.083s1.667 10.833 5.417 17.083l169.583 296.25c0.833 1.667 2.083 2.917 3.75 2.917 2.083 0 2.917-1.25 4.167-2.917l169.167-296.25c3.75-6.25 5.833-11.667 5.833-17.083s-2.083-10.417-5.833-17.083l-169.167-296.25c-1.25-1.667-2.083-2.917-4.167-2.917zM230.833 631c14.583 0 26.25 11.667 26.25 26.25s-11.667 26.25-26.25 26.25c-14.583 0-26.25-11.667-26.25-26.25s11.667-26.25 26.25-26.25zM189.167 558.083c14.583 0 26.25 11.667 26.25 26.25s-11.667 26.25-26.25 26.25c-14.583 0-26.25-11.667-26.25-26.25s11.667-26.25 26.25-26.25zM148.333 484.333c14.167 0 26.25 11.667 26.25 26.25s-12.083 26.667-26.25 26.667c-14.583 0-26.667-12.083-26.667-26.667s12.083-26.25 26.667-26.25zM106.667 411.417c14.583 0 26.25 11.667 26.25 26.25s-11.667 26.25-26.25 26.25c-14.583 0-26.25-11.667-26.25-26.25s11.667-26.25 26.25-26.25zM148.333 338.083c14.167 0 26.25 11.667 26.25 26.25s-12.083 26.25-26.25 26.25c-14.583 0-26.667-11.667-26.667-26.25s12.083-26.25 26.667-26.25zM189.167 264.333c14.583 0 26.25 11.667 26.25 26.25s-11.667 26.25-26.25 26.25c-14.583 0-26.25-11.667-26.25-26.25s11.667-26.25 26.25-26.25zM230.833 191.417c14.583 0 26.25 11.667 26.25 26.25s-11.667 26.25-26.25 26.25c-14.583 0-26.25-11.667-26.25-26.25s11.667-26.25 26.25-26.25zM272.5 118.083c14.167 0 26.25 11.667 26.25 26.25s-12.083 26.25-26.25 26.25c-14.583 0-26.667-11.667-26.667-26.25s12.083-26.25 26.667-26.25zM313.333 44.333c14.583 0 26.25 12.083 26.25 26.667s-11.667 26.25-26.25 26.25c-14.583 0-26.25-11.667-26.25-26.25s11.667-26.667 26.25-26.667z" />
<glyph unicode="&#xe919;" glyph-name="icon26" d="M882.167-7.75c50.417 0 91.667 41.25 91.667 92.083 0 37.917-22.917 70.417-55.417 84.583l-16.25 391.667c34.167 13.333 58.75 47.083 58.75 86.25 0 50.833-41.25 92.083-91.667 92.083-33.333 0-62.5-17.5-78.75-44.167l-323.333 90.417c-1.667 49.167-42.5 88.75-91.667 88.75-50.833 0-92.5-41.25-92.5-92.083 0-26.667 11.667-50.833 30-67.5l-181.667-348.75c-3.333 0.417-7.083 0.833-10.417 0.833-50.833 0-92.5-41.667-92.5-92.083 0-50.833 41.667-92.5 92.5-92.5 35.417 0 66.667 20.833 81.667 50.833l590.833-172.917c10.833-38.75 46.667-67.5 88.75-67.5zM797.167 120.167l-586.667 172.5c-3.333 16.667-11.25 32.083-22.5 44.167l181.667 352.917h5.833c29.583 0 56.25 14.167 72.917 36.25l329.583-91.667c5-35.417 30-64.583 63.333-75.417l13.75-386.25c-25.833-8.333-47.083-27.5-57.917-52.5z" />
<glyph unicode="&#xe91a;" glyph-name="icon27" d="M501.542 29.75c220.833 0 403.75 182.917 403.75 404.167 0 220.833-183.333 403.75-404.167 403.75s-403.75-182.917-403.75-403.75c0-221.25 183.333-404.167 404.167-404.167zM501.542 101.833c-184.167 0-331.667 147.5-331.667 332.083 0 184.167 147.083 332.083 331.25 332.083s332.083-147.917 332.501-332.083c0.416-184.583-147.918-332.083-332.084-332.083z" />
<glyph unicode="&#xe91b;" glyph-name="icon28" d="M750.958 68.5c83.333 0 125.833 42.083 125.833 124.583v480.833c0 82.083-42.5 124.167-125.833 124.167h-477.917c-83.333 0-125.833-41.667-125.833-124.167v-480.833c0-82.5 42.5-124.583 125.833-124.583h477.917zM748.458 137.25h-472.917c-38.333 0-59.583 20.417-59.583 60.417v471.667c0 40 21.25 60 59.583 60h472.917c37.917 0 59.583-20 59.583-60v-471.667c0-40-21.667-60.417-59.583-60.417z" />
<glyph unicode="&#xe91c;" glyph-name="icon29" d="M684.792 432.125c80.042 0 145.563 70.833 145.563 157.958 0 85.708-65.167 153.708-145.563 153.708-80.042 0-145.563-69.062-145.21-154.417 0-86.771 65.168-157.25 145.21-157.25zM298.042 424.333c69.417 0 126.437 62.333 126.437 138.833 0 74.729-56.312 134.937-126.437 134.937-69.417 0-126.437-61.271-126.437-135.646 0.354-76.146 57.021-138.125 126.437-138.125zM684.792 485.25c-48.167 0-88.896 45.687-88.896 104.125-0.354 57.021 40.375 100.938 88.896 100.938 48.875 0 88.896-43.208 88.896-100.229 0-58.438-40.375-104.833-88.896-104.833zM298.042 476.75c-40.021 0-74.021 38.25-74.021 85.708 0 46.042 33.646 83.229 74.021 83.229 41.083 0 74.021-36.479 74.021-82.521 0-48.167-33.646-86.417-74.021-86.417zM374.188 116.917c-16.646 9.562-28.688 31.167-26.563 52.062h-241.896c-6.729 0-9.563 2.833-9.563 9.208 0 80.75 93.146 156.896 201.521 156.896 40.375 0 78.271-9.917 109.792-27.625 10.625 14.167 23.729 26.563 39.667 37.896-42.854 27.625-95.271 41.792-149.458 41.792-140.958 0-255-101.646-255-212.854 0-38.25 23.375-57.375 69.417-57.375h262.083zM894.458 116.917c56.667 0 83.583 17.354 83.583 54.896 0 89.25-112.271 214.979-293.25 214.979-181.333 0-293.604-125.729-293.604-214.979 0-37.542 27.271-54.896 83.583-54.896h419.688zM908.625 170.042h-448.021c-8.5 0-11.687 2.479-11.687 9.208 0 53.833 84.292 154.417 235.875 154.417s235.875-100.583 235.875-154.417c0-6.729-3.542-9.208-12.042-9.208z" />
<glyph unicode="&#xe91d;" glyph-name="icon30" d="M202.167 45.583c17.917 0 32.083 14.167 32.083 32.083v217.5c10.417 4.583 45.833 17.917 101.25 17.917 145 0 238.333-71.667 376.667-71.667 61.25 0 85.833 7.083 116.25 20.833 27.5 12.5 45 33.75 45 70v397.5c0 22.917-19.167 36.667-43.333 36.667-20.417 0-56.25-16.25-122.5-16.25-137.917 0-231.667 71.667-376.667 71.667-61.25 0-85.417-7.083-116.25-20.833-27.083-12.5-45-32.917-45-68.75v-654.583c0-17.5 15-32.083 32.5-32.083zM711.75 306.417c-130 0-225 71.25-375.833 71.25-41.25 0-79.167-5-101.25-13.75v363.75c6.25 12.083 37.917 29.167 96.667 29.167 137.083 0 232.083-71.25 375.833-71.25 41.25 0 75.417 5 101.25 12.083v-362.083c-6.25-12.083-37.917-29.167-96.667-29.167z" />
<glyph unicode="&#xe91e;" glyph-name="icon31" d="M814.667 171.833c38.333 0 61.25 20 61.25 50.417 0 40-39.167 75.833-73.75 110.417-26.667 27.083-33.333 83.333-37.083 130.833-4.167 149.167-45 252.5-148.75 290-15.417 51.667-57.083 92.083-115 92.083-58.333 0-99.583-40.417-115-92.083-103.75-37.5-144.583-140.833-148.75-290-3.75-47.5-10.417-103.75-37.083-130.833-34.583-34.583-74.167-70.417-74.167-110.417 0-30.417 23.333-50.417 61.667-50.417h626.667zM501.333 12.667c67.917 0 117.5 49.167 122.5 105h-245c5-55.833 54.583-105 122.5-105z" />
<glyph unicode="&#xe91f;" glyph-name="icon32" d="M522.667 124.167c285.75 0 481.125 230.625 481.125 302.25 0 72-196.125 302.25-481.125 302.25-281.625 0-481.5-230.25-481.5-302.25 0-71.625 199.875-302.25 481.5-302.25zM522.667 229.917c-109.5 0-196.5 89.625-197.251 196.5-0.374 109.875 87.751 196.125 197.251 196.125 109.125 0 197.25-86.625 197.25-196.125 0-106.875-88.125-196.5-197.25-196.5zM523.042 354.792c39.375 0 72 32.625 72 71.625 0 39.375-32.625 72-72 72-40.125 0-72.75-32.625-72.75-72 0-39 32.625-71.625 72.75-71.625z" />
<glyph unicode="&#xe920;" glyph-name="icon33" d="M828.125 117.042c11.625 11.625 10.875 28.125 0 39l-595.875 595.5c-10.875 10.875-28.5 10.875-39.375 0-10.5-10.5-10.5-28.5 0-39l596.25-595.5c10.875-10.875 28.125-11.625 39 0zM822.5 221.667c103.5 68.625 170.625 162.75 170.625 204.75 0 72-196.125 302.25-481.125 302.25-60.375 0-116.625-10.125-168-27.375l93.75-93.75c22.875 9.75 48 15 74.25 15 109.125 0 197.25-86.625 197.25-196.125 0-26.25-5.625-51.75-16.125-73.875l129.375-130.875zM512 124.167c65.625 0 126 11.625 179.625 31.5l-94.5 94.5c-25.5-13.125-54.375-20.25-85.125-20.25-109.5 0-196.875 89.625-197.25 196.5 0 31.125 7.125 60.375 19.875 86.25l-123.375 124.125c-111.375-70.125-180.75-168-180.75-210.375 0-71.625 199.875-302.25 481.5-302.25zM624.5 420.792c0.375 4.125 0.75 8.625 0.75 13.125 0 61.875-49.875 112.125-112.5 112.125-4.5 0-9 0-12.75-0.75l124.5-124.5zM512 321.042c4.5 0 9 0.375 13.875 0.75l-126.375 126.375c-0.375-4.875-0.75-9.75-0.75-14.625 0-61.875 51.375-112.5 113.25-112.5z" />
<glyph unicode="&#xe921;" glyph-name="icon34" d="M512 0.042c9.375 0 32.625 46.875 32.625 99.75v166.5h191.25c32.625 0 53.25 20.25 53.25 51 0 75.375-60 154.125-160.125 190.875l-11.625 163.5c52.5 29.625 94.5 62.625 112.875 86.625 9.75 12.375 13.875 24.375 13.875 35.625 0 22.125-16.875 38.625-42.375 38.625h-379.125c-25.875 0-42.75-16.5-42.75-38.625 0-11.25 4.5-23.25 13.875-35.625 18.375-24 60.75-57 112.875-86.625l-11.625-163.5c-99.75-36.75-160.125-115.5-160.125-190.875 0-30.75 21-51 53.25-51h191.25v-166.5c0-52.875 23.625-99.75 32.625-99.75z" />
<glyph unicode="&#xe922;" glyph-name="icon35" d="M798.042 465.167c52.5 0 78.75 26.25 78.75 80.417v172.083c0 54.583-26.25 80.417-78.75 80.417h-175.417c-52.5 0-78.75-25.833-78.75-80.417v-172.083c0-54.167 26.25-80.417 78.75-80.417h175.417zM401.375 465.167c52.5 0 78.75 26.25 78.75 80.417v172.083c0 54.583-26.25 80.417-78.75 80.417h-175.417c-52.5 0-78.75-25.833-78.75-80.417v-172.083c0-54.167 26.25-80.417 78.75-80.417h175.417zM400.958 523.5h-175c-13.75 0-20.833 7.083-20.833 21.667v173.333c0 14.583 7.083 21.667 20.833 21.667h175c13.75 0 20.833-7.083 20.833-21.667v-173.333c0-14.583-7.083-21.667-20.833-21.667zM798.042 523.5h-175c-14.167 0-21.25 7.083-21.25 21.667v173.333c0 14.583 7.083 21.667 21.25 21.667h175c13.75 0 20.833-7.083 20.833-21.667v-173.333c0-14.583-7.083-21.667-20.833-21.667zM347.625 589.333c5.833 0 8.333 2.5 8.333 9.583v66.25c0 6.25-2.5 8.75-8.333 8.75h-68.333c-5.833 0-7.917-2.5-7.917-8.75v-66.25c0-7.083 2.083-9.583 7.917-9.583h68.333zM746.375 589.333c5.833 0 8.333 2.5 8.333 9.583v66.25c0 6.25-2.5 8.75-8.333 8.75h-68.333c-5.833 0-7.917-2.5-7.917-8.75v-66.25c0-7.083 2.083-9.583 7.917-9.583h68.333zM401.375 68.5c52.5 0 78.75 26.25 78.75 80.417v172.083c0 54.583-26.25 80.417-78.75 80.417h-175.417c-52.5 0-78.75-25.833-78.75-80.417v-172.083c0-54.167 26.25-80.417 78.75-80.417h175.417zM639.292 298.083c5.833 0 8.333 2.5 8.333 9.583v66.25c0 6.25-2.5 8.75-8.333 8.75h-68.333c-5.833 0-7.917-2.5-7.917-8.75v-66.25c0-7.083 2.083-9.583 7.917-9.583h68.333zM849.292 298.083c5.833 0 8.333 2.5 8.333 9.583v66.25c0 6.25-2.5 8.75-8.333 8.75h-68.333c-6.25 0-7.917-2.5-7.917-8.75v-66.25c0-7.083 1.667-9.583 7.917-9.583h68.333zM400.958 126.833h-175c-13.75 0-20.833 7.083-20.833 21.25v173.75c0 14.583 7.083 21.667 20.833 21.667h175c13.75 0 20.833-7.083 20.833-21.667v-173.75c0-14.167-7.083-21.25-20.833-21.25zM745.125 193.083c5.833 0 8.333 2.5 8.333 9.583v66.25c0 6.25-2.5 8.75-8.333 8.75h-68.333c-5.833 0-7.917-2.5-7.917-8.75v-66.25c0-7.083 2.083-9.583 7.917-9.583h68.333zM347.625 192.667c5.833 0 8.333 2.5 8.333 9.583v66.25c0 6.25-2.5 8.75-8.333 8.75h-68.333c-5.833 0-7.917-2.5-7.917-8.75v-66.25c0-7.083 2.083-9.583 7.917-9.583h68.333zM639.292 88.083c5.833 0 8.333 2.5 8.333 9.583v66.25c0 6.25-2.5 8.75-8.333 8.75h-68.333c-5.833 0-7.917-2.5-7.917-8.75v-66.25c0-7.083 2.083-9.583 7.917-9.583h68.333zM849.292 88.083c5.833 0 8.333 2.5 8.333 9.583v66.25c0 6.25-2.5 8.75-8.333 8.75h-68.333c-6.25 0-7.917-2.5-7.917-8.75v-66.25c0-7.083 1.667-9.583 7.917-9.583h68.333z" />
<glyph unicode="&#xe923;" glyph-name="icon36" d="M817.812 97.917c75 0 113.25 37.875 113.25 112.125v432.75c0 73.875-38.25 111.75-113.25 111.75h-611.625c-75 0-113.25-37.5-113.25-111.75v-432.75c0-74.25 38.25-112.125 113.25-112.125h611.625zM154.813 251.667v387c0 36 19.125 54 53.625 54h607.125c34.125 0 53.625-18 53.625-54v-385.5l-185.625 174.375c-15.75 13.875-34.125 21.375-53.25 21.375-19.5 0-37.125-6.375-53.25-21l-160.125-143.25-65.625 59.25c-15 13.5-31.5 20.25-48 20.25-16.125 0-31.125-6.375-45.75-19.875l-102.75-92.625zM361.063 422.292c46.125 0 84 37.5 84 84 0 46.125-37.875 84.375-84 84.375-46.5 0-84-38.25-84-84.375 0-46.5 37.5-84 84-84z" />
<glyph unicode="&#xe924;" glyph-name="icon37" d="M501.542 29.75c220.833 0 403.75 182.917 403.75 404.167 0 220.833-183.333 403.75-404.167 403.75s-403.75-182.917-403.75-403.75c0-221.25 183.333-404.167 404.167-404.167zM501.542 101.833c-184.167 0-331.667 147.5-331.667 332.083 0 184.167 147.083 332.083 331.25 332.083s332.083-147.917 332.501-332.083c0.416-184.583-147.918-332.083-332.084-332.083zM501.125 364.333c19.583 0 31.25 11.25 31.667 32.5l5.833 201.667c0.417 21.25-15.833 36.667-37.917 36.667-22.5 0-37.917-15-37.5-36.25l5.417-202.083c0.417-21.25 12.083-32.5 32.5-32.5zM501.125 235.167c23.75 0 43.75 18.333 43.75 41.667 0 23.75-19.583 42.083-43.75 42.083s-43.75-18.75-43.75-42.083c0-23.333 20-41.667 43.75-41.667z" />
<glyph unicode="&#xe925;" glyph-name="icon38" d="M522.875 29.75c220.833 0 403.75 182.917 403.75 404.167 0 220.833-183.333 403.75-404.167 403.75s-403.75-182.917-403.75-403.75c0-221.25 183.333-404.167 404.167-404.167zM522.875 101.833c-184.167 0-331.667 147.5-331.667 332.083 0 184.167 147.083 332.083 331.25 332.083s332.083-147.917 332.501-332.083c0.416-184.583-147.918-332.083-332.084-332.083zM522.042 246.833c21.667 0 34.583 15 34.583 38.333v114.167h120.833c22.917 0 38.333 12.5 38.333 33.75 0 22.083-14.583 35-38.333 35h-120.833v120.833c0 23.333-12.917 38.333-34.583 38.333s-34.167-15.833-34.167-38.333v-120.833h-120.417c-23.333 0-38.75-12.917-38.75-35 0-21.25 16.25-33.75 38.75-33.75h120.417v-114.167c0-22.5 12.5-38.333 34.167-38.333z" />
<glyph unicode="&#xe926;" glyph-name="icon39" d="M874.333 771.417l28.75 30c13.75 14.167 14.167 34.583 0.417 48.333l-9.583 9.583c-12.5 12.5-32.917 10.833-46.25-2.5l-29.583-28.75 56.25-56.667zM422.667 364.75l77.917 33.333 344.583 344.583-56.25 55.833-344.167-344.583-35.417-75.417c-3.333-7.5 5.417-17.083 13.333-13.75zM718.917 69.75c72.083 0 114.583 42.083 114.583 124.167v436.25l-68.75-68.75v-362.917c0-40-21.667-60.417-48.333-60.417h-456.667c-38.333 0-59.583 20.417-59.583 60.417v444.167c0 40 21.25 60.417 59.583 60.417h333.333l68.75 68.333h-404.583c-83.333 0-125.833-41.667-125.833-124.167v-453.333c0-82.5 42.5-124.167 125.833-124.167h461.667z" />
<glyph unicode="&#xe927;" glyph-name="icon40" d="M429.5 84.75c18.333 0 32.5 7.917 42.917 23.333l371.667 582.917c7.5 12.083 10.833 21.667 10.833 31.25 0 23.75-16.25 40-40.417 40-16.667 0-26.25-6.25-36.667-22.5l-350-556.667-180.833 235.417c-10.417 14.167-20.833 20-36.25 20-24.583 0-41.667-16.667-41.667-40.417 0-10 4.167-20.833 12.5-31.25l204.583-258.75c12.5-15.833 25.417-23.333 43.333-23.333z" />
<glyph unicode="&#xe928;" glyph-name="icon41" d="M772.375 24.75c17.083 12.5 20.833 33.75 10.417 63.333l-81.667 243.75 209.167 150c25 17.917 35.417 37.083 28.75 57.5s-26.25 30-57.083 29.583l-256.667-1.667-77.917 245c-10 30-24.583 45.417-45.833 45.417-21.667 0-36.25-15.417-46.25-45.417l-77.917-245-256.667 1.667c-30.833 0.417-50.417-9.167-57.083-29.583-7.083-20.417 3.75-39.583 28.75-57.5l209.167-150-81.667-243.75c-10.417-29.583-6.667-50.833 10.417-63.333 17.083-13.333 38.333-8.75 63.75 9.583l207.5 152.083 207.083-152.083c25.417-18.333 46.667-22.917 63.75-9.583z" />
<glyph unicode="&#xe929;" glyph-name="icon42" d="M791.25 24.75c17.083 12.5 20.833 33.75 10.417 63.333l-81.667 243.75 209.167 150c25 17.917 35.417 37.083 28.75 57.5s-26.25 30-57.083 29.583l-256.667-1.667-77.917 245c-10 30-24.583 45.417-45.833 45.417-21.667 0-36.25-15.417-46.25-45.417l-77.917-245-256.667 1.667c-30.833 0.417-50.417-9.167-57.083-29.583-7.083-20.417 3.75-39.583 28.75-57.5l209.167-150-81.667-243.75c-10.417-29.583-6.667-50.833 10.417-63.333 17.083-13.333 38.333-8.75 63.75 9.583l207.5 152.083 207.083-152.083c25.417-18.333 46.667-22.917 63.75-9.583zM726.25 109.333l-185 142.083c-7.083 5.417-14.167 8.333-20.833 7.917v494.583c0.833 0 1.667-0.833 2.083-2.917l66.667-223.333c5-17.917 15.417-24.167 33.333-23.75l233.333 4.583c2.083 0 2.917 0 3.333-1.25 0.417-0.833 0-1.667-2.083-2.917l-192.083-132.5c-15.417-10.417-17.917-22.5-12.083-39.167l77.083-220.417 0.42-2.040c0.13-0.66 0.080-0.96-0.42-1.71-0.833-0.833-1.667-0.417-3.75 0.833z" />
<glyph unicode="&#xe92a;" glyph-name="icon43" d="M501.542 437.667c85 0 157.917 76.25 157.917 174.583 0 97.083-73.333 170-157.917 170-85 0-158.333-74.583-158.333-170.833 0.417-97.5 72.917-173.75 158.333-173.75zM748.208 72.25c62.917 0 85 18.333 85 53.333 0 101.667-127.5 241.667-332.083 241.667-204.167 0-332.083-140-332.083-241.667 0-35 22.083-53.333 85.417-53.333h493.75z" />
<glyph unicode="&#xe92b;" glyph-name="icon44" d="M687.312 437.083c72.25 0 134.229 64.813 134.229 148.396 0 82.521-62.333 144.5-134.229 144.5-72.25 0-134.583-63.396-134.583-145.208 0-82.875 61.979-147.688 134.583-147.688zM300.917 429.292c62.687 0 116.875 56.667 116.875 129.625 0 71.896-54.188 125.375-116.875 125.375s-117.229-54.896-117.229-126.083c0-72.25 54.187-128.917 117.229-128.917zM368.208 126.479c-35.417 50.646 6.021 152.292 79.333 208.958-37.187 24.792-85 42.854-146.979 42.854-150.521 0-245.792-111.208-245.792-203.292 0-31.167 16.646-48.521 60.208-48.521h253.229zM896.979 126.479c53.479 0 72.25 15.583 72.25 45.333 0 86.417-108.375 205.417-282.271 205.417-173.542 0-282.271-119-282.271-205.417 0-29.75 18.771-45.333 72.25-45.333h420.042z" />
<glyph unicode="&#xe92c;" glyph-name="icon45" d="M501.542 29.75c220.833 0 403.75 182.917 403.75 404.167 0 220.833-183.333 403.75-404.167 403.75s-403.75-182.917-403.75-403.75c0-221.25 183.333-404.167 404.167-404.167zM501.542 101.833c-184.167 0-331.667 147.5-331.667 332.083 0 184.167 147.083 332.083 331.25 332.083s332.083-147.917 332.501-332.083c0.416-184.583-147.918-332.083-332.084-332.083zM451.958 236c13.333 0 24.583 6.667 32.917 19.167l193.75 304.167c5.417 7.917 10 17.083 10 25.833 0 18.75-16.667 30.833-34.167 30.833-10.833 0-20.833-6.25-28.333-18.75l-175.833-281.25-90.833 116.25c-8.75 11.667-18.333 16.25-29.583 16.25-17.917 0-32.083-14.583-32.083-32.917 0-8.75 3.333-17.5 9.583-25.417l109.583-135c10.833-13.333 21.25-19.167 35-19.167z" />
<glyph unicode="&#xe92d;" glyph-name="icon46" d="M501.542 29.75c220.833 0 403.75 182.917 403.75 404.167 0 220.833-183.333 403.75-404.167 403.75s-403.75-182.917-403.75-403.75c0-221.25 183.333-404.167 404.167-404.167zM501.542 101.833c-184.167 0-331.667 147.5-331.667 332.083 0 184.167 147.083 332.083 331.25 332.083s332.083-147.917 332.501-332.083c0.416-184.583-147.918-332.083-332.084-332.083zM537.792 267.667c8.75 0 16.25 2.917 22.083 8.75l133.333 132.917c7.5 7.5 11.667 15 11.667 25 0 8.75-3.333 16.25-11.667 24.583l-133.333 132.917c-5.833 5.833-13.333 8.333-22.083 8.333-16.667 0-29.167-12.5-29.167-29.583 0-8.75 3.75-16.667 9.167-22.083l48.75-47.917 46.25-38.333-82.083 3.333h-201.25c-17.917 0-31.25-13.333-31.25-31.667 0-17.917 12.917-31.25 31.25-31.25h201.25l82.5 3.333-46.667-38.75-48.75-47.5c-5.833-5.417-9.167-12.917-9.167-22.083 0-17.083 12.5-30 29.167-30z" />
<glyph unicode="&#xe92e;" glyph-name="icon47" d="M711.125 9.333c82.083 0 124.167 42.5 124.167 125.833v357.917c0 52.083-6.25 75-38.75 108.333l-213.75 217.083c-30.833 31.667-56.667 38.75-102.917 38.75h-188.333c-82.083 0-124.167-42.5-124.167-125.417v-596.667c0-83.75 42.083-125.833 124.167-125.833h419.583zM706.542 77.667h-410.417c-40 0-60 21.25-60 59.583v592.083c0 37.917 20 59.583 60 59.583h172.5v-224.167c0-52.083 26.25-77.5 77.917-77.5h220v-350c0-38.333-20.417-59.583-60-59.583zM754.875 549.75h-201.25c-15.833 0-22.5 6.667-22.5 22.5v205l223.75-227.5zM501.125 127.667c8.333 0 15.417 2.917 23.75 10.833l111.667 102.917c6.667 5.833 10.417 12.5 10.417 22.083 0 16.25-12.5 27.917-28.75 27.917-8.333 0-16.25-3.333-22.083-9.583l-65.833-67.5 2.917 62.917v135c0 17.083-15 30.417-32.083 30.417-16.667 0-31.667-13.333-31.667-30.417v-135l2.917-62.917-32.5 33.333-33.75 34.167c-5.417 6.25-13.75 9.583-21.667 9.583-16.667 0-28.75-11.667-28.75-27.917 0-9.583 3.75-16.25 10.417-22.083l111.667-102.917c8.333-7.917 15-10.833 23.333-10.833z" />
<glyph unicode="&#xe92f;" glyph-name="icon48" d="M581.724-20.74c72.187 0 106.823 37.188 106.823 109.74v62.344h67.448c72.187 0 108.646 37.552 108.646 110.104v288.385c0 43.75-8.75 71.094-35 98.073l-173.177 176.823c-25.521 25.521-54.687 35-92.604 35h-141.458c-71.823 0-108.646-37.188-108.646-110.104v-63.802h-67.448c-71.823 0-108.646-37.187-108.646-110.104v-486.719c0-72.917 36.823-109.74 108.646-109.74h335.417zM751.984 211.5h-63.437v154.948c0 45.208-5.469 65.26-33.177 93.698l-189.219 192.5c-26.615 27.344-49.219 33.177-88.958 33.177h-3.281v61.979c0 33.177 17.5 52.135 52.5 52.135h143.646v-176.823c0-41.198 20.781-61.25 61.25-61.25h173.542v-298.229c0-33.542-17.865-52.135-52.865-52.135zM793.547 614.365h-154.219c-12.031 0-16.771 4.74-16.771 16.771v157.135l170.99-173.906zM575.891 39.052h-325.573c-35 0-52.5 18.594-52.5 52.135v482.708c0 33.177 17.5 52.135 52.5 52.135h117.396v-196.146c0-45.573 22.969-67.812 68.177-67.812h192.865v-270.885c0-33.542-17.865-52.135-52.865-52.135zM618.547 416.76h-176.094c-14.219 0-19.687 5.833-19.687 19.688v179.375l195.781-199.063z" />
<glyph unicode="&#xe930;" glyph-name="icon49" d="M501.542 29.75c220.833 0 403.75 182.917 403.75 404.167 0 220.833-183.333 403.75-404.167 403.75s-403.75-182.917-403.75-403.75c0-221.25 183.333-404.167 404.167-404.167zM501.542 101.833c-184.167 0-331.667 147.5-331.667 332.083 0 184.167 147.083 332.083 331.25 332.083s332.083-147.917 332.501-332.083c0.416-184.583-147.918-332.083-332.084-332.083zM338.625 236.417l224.167 108.333c12.917 6.25 21.667 15.417 27.917 27.917l107.5 223.333c13.333 27.5-6.667 48.333-35 35l-223.333-107.917c-12.083-5.833-20.833-14.167-27.5-27.917l-108.333-223.75c-12.5-26.667 7.917-47.5 34.583-35zM501.542 384.75c-27.083 0-48.75 21.667-48.75 48.75 0 26.667 21.667 48.75 48.75 48.75 26.667 0 48.75-22.083 48.75-48.75 0-27.083-22.083-48.75-48.75-48.75z" />
<glyph unicode="&#xe931;" glyph-name="icon50" d="M668.042 89.333c22.5 0 39.583 17.083 39.583 39.583 0 10.833-4.583 20.833-11.667 28.333l-283.333 276.667 283.333 277.083c7.083 7.5 11.667 17.5 11.667 28.333 0 22.083-17.083 39.583-39.583 39.583-11.25 0-20.417-4.167-27.917-11.667l-310.417-303.333c-8.75-7.917-13.333-18.75-13.333-30s4.583-21.25 13.333-29.583l310.417-303.333c7.5-7.5 16.667-11.667 27.917-11.667z" />
<glyph unicode="&#xe932;" glyph-name="icon51" d="M355.958 89.333c11.25 0 20.417 4.167 27.917 11.25l310.417 303.75c8.75 8.333 13.333 18.333 13.333 29.583s-4.583 22.083-12.917 30l-310.417 303.333c-7.5 7.5-17.083 11.667-28.333 11.667-22.083 0-39.583-17.5-39.583-39.583 0-10.833 4.583-20.833 11.667-28.333l283.333-277.083-283.333-276.667c-7.083-7.5-11.667-17.5-11.667-28.333 0-22.5 17.5-39.583 39.583-39.583z" />
<glyph unicode="&#xe933;" glyph-name="icon52" d="M711.125 9.333c82.083 0 124.167 42.5 124.167 125.833v357.917c0 52.083-6.25 75-38.75 108.333l-213.75 217.083c-30.833 31.667-56.667 38.75-102.917 38.75h-188.333c-82.083 0-124.167-42.5-124.167-125.417v-596.667c0-83.75 42.083-125.833 124.167-125.833h419.583zM706.542 77.667h-410.417c-40 0-60 21.25-60 59.583v592.083c0 37.917 20 59.583 60 59.583h172.5v-224.167c0-52.083 26.25-77.5 77.917-77.5h220v-350c0-38.333-20.417-59.583-60-59.583zM754.875 549.75h-201.25c-15.833 0-22.5 6.667-22.5 22.5v205l223.75-227.5zM644.042 331.417c14.167 0 24.583 11.25 24.583 25 0 13.333-10.417 24.167-24.583 24.167h-294.167c-14.583 0-25-10.833-25-24.167 0-13.75 10.417-25 25-25h294.167zM644.042 196c14.167 0 24.583 10.417 24.583 24.167s-10.417 24.583-24.583 24.583h-294.167c-14.583 0-25-10.833-25-24.583s10.417-24.167 25-24.167h294.167z" />
<glyph unicode="&#xe934;" glyph-name="icon53" d="M468.625 70.583c27.917 0 48.333 20.833 48.333 48.333v147.917h10.833c150 0 243.75-40 310-164.583 14.167-26.25 32.917-31.25 50.833-31.25 23.333 0 43.333 21.667 43.333 60.833 0 289.583-124.583 468.75-404.167 468.75h-10.833v146.25c0 27.5-20.417 50.417-49.167 50.417-20 0-32.5-9.583-55-28.75l-311.667-290.833c-15-15-20.417-30-20.417-43.75 0-13.333 5.833-28.75 20.417-43.333l311.667-293.75c20.417-17.083 35.833-26.25 55.833-26.25zM444.875 161c-2.083 0-4.167 1.25-6.667 3.333l-276.667 262.083c-3.333 2.917-4.167 5.417-4.167 7.5 0 2.5 0.833 4.583 4.167 7.5l276.667 265c2.083 2.083 4.167 3.333 6.667 3.333 3.333 0 5.833-2.5 5.833-5.833v-153.75c0-9.167 4.167-12.917 12.917-12.917h52.083c265 0 349.167-181.25 356.25-367.917 0-2.917-0.833-4.167-2.5-4.167s-2.5 1.25-3.75 4.167c-45.417 99.167-165 161.25-350 161.25h-52.083c-8.75 0-12.917-4.167-12.917-13.333v-150c0-3.75-2.083-6.25-5.833-6.25z" />
<glyph unicode="&#xe935;" glyph-name="icon54" d="M502.417 273.083l55 55.833c-50 4.167-83.75 19.583-109.167 45-67.917 67.917-67.917 164.583 0 232.083l129.167 129.167c68.333 67.917 164.167 68.333 232.083 0.417 68.333-68.75 67.917-164.583 0.417-232.083l-73.75-73.75c11.25-26.667 14.583-57.917 9.583-85.417l114.583 114.583c95.417 95 95.833 230.417-0.417 326.667-96.667 96.667-231.667 95.833-326.667 0.417l-135.833-135.833c-95-95-95.833-230.417 0.417-326.667 24.583-24.167 55.833-41.667 104.583-50.417zM490.75 87.667l135.417 135.833c95.417 95.417 95.833 230.417-0.417 327.083-24.167 24.167-55.417 41.667-104.167 50l-55.417-55.417c50.417-4.583 84.167-20 109.167-45 68.333-67.917 67.917-164.583 0.417-232.083l-129.583-129.167c-67.917-67.917-163.75-68.333-231.667-0.417-68.75 68.333-67.917 164.583-0.417 232.083l73.75 73.75c-11.25 26.25-14.583 57.917-9.583 85l-114.583-114.167c-95.417-95.417-96.25-230.417 0.417-327.083 96.25-96.25 231.25-95.417 326.667-0.417z" />
<glyph unicode="&#xe936;" glyph-name="icon55" d="M783.042 24.75c17.083 12.5 20.833 33.75 10.417 63.333l-81.667 243.75 209.167 150c25 17.917 35.417 37.083 28.75 57.5s-26.25 30-57.083 29.583l-256.667-1.667-77.917 245c-10 30-24.583 45.417-45.833 45.417-21.667 0-36.25-15.417-46.25-45.417l-77.917-245-256.667 1.667c-30.833 0.417-50.417-9.167-57.083-29.583-7.083-20.417 3.75-39.583 28.75-57.5l209.167-150-81.667-243.75c-10.417-29.583-6.667-50.833 10.417-63.333 17.083-13.333 38.333-8.75 63.75 9.583l207.5 152.083 207.083-152.083c25.417-18.333 46.667-22.917 63.75-9.583zM718.042 109.333l-185 142.083c-13.75 10.833-28.333 10.833-42.083 0l-185-142.083c-2.083-1.25-2.917-1.667-3.75-0.833-0.833 1.25-0.417 1.25 0 3.75l77.083 220.417c5.833 16.667 3.333 28.75-12.083 39.167l-192.083 132.5c-2.083 1.25-2.5 2.083-2.083 2.917 0.417 1.25 1.25 1.25 3.75 1.25l232.917-4.583c17.917-0.417 28.333 5.833 33.333 23.75l66.667 223.333c0.417 2.083 1.25 2.917 2.5 2.917 0.833 0 1.667-0.833 2.083-2.917l66.667-223.333c5-17.917 15.417-24.167 33.333-23.75l233.333 4.583c2.083 0 2.917 0 3.333-1.25 0.417-0.833 0-1.667-2.083-2.917l-192.083-132.5c-15.417-10.417-17.917-22.5-12.083-39.167l77.083-220.417 0.42-2.040c0.13-0.66 0.080-0.96-0.42-1.71-0.833-0.833-1.667-0.417-3.75 0.833z" />
<glyph unicode="&#xe937;" glyph-name="icon56" d="M508.042 24.333c31.25 0 48.333 29.167 63.333 61.667l300.833 649.167c7.917 16.25 11.667 30.417 11.667 42.917 0 27.5-20.417 47.917-48.333 47.917-12.083 0-26.667-3.75-42.917-11.25l-649.167-300.417c-31.25-14.583-61.667-32.083-61.667-63.75 0-32.917 31.667-50 72.917-50l294.167-1.25c5.833 0 8.333-2.5 8.333-8.333l0.833-293.75c0-40 16.25-72.917 50-72.917zM520.125 131.417l2.083 303.333c0 18.75-10.833 30-30.417 30l-302.917-2.083c-3.333 0-3.75 3.75 0 5.417l612.5 281.25c5 2.083 7.917-0.417 5.417-5.833l-281.25-612.5c-1.667-3.75-5.417-2.5-5.417 0.417z" />
<glyph unicode="&#xe938;" glyph-name="icon57" d="M501.542 100.583c20.833 0 38.333 17.083 38.333 37.5v256.667h250c20.417 0 38.333 17.5 38.333 38.75 0 20.833-17.917 38.333-38.333 38.333h-250v257.083c0 20.833-17.5 37.917-38.333 37.917-21.25 0-38.75-17.083-38.75-37.917v-257.083h-250c-20.417 0-38.333-17.5-38.333-38.333 0-21.25 17.917-38.75 38.333-38.75h250v-256.667c0-20.417 17.5-37.5 38.75-37.5z" />
<glyph unicode="&#xe939;" glyph-name="icon58" d="M789.875 394.75c20.417 0 38.333 17.5 38.333 38.75 0 20.833-17.917 38.333-38.333 38.333h-577.083c-20.417 0-38.333-17.5-38.333-38.333 0-21.25 17.917-38.75 38.333-38.75h577.083z" />
<glyph unicode="&#xe93a;" glyph-name="checked" d="M169.106 397.97l-156.672 197.266c-20.48 25.6-15.141 62.171 11.703 81.627 27.063 19.237 65.317 14.19 85.723-11.483l103.131-129.609 259.072 396.873c17.847 27.282 55.589 35.621 84.114 18.651 28.745-16.969 37.522-52.882 19.602-80.238l-306.030-468.773c-10.679-16.238-29.038-26.478-49.152-27.355h-2.779c-19.017 0-37.157 8.558-48.713 23.186z" />
<glyph unicode="&#xe93b;" glyph-name="icon59" d="M512 361.833c16.25 0 31.667 5.417 51.25 16.667l307.917 178.75c32.083 18.75 45.417 33.75 45.417 56.667s-13.333 37.917-45.417 57.083l-307.917 178.333c-19.583 11.667-35 16.667-51.25 16.667s-31.667-5-51.25-16.667l-307.917-178.333c-32.083-19.167-45.417-34.167-45.417-57.083s13.333-37.917 45.417-56.667l307.917-178.75c19.583-11.25 35-16.667 51.25-16.667zM512 435.583c-5.417 0-10.833 1.667-17.083 5.417l-296.25 169.167c-1.667 0.833-2.917 2.083-2.917 3.75 0 2.083 1.25 2.917 2.917 3.75l296.25 169.583c6.25 3.333 11.667 5.417 17.083 5.417s10.417-2.083 17.083-5.417l296.25-169.583c1.667-0.833 2.917-1.667 2.917-3.75 0-1.667-1.25-2.917-2.917-3.75l-296.25-169.167c-6.667-3.75-11.667-5.417-17.083-5.417zM512 167.25c14.583 0 27.5 7.083 44.583 17.083l335.833 198.333c16.667 9.583 24.583 23.75 24.583 37.917 0 17.083-12.083 30.833-24.167 37.083l-362.917-210c-7.083-3.75-12.5-6.667-17.917-6.667s-10.833 2.917-17.917 6.667l-362.917 210c-12.083-6.25-24.167-20-24.167-37.083 0-14.167 8.333-28.75 24.167-37.917l336.25-198.333c17.083-10 30-17.083 44.583-17.083zM512-15.25c14.583 0 27.5 7.083 44.583 17.083l335.833 198.333c16.25 9.167 24.583 23.75 24.583 37.917 0 17.083-12.083 30.833-24.167 37.083l-362.917-210c-7.083-3.75-12.5-6.667-17.917-6.667s-10.833 2.917-17.917 6.667l-362.917 210c-12.083-6.25-24.167-20-24.167-37.083 0-14.167 8.333-28.75 24.167-37.917l336.25-198.333c17.083-10 30-17.083 44.583-17.083z" />
<glyph unicode="&#xe93c;" glyph-name="icon60" d="M617.833 410.167l253.333 147.083c32.5 18.75 45.417 33.75 45.417 56.667s-12.917 37.917-45.417 57.083l-307.917 178.333c-19.583 11.667-35 16.667-51.25 16.667s-31.667-5-51.25-16.667l-178.333-103.333 50.833-51.25 161.667 92.5c6.667 3.333 11.667 5.417 17.083 5.417s10.833-2.083 17.083-5.417l296.25-169.583c1.667-0.833 2.917-1.667 2.917-3.75 0-1.667-1.25-2.917-2.917-3.75l-259.167-147.917 51.667-52.083zM907.833 8.083c11.667 12.083 12.083 31.667 0 43.75l-785.417 785c-12.083 12.083-31.667 12.083-43.75 0-11.667-11.667-11.667-31.667 0-43.333l785.833-785.417c11.667-11.667 31.667-12.083 43.333 0zM352.417 441.833l-216.25 216.25c-20.833-14.583-28.75-27.5-28.75-45 0-21.667 12.083-36.25 42.917-54.583l202.083-116.667zM512 167.25c15 0 27.5 6.667 44.583 17.083l39.583 23.333-51.667 52.083-21.25-12.083c-5.417-3.333-10-5.417-14.167-5.417s-9.167 2.083-15 5.417l-362.917 210c-11.667-6.25-23.75-20-23.75-37.083 0-14.167 7.917-28.75 24.167-37.917l335.833-198.333c17.5-10 30-17.083 44.583-17.083zM737 290.583l155.833 92.083c16.25 9.583 24.167 23.75 24.167 37.917 0 17.083-12.083 30.833-24.167 37.083l-204.167-117.917 48.333-49.167zM512-15.25c15 0 27.5 7.083 44.583 17.083l154.583 90.833-49.167 49.167-132.083-76.667c-7.083-3.75-12.5-6.667-17.917-6.667-5 0-10.833 2.917-17.917 6.667l-362.917 210c-11.667-6.25-23.75-20-23.75-37.083 0-14.167 7.917-28.75 24.167-37.917l335.833-198.333c17.5-10 30-17.083 44.583-17.083zM852 176l42.917 25.417c14.583 9.167 22.083 23.333 22.083 36.667 0 17.083-12.083 30.833-24.167 37.083l-88.75-51.25 47.917-47.917z" />
<glyph unicode="&#xe93d;" glyph-name="icon61" d="M753.833 180.583c15.417 14.583 15 39.583 0.417 54.583l-198.333 198.333 198.333 198.333c14.583 14.583 15 39.583-0.417 54.167-14.583 15.417-39.583 15-54.167 0.417l-198.333-198.75-198.333 198.75c-14.583 14.167-40 15-54.583-0.417-15-14.583-14.583-39.583 0-54.167l198.333-198.333-198.333-198.75c-14.583-14.167-15-39.583 0-54.167 14.583-15 40-14.583 54.583 0l198.333 198.333 198.333-198.333c14.583-14.583 39.583-15 54.167 0z" />
<glyph unicode="&#xe93e;" glyph-name="icon62" d="M817.25 97.917c75 0 113.25 37.875 113.25 112.125v371.625c0 73.875-38.25 111.75-113.25 111.75h-81c-27.75 0-36.375 5.25-52.875 23.25l-28.125 31.125c-18 19.5-36.375 29.625-72.75 29.625h-143.25c-36.375 0-54.375-10.125-72.375-29.625l-28.5-31.125c-16.125-18-25.125-23.25-52.875-23.25h-78.75c-75 0-113.25-37.875-113.25-111.75v-371.625c0-74.25 38.25-112.125 113.25-112.125h610.5zM512 213.417c-107.625 0-193.875 86.25-193.875 194.25s86.25 194.25 193.875 194.25c107.625 0 193.875-86.25 193.875-194.25s-86.25-194.25-193.875-194.25zM768.5 492.792c-24.75 0-44.625 19.875-44.625 44.625s19.875 44.625 44.625 44.625c24.75 0 44.625-19.875 44.625-44.625s-19.875-44.625-44.625-44.625zM512 271.542c75.375 0 136.125 60.375 136.125 136.125s-60.75 136.5-136.125 136.5c-75.375 0-136.125-60.75-136.125-136.5s61.125-136.125 136.125-136.125z" />
<glyph unicode="&#xe93f;" glyph-name="icon63" d="M195.852 541.417c22.5 0 34.583 12.5 34.583 35v91.667c0 39.583 21.25 60 59.583 60h93.75c22.083 0 34.583 12.5 34.583 34.167 0 22.083-12.5 34.583-34.583 34.583h-96.25c-83.333 0-125.833-42.083-125.833-124.167v-96.25c0-22.5 12.5-35 34.167-35zM854.185 541.417c22.5 0 34.167 12.5 34.167 35v96.25c0 82.083-42.083 124.167-125.417 124.167h-96.25c-22.5 0-35-12.5-35-34.583 0-21.667 12.5-34.167 35-34.167h93.75c37.917 0 59.583-20.417 59.583-60v-91.667c0-22.5 12.083-35 34.167-35zM490.852 450.167c10 0 17.5 7.5 17.5 17.083v136.667c0 9.583-7.5 17.5-17.5 17.5h-136.25c-9.583 0-17.5-7.917-17.5-17.5v-136.667c0-9.583 7.917-17.083 17.5-17.083h136.25zM695.852 450.167c9.583 0 17.083 7.5 17.083 17.083v136.667c0 9.583-7.5 17.5-17.083 17.5h-136.667c-9.583 0-17.083-7.917-17.083-17.5v-136.667c0-9.583 7.5-17.083 17.083-17.083h136.667zM678.768 484.333h-102.5v102.917h102.5v-102.917zM474.185 484.333h-102.917v102.917h102.917v-102.917zM648.768 514.333v42.917h-42.5v-42.917h42.5zM444.185 514.333v42.917h-42.917v-42.917h42.917zM490.852 245.583c10 0 17.5 7.5 17.5 17.083v136.667c0 9.583-7.5 17.083-17.5 17.083h-136.25c-9.583 0-17.5-7.5-17.5-17.083v-136.667c0-9.583 7.917-17.083 17.5-17.083h136.25zM707.935 368.917v42.5h-42.917v-42.5h42.917zM589.602 368.917v42.5h-42.5v-42.5h42.5zM474.185 279.333h-102.917v102.917h102.917v-102.917zM444.185 309.75v42.5h-42.917v-42.5h42.917zM648.768 309.75v42.5h-42.917v-42.5h42.917zM762.935 70.167c83.333 0 125.417 41.667 125.417 124.167v96.25c0 22.083-12.083 34.583-34.167 34.583-22.5 0-34.167-12.5-34.167-34.583v-91.667c0-40-21.667-60.417-59.583-60.417h-93.75c-22.5 0-35-12.083-35-34.167s12.5-34.167 35-34.167h96.25zM383.768 70.167c22.083 0 34.583 12.083 34.583 34.167s-12.5 34.167-34.583 34.167h-93.75c-38.333 0-59.583 20.417-59.583 60.417v91.667c0 22.083-12.5 34.583-34.583 34.583s-34.167-12.5-34.167-34.583v-96.25c0-82.5 42.5-124.167 125.833-124.167h96.25zM589.602 250.583v42.917h-42.5v-42.917h42.5zM707.935 250.583v42.917h-42.917v-42.917h42.917z" />
<glyph unicode="&#xe940;" glyph-name="icon64" d="M525.435 29.75c220.833 0 403.75 182.917 403.75 404.167 0 220.833-183.333 403.75-404.167 403.75s-403.75-182.917-403.75-403.75c0-221.25 183.333-404.167 404.167-404.167zM517.518 349.75c-22.917 0-35.417 11.25-35.417 33.333v5c0 39.167 22.083 61.25 51.667 81.667 36.25 25 53.333 38.75 53.333 66.25 0 29.583-23.333 50.417-59.583 50.417-26.667 0-46.25-13.333-59.167-35-12.917-15.417-17.5-27.5-41.25-27.5-15.417 0-30.417 10.833-30.417 29.583 0 7.083 1.25 13.75 3.333 20.833 11.25 38.75 59.167 71.25 130.417 71.25 71.667 0 132.917-37.5 132.917-106.25 0-49.167-27.917-72.5-68.333-99.583-27.5-19.167-42.083-33.333-42.5-55.833v-4.583c-0.833-16.667-13.333-29.583-35-29.583zM519.185 229.75c-23.75 0-45.417 18.333-45.417 43.333s21.25 43.333 45.417 43.333c24.167 0 45.417-17.917 45.417-43.333s-21.667-43.333-45.417-43.333z" />
<glyph unicode="&#xe941;" glyph-name="icon65" d="M525.435 29.75c220.833 0 403.75 182.917 403.75 404.167 0 220.833-183.333 403.75-404.167 403.75s-403.75-182.917-403.75-403.75c0-221.25 183.333-404.167 404.167-404.167zM522.102 571.833c-28.75 0-52.083 23.333-52.083 52.083 0 29.583 23.333 52.5 52.083 52.5 29.167 0 52.083-22.917 52.083-52.5 0-28.75-22.917-52.083-52.083-52.083zM616.268 217.667h-160.417c-16.25 0-29.583 12.083-29.583 29.167 0 15.833 13.333 28.333 29.583 28.333h48.333v175h-41.25c-16.667 0-29.583 12.083-29.583 29.167 0 15.833 12.917 28.333 29.583 28.333h74.583c20.417 0 31.667-14.583 31.667-36.667v-195.833h47.083c16.667 0 30-12.5 30-28.333 0-17.083-13.333-29.167-30-29.167z" />
<glyph unicode="&#xe942;" glyph-name="icon66" d="M535.018-2.75c65 0 125.833 8.75 163.333 21.25 26.667 8.75 35.417 22.5 35.417 37.917 0 15-11.667 27.083-27.5 27.083-5 0-11.25-1.25-19.167-2.917-45.833-10.833-85.417-18.75-139.167-18.75-215.833 0-361.667 130-361.667 350.833 0 211.667 138.333 359.583 345.833 359.583 184.583 0 336.667-114.167 336.667-317.5 0-116.667-39.167-195-102.5-195-42.083 0-66.25 24.583-66.25 67.5v261.667c0 22.5-12.5 36.25-33.75 36.25s-34.167-13.75-34.167-36.25v-42.5h-4.167c-20 48.75-68.75 78.75-127.083 78.75-101.667 0-173.333-86.667-173.333-211.667 0-125.833 71.25-213.75 175.417-213.75 60.833 0 107.5 32.917 130 88.333h4.167c8.333-55 55-88.333 117.5-88.333 111.25 0 180 107.083 180 258.75 0 228.75-168.333 377.5-401.667 377.5-245.417 0-417.5-167.5-417.5-421.25 0-259.167 176.25-417.5 419.583-417.5zM515.435 265.583c-68.75 0-112.083 57.083-112.083 147.917 0 90.417 43.75 147.5 112.5 147.5 70 0 114.583-56.25 114.583-145.417 0-91.667-45-150-115-150z" />
<glyph unicode="&#xe943;" glyph-name="icon67" d="M543.56 43.5c168.75 0 315.833 102.083 365.417 231.667 3.75 9.583 4.583 19.167 4.583 23.333 0 15-11.667 24.583-23.333 24.583-5.833 0-10.833-0.833-18.75-3.75-30-10-78.75-20.417-126.667-20.417-211.667 0-346.667 132.083-346.667 343.333 0 44.583 10.417 106.667 24.583 139.583 4.167 9.167 5 15.417 5 19.583 0 11.25-8.333 23.333-23.75 23.333-5 0-14.583-1.25-23.75-4.583-145.833-58.333-243.75-214.583-243.75-379.583 0-231.25 176.25-397.083 407.083-397.083z" />
<glyph unicode="&#xe944;" glyph-name="icon68" d="M525.227 713.083c19.583 0 36.25 16.667 36.25 36.25v82.083c0 19.583-16.667 36.25-36.25 36.25s-36.25-16.667-36.25-36.25v-82.083c0-19.583 16.667-36.25 36.25-36.25zM772.31 631l58.333 58.333c13.75 13.75 13.75 37.5-0.417 51.25-13.75 14.167-37.083 14.167-50.833 0l-58.333-58.333c-14.167-14.167-14.167-37.083 0-51.25 13.75-13.75 37.083-14.167 51.25 0zM328.977 631c13.75 13.333 13.75 37.5 0.417 51.25l-57.917 58.333c-13.75 13.75-37.5 14.167-51.25 0-13.75-13.75-13.75-37.5-0.417-50.833l57.917-58.75c13.75-13.75 37.083-13.75 51.25 0zM524.81 232.25c111.25 0 203.333 91.667 203.333 203.333 0 111.25-92.083 203.333-203.333 203.333-110.833 0-202.917-92.083-202.917-203.333 0-111.667 92.083-203.333 202.917-203.333zM919.81 399.333c19.583 0 36.25 16.667 36.25 36.25s-16.667 36.25-36.25 36.25h-81.25c-20 0-36.667-16.667-36.667-36.25s16.667-36.25 36.667-36.25h81.25zM211.893 399.333c19.583 0 36.25 16.667 36.25 36.25s-16.667 36.25-36.25 36.25h-81.667c-19.583 0-36.25-16.667-36.25-36.25s16.667-36.25 36.25-36.25h81.667zM830.643 130.167c13.75 14.167 13.75 37.083 0 51.25l-58.75 57.917c-13.75 14.167-37.083 14.167-50.833 0-14.167-13.75-14.167-37.083 0-50.833l58.333-58.75c14.167-13.75 37.083-13.333 51.25 0.417zM270.643 130.167l58.333 57.917c13.75 14.167 13.75 37.5 0.417 51.25-13.75 13.75-37.5 13.75-51.667 0l-57.917-57.5c-14.167-13.75-14.167-37.5-0.417-51.25s37.5-14.167 51.25-0.417zM525.227 3.5c19.583 0 36.25 16.667 36.25 36.25v81.667c0 20-16.667 36.667-36.25 36.667s-36.25-16.667-36.25-36.667v-81.667c0-19.583 16.667-36.25 36.25-36.25z" />
<glyph unicode="&#xe945;" glyph-name="icon69" d="M782.606 612.176c-22.037 8.645-181.414 66.11-244.817 89.13-131.461 47.728-283.096 119.158-306.426 129.696-3.983 1.79-8.604 1.091-11.863-1.466-2.88-2.268-3.845-4.928-4.225-6.855-8.484-50.763 10.863-138.7 57.333-170.928 28.434-19.695 214.934-79.854 290.873-103.829 2.155-0.665 1.276-3.854-0.931-3.342-79.214 17.734-287.424 65.479-291.614 66.008-4.052 0.512-7.432-0.529-10.242-3.393-1.879-1.944-3.638-5.712-2.897-9.839 10.26-56.97 64.661-130.123 112.287-139.621 27.865-5.559 143.634-2.797 191.398-1.654 2.207 0.068 2.483-3.155 0.276-3.462-54.040-7.588-185.397-27.317-188.639-27.897-4.018-0.699-6.725-3.393-8.001-5.968-1.19-2.353-2.207-6.053-0.086-10.47 8.052-16.745 31.555-39.117 31.555-39.117 51.298-51.804 107.39-45.699 121.374-43.141 13.105 2.37 45.935 12.67 63.954 20.633 1.362 0.597 2.793-0.648 2.397-2.063l-29.882-106.080c-0.31-1.108 0.535-2.2 1.69-2.2l89.25-0.614c1.19-0.017 2.035-1.16 1.69-2.268l-52.264-167.159c-0.569-1.859 1.862-3.12 3.069-1.603l195.708 245.615c0.897 1.142 0.086 2.814-1.379 2.814h-92.957c-1.362 0-2.242 1.466-1.517 2.626 12.536 20.428 94.63 154.405 121.029 206.242 8.432 14.648 11.932 35.979 6.104 52.025-5.828 16.063-18.364 28.818-42.245 38.179z" />
<glyph unicode="&#xe946;" glyph-name="icon70" d="M652.568 245.575c4.399 4.399 11.537 4.399 15.936 0v0l2.243-2.392 2.299-2.357c21.574-21.574 48.239-34.951 76.13-40.151 0.955-0.097 1.901-0.232 2.852-0.39 0.938-0.158 1.877-0.341 2.811-0.557 8.328-1.913 16.237-6.106 22.728-12.593 18.406-18.41 18.406-48.255 0-66.665-18.41-18.406-48.255-18.406-66.665 0-6.008 6.012-10.042 13.239-12.13 20.892-0.447 1.641-0.804 3.299-1.072 4.972-0.244 1.519-0.41 3.047-0.504 4.578-5.439 27.213-18.698 53.174-39.793 74.269-1.072 1.072-2.165 2.12-3.262 3.152-0.552 0.382-1.081 0.808-1.572 1.3-0.284 0.284-0.548 0.581-0.796 0.886-3.587 4.428-3.323 10.935 0.796 15.055zM445.663 789.333c14.449 0 29.447-0.869 44.579-2.588 84.291-9.583 160.819-45.996 215.48-102.53 21.631-22.383 39.249-47.39 52.358-74.33 17.626-36.223 26.563-74.619 26.563-114.12 0-6.646-0.288-13.275-0.808-19.885-0.723 0.837-1.389 1.706-2.185 2.498-15.713 15.713-39.704 17.894-57.858 6.784 0.158 3.217 0.362 6.43 0.362 9.656 0 31.023-7.048 61.234-20.941 89.795-10.476 21.526-24.609 41.565-42.007 59.564-44.924 46.464-108.205 76.431-178.189 84.388-12.715 1.446-25.283 2.177-37.352 2.177-11.496 0-23.528-0.674-35.768-2.007-70.309-7.645-133.96-37.462-179.221-83.966-17.48-17.963-31.689-37.957-42.239-59.43-14.12-28.744-21.282-59.203-21.282-90.522 0-40.358 12.369-80.286 35.776-115.473 9.94-14.949 21.773-28.903 35.252-41.686 4.797-4.55 9.782-8.969 14.994-13.21 3.404-2.77 6.642-5.285 9.883-7.682 6.37-4.639 10.192-12.191 10.192-20.181 0-2.892-0.609-5.468-1.206-7.613-2.754-10.493-6.463-24.629-9.177-34.963-1.097-4.188-2.003-7.633-2.645-10.078v0l-2.295-9.274c0-2.267 1.771-4.111 3.953-4.111 0.666 0 1.393 0.28 2.681 1.032v0l0.065 0.037 62.087 36.588c0.687 0.402 1.365 0.695 2.047 1.048 5.277 2.738 10.481 4.156 15.843 4.156 3.441 0 6.796-0.512 9.965-1.523 15.55-4.558 31.649-7.877 47.934-10.046 2.466-0.329 4.927-0.707 7.401-0.979 11.854-1.304 23.886-1.966 35.76-1.966 12.081 0 24.654 0.731 37.352 2.177 20.933 2.376 41.179 6.792 60.568 12.95-1.706-17.874 6.89-35.934 23.488-45.428 2.787-1.596 5.667-2.868 8.6-3.839-27.132-9.741-55.713-16.59-85.428-19.966-15.111-1.718-30.109-2.592-44.579-2.592-14.189 0-28.565 0.788-42.726 2.348-21.79 2.397-42.454 6.219-63.281 12.195v0l-96.762-48.568c-0.532-0.366-1.101-0.658-1.661-0.987-0.114-0.069-0.244-0.13-0.362-0.199-3.814-2.181-8.173-3.526-12.881-3.526-14.413 0-26.092 11.679-26.092 26.088 0 0.841 0.171 1.629 0.248 2.445 0.102 1.076 0.171 2.161 0.402 3.193 0.374 1.694 0.906 3.319 1.592 4.871v0l3.904 15.782 13.547 56.038-5.711 4.807c-23.078 20.047-48.615 49.505-64.041 72.7-29.553 44.432-45.172 95.048-45.172 146.382 0 39.871 9.079 78.575 26.989 115.038 13.202 26.867 30.909 51.818 52.642 74.148 55.063 56.57 132.014 92.793 216.683 101.998 14.551 1.584 28.911 2.385 42.682 2.385zM844.197 320.098c18.41 18.406 48.255 18.406 66.665 0 18.406-18.41 18.406-48.255 0-66.665-6.012-6.008-13.239-10.042-20.892-12.13-1.641-0.447-3.299-0.804-4.972-1.072-1.519-0.244-3.047-0.41-4.578-0.504-27.213-5.439-53.174-18.698-74.269-39.793-1.072-1.072-2.12-2.165-3.152-3.262-0.382-0.552-0.808-1.081-1.3-1.572-0.284-0.284-0.581-0.548-0.886-0.796-4.428-3.587-10.935-3.323-15.055 0.796-4.399 4.399-4.399 11.537 0 15.936v0l2.392 2.243 2.357 2.299c21.574 21.574 34.951 48.239 40.151 76.13 0.097 0.955 0.232 1.901 0.39 2.852 0.158 0.938 0.341 1.877 0.557 2.811 1.913 8.328 6.106 16.237 12.593 22.728zM687.988 379.562c4.428 3.587 10.935 3.323 15.055-0.796 4.399-4.399 4.399-11.537 0-15.936v0l-2.392-2.243-2.357-2.299c-21.574-21.574-34.951-48.239-40.151-76.13-0.097-0.955-0.232-1.901-0.39-2.852-0.158-0.938-0.341-1.877-0.557-2.811-1.913-8.328-6.106-16.237-12.593-22.728-18.41-18.406-48.255-18.406-66.665 0-18.406 18.41-18.406 48.255 0 66.665 6.012 6.008 13.239 10.042 20.892 12.13 1.641 0.447 3.299 0.804 4.972 1.072 1.519 0.244 3.047 0.41 4.578 0.504 27.213 5.439 53.174 18.698 74.269 39.793v0l3.152 3.262c0.382 0.552 0.808 1.081 1.3 1.572 0.284 0.284 0.581 0.548 0.886 0.796zM711.235 453.394c18.41 18.406 48.255 18.406 66.665 0 6.008-6.012 10.042-13.239 12.13-20.892 0.447-1.641 0.804-3.299 1.072-4.972 0.244-1.519 0.41-3.047 0.504-4.578 5.439-27.213 18.698-53.174 39.793-74.269 1.072-1.072 2.165-2.12 3.262-3.152 0.552-0.382 1.081-0.808 1.572-1.3 0.284-0.284 0.548-0.581 0.796-0.886 3.587-4.428 3.323-10.935-0.796-15.055-4.399-4.399-11.537-4.399-15.936 0v0l-2.243 2.392-2.299 2.357c-21.574 21.574-48.239 34.951-76.13 40.151-0.955 0.097-1.901 0.232-2.852 0.39-0.938 0.158-1.877 0.341-2.811 0.557-8.328 1.913-16.237 6.106-22.728 12.593-18.406 18.41-18.406 48.255 0 66.665z" />
<glyph unicode="&#xe947;" glyph-name="icon71" d="M652.652 582.778c9.622 0 19.133-0.703 28.579-1.757-25.657 119.522-153.439 208.313-299.278 208.313-163.039 0-296.62-111.131-296.62-252.268 0-81.475 44.417-148.365 118.709-200.229l-29.677-89.208 103.706 51.974c37.080-7.359 66.889-14.916 103.882-14.916 9.292 0 18.54 0.461 27.7 1.186-5.821 19.836-9.16 40.639-9.16 62.144 0 129.605 111.263 234.761 252.159 234.761v0zM493.194 663.199c22.362 0 37.124-14.718 37.124-37.014 0-22.253-14.784-37.124-37.124-37.124-22.253 0-44.527 14.894-44.527 37.124-0.022 22.318 22.296 37.014 44.527 37.014v0zM285.606 589.061c-22.253 0-44.659 14.894-44.659 37.124 0 22.318 22.406 37.014 44.659 37.014s37.014-14.718 37.014-37.014c0-22.231-14.762-37.124-37.014-37.124zM923.372 351.62c0 118.578-118.687 215.232-251.961 215.232-141.138 0-252.268-96.677-252.268-215.232 0-118.819 111.131-215.276 252.268-215.276 29.546 0 59.333 7.469 89.054 14.894l81.322-44.571-22.34 74.094c59.574 44.681 103.926 103.926 103.926 170.859zM589.65 388.7c-14.784 0-29.655 14.696-29.655 29.677 0 14.784 14.872 29.699 29.655 29.699 22.428 0 37.124-14.894 37.124-29.699 0.022-15.003-14.652-29.677-37.124-29.677zM752.821 388.7c-14.674 0-29.502 14.696-29.502 29.677 0 14.784 14.806 29.699 29.502 29.699 22.231 0 37.124-14.894 37.124-29.699 0-15.003-14.916-29.677-37.124-29.677z" />
<glyph unicode="&#xe948;" glyph-name="icon72" d="M727.102 51c51.25 0 96.25 17.917 132.083 57.917 20.833 23.333 33.75 50.417 33.75 77.083 0 20.417-7.5 40-26.667 53.333l-121.25 85.833c-18.333 13.333-34.167 19.583-48.333 19.583-17.917 0-34.167-10.417-52.083-28.333l-28.333-27.917c-4.583-4.583-10-5.833-15-5.833-6.25 0-12.083 2.083-16.25 4.167-24.167 12.917-66.25 49.167-105.417 87.917-38.75 39.167-75 80.833-87.917 105.417-2.083 4.167-4.167 10-4.167 15.833 0 5 1.25 10.417 5.833 15l27.917 28.75c17.917 17.917 28.333 34.167 28.333 52.5 0 14.167-6.667 29.583-19.583 48.333l-85 119.583c-14.167 19.167-34.167 27.917-55.833 27.917-26.25 0-52.917-12.083-76.25-34.167-38.75-37.083-55.417-82.5-55.417-132.917 0-114.167 87.083-252.083 201.667-366.25 114.583-115 254.167-203.75 367.917-203.75z" />
<glyph unicode="&#xe949;" glyph-name="icon73" d="M597.375 469.75c-41.667 0-66.25 24.167-66.25 66.25v217.5c0 22.083 16.667 38.75 39.167 38.75 22.083 0 37.917-16.25 37.917-38.75v-31.25l-7.917-132.5 99.583 104.583 118.333 119.583c7.083 7.5 16.667 11.25 27.083 11.25 23.75 0 41.25-16.25 41.25-40 0-10.833-4.167-20.833-11.667-28.333l-118.75-118.75-105-99.583 132.917 8.333h32.083c22.5 0 39.167-15.833 39.583-38.333 0-22.5-17.083-38.75-39.583-38.75h-218.75zM156.958 38.917c-23.75 0-41.25 15.833-41.25 39.583 0 11.25 3.75 21.25 11.667 28.75l120.833 121.25 105 99.167-132.917-7.917h-36.25c-22.083 0-39.167 15.833-39.167 38.333s16.667 38.75 39.167 38.75h222.917c42.083 0 66.25-24.583 66.25-66.25v-221.667c0-22.083-16.25-39.167-38.75-39.167-22.083 0-38.333 16.667-38.333 39.167v35.417l8.333 132.083-100-104.583-120.417-121.667c-7.5-7.5-17.083-11.25-27.083-11.25z" />
<glyph unicode="&#xe94a;" glyph-name="icon74" d="M563.833 456c-23.75 0-41.25 15.833-41.25 39.583 0 10.833 4.167 20.833 11.667 28.75l118.75 118.75 105 99.167-132.917-7.917h-32.083c-22.5 0-39.583 15.833-39.583 38.333s17.083 38.333 39.583 38.333h218.75c41.667 0 66.25-24.167 66.25-66.25v-217.5c0-22.083-16.667-38.75-39.167-38.75-22.083 0-37.917 16.25-37.917 38.75v31.667l7.917 132.083-99.583-104.583-118.333-119.167c-7.083-7.5-16.667-11.25-27.083-11.25zM190.5 56.417c-42.083 0-66.25 24.583-66.25 66.25v217.5c0 22.083 16.25 39.167 38.75 39.167 22.083 0 38.333-16.667 38.333-39.167v-31.25l-8.333-132.5 99.583 105 118.333 119.167c7.5 7.5 16.667 11.25 27.083 11.25 23.75 0 41.25-15.833 41.25-39.583 0-11.25-4.167-21.25-11.667-28.75l-118.75-118.75-105-99.167 132.917 7.917h32.5c22.083 0 39.167-15.833 39.167-38.333s-16.667-38.75-39.167-38.75h-218.75z" />
<glyph unicode="&#xe94b;" glyph-name="icon76" d="M512 454.75l372.5 210.417c-6.25 6.25-13.75 11.25-22.5 16.25l-277.5 157.083c-24.167 13.75-48.75 21.25-72.5 21.25-24.167 0-48.333-7.5-72.5-21.25l-277.5-157.5c-8.75-4.583-16.25-9.583-22.5-15.833l372.5-210.417zM484.5 0.583v405.417l-370.833 211.25c-2.083-8.333-2.917-17.5-2.917-28.75v-310c0-56.667 20-78.333 57.083-99.583l307.5-174.167c2.917-1.667 5.833-3.333 9.167-4.167zM539.5 0.583c3.333 0.833 5.833 2.5 9.167 4.167l307.5 174.167c37.083 21.25 56.667 42.917 56.667 99.583v310c0 11.25-0.833 20.417-2.917 28.75l-370.417-211.25v-405.417z" />
<glyph unicode="&#xe94c;" glyph-name="icon77" d="M523.083 297.25c22.917 0 38.333 15 38.75 38.75 1.25 140 2.917 289.583 4.167 427.917 0 24.583-19.583 41.667-43.333 41.667s-43.333-17.083-43.333-41.667c1.667-138.333 3.333-287.917 5-427.917 0.417-23.75 15.417-38.75 38.75-38.75zM169.75 482.667c71.25 76.25 160.417 124.167 260.417 142.083l-1.667 116.667c-138.75-22.5-264.167-93.75-339.167-182.917-5.417-6.667-5.417-15.833 1.667-22.5l52.083-53.75c7.5-7.917 19.167-7.5 26.667 0.417zM902.667 483.5l51.667 52.5c7.083 6.667 7.083 15.833 1.25 22.5-74.583 88.75-200 160-338.75 182.5l-1.25-116.667c99.583-18.333 188.333-67.5 260.833-142.083 7.083-7.083 18.333-7.083 26.25 1.25zM327.667 326c27.083 29.583 64.167 54.583 105.833 69.167l-2.5 121.667c-79.583-18.75-147.5-60.833-190.833-111.667-5.833-7.083-5-15.417 1.667-22.083l58.75-58.75c8.333-8.333 18.75-7.5 27.083 1.667zM745.167 325.167l58.333 57.917c6.667 6.25 7.5 15.417 1.25 22.083-42.917 50.833-110.833 92.917-190.417 111.25l-1.667-122.083c41.25-15 78.75-40 106.25-69.583 7.5-8.333 17.5-7.917 26.25 0.417zM522.667 103.5c35 0 62.917 28.333 62.917 62.917s-27.917 62.5-62.917 62.5c-34.583 0-62.917-27.917-62.917-62.5s28.333-62.917 62.917-62.917z" />
<glyph unicode="&#xe94d;" glyph-name="icon78" d="M689.875 58.5c51.667 0 77.083 25.417 77.083 81.667v291.25c0 50.417-20.833 76.25-63.75 80.417v98.75c0 148.75-98.333 220.833-201.667 220.833-103.75 0-202.083-72.083-202.083-220.833v-100.417c-39.583-6.25-63.75-31.667-63.75-78.75v-291.25c0-56.25 25.417-81.667 77.083-81.667h377.083zM366.958 511.833v106.667c0 96.667 61.667 148.333 134.583 148.333 72.5 0 134.167-51.667 134.167-148.333v-105.833l-268.75-0.833z" />
<glyph unicode="&#xe94e;" glyph-name="icon79" d="M522.875 29.75c220.833 0 403.75 182.917 403.75 404.167 0 220.833-183.333 403.75-404.167 403.75s-403.75-182.917-403.75-403.75c0-221.25 183.333-404.167 404.167-404.167zM522.875 101.833c-184.167 0-331.667 147.5-331.667 332.083 0 184.167 147.083 332.083 331.25 332.083s332.083-147.917 332.501-332.083c0.416-184.583-147.918-332.083-332.084-332.083zM624.958 243.5c27.5 0 40.417 13.75 40.417 43.333v156.667c0 25.833-9.583 40-30.417 42.917v46.25c0 76.667-46.667 126.667-112.083 126.667-65.833 0-112.083-50-112.083-126.667v-46.667c-20.833-2.917-30.833-16.667-30.833-42.5v-156.667c0-29.583 13.333-43.333 40.833-43.333h204.167zM453.708 486.833v50c0 48.333 27.5 80.417 69.167 80.417 41.25 0 69.167-31.667 69.167-80.417v-49.583l-138.333-0.417z" />
<glyph unicode="&#xe94f;" glyph-name="icon80" d="M600.167-7.333c10.417 1.667 17.5 9.583 19.167 20.417l6.667 47.5c19.167 5 37.917 12.5 56.667 20.417l35-31.667c7.5-7.5 17.917-8.75 28.333-3.333 8.75 5.417 12.5 15 10.417 25.833l-9.583 46.667c15.833 11.25 31.667 24.167 46.25 38.333l43.333-18.333c10.417-4.167 20-2.083 27.917 7.5 7.083 7.5 7.917 18.333 2.083 27.5l-25.417 40.417c11.25 16.25 20.833 33.75 29.583 52.083l47.917-2.083c10.833-0.833 20 5.417 23.333 15.417 3.333 10.417 0.417 20.417-8.333 27.083l-37.5 29.583c5 18.75 9.167 38.75 10.833 59.167l45 14.583c10.417 3.75 17.083 11.667 17.083 22.5s-6.667 18.75-17.083 22.5l-45 14.583c-1.667 20.417-5.833 40-10.833 59.167l37.5 29.583c8.333 6.667 11.667 16.25 8.333 26.667-3.333 10-12.5 16.25-23.333 15.417l-47.917-1.667c-8.75 18.333-18.333 35.417-29.583 52.083l25.417 40.417c5.833 8.75 5 19.583-2.083 27.083-7.917 9.167-17.5 11.667-27.917 7.5l-43.333-17.917c-14.583 13.75-30.417 27.083-46.25 38.333l9.583 46.25c2.083 11.25-1.667 20.833-10.417 25.833-10.417 5.417-20.417 4.583-28.333-3.333l-35-31.25c-18.75 8.333-37.5 15-56.667 20.417l-6.667 47.083c-1.667 10.833-8.75 18.333-19.167 20.417-11.25 1.25-20.833-3.333-25-12.083l-22.5-42.917c-10.417 0.833-20 1.25-30 1.25-10.417 0-19.583-0.417-30.417-1.25l-22.083 42.917c-4.583 8.75-14.167 13.333-25.417 12.083-10.417-2.083-17.5-9.583-19.167-20.417l-6.667-47.083c-19.167-5.417-37.917-12.083-56.25-20.417l-35 31.25c-8.333 7.917-18.333 8.75-28.333 3.333-9.167-5-12.917-14.583-10.833-25.833l10-46.25c-16.25-11.25-32.083-24.583-46.25-38.333l-43.75 17.917c-10.417 4.167-20 1.667-27.917-7.5-6.667-7.5-7.5-18.333-2.083-26.667l25.417-40.833c-11.25-16.667-20.417-33.75-29.583-52.083l-47.917 1.667c-10.417 0.833-19.583-5.417-23.333-15.417-3.333-10.417-0.417-20 8.333-26.667l37.5-29.583c-5-19.167-9.167-38.75-10.417-59.167l-45.417-14.583c-10.417-3.333-16.667-11.25-16.667-22.5s6.25-19.167 16.667-22.5l45.417-14.583c1.25-20.417 5.417-40.417 10.417-59.167l-37.5-29.583c-8.333-6.667-11.25-16.667-8.333-27.083 3.75-10 12.917-16.25 23.333-15.417l47.917 2.083c8.75-18.333 18.333-35.833 29.583-52.083l-25.417-40.417c-5.833-9.167-5-20 2.083-27.5 7.917-9.583 17.5-11.667 27.917-7.5l43.75 18.333c14.167-14.167 30-27.083 46.25-38.333l-10-46.667c-2.083-10.833 1.667-20.417 10.833-25.833 10-5.417 20.417-4.167 28.333 3.333l34.583 31.667c18.75-7.917 37.5-15.417 56.667-20.417l6.667-47.5c1.667-10.833 8.75-18.75 19.583-20.417s20.417 3.333 25 12.5l22.083 42.917c10.417-0.833 20-1.667 30.417-1.667 10 0 19.583 0.833 30 1.667l22.5-42.917c4.167-9.167 13.75-14.167 25-12.5zM839.333 459.333h-216.25c-18.75 50-56.25 77.5-101.667 77.5-7.083 0-14.583-0.833-27.083-3.75l-110.833 189.583c41.667 20.417 88.75 31.667 139.167 31.667 170 0 303.333-128.75 316.667-295zM332.667 172.25c-78.333 58.333-127.917 152.5-127.917 259.583 0 108.333 50.833 203.75 130.417 262.083l111.667-190.833c-20.833-22.5-30.833-46.667-30.833-72.5 0-25 9.167-47.917 30.833-71.25l-114.167-187.083zM521.833 383.083c-25 0-47.917 21.667-47.917 47.917 0 26.667 22.917 47.5 47.917 47.5 26.667 0 48.75-20.833 48.75-47.5 0-26.25-22.083-47.917-48.75-47.917zM522.667 109.75c-51.667 0-99.583 11.667-142.083 32.917l113.75 185.833c12.083-2.917 20-3.75 27.083-3.75 45.833 0 83.333 28.333 101.667 79.167h216.25c-13.333-165.417-146.667-294.167-316.667-294.167z" />
<glyph unicode="&#xe950;" glyph-name="icon81" d="M586.646 137.292c73.125 0 116.25 42 116.25 114.375v350.625c0 72.375-39.75 114-112.875 114h-381.375c-70.125 0-116.25-41.625-116.25-114.375v-351c0-72.375 43.125-113.625 116.25-113.625h378zM920.021 191.292c27.75 0 46.5 20.25 46.5 49.875v370.875c0 29.625-18.75 49.875-46.5 49.875-13.875 0-28.125-7.125-41.25-18.375l-126.375-109.125v-215.625l126.375-109.125c13.125-11.25 27.75-18.375 41.25-18.375z" />
<glyph unicode="&#xe951;" glyph-name="icon82" d="M512 57.667c8.75 0 22.083 5.833 31.667 12.083 221.25 142.083 362.5 307.5 362.5 475.417 0 141.25-97.5 240.833-222.083 240.833-77.5 0-136.25-42.5-172.083-107.917-35 65-94.583 107.917-172.083 107.917-124.583 0-221.667-99.583-221.667-240.833 0-167.917 140.833-333.333 362.083-475.417 10-6.25 22.917-12.083 31.667-12.083z" />
<glyph unicode="&#xe952;" glyph-name="icon83" d="M870.104 312.042l81.375 115.125c14.625 20.625 7.875 39-18.375 39h-48.75c-20.25 180-175.875 324-361.5 324-106.875 0-203.625-48-269.625-122.625-15-15.75-13.5-36 0.75-46.875 14.25-11.25 32.25-9.375 46.125 5.25 54.375 61.125 133.875 99.75 222.75 99.75 152.625 0 277.125-112.875 295.875-259.5h-53.25c-25.875 0-32.625-18.375-18.375-38.625l81.375-115.5c11.625-16.5 29.625-16.875 41.625 0zM522.854 63.042c106.875 0 203.625 48.375 269.625 123 14.625 15.75 13.125 36.375-0.75 47.25-14.25 10.875-32.25 8.625-46.125-5.625-54-61.5-133.5-99.75-222.75-99.75-153 0-277.125 112.5-296.25 259.125h53.25c25.875 0 32.625 18.375 18.375 38.625l-81.375 115.5c-11.625 16.5-29.625 16.875-41.625 0l-81.375-115.125c-15-20.625-7.875-39 18.375-39h49.125c19.875-180 175.5-324 361.5-324z" />
<glyph unicode="&#xe953;" glyph-name="icon84" d="M666 579.333c41.25 0 77.083 26.25 90.833 62.917h134.167c17.5 0 32.083 15 32.083 33.75 0 19.167-14.583 34.167-32.083 34.167h-134.167c-13.333 36.667-49.167 63.333-90.833 63.333s-77.5-26.667-91.25-63.333h-418.75c-18.75 0-33.75-15-33.75-34.167 0-18.333 15-33.75 33.75-33.75h419.167c13.75-36.667 49.167-62.917 90.833-62.917zM666 629.333c-26.25 0-47.083 20.833-47.083 47.083 0 26.667 20.833 47.083 47.083 47.083 26.667 0 46.667-20.417 46.667-47.083 0-26.25-20-47.083-46.667-47.083zM384.333 336.417c41.25 0 77.083 26.667 90.833 63.75h414.583c18.75 0 33.333 15 33.333 33.75s-14.583 33.75-33.333 33.75h-414.583c-13.75 36.667-49.583 62.917-90.833 62.917-41.667 0-77.5-26.25-91.25-62.917h-138.75c-17.083 0-32.083-15-32.083-33.75s15-33.75 32.083-33.75h138.75c13.75-37.083 49.583-63.75 91.25-63.75zM384.333 386.833c-26.25 0-47.083 20.833-47.083 47.083s20.833 46.667 47.083 46.667c26.25 0 46.667-20.417 46.667-46.667s-20.417-47.083-46.667-47.083zM666 94.333c41.667 0 77.083 26.25 90.833 63.333h134.167c17.5 0 32.083 15 32.083 33.75s-14.583 33.75-32.083 33.75h-134.167c-13.75 36.667-49.167 63.333-90.833 63.333s-77.083-26.667-91.25-63.333h-418.75c-18.75 0-33.75-15-33.75-33.75s15-33.75 33.75-33.75h418.75c13.75-37.083 49.583-63.333 91.25-63.333zM666 144.333c-26.25 0-47.083 20.833-47.083 47.083 0 26.667 20.833 47.083 47.083 47.083 26.667 0 46.667-20.417 46.667-47.083 0-26.25-20-47.083-46.667-47.083z" />
<glyph unicode="&#xe954;" glyph-name="icon85" d="M512.177 372.271c15.229 0 27.979 12.75 27.979 27.625v334.333l-2.125 49.937 21.958-24.083 49.583-52.771c4.604-5.667 12.042-8.146 18.771-8.146 14.521 0 25.854 10.271 25.854 24.437 0 7.438-3.187 13.104-8.5 18.417l-112.625 109.083c-7.437 7.083-13.813 9.563-20.896 9.563-7.437 0-13.813-2.479-20.896-9.563l-112.979-109.083c-5.313-5.313-8.5-10.979-8.5-18.417 0-14.167 10.979-24.437 25.5-24.437 6.729 0 14.521 2.479 19.479 8.146l49.229 52.771 21.958 24.083-2.125-49.937v-334.333c0-14.875 12.75-27.625 28.333-27.625zM800.823 79.729c70.833 0 106.958 35.771 106.958 105.542v183.812c0 31.521-4.25 46.396-19.479 66.229l-110.5 143.083c-40.375 52.771-57.375 63.396-117.229 63.396h-58.437v-49.937h61.979c23.729 0 39.312-4.25 57.729-27.979l113.687-149.458c12.396-16.646 8.146-23.375-9.917-23.375h-204.354c-18.771 0-27.625-13.812-27.625-28.687v-1.063c0-40.729-31.521-83.583-81.813-83.583-49.937 0-81.458 42.854-81.458 83.583v1.063c0 14.875-8.854 28.687-27.625 28.687h-204.354c-18.771 0-21.604 8.146-9.917 23.375l112.979 148.396c18.771 24.438 34.708 29.042 58.437 29.042h62.333v49.937h-58.792c-59.854 0-76.5-10.625-117.937-64.458l-110.146-142.021c-14.875-19.833-19.125-34.708-19.125-66.229v-183.812c0-70.125 36.125-105.542 106.958-105.542h577.646z" />
<glyph unicode="&#xe955;" glyph-name="icon75" d="M598.625 24.75c176.25 0 277.083 101.667 277.083 255 0 152.917-103.333 257.917-282.917 257.917h-258.75l-92.083-3.75 72.5 61.667 109.167 106.667c7.083 6.667 10.833 15 10.833 26.25 0 21.667-15 37.5-37.5 37.5-9.583 0-20.417-4.583-27.5-12.083l-230-225.833c-8.333-7.917-12.5-17.917-12.5-28.333s4.167-20.417 12.5-28.333l230-225.833c7.083-7.5 17.917-11.667 27.5-11.667 22.5 0 37.5 15.417 37.5 37.083 0 11.25-3.75 19.583-10.833 26.25l-109.167 106.667-72.5 61.667 92.083-3.75h263.333c131.667 0 202.5-73.333 202.5-178.333s-70.833-182.5-202.5-182.5h-91.25c-23.333 0-38.75-17.083-38.75-38.333 0-20.833 15.833-37.917 38.75-37.917h92.5z" />
<glyph unicode="&#xe956;" glyph-name="icon-drag" d="M606.476 204.19c26.93 0 48.762-21.831 48.762-48.762s-21.831-48.762-48.762-48.762c-26.93 0-48.762 21.831-48.762 48.762s21.831 48.762 48.762 48.762zM411.429 204.19c26.93 0 48.762-21.831 48.762-48.762s-21.831-48.762-48.762-48.762c-26.93 0-48.762 21.831-48.762 48.762s21.831 48.762 48.762 48.762zM606.476 399.238c26.93 0 48.762-21.831 48.762-48.762s-21.831-48.762-48.762-48.762c-26.93 0-48.762 21.831-48.762 48.762s21.831 48.762 48.762 48.762zM411.429 399.238c26.93 0 48.762-21.831 48.762-48.762s-21.831-48.762-48.762-48.762c-26.93 0-48.762 21.831-48.762 48.762s21.831 48.762 48.762 48.762zM606.476 594.286c26.93 0 48.762-21.831 48.762-48.762s-21.831-48.762-48.762-48.762c-26.93 0-48.762 21.831-48.762 48.762s21.831 48.762 48.762 48.762zM411.429 594.286c26.93 0 48.762-21.831 48.762-48.762s-21.831-48.762-48.762-48.762c-26.93 0-48.762 21.831-48.762 48.762s21.831 48.762 48.762 48.762zM606.476 789.333c26.93 0 48.762-21.831 48.762-48.762s-21.831-48.762-48.762-48.762c-26.93 0-48.762 21.831-48.762 48.762s21.831 48.762 48.762 48.762zM411.429 789.333c26.93 0 48.762-21.831 48.762-48.762s-21.831-48.762-48.762-48.762c-26.93 0-48.762 21.831-48.762 48.762s21.831 48.762 48.762 48.762z" />
<glyph unicode="&#xe957;" glyph-name="icon-up" d="M397.893 163.917v68.333h-145.417c-96.25 0-167.5 63.75-167.5 142.083 0 74.583 48.333 135 130.833 135 5.417 0 7.917 2.917 7.5 8.333-0.833 120 85.417 155 167.5 130.833 5-1.667 7.917-0.417 10.417 3.75 37.917 68.333 96.667 123.333 197.083 123.333 127.5 0 216.667-100.833 223.333-217.5 0.833-18.75-0.417-40.833-2.083-59.583-0.417-5 1.667-7.917 6.667-9.167 71.667-15 117.917-65.833 117.917-132.5 0-71.667-62.5-124.583-145-124.583h-166.25v-68.333h167.083c120 0 212.917 82.5 212.917 191.667 0 80-47.917 152.083-125.417 184.583 0.833 176.667-126.25 304.167-288.75 304.167-106.25 0-183.333-56.25-231.25-126.25-91.25 24.167-203.333-45.833-206.25-156.667-89.167-15-145-94.583-145-187.5 0-116.25 101.25-210 236.25-210h145.417zM515.393-8.167c18.333 0 33.333 15 33.333 32.5v367.083l-2.917 72.083 26.25-28.333 57.917-57.917c6.25-6.25 14.167-10 22.5-10 17.083 0 30 12.083 30 28.75 0 9.167-2.917 15.833-9.583 21.667l-132.917 124.583c-8.75 7.917-15.833 11.25-24.583 11.25-8.333 0-15.417-3.333-24.583-11.25l-132.917-124.583c-6.667-5.833-9.583-12.5-9.583-21.667 0-16.667 12.917-28.75 29.583-28.75 8.333 0 16.667 3.75 22.917 10l58.333 57.917 26.25 28.333-2.917-72.083v-367.083c0-17.5 15-32.5 32.917-32.5z" />
<glyph unicode="&#xe958;" glyph-name="icon86" d="M735.018 9.333c82.083 0 124.167 42.5 124.167 125.833v357.917c0 52.083-6.25 75-38.75 108.333l-213.75 217.083c-30.833 31.667-56.667 38.75-102.917 38.75h-188.333c-82.083 0-124.167-42.5-124.167-125.417v-596.667c0-83.75 42.083-125.833 124.167-125.833h419.583zM730.435 77.667h-410.417c-40 0-60 21.25-60 59.583v592.083c0 37.917 20 59.583 60 59.583h172.5v-224.167c0-52.083 26.25-77.5 77.917-77.5h220v-350c0-38.333-20.417-59.583-60-59.583zM778.768 549.75h-201.25c-15.833 0-22.5 6.667-22.5 22.5v205l223.75-227.5zM525.018 127.667c17.083 0 32.083 13.333 32.083 30.417v135l-2.917 62.917 65.833-67.5c5.833-6.25 13.75-9.583 22.083-9.583 16.25 0 28.75 11.667 28.75 28.333 0 9.167-3.75 15.833-10.417 21.667l-111.667 102.917c-8.333 7.917-15.417 10.833-23.75 10.833s-15-2.917-23.333-10.833l-111.667-102.917c-6.667-5.833-10.417-12.5-10.417-21.667 0-16.667 12.083-28.333 28.75-28.333 7.917 0 16.25 3.333 21.667 9.583l33.75 34.167 32.5 33.333-2.917-62.917v-135c0-17.083 15-30.417 31.667-30.417z" />
<glyph unicode="&#xe959;" glyph-name="icon87" d="M813.92 207.396c92.5 0 158.125 52.812 158.125 125.625 0 58.75-42.188 97.187-109.688 101.875v0.937c56.25 9.375 91.563 47.188 91.563 99.688 0 64.687-58.75 111.25-141.25 111.25-62.5 0-112.813-27.5-133.438-71.875-5.312-10.625-7.812-20.937-7.812-32.188 0-14.687 10-25 24.688-25 14.375 0 20.937 5.625 25.937 20 13.125 37.813 45 59.375 89.063 59.375 51.875 0 85-27.187 85-69.062 0-43.125-35.313-71.563-87.5-71.563h-31.25c-15 0-25-9.375-25-23.437s10-23.75 25-23.75h31.875c64.063 0 102.188-26.875 102.188-75 0-44.687-40-75.937-96.875-75.937-50 0-85.625 21.875-99.063 59.688-5.312 13.437-13.125 19.375-26.25 19.375-16.25 0-27.187-10.313-27.187-26.875 0-10.313 2.5-20 8.125-30.313 24.375-46.563 76.25-72.812 143.75-72.812zM594.545 213.958c15.625 0 25.937 10 25.937 25.312 0 15-10.313 25.313-25.937 25.313h-194.063v1.562l115.312 111.875c68.75 66.563 90.313 102.5 90.313 147.812 0 68.75-60.625 120.625-142.813 120.625-64.687 0-118.75-34.063-136.875-86.563-3.437-10-5-18.125-5-25.937 0-15.625 9.688-25.937 25-25.937 15 0 21.563 6.563 26.25 22.187 2.5 8.75 5.625 16.875 10.313 24.375 15.312 25.937 43.75 41.875 80 41.875 47.187 0 84.063-32.813 84.063-73.75 0-33.125-13.75-55.937-70.625-112.187l-139.063-137.5c-13.125-12.813-17.5-20.938-17.5-32.5 0-16.563 10.937-26.563 27.812-26.563h246.875zM209.545 207.708c17.812 0 29.375 11.25 29.375 29.375v375.313c0 20.625-12.812 31.875-33.437 31.875-14.688 0-22.813-4.063-36.875-13.125l-96.875-62.812c-11.563-7.812-15.938-15-15.938-25.312 0-13.125 9.688-22.5 23.438-22.5 8.125 0 12.187 2.5 17.812 5.937l82.5 52.187h1.25v-341.563c0-18.125 10.938-29.375 28.75-29.375z" />
<glyph unicode="&#xe95a;" glyph-name="icon88" d="M902.616 528.042c19.5 0 30.75 11.625 30.75 31.125v83.25c0 73.875-37.875 111.75-113.25 111.75h-611.625c-74.625 0-112.875-37.5-112.875-111.75v-83.25c0-19.5 11.25-31.125 30.75-31.125 19.125 0 30.75 11.625 30.75 31.125v79.125c0 36 19.125 54.375 53.625 54.375h607.125c34.5 0 53.625-18.375 53.625-54.375v-79.125c0-19.5 11.625-31.125 31.125-31.125zM513.741 273.042c19.875 0 30.75 13.125 30.75 33.75v224.625h84.75c14.625 0 25.125 9.375 25.125 24.375 0 15.375-10.5 24.75-25.125 24.75h-229.5c-14.625 0-25.125-9.375-25.125-24.75 0-15 10.5-24.375 25.125-24.375h84v-224.625c0-20.25 10.5-33.75 30-33.75zM126.367 387.042c26.25 0 47.625 21.375 47.625 48 0 26.25-21.375 47.625-47.625 47.625s-48-21.375-48-47.625c0-26.625 21.75-48 48-48zM902.616 387.042c25.875 0 47.625 21.375 47.625 48 0 26.25-21.75 47.625-47.625 47.625-26.625 0-48-21-48-47.625s21.375-48 48-48zM820.116 98.292c75.375 0 113.25 37.875 113.25 111.75v99.75c0 19.5-11.625 31.125-30.75 31.125-19.875 0-31.125-11.625-31.125-31.125v-95.625c0-36-19.125-54-53.625-54h-607.125c-34.5 0-53.625 18-53.625 54v95.625c0 19.5-11.625 31.125-30.75 31.125-19.5 0-30.75-11.625-30.75-31.125v-99.75c0-73.875 38.25-111.75 112.875-111.75h611.625z" />
<glyph unicode="&#xe95b;" glyph-name="icon89" d="M525.018 679.75c20 0 36.667 16.667 36.667 36.25v115.417c0 19.583-16.667 36.25-36.667 36.25-19.583 0-36.25-16.667-36.25-36.25v-115.417c0-19.583 16.667-36.25 36.25-36.25zM348.768 611c14.167 13.75 14.167 37.5 0.417 51.25l-80.833 80.833c-13.75 14.167-37.083 14.583-50.833 0.833-14.167-14.167-14.167-37.5-0.417-51.25l80.833-81.667c13.75-13.75 37.083-13.75 50.833 0zM748.768 607.667l81.25 80.833c13.75 13.75 13.75 37.5-0.417 51.667-13.75 13.75-37.083 13.75-50.833-0.417l-81.667-81.25c-13.75-13.75-13.75-37.083 0.417-51.25 13.75-13.75 37.5-13.75 51.25 0.417zM680.018 13.917l41.25 16.667c8.75 3.333 12.5 14.167 7.917 23.333l-77.083 179.167 98.75-5.417c17.083-1.25 25 17.083 12.917 30l-240.833 245.833c-11.25 11.25-27.917 5-28.75-11.25l-4.583-342.083c-0.417-17.917 20-25.417 31.25-12.083l62.917 69.583 74.167-183.333c4.583-9.167 13.333-13.75 22.083-10.417zM245.018 399.333c19.583 0 36.25 16.667 36.25 36.25s-16.667 36.25-36.25 36.25h-115.833c-19.583 0-36.25-16.667-36.25-36.25s16.667-36.25 36.25-36.25h115.833zM921.268 399.333c19.583 0 36.25 16.667 36.25 36.25s-16.667 36.25-36.25 36.25h-115.417c-19.583 0-36.25-16.667-36.25-36.25s16.667-36.25 36.25-36.25h115.417zM271.685 131l80.833 80.833c14.167 13.75 14.167 37.083 0 51.25-13.333 13.75-37.083 13.75-50.833 0l-81.25-80.833c-13.75-13.75-13.75-37.083-0.417-50.833 13.75-13.75 37.5-14.167 51.667-0.417z" />
<glyph unicode="&#xe95c;" glyph-name="icon90" d="M820.116 97.917c75 0 113.25 37.875 113.25 112.125v432.75c0 73.875-38.25 111.75-113.25 111.75h-611.625c-75 0-113.25-37.5-113.25-111.75v-432.75c0-74.25 38.25-112.125 113.25-112.125h611.625zM817.867 159.792h-607.125c-34.5 0-53.625 18.375-53.625 54.375v424.5c0 36 19.125 54 53.625 54h607.125c34.125 0 53.625-18 53.625-54v-424.5c0-36-19.5-54.375-53.625-54.375zM441.367 295.917l190.5 112.5c13.875 8.25 13.875 28.125 0 36l-190.5 112.5c-14.625 8.625-33.375 1.875-33.375-14.25v-232.5c0-16.125 18-23.625 33.375-14.25z" />
<glyph unicode="&#xe95d;" glyph-name="icon91" d="M767.22 64c85.285 0 128.78 43.069 128.78 127.5v492.092c0 84.005-43.495 127.074-128.78 127.074h-489.107c-85.285 0-128.78-42.642-128.78-127.074v-492.092c0-84.432 43.495-127.5 128.78-127.5h489.107zM764.662 134.36h-483.99c-39.231 0-60.978 20.895-60.978 61.831v482.711c0 40.937 21.748 61.405 60.978 61.405h483.99c38.804 0 60.978-20.468 60.978-61.405v-482.711c0-40.937-22.174-61.831-60.978-61.831zM562.964 321.559l156.497 165.452c12.366 13.219 12.793 32.835 1.279 44.348-12.793 13.219-32.835 13.219-44.774 0.426l-153.512-162.467-153.086 162.467c-11.94 12.793-31.982 12.793-44.774-0.426-11.513-11.513-11.087-31.129 1.279-44.348l156.071-165.452c25.585-27.291 55.861-26.865 81.020 0z" />
<glyph unicode="&#xe95e;" glyph-name="icon92" d="M451.048 112.333l186.667 639.333c5 18.667-3.667 35.667-21 41-17.333 5-34.333-5-39.667-23.333l-186.333-639.333c-5.333-18.667 3.333-36 20.667-41s34.333 4.667 39.667 23.333zM731.048 203l234.667 212.333c16.333 14.333 16 37 0 51.333l-234.667 212c-14.333 13-34 13-46-0.667-12.333-13.667-10.333-33 3.333-45.667l211.667-191.333-211.667-191.667c-13.667-12.667-15.667-32-3.333-45.667 12-13.333 31.667-13.667 46-0.667zM343.048 203.667c12.333 13.667 10.667 32.667-3.333 45.667l-211.667 191.333 211.667 191.333c14 13 15.667 32.333 3.333 45.667-12 13.667-31.667 14-46 0.667l-234.667-212c-16-14.333-16-37 0-51.333l234.667-212c14.333-13.333 34-13 46 0.667z" />
<glyph unicode="&#xe95f;" glyph-name="icon93" d="M714.185 45.167c68.75 0 114.583 18.75 155.417 64.167 2.917 3.333 5.833 6.667 8.75 9.583 23.333 26.667 34.583 52.917 34.583 77.917 0 28.75-16.25 55.417-51.25 79.583l-115.833 80.417c-35.833 24.583-77.917 27.5-110.833-5.833l-30-29.583c-9.583-9.583-17.917-10.417-27.917-3.75-21.25 13.75-62.917 50.417-91.667 79.167-30 29.583-59.167 62.5-74.583 87.083-6.25 10-5.833 18.333 3.75 27.917l29.583 30c32.917 32.917 30.417 75 5.833 110.833l-81.25 116.667c-23.75 34.583-50.833 50.417-79.583 50.833-25 0.417-51.25-11.25-77.5-34.583-3.333-2.917-6.667-5.417-9.583-8.333-45.417-41.25-64.583-86.667-64.583-156.25 0-113.75 68.75-251.25 197.083-379.167 127.917-127.5 264.583-196.667 379.583-196.667zM714.185 107.25c-100.417-1.667-227.917 73.75-332.5 177.5-105.417 104.583-183.75 236.667-181.667 337.5 0.417 42.917 15.833 80 46.25 106.667 2.5 2.5 5 4.167 7.5 6.25 11.667 10 24.167 15.417 35.417 15.417 11.667 0 21.667-4.583 29.167-16.25l75.833-113.333c8.75-12.917 9.167-27.083-3.75-39.583l-33.333-33.333c-28.333-27.917-26.25-61.667-6.667-87.917 22.083-30.417 61.25-75 92.917-105.833 32.083-32.083 80-75 110-97.083 26.25-19.583 60-21.667 87.917 6.667l33.333 33.333c12.5 12.917 26.667 12.5 39.583 3.75l112.5-75c12.083-7.917 16.667-17.917 16.667-29.583 0-11.25-5.417-23.333-15.417-35-2.5-2.917-4.167-5-6.25-7.917-27.083-30.417-64.167-45.417-107.5-46.25z" />
<glyph unicode="&#xe960;" glyph-name="icon95" d="M328.458 132.417c7.5 0 13.5 1.875 22.875 7.5l439.5 258.75c13.5 7.875 21 15 21 26.625s-7.5 18.75-21 26.625l-439.5 258.75c-9.375 5.625-15.375 7.5-22.875 7.5-15 0-25.125-10.875-25.125-29.625v-526.5c0-18.75 10.125-29.625 25.125-29.625z" />
<glyph unicode="&#xe961;" glyph-name="icon96" d="M431.542 156.042c22.875 0 32.25 9.375 32.25 32.25v474.75c0 23.25-9.375 32.25-32.25 32.25h-74.25c-23.25 0-32.625-9.375-32.625-32.25v-474.75c0-22.875 9.375-32.25 32.625-32.25h74.25zM656.167 156.042c22.875 0 32.625 9.375 32.625 32.25v474.75c0 23.25-9.75 32.25-32.625 32.25h-74.25c-23.25 0-32.625-9.375-32.625-32.25v-474.75c0-22.875 9.375-32.25 32.625-32.25h74.25z" />
</font>
</defs>
</svg>
