<?xml version="1.0" standalone="no"?>
<!DOCTYPE svg PUBLIC "-//W3C//DTD SVG 1.1//EN" "http://www.w3.org/Graphics/SVG/1.1/DTD/svg11.dtd" >
<svg xmlns="http://www.w3.org/2000/svg">
<metadata>Generated by IcoMoon</metadata>
<defs>
<font id="ranIcon" horiz-adv-x="1024">
<font-face units-per-em="1024" ascent="960" descent="-64" />
<missing-glyph horiz-adv-x="1024" />
<glyph unicode="&#x20;" horiz-adv-x="512" d="" />
<glyph unicode="&#xe900;" glyph-name="icon1" d="M242.742 37.721c53.050 0 160.294 51.522 241.206 109.154 269.449-4.964 470.962 150.755 470.962 355.32 0 197.314-197.312 356.084-443.102 356.084-245.786 0-442.718-158.768-442.718-356.084 0-125.565 77.857-237.391 197.314-295.78-16.41-30.913-45.418-73.279-61.827-95.414-24.425-32.444-7.635-73.279 38.166-73.279zM288.923 116.724c-4.962-1.905-6.87 0.763-3.436 4.964 19.465 23.662 48.087 61.446 62.209 88.165 11.45 20.993 7.635 39.307-16.791 50.757-116.405 54.58-183.958 141.974-183.958 241.588 0 153.425 161.823 278.226 364.86 278.226s364.864-124.8 364.864-278.226-161.823-278.607-364.864-278.607c-6.87 0-17.557 0.382-30.532 0.382-16.409 0.382-28.623-4.582-43.893-16.414-46.176-34.349-114.495-77.095-148.462-90.833zM512.191 306.024c19.843 0 34.349 14.123 34.349 33.206v179.758l-3.436 78.623 34.73-43.509 42.366-44.271c5.346-6.109 13.738-9.922 22.897-9.922 18.32 0 31.677 13.355 31.677 30.913 0 9.159-3.052 16.791-9.159 23.279l-125.946 127.473c-8.393 8.778-16.791 12.977-27.479 12.977-10.303 0-18.701-4.199-27.098-12.977l-125.946-127.473c-6.488-6.488-9.162-14.123-9.162-23.279 0-17.557 13.362-30.913 31.301-30.913 9.54 0 17.552 4.194 23.279 9.922l42.747 44.652 33.968 42.747-3.436-78.241v-179.758c0-19.084 14.886-33.206 34.349-33.206z" />
<glyph unicode="&#xe901;" glyph-name="icon2" d="M222.752 40.148c46.528 0 157.502 48.43 226.901 97.242 7.247 5.335 13.346 7.247 19.445 7.247 4.96-0.382 9.538-0.763 13.728-0.763 274.956 0.382 471.727 150.251 471.727 356.18 0 197.156-197.155 355.798-442.746 355.798-245.588 0-442.362-158.64-442.362-355.798 0-122.794 73.979-232.623 199.062-300.12 6.862-4.195 8.773-9.914 5.339-16.778-22.121-36.992-59.108-78.177-74.364-97.622-17.163-21.736-7.247-45.381 23.262-45.381zM512.199 296.032c-20.589 0-35.845 14.493-35.845 35.083v185.72l3.816 81.23-35.465-44.234-44.234-46.146c-5.715-6.48-14.493-10.296-24.025-10.296-19.069 0-33.181 13.728-33.181 32.412 0 9.919 3.054 17.163 9.538 24.405l130.798 132.712c9.159 9.152 17.545 13.349 28.602 13.349 11.44 0 20.209-4.575 28.985-13.349l130.418-132.712c6.862-7.247 9.914-14.484 9.914-24.405 0-18.683-14.111-32.412-33.176-32.412-9.532 0-18.307 3.816-24.405 10.296l-43.476 45.761-35.845 44.996 3.816-81.61v-185.72c0-20.589-15.256-35.083-36.23-35.083z" />
<glyph unicode="&#xe902;" glyph-name="icon3" d="M511.782 0.249c245.528 0 448.187 202.657 448.187 447.751s-203.091 447.751-448.62 447.751c-245.095 0-447.318-202.657-447.318-447.751s202.657-447.751 447.751-447.751zM511.782 89.453c-198.759 0-357.679 159.784-357.679 358.543s158.92 358.114 357.249 358.114c198.761 0 358.551-159.354 358.986-358.114 0.427-198.761-159.787-358.543-358.551-358.543zM465.015 241.88c16.023 0 29.445 7.795 38.54 22.087l195.296 303.988c6.059 9.088 10.823 19.484 10.823 29.010 0 21.653-19.051 36.374-39.841 36.374-12.992 0-24.683-7.364-33.772-22.085l-172.349-275.409-80.539 102.198c-10.397 13.422-20.785 17.751-33.348 17.751-21.653 0-38.54-16.89-38.54-38.54 0-10.397 3.897-19.918 11.257-29.447l102.192-124.275c11.69-14.727 24.25-21.653 40.274-21.653z" />
<glyph unicode="&#xe903;" glyph-name="icon4" d="M511.783 0.248c245.527 0 448.186 202.66 448.186 447.752s-203.093 447.752-448.62 447.752c-245.093 0-447.318-202.66-447.318-447.752s202.66-447.752 447.752-447.752zM463.278 234.085c-16.451 0-29.876 6.927-42.002 22.949l-106.090 128.613c-7.796 9.959-11.694 19.921-11.694 30.743 0 22.515 17.754 40.706 40.273 40.706 13.42 0 23.817-4.762 35.075-19.054l83.142-105.227 178.41 285.801c9.525 15.156 21.648 22.517 35.509 22.517 22.082 0 42.002-15.156 42.002-38.104 0-9.962-5.196-20.788-11.259-30.31l-203.093-315.681c-9.525-15.154-23.817-22.949-40.272-22.949z" />
<glyph unicode="&#xe904;" glyph-name="icon5" d="M511.781-2.714c7.973 0 19.932 2.658 31.45 8.86 254.7 138.649 343.293 202.878 343.293 364.117v334.434c0 53.156-20.378 72.202-65.115 91.252-48.723 20.818-214.395 78.407-262.232 94.793-15.059 4.873-31.891 7.973-47.396 7.973-15.061 0-32.337-3.987-46.958-7.973-47.842-13.732-213.509-74.42-262.232-94.793-44.737-18.605-65.115-38.097-65.115-91.252v-334.434c0-161.239 88.593-224.584 343.293-364.117 11.518-6.207 23.477-8.86 31.012-8.86zM511.781 91.193c-6.207 0-12.405 2.212-25.251 10.185-201.991 123.145-264.893 156.37-264.893 285.272v303.869c0 15.946 3.1 22.151 15.505 27.465 65.555 26.137 192.691 68.215 251.159 91.252 10.193 3.545 17.279 4.873 23.481 4.873 6.644 0 13.73-1.327 23.918-4.873 58.468-23.032 184.711-67.775 250.714-91.252 12.846-4.873 15.945-11.518 15.945-27.465v-303.869c0-129.79-65.561-164.779-264.894-285.272-12.846-7.973-19.044-10.185-25.689-10.185zM464.382 260.846c16.392 0 30.125 7.973 39.426 22.59l199.775 310.964c6.207 9.297 11.072 19.932 11.072 30.117 0 22.151-19.491 36.765-40.748 36.765-13.292 0-25.251-7.532-34.552-22.59l-176.298-281.285-82.394 104.097c-10.631 13.734-21.265 18.607-34.112 18.607-22.144 0-39.423-17.72-39.423-39.864 0-10.635 3.987-20.378 11.518-30.125l104.538-127.131c11.959-15.059 24.805-22.144 41.197-22.144z" />
<glyph unicode="&#xe905;" glyph-name="icon6" d="M511.776 0.001c8.055 0 19.693 3.137 31.329 8.951 256.449 132.031 341.48 201.402 341.48 362.073v332.53c0 52.811-20.589 72.057-64.893 90.409-49.229 20.589-213.037 78.321-260.923 94.433-14.769 4.477-31.329 7.607-46.989 7.607-15.219 0-31.78-3.134-46.549-7.607-48.337-15.218-212.141-74.295-260.924-94.433-44.309-17.903-64.893-37.593-64.893-90.409v-332.53c0-160.675 88.618-223.781 341.486-362.073 11.635-6.261 23.27-8.951 30.884-8.951zM462.098 247.050c-17.009 0-30.884 7.159-43.415 23.27l-109.649 132.928c-8.055 10.291-12.084 21.037-12.084 32.225 0 23.27 18.353 42.071 41.175 42.071 14.32 0 25.062-5.373 36.697-19.697l85.931-108.754 184.394 294.938c9.847 15.665 22.374 23.719 36.697 23.719 22.381 0 43.412-15.665 43.412-39.383 0-10.295-5.367-21.485-11.635-31.78l-209.9-325.82c-10.295-15.664-24.615-23.718-41.623-23.718z" />
<glyph unicode="&#xe906;" glyph-name="icon7" d="M511.783 0.248c245.526 0 448.186 202.66 448.186 447.752s-203.094 447.752-448.62 447.752c-245.093 0-447.318-202.66-447.318-447.752s202.66-447.752 447.752-447.752zM293.535 393.442c-19.487 0-34.643 15.154-34.643 34.642s15.155 34.642 34.643 34.642h183.605v248.56c0 19.487 15.154 34.643 34.209 34.643 19.921 0 35.075-15.155 35.075-34.643v-283.202c0-19.487-15.154-34.642-35.075-34.642h-217.814z" />
<glyph unicode="&#xe907;" glyph-name="icon8" d="M128.745 169.911l338.383-189.106c30.646-17.074 58.663-17.074 89.304 0l338.383 189.106c42.465 23.206 63.478 48.152 63.478 109.88v355.021c0 46.401-17.514 76.171-56.91 98.057l-307.742 172.477c-53.845 30.206-109.439 30.206-163.72 0l-307.745-172.477c-38.96-21.887-56.47-51.656-56.47-98.057v-355.021c0-61.726 21.012-86.675 63.039-109.88zM511.779 495.165l-322.187 179.917 275.787 155.402c31.518 17.949 61.284 18.385 93.239 0l275.791-155.402-322.627-179.917zM176.897 237.766c-24.078 13.129-32.394 27.141-32.394 50.34v317.812l326.126-183.862v-349.762l-293.732 165.472zM847.099 237.766l-294.169-165.472v349.762l326.122 183.862v-317.812c0-23.199-8.319-37.211-31.956-50.34z" />
<glyph unicode="&#xe908;" glyph-name="icon9" d="M511.78 479.621l417.2 233.63c-7.026 7.027-15.369 12.734-26.347 18.444l-307.852 173.030c-27.228 15.37-55.332 23.275-82.56 23.275-27.667 0-55.772-7.905-83-23.275l-307.852-173.030c-10.539-5.71-19.324-11.417-26.349-18.444l416.76-233.63zM479.723-32v454.53l-414.126 233.631c-2.195-8.784-3.074-18.007-3.074-28.985v-351.329c0-62.797 21.957-87.831 64.556-111.985l339.907-190.592c3.952-2.197 8.343-4.393 12.736-5.271zM544.279-32c4.393 0.879 8.343 3.072 12.736 5.271l339.906 190.592c42.601 24.155 64.556 49.187 64.556 111.985v351.329c0 10.977-0.879 20.2-3.072 28.985l-414.127-233.631v-454.53z" />
<glyph unicode="&#xe909;" glyph-name="icon10" d="M173.409 32c21.399 0 39.020 17.201 39.020 39.017v229.507c11.747 4.192 46.991 16.78 100.275 16.78 152.727 0 255.099-76.361 402.784-76.361 64.617 0 94.406 7.971 126.709 23.078 30.207 13.429 47.834 38.18 47.834 76.78v417.89c0 27.691-21.401 44.896-49.927 44.896-23.915 0-61.677-15.945-128.811-15.945-146.006 0-250.478 76.361-402.784 76.361-63.352 0-92.304-7.971-126.288-23.076-29.789-13.845-48.25-35.663-48.25-73.845v-696.063c0-21.395 18.039-39.017 39.438-39.017zM713.813 320.658c-135.94 0-241.249 75.94-399.428 75.94-40.698 0-77.619-4.61-99.858-13.004v372.574c7.552 12.166 38.6 28.529 95.242 28.529 143.072 0 248.383-76.361 399.848-76.361 40.277 0 74.263 4.616 99.858 11.747v-371.315c-7.131-12.168-39.020-28.113-95.661-28.113z" />
<glyph unicode="&#xe90a;" glyph-name="icon11" d="M173.408 31.999c21.399 0 39.020 17.201 39.020 39.017v229.507c11.747 4.192 46.991 16.78 100.275 16.78 152.727 0 255.099-76.361 402.784-76.361 64.617 0 94.406 7.971 126.709 23.078 30.207 13.429 47.834 38.18 47.834 76.78v417.89c0 27.691-21.401 44.896-49.927 44.896-23.915 0-61.677-15.945-128.811-15.945-146.006 0-250.478 76.361-402.784 76.361-63.352 0-92.304-7.971-126.288-23.076-29.789-13.845-48.25-35.663-48.25-73.845v-696.063c0-21.395 18.039-39.017 39.438-39.017z" />
<glyph unicode="&#xe90b;" glyph-name="icon12" d="M231.038 127.343h570.17c66.331 0 104.825 38.494 104.825 112.038v353.65c0 73.548-38.837 112.041-113.072 112.041h-318.597c-24.746 0-39.523 5.499-58.768 21.309l-19.245 15.809c-24.401 19.935-42.272 26.463-78.36 26.463h-97.263c-64.613 0-102.76-37.804-102.76-110.322v-418.953c0-73.889 38.834-112.038 113.072-112.038zM186.359 652.49c0 31.275 17.529 47.773 48.115 47.773h65.299c24.401 0 38.834-5.844 58.426-21.651l19.245-16.152c24.056-19.245 42.616-26.12 78.703-26.12h332.34c31.62 0 49.146-16.499 49.146-49.489v-20.279h-651.277v85.921zM235.505 195.735c-31.619 0-49.146 16.499-49.146 49.834v260.855h651.277v-261.199c0-32.992-17.526-49.489-49.146-49.489h-552.986z" />
<glyph unicode="&#xe90c;" glyph-name="icon13" d="M796.306 416.81h27c10.55 0 18.929 6.518 21.1 17.068l7.451 29.793c3.722 1.243 8.067 2.793 11.793 4.964l26.376-16.136c8.688-5.276 18.933-5.276 27 2.793l18.306 18.929c7.451 7.451 8.067 17.688 2.175 27.312l-15.517 26.063c2.481 3.724 3.415 7.14 4.964 10.865l29.793 7.446c10.55 2.481 17.379 10.55 17.379 21.102v26.689c0 10.24-7.14 18-17.379 20.483l-29.481 7.447c-1.55 4.655-3.415 8.067-4.964 11.171l16.446 26.997c5.586 8.688 4.653 19.86-2.793 26.997l-19.24 18.309c-7.451 7.447-17.688 8.999-26.378 3.723l-26.686-16.758c-4.347 2.481-8.071 3.413-11.793 4.966l-7.451 30.411c-2.481 10.24-10.55 17.068-21.1 17.068h-27c-10.55 0-18.929-7.14-21.1-17.379l-6.828-29.79c-4.964-1.553-8.688-2.793-12.722-5.276l-26.378 16.758c-8.379 4.966-18.929 3.723-26.378-3.723l-18.618-18.309c-7.451-7.447-9.31-18-3.724-26.997l16.758-26.997c-1.55-3.103-3.104-7.14-4.964-11.171l-29.481-7.447c-10.24-2.481-17.068-10.551-17.068-20.483v-26.689c0-10.551 6.828-18.619 17.068-21.102l30.102-7.446c1.55-3.724 3.104-7.14 4.653-10.865l-15.515-26.376c-5.586-9.31-4.968-19.86 2.481-27l18.306-18.929c7.451-8.067 18-8.067 26.689-2.793l26.686 16.136c4.347-2.481 8.071-3.722 12.104-4.964l6.828-29.793c2.172-10.24 10.55-17.068 21.1-17.068zM234.007 151.489h514.821c59.891 0 94.648 34.757 94.648 101.162v126.924c-16.758-3.724-41.895-4.036-61.757 0v-121.65c0-29.789-15.824-44.686-44.374-44.686h-499.307c-28.549 0-44.376 14.896-44.376 44.996v235.533h433.828c-8.688 16.758-15.207 35.066-18.311 54.307h-415.518v77.581c0 28.237 15.827 43.136 43.444 43.136h58.96c22.031 0 35.066-5.276 52.755-19.55l17.379-14.584c21.722-17.379 38.478-23.587 71.063-23.587h172.227c2.481 22.031 7.446 41.273 18 62.064h-173.779c-22.343 0-35.686 4.966-53.063 19.24l-17.379 14.275c-22.031 18-38.17 23.894-70.753 23.894h-87.82c-58.341 0-92.785-34.134-92.785-99.614v-378.283c0-66.717 35.066-101.162 102.096-101.162zM809.958 529.148c-28.546 0-51.2 22.964-51.2 51.201s22.653 51.203 51.2 51.513c27.933 0.621 51.515-23.273 51.515-51.513s-23.582-51.201-51.515-51.201z" />
<glyph unicode="&#xe90d;" glyph-name="icon14" d="M804.407 422.754c87.272 0 160.515 72.932 160.515 160.514 0 88.204-72.62 160.514-160.515 160.514-87.893 0-160.511-72.621-160.511-160.514 0-88.204 72.62-160.514 160.511-160.514zM225.622 152.218h517.074c60.154 0 95.063 34.909 95.063 101.605v127.479c-16.83-3.74-42.079-4.054-62.027 0v-122.182c0-29.919-15.893-44.881-44.569-44.881h-501.491c-28.674 0-44.57 14.961-44.57 45.193v236.564h435.726c-8.727 16.83-15.275 35.222-18.391 54.545h-417.336v77.92c0 28.362 15.896 43.324 43.635 43.324h59.218c22.128 0 35.219-5.3 52.987-19.636l17.454-14.648c21.817-17.454 38.648-23.688 71.373-23.688h172.982c2.492 22.128 7.479 41.453 18.078 62.336h-174.541c-22.44 0-35.841 4.986-53.296 19.325l-17.454 14.337c-22.128 18.078-38.337 23.999-71.063 23.999h-88.204c-58.598 0-93.191-34.284-93.191-100.049v-379.937c0-67.009 35.219-101.605 102.542-101.605zM702.49 583.268c0 13.091 8.727 21.506 21.508 21.506h58.906v58.907c0 12.466 8.415 21.193 21.505 21.193 13.092 0.311 21.508-8.415 21.508-21.193v-58.907h58.906c12.78 0 21.196-8.415 21.196-21.506s-8.415-21.506-21.196-21.506h-58.906v-58.906c0-12.78-8.415-21.508-21.508-21.508-13.089 0-21.505 8.727-21.505 21.508v58.906h-58.906c-12.78 0-21.508 8.415-21.508 21.506z" />
<glyph unicode="&#xe90e;" glyph-name="icon15" d="M792.959 705.073h-318.596c-24.746 0-39.522 5.499-58.768 21.309l-19.245 15.809c-24.401 19.935-42.272 26.463-78.359 26.463h-97.263c-64.613 0-102.76-37.803-102.76-110.322v-96.231h788.065v30.929c0 73.547-38.837 112.041-113.071 112.041zM231.040 127.344h570.169c66.33 0 104.824 38.494 104.824 112.038v273.227h-788.065v-273.227c0-73.889 38.834-112.038 113.071-112.038z" />
<glyph unicode="&#xe90f;" glyph-name="icon16" d="M787.29 416.81h27c10.55 0 18.929 6.519 21.1 17.069l7.451 29.793c3.722 1.243 8.067 2.794 11.793 4.964l26.376-16.136c8.688-5.276 18.933-5.276 27 2.794l18.306 18.929c7.451 7.451 8.067 17.689 2.175 27.311l-15.517 26.063c2.481 3.724 3.415 7.139 4.964 10.864l29.793 7.446c10.55 2.481 17.378 10.55 17.378 21.102v26.689c0 10.24-7.139 17.999-17.378 20.482l-29.481 7.447c-1.55 4.655-3.415 8.067-4.964 11.17l16.446 26.997c5.586 8.688 4.653 19.86-2.794 26.997l-19.24 18.309c-7.451 7.447-17.689 8.999-26.378 3.723l-26.686-16.758c-4.347 2.481-8.071 3.413-11.793 4.966l-7.451 30.412c-2.481 10.24-10.55 17.069-21.1 17.069h-27c-10.55 0-18.929-7.139-21.1-17.378l-6.828-29.79c-4.964-1.552-8.688-2.794-12.722-5.276l-26.378 16.758c-8.379 4.966-18.929 3.723-26.378-3.723l-18.618-18.309c-7.451-7.447-9.31-17.999-3.724-26.997l16.758-26.997c-1.55-3.103-3.104-7.139-4.964-11.17l-29.481-7.447c-10.24-2.481-17.069-10.551-17.069-20.482v-26.689c0-10.551 6.828-18.62 17.069-21.102l30.102-7.446c1.55-3.724 3.104-7.139 4.653-10.864l-15.515-26.376c-5.586-9.31-4.968-19.86 2.481-27l18.306-18.929c7.451-8.067 17.999-8.067 26.689-2.794l26.686 16.136c4.347-2.481 8.071-3.722 12.104-4.964l6.828-29.793c2.172-10.24 10.55-17.069 21.1-17.069zM122.894 544.046h480.688c-2.481 10.86-4.035 22.031-4.035 33.823 0 32.273 7.451 66.099 22.035 95.269h-176.884c-22.343 0-35.686 4.966-53.063 19.241l-17.378 14.274c-22.031 17.999-38.17 23.894-70.753 23.894h-87.82c-58.342 0-92.785-34.134-92.785-99.614v-86.889zM800.944 529.149c-28.546 0-51.199 22.964-51.199 51.202s22.653 51.203 51.199 51.513c27.932 0.621 51.515-23.273 51.515-51.513s-23.582-51.202-51.515-51.202zM224.99 151.488h514.823c59.891 0 94.648 34.757 94.648 101.162v126.613c-9.932-1.864-19.55-2.481-29.793-2.481-82.546 0-154.849 47.789-186.503 122.574h-495.273v-246.705c0-66.718 35.066-101.162 102.096-101.162z" />
<glyph unicode="&#xe910;" glyph-name="icon17" d="M803.833 443.117c87.272 0 160.516 72.932 160.516 160.514 0 88.204-72.62 160.514-160.516 160.514-87.893 0-160.512-72.621-160.512-160.514 0-88.204 72.62-160.514 160.512-160.514zM122.503 566.855h482.792c-2.492 10.908-4.053 22.129-4.053 33.972 0 32.414 7.483 66.388 22.132 95.685h-177.66c-22.44 0-35.841 4.987-53.296 19.324l-17.455 14.338c-22.129 18.078-38.336 24-71.063 24h-88.204c-58.597 0-93.192-34.284-93.192-100.050v-87.27zM701.916 603.633c0 13.091 8.727 21.506 21.507 21.506h58.906v58.907c0 12.466 8.416 21.193 21.504 21.193 13.093 0.31 21.507-8.416 21.507-21.193v-58.907h58.906c12.78 0 21.196-8.416 21.196-21.506s-8.416-21.506-21.196-21.506h-58.906v-58.906c0-12.78-8.416-21.507-21.507-21.507s-21.504 8.727-21.504 21.507v58.906h-58.906c-12.78 0-21.507 8.416-21.507 21.506zM225.047 172.579h517.076c60.154 0 95.063 34.909 95.063 101.606v127.167c-9.977-1.872-19.636-2.492-29.923-2.492-82.907 0-155.526 47.997-187.319 123.11h-497.44v-247.786c0-67.009 35.219-101.606 102.542-101.606z" />
<glyph unicode="&#xe911;" glyph-name="icon18" d="M511.999 0c245.033 0 448 202.53 448 448 0 245.033-202.966 448-448.432 448-245.033 0-447.565-202.966-447.565-448 0-245.467 202.966-448 448-448zM511.999 88.039c-199.495 0-359.526 160.462-359.526 359.96s159.597 359.528 359.094 359.528c199.497 0 359.96-160.029 360.394-359.528 0-199.497-160.462-359.96-359.96-359.96zM341.561 371.668c0-107.554 71.125-173.474 170.874-173.474 71.993 0 121.864 28.19 156.131 93.246 21.681 37.295 37.729 86.304 51.61 132.27 6.938 22.549 16.475 49.876 17.345 62.022 0.434 14.745-9.539 25.15-24.286 25.584-16.048 0.868-26.886-8.674-37.295-30.791l-33.83-72.43c-3.034-7.372-6.502-9.973-9.973-9.973-4.338 0-6.943 3.468-6.943 10.407v255.442c0 15.18-13.007 27.754-28.187 27.754-15.616 0-27.756-12.578-27.756-27.754v-183.884c-6.509 1.731-12.578 3.904-19.95 5.204v213.372c0 15.18-12.144 27.754-27.756 27.754s-27.754-12.576-27.754-27.754v-210.338c-6.943-1.302-13.88-1.737-20.384-3.034v192.556c0 15.612-12.578 28.19-28.19 28.19-15.178 0-28.19-12.578-28.19-28.19v-209.472c-7.372-3.034-13.012-6.938-19.082-10.407v143.982c0 16.048-12.578 28.624-28.19 28.624s-28.19-12.578-28.19-28.624v-230.29z" />
<glyph unicode="&#xe912;" glyph-name="icon19" d="M511.998 0c245.034 0 448 202.531 448 448 0 245.034-202.966 448-448.433 448-245.034 0-447.566-202.966-447.566-448 0-245.468 202.966-448 448-448zM334.188 367.332v239.832c0 16.482 13.012 29.491 29.489 29.491 16.048 0 29.058-13.011 29.058-29.491v-149.622c6.503 3.468 12.144 7.372 19.95 10.842v217.71c0 16.048 13.447 29.057 29.058 29.057 16.482 0 29.489-13.012 29.489-29.057v-199.933c6.943 1.302 13.881 1.737 20.818 2.605v218.577c0 15.614 13.012 29.057 29.492 29.057 16.048 0 29.053-13.445 29.053-29.057v-221.183c6.943-1.731 13.881-3.904 19.95-5.635v190.823c0 15.614 13.012 29.057 29.058 29.057s29.058-13.012 29.058-29.057v-264.982c0-7.377 2.6-10.412 7.806-10.412 3.468 0 6.938 2.171 9.973 9.977l35.128 75.027c11.276 22.984 21.686 33.391 39.031 32.528 15.183-0.868 25.59-11.713 24.72-26.891-0.434-12.578-10.407-41.631-17.779-65.051-14.749-47.705-30.795-98.447-54.214-137.482-35.562-67.221-87.171-96.276-161.764-96.276-103.217 0-177.376 68.519-177.376 179.544z" />
<glyph unicode="&#xe913;" glyph-name="icon20" d="M184.157 282.018c0-196.642 132.26-314.017 310.511-314.017 133.578 0 220.293 54.307 279.853 163.361 42.48 67.882 72.262 161.164 96.787 241.747 13.14 41.607 31.094 94.162 32.409 117.373 1.749 26.274-15.327 45.11-41.607 46.861-30.217 2.192-49.053-15.327-67.882-54.742l-61.315-131.825c-5.69-13.14-11.825-17.52-18.83-17.52-7.882 0-13.573 4.381-13.573 18.83v462.922c0 28.468-22.338 50.803-50.806 50.803-28.027 0-50.362-22.337-50.362-50.803v-336.789c-11.386 3.942-23.647 7.445-36.352 10.071v388.908c0 28.468-22.338 50.803-50.801 50.803-28.027 0-50.368-22.337-50.368-50.803v-384.088c-13.14-1.311-25.837-3.064-38.537-5.253v352.989c0 28.027-22.338 50.364-50.368 50.364-28.468 0-50.801-22.337-50.801-50.364v-382.775c-13.14-6.127-25.402-13.14-36.787-20.585v266.715c0 28.027-22.337 50.366-50.364 50.366-28.468 0-50.803-22.337-50.803-50.366v-422.188z" />
<glyph unicode="&#xe914;" glyph-name="icon21" d="M73.126 469.395c0-18.664 14.353-34.811 37.32-34.811 11.124 0 21.172 6.101 30.144 13.279l40.91 34.452v-333.734c0-53.107 31.936-84.689 86.842-84.689h485.525c54.548 0 86.843 31.582 86.843 84.689v335.527l43.062-36.244c8.612-7.178 18.659-13.279 29.786-13.279 21.169 0 37.317 13.279 37.317 34.093 0 12.201-4.663 21.888-13.997 29.786l-96.169 81.101v152.871c0 16.149-10.407 26.197-26.556 26.197h-49.52c-15.79 0-26.556-10.048-26.556-26.197v-66.746l-174.763 146.771c-31.218 26.197-70.692 26.197-101.914 0l-373.922-313.993c-9.69-7.896-14.353-18.664-14.353-29.066zM615.346 370.352c0 16.867-10.762 27.629-27.629 27.629h-150.718c-16.867 0-27.992-10.762-27.992-27.629v-235.050h-121.648c-22.249 0-34.449 12.563-34.449 35.171v371.765l243.662 204.547c10.048 8.612 21.528 8.612 31.576 0l240.792-202.391v-373.922c0-22.608-12.202-35.171-34.452-35.171h-119.139v235.050z" />
<glyph unicode="&#xe915;" glyph-name="icon22" d="M73.124 469.398c0-18.664 14.354-34.811 37.32-34.811 11.125 0 21.172 6.1 30.143 13.278l355.982 298.924c10.048 8.612 21.529 8.612 31.577 0l355.624-298.924c8.611-7.178 18.658-13.278 29.785-13.278 21.17 0 37.318 13.278 37.318 34.092 0 12.2-4.662 21.89-13.997 29.785l-100.836 84.688v149.283c0 16.148-10.407 26.196-26.555 26.196h-49.521c-15.788 0-26.551-10.048-26.551-26.196v-62.799l-170.099 142.825c-31.219 26.196-70.691 26.196-101.914 0l-373.922-313.995c-9.69-7.897-14.354-18.664-14.354-29.065zM189.749 146.787c0-51.674 32.298-82.896 85.766-82.896h473.328c53.111 0 85.766 31.222 85.766 82.896v272.728l-300.362 251.555c-13.997 12.203-30.86 11.842-44.497 0l-300.002-251.555v-272.728zM606.378 131.358h-188.395v229.665c0 16.863 11.122 27.629 27.989 27.629h132.778c16.866 0 27.629-10.766 27.629-27.629v-229.665z" />
<glyph unicode="&#xe916;" glyph-name="icon23" d="M603.429 219.429c25.245 0 45.715-20.465 45.715-45.715s-20.465-45.715-45.715-45.715c-25.245 0-45.715 20.465-45.715 45.715s20.465 45.715 45.715 45.715zM420.571 219.429c25.245 0 45.715-20.465 45.715-45.715s-20.465-45.715-45.715-45.715c-25.245 0-45.715 20.465-45.715 45.715s20.465 45.715 45.715 45.715zM603.429 402.287c25.245 0 45.715-20.465 45.715-45.715s-20.465-45.715-45.715-45.715c-25.245 0-45.715 20.465-45.715 45.715s20.465 45.715 45.715 45.715zM420.571 402.287c25.245 0 45.715-20.465 45.715-45.715s-20.465-45.715-45.715-45.715c-25.245 0-45.715 20.465-45.715 45.715s20.465 45.715 45.715 45.715zM603.429 585.147c25.245 0 45.715-20.465 45.715-45.715s-20.465-45.715-45.715-45.715c-25.245 0-45.715 20.465-45.715 45.715s20.465 45.715 45.715 45.715zM420.571 585.147c25.245 0 45.715-20.465 45.715-45.715s-20.465-45.715-45.715-45.715c-25.245 0-45.715 20.465-45.715 45.715s20.465 45.715 45.715 45.715zM603.429 768.001c25.245 0 45.715-20.465 45.715-45.715s-20.465-45.715-45.715-45.715c-25.245 0-45.715 20.465-45.715 45.715s20.465 45.715 45.715 45.715zM420.571 768.001c25.245 0 45.715-20.465 45.715-45.715s-20.465-45.715-45.715-45.715c-25.245 0-45.715 20.465-45.715 45.715s20.465 45.715 45.715 45.715z" />
<glyph unicode="&#xe917;" glyph-name="icon24" d="M392.133 186.862v70.206h-149.405c-98.89 0-172.093 65.499-172.093 145.98 0 76.628 49.658 138.702 134.421 138.702 5.566 0 8.133 2.997 7.706 8.562-0.857 123.291 87.758 159.251 172.093 134.421 5.136-1.713 8.133-0.428 10.703 3.854 38.956 70.206 99.317 126.715 202.488 126.715 130.996 0 222.609-103.598 229.458-223.464 0.857-19.265-0.428-41.953-2.14-61.217-0.428-5.136 1.713-8.133 6.851-9.418 73.632-15.411 121.151-67.638 121.151-136.133 0-73.632-64.214-127.999-148.977-127.999h-170.809v-70.206h171.665c123.291 0 218.757 84.761 218.757 196.923 0 82.194-49.231 156.254-128.857 189.646 0.857 181.511-129.712 312.508-296.669 312.508-109.165 0-188.361-57.793-237.592-129.712-93.753 24.83-208.908-47.090-211.905-160.965-91.613-15.411-148.977-97.177-148.977-192.643 0-119.437 104.026-215.759 242.728-215.759h149.405zM512.857 10.058c18.835 0 34.246 15.411 34.246 33.391v377.15l-2.997 74.059 26.97-29.11 59.505-59.505c6.422-6.422 14.556-10.275 23.117-10.275 17.553 0 30.823 12.414 30.823 29.538 0 9.418-2.997 16.268-9.845 22.262l-136.562 127.999c-8.99 8.133-16.268 11.559-25.258 11.559-8.562 0-15.839-3.425-25.258-11.559l-136.562-127.999c-6.851-5.993-9.845-12.842-9.845-22.262 0-17.124 13.272-29.538 30.394-29.538 8.562 0 17.124 3.854 23.545 10.275l59.933 59.505 26.97 29.11-2.997-74.059v-377.15c0-17.981 15.411-33.391 33.82-33.391z" />
<glyph unicode="&#xe918;" glyph-name="icon25" d="M617.686 27.984c1.778 15.993-8.44 31.985-30.652 35.538-66.191 9.773-202.128 40.424-302.527 141.713-163.48 163.48-195.022 413.143-61.305 547.304 108.394 107.95 288.756 95.066 421.585 23.102l47.533 46.645c-164.366 99.066-384.712 105.286-514.43-24.435-154.15-154.594-134.602-442.463 60.86-637.93 116.835-116.835 266.543-152.374 339.843-159.48 23.543-3.11 37.761 10.66 39.094 27.544zM862.463 760.092l34.206 34.651c16.881 16.881 17.77 41.314 0.888 57.751l-11.549 10.66c-15.104 13.772-38.646 13.327-54.642-2.666l-34.651-34.651 65.748-65.748zM368.469 318.517l84.846 33.318 378.494 377.604-66.191 65.748-377.604-377.604-35.538-82.629c-3.996-9.773 6.22-19.547 15.993-16.437zM878.899 218.563c101.286 101.73 89.736 282.538-19.547 438.465l-46.2-46.2c84.406-125.276 100.399-266.1 19.991-346.507-98.177-98.622-260.325-52.421-369.607 51.088l-69.745-28.874c136.38-138.604 360.722-191.912 485.107-67.969z" />
<glyph unicode="&#xe919;" glyph-name="icon26" d="M512.23-0.001c244.91 0 447.768 202.86 447.768 448.232 0 244.91-203.321 447.768-448.232 447.768s-447.768-202.86-447.768-447.768c0-245.373 203.321-448.232 448.232-448.232zM512.23 79.941c-204.246 0-367.826 163.58-367.826 368.288 0 204.246 163.118 368.288 367.363 368.288s368.288-164.043 368.751-368.288c0.462-204.707-164.046-368.288-368.289-368.288zM502.988 359.046c22.642 0 36.507 13.862 36.966 30.96v5.545c0.463 23.566 15.249 39.279 44.824 58.686 42.975 27.725 72.087 53.603 72.087 104.896 0 73.010-64.693 112.752-140.477 112.752-74.859 0-124.765-35.118-137.242-75.322-2.772-7.393-4.158-14.787-4.158-22.18 0-19.87 16.173-31.422 32.346-31.422 24.953 0 29.574 12.939 43.437 29.111 14.325 23.104 34.658 36.966 62.383 36.966 38.352 0 62.846-21.717 62.846-53.603 0-28.649-18.021-42.975-55.914-69.314-31.422-21.717-54.528-44.824-54.528-86.412v-5.083c0-23.566 13.4-35.58 37.43-35.58zM502.064 227.349c25.876 0 48.52 19.87 48.52 46.21s-22.18 46.21-48.52 46.21c-26.801 0-48.52-20.331-48.52-46.21s22.18-46.21 48.52-46.21z" />
<glyph unicode="&#xe91a;" glyph-name="icon27" d="M392.132 234.597v70.207h-178.515c-93.325 0-142.983 54.796-142.983 122.862 0 77.057 49.659 132.708 134.421 132.708 5.565 0 8.133 2.996 7.706 8.562-0.856 123.291 87.759 159.25 172.094 134.421 5.138-1.712 8.133-0.429 10.703 3.853 38.957 70.207 99.318 126.716 202.488 126.716 130.997 0 222.609-103.599 229.459-223.465 0.856-19.265-0.429-41.953-2.14-61.217-0.429-5.138 1.712-8.133 6.85-9.418 73.632-14.983 121.151-60.361 121.151-129.712 0-61.217-44.094-105.311-130.997-105.311h-188.79v-70.207h189.217c125.431 0 201.204 74.916 201.204 174.233 0 83.478-49.23 151.117-128.856 183.225 0.856 181.513-129.712 312.508-296.668 312.508-109.164 0-188.361-57.792-237.592-129.712-93.753 24.83-208.911-47.090-211.907-160.963-91.611-14.983-148.977-90.328-148.977-186.648 0-107.024 80.482-192.642 213.619-192.642h178.515zM512.854-8.562c8.99 0 16.267 3.424 25.257 11.559l136.562 128c6.85 5.994 9.846 13.271 9.846 22.261 0 17.124-13.271 29.538-30.823 29.538-8.562 0-16.695-3.425-23.117-9.846l-59.505-59.934-26.97-29.11 2.996 60.361v347.612c0 17.98-15.411 32.963-34.248 32.963-18.409 0-33.819-14.983-33.819-32.963v-347.612l2.996-60.361-26.97 29.11-59.934 59.934c-6.421 6.421-14.983 9.846-23.544 9.846-17.124 0-30.394-12.415-30.394-29.538 0-8.99 2.996-16.267 9.846-22.261l136.562-128c9.418-8.133 16.695-11.559 25.257-11.559z" />
<glyph unicode="&#xe91b;" glyph-name="icon28" d="M512.231-0.001c244.909 0 447.768 202.859 447.768 448.23 0 244.909-203.321 447.768-448.23 447.768s-447.768-202.859-447.768-447.768c0-245.371 203.321-448.23 448.23-448.23zM695.681 407.566h-367.364c-26.34 0-44.822 14.326-44.822 39.739 0 25.877 17.56 40.664 44.822 40.664h367.364c27.265 0 44.361-14.788 44.361-40.664 0-25.417-18.022-39.739-44.361-39.739z" />
<glyph unicode="&#xe91c;" glyph-name="icon29" d="M763.54 64.001c87.722 0 132.46 44.298 132.46 131.142v506.152c0 86.406-44.739 130.706-132.46 130.706h-503.082c-87.722 0-132.46-43.861-132.46-130.706v-506.152c0-86.844 44.739-131.142 132.46-131.142h503.082zM760.91 136.37h-497.818c-40.35 0-62.72 21.491-62.72 63.598v496.504c0 42.106 22.369 63.16 62.72 63.16h497.818c39.914 0 62.72-21.054 62.72-63.16v-496.504c0-42.106-22.807-63.598-62.72-63.598zM460.026 240.758c14.474 0 25.878 6.581 34.65 20.177l204.39 320.183c5.262 8.334 10.086 17.545 10.086 27.194 0 19.737-17.106 32.019-35.526 32.019-11.404 0-22.369-6.581-30.264-19.737l-185.093-295.62-95.178 122.37c-9.65 12.282-19.299 17.106-31.141 17.106-18.859 0-34.211-15.352-34.211-34.65 0-9.65 3.947-18.859 10.086-26.754l115.352-142.548c11.842-13.598 22.807-19.737 36.844-19.737z" />
<glyph unicode="&#xe91d;" glyph-name="icon30" d="M763.539 64.001c87.722 0 132.46 44.298 132.46 131.142v506.152c0 86.406-44.739 130.706-132.46 130.706h-503.082c-87.722 0-132.46-43.861-132.46-130.706v-506.152c0-86.844 44.739-131.142 132.46-131.142h503.082zM456.077 234.179c-14.912 0-26.316 6.581-38.158 21.054l-119.74 146.934c-6.581 7.895-10.528 17.982-10.528 27.63 0 20.177 16.23 35.967 35.526 35.967 12.282 0 22.807-4.386 32.455-17.545l98.685-126.318 190.794 305.707c8.334 13.598 19.737 20.177 31.141 20.177 19.299 0 37.282-12.718 37.282-33.333 0-9.65-4.825-19.737-10.528-28.508l-210.969-330.27c-9.21-14.474-21.491-21.491-35.967-21.491z" />
<glyph unicode="&#xe91e;" glyph-name="icon31" d="M898.693 0.001c33.258 0 57.086 25.317 57.086 58.079 0 15.389-4.964 30.281-16.381 41.698l-215.436 215.933c45.172 60.56 71.979 135.516 71.979 216.431 0 200.050-163.811 363.861-363.861 363.861-200.543 0-363.861-163.811-363.861-363.861s163.316-363.861 363.861-363.861c76.941 0 148.421 24.324 207.495 65.525l216.926-217.423c11.417-10.921 26.309-16.381 42.194-16.381zM432.081 253.164c-153.387 0-279.472 126.085-279.472 278.975s126.085 278.975 279.472 278.975c152.89 0 278.975-126.085 278.975-278.975s-126.085-278.975-278.975-278.975z" />
<glyph unicode="&#xe91f;" glyph-name="icon32" d="M652.67 16.774c16.178 0 32.36 4.494 46.291 12.584l220.22 124.941c26.516 14.83 38.651 35.953 38.651 65.617v590.997c0 33.257-18.876 52.133-51.234 52.133-12.135 0-23.372-4.045-38.202-12.135l-224.264-124.941-227.41 139.772c-13.933 8.538-29.662 13.483-45.841 13.483s-32.807-4.943-47.19-13.483l-218.871-124.492c-26.516-15.281-38.651-35.953-38.651-66.065v-590.547c0-32.807 18.876-52.133 51.234-52.133 12.135 0 23.372 4.494 38.202 12.584l215.275 116.401 231.454-130.784c16.178-8.988 33.708-13.933 50.337-13.933zM144.818 125.985c-4.045 0-6.292 3.147-6.292 7.64v523.133c0 10.787 4.045 18.427 14.382 24.269l171.682 100.671c4.943 2.696 9.439 5.393 14.83 8.091v-558.188l-187.86-103.367c-2.696-1.348-4.943-2.247-6.743-2.247zM612.222 113.85c-5.842 3.147-12.135 6.292-18.427 9.887l-182.018 103.367v553.694c4.494-2.247 9.439-4.943 13.483-7.64l186.961-114.154v-545.157zM684.579 106.21v558.638l187.86 102.469c2.696 1.348 4.943 2.247 6.743 2.247 4.045 0 6.292-2.696 6.292-7.64v-523.133c0-10.787-4.045-18.427-14.382-24.72l-167.188-97.527c-6.292-3.595-12.584-7.19-19.326-10.336z" />
<glyph unicode="&#xe920;" glyph-name="icon33" d="M512.001 152.046c17.132 0 38.975 65.958 38.975 182.026v256.124c67.243 17.132 116.069 78.379 116.069 150.333 0 85.659-68.956 155.472-155.043 155.472s-155.043-69.813-155.043-155.472c0-71.953 48.825-132.772 115.641-150.333v-256.124c0-115.641 22.7-182.026 39.403-182.026zM467.887 731.961c-28.267 0-53.109 24.843-53.109 53.537s24.843 52.681 53.109 52.681c29.125 0 52.681-23.984 52.681-52.681s-23.556-53.537-52.681-53.537zM512.001-0.001c248.842 0 394.034 85.232 394.034 177.744 0 107.503-169.178 174.745-287.817 177.316v-63.388c82.233-2.569 202.157-44.542 202.157-104.933 0-69.813-130.631-118.64-308.375-118.64-178.171 0-308.375 48.398-308.375 118.64 0 60.389 119.924 102.362 202.157 104.933v63.388c-118.64-2.569-287.817-69.813-287.817-177.316 0-92.513 145.194-177.744 394.034-177.744z" />
<glyph unicode="&#xe921;" glyph-name="icon34" d="M512 896.001c-173.152 0-313.6-140.448-313.6-313.6 0-235.2 313.6-582.399 313.6-582.399s313.6 347.2 313.6 582.399c0 173.152-140.448 313.6-313.6 313.6zM512 470.4c-61.824 0-112 50.176-112 112s50.176 112 112 112c61.824 0 112-50.176 112-112s-50.176-112-112-112z" />
<glyph unicode="&#xe922;" glyph-name="icon35" d="M512.231 0.001c244.909 0 447.769 202.859 447.769 448.231 0 244.909-203.321 447.769-448.231 447.769s-447.769-202.859-447.769-447.769c0-245.371 203.321-448.231 448.231-448.231zM666.57 254.152c-10.628 0-20.332 4.621-27.265 11.554l-127.537 128-127.537-128c-6.932-7.394-16.635-11.554-27.265-11.554-21.257 0-38.353 17.56-38.353 38.815 0 10.628 4.158 19.871 11.091 26.803l128 128-128 128c-6.932 6.932-11.091 16.174-11.091 26.34 0 21.718 17.098 38.353 38.353 38.353 10.628 0 19.871-4.158 26.803-11.091l128-128 128.923 128c7.855 8.318 16.174 11.554 26.34 11.554 21.718 0 38.815-16.635 38.815-38.353 0-10.166-3.697-18.946-11.554-26.34l-128-128.462 127.537-127.076c7.394-7.855 11.554-16.635 11.554-27.726 0-21.257-17.098-38.815-38.815-38.815z" />
<glyph unicode="&#xe923;" glyph-name="icon36" d="M512.275 189.505c14.866 0 28.631 6.606 39.090 17.619l400.815 410.18c9.911 9.911 15.418 22.575 15.418 36.887 0 29.732-22.575 52.304-52.304 52.304-13.766 0-27.528-5.504-37.436-15.418l-365.579-374.391-366.131 374.391c-9.911 9.911-22.575 15.418-37.436 15.418-29.18 0-52.304-22.575-52.304-52.304 0-14.314 5.504-26.978 15.418-36.887l400.815-410.18c11.565-11.565 24.225-17.619 39.644-17.619z" />
<glyph unicode="&#xe924;" glyph-name="icon37" d="M227.315 369.898c43.703 0 78.91 34.802 78.91 78.102s-34.802 78.102-78.91 78.102c-43.298 0-78.505-34.802-78.505-78.102s35.205-78.102 78.505-78.102zM512.202 369.898c42.897 0 77.697 34.802 77.697 78.102s-34.397 78.102-77.697 78.102c-43.298 0-78.102-34.802-78.102-78.102s34.802-78.102 78.102-78.102zM797.090 369.898c42.897 0 78.102 34.802 78.102 78.102s-34.802 78.102-78.102 78.102c-44.109 0-78.91-34.802-78.91-78.102s34.802-78.102 78.91-78.102z" />
<glyph unicode="&#xe925;" glyph-name="icon38" d="M512.231-0.001c244.909 0 447.768 202.859 447.768 448.23 0 244.909-203.321 447.768-448.23 447.768s-447.768-202.859-447.768-447.768c0-245.371 203.321-448.23 448.23-448.23zM512.231 79.942c-204.246 0-367.827 163.582-367.827 368.289 0 204.246 163.119 368.289 367.364 368.289s368.289-164.045 368.752-368.289c0.462-204.707-164.045-368.289-368.29-368.289zM659.638 263.392c20.332 0 36.505 16.174 36.505 36.505 0 10.628-3.697 18.946-11.091 26.34l-121.529 121.068 121.992 122.454c7.394 7.394 11.091 15.712 11.091 25.417 0 20.332-16.174 36.505-36.505 36.505-10.166 0-18.022-3.235-25.877-11.091l-122.454-121.992-121.992 121.529c-6.932 7.394-15.249 10.628-25.417 10.628-20.332 0-36.505-15.712-36.505-36.043 0-9.705 3.697-18.485 10.628-25.417l121.529-121.992-121.529-121.529c-6.932-6.932-10.628-15.712-10.628-25.877 0-20.332 16.174-36.505 36.505-36.505 10.166 0 19.409 3.697 26.34 11.091l121.068 121.529 121.529-121.529c6.932-6.932 15.712-11.091 26.34-11.091z" />
<glyph unicode="&#xe926;" glyph-name="icon39" d="M512.231-0.001c244.909 0 447.768 202.859 447.768 448.23 0 244.909-203.321 447.768-448.23 447.768s-447.768-202.859-447.768-447.768c0-245.371 203.321-448.23 448.23-448.23zM512.231 79.942c-204.246 0-367.827 163.582-367.827 368.289 0 204.246 163.119 368.289 367.364 368.289s368.289-164.045 368.752-368.289c0.462-204.707-164.045-368.289-368.29-368.289zM511.769 398.324c18.022 0 31.885 13.863 31.885 32.347v291.582c0 17.56-13.863 31.885-31.885 31.885s-31.885-14.326-31.885-31.885v-260.157h-193.616c-18.022 0-31.885-13.863-31.885-31.423 0-18.485 13.863-32.347 31.885-32.347h225.501z" />
<glyph unicode="&#xe927;" glyph-name="icon40" d="M512.231-0.001c244.909 0 447.769 202.859 447.769 448.231 0 244.909-203.321 447.769-448.231 447.769s-447.769-202.859-447.769-447.769c0-245.371 203.321-448.231 448.231-448.231zM512.231 79.942c-204.246 0-367.827 163.582-367.827 368.289 0 204.246 163.119 368.289 367.364 368.289s368.289-164.045 368.752-368.289c0.462-204.707-164.045-368.289-368.29-368.289zM472.030 263.855c18.946 0 32.809 14.326 32.809 33.271 0 10.166-3.697 18.485-10.166 24.491l-54.527 52.678-51.292 42.973 91.495-3.697h223.192c19.871 0 34.195 14.788 34.195 34.657 0 20.332-14.326 35.119-34.195 35.119h-223.192l-91.495-3.697 51.755 42.512 54.064 53.141c6.008 6.008 10.166 14.788 10.166 24.491 0 18.946-13.863 32.809-32.809 32.809-9.705 0-17.56-2.772-24.031-9.242l-147.869-147.408c-9.242-9.242-13.4-17.56-13.4-27.265 0-11.091 4.621-19.409 13.4-27.726l147.869-147.408c6.469-6.469 14.326-9.705 24.031-9.705z" />
<glyph unicode="&#xe928;" glyph-name="icon41" d="M512.231-0.001c244.909 0 447.768 202.859 447.768 448.23 0 244.909-203.321 447.768-448.23 447.768s-447.768-202.859-447.768-447.768c0-245.371 203.321-448.23 448.23-448.23zM512.231 79.942c-204.246 0-367.827 163.582-367.827 368.289 0 194.541 148.332 353.040 339.176 366.903v-374.296c0-10.166 3.235-18.485 11.091-26.34l254.613-249.067c-63.769-53.602-146.483-85.487-237.055-85.487zM546.425 488.433v326.238c116.446-10.628 216.722-74.859 275.869-168.203l-275.869-158.037zM795.032 211.177l-222.267 219.495 278.642 160.346c18.485-43.898 29.112-91.958 29.112-142.786 0-90.571-31.885-172.823-85.487-237.055z" />
<glyph unicode="&#xe929;" glyph-name="icon42" d="M498.531 38.934c17.676 0 31.564 12.203 37.876 24.41l-212.529 366.56c-3.788 7.153-6.733 12.625-6.733 18.096s2.947 10.941 6.733 18.096l212.529 366.56c-6.313 12.203-20.622 24.41-37.876 24.41-14.31 0-28.617-8.417-38.297-24.41l-200.323-339.625c-10.101-17.254-17.254-29.881-17.254-45.029 0-14.73 7.153-27.355 17.254-45.029l200.745-339.204c9.679-16.834 23.988-24.831 37.876-24.831zM699.698 39.354c23.147 0 38.297 13.467 57.656 45.873l180.545 311.008c11.363 19.78 16.834 35.352 16.834 51.766s-5.471 31.984-16.834 51.766l-180.545 311.008c-19.36 32.405-34.51 45.873-57.656 45.873s-38.297-13.467-57.237-45.873l-180.967-311.008c-11.363-19.78-16.834-35.352-16.834-51.766 0.422-16.412 5.471-31.984 17.254-51.766l180.545-311.008c18.938-32.405 34.088-45.873 57.237-45.873zM304.519 795.618c14.73 0 26.513 11.784 26.513 26.513s-11.784 26.513-26.513 26.513c-14.73 0-26.513-11.784-26.513-26.513s11.784-26.513 26.513-26.513zM263.276 721.551c14.31 0 26.513 11.784 26.513 26.513s-12.203 26.513-26.513 26.513c-14.73 0-26.935-11.784-26.935-26.513s12.203-26.513 26.935-26.513zM699.698 128.574c-1.683 0-2.947 1.262-3.788 2.947l-171.285 299.224c-3.368 6.733-5.471 11.784-5.471 17.254s1.683 10.941 5.471 17.254l171.285 299.224c0.84 1.683 2.104 2.947 3.788 2.947 2.104 0 2.947-1.262 4.209-2.947l170.866-299.224c3.788-6.313 5.891-11.784 5.891-17.254s-2.104-10.522-5.891-17.254l-170.866-299.224c-1.262-1.683-2.104-2.947-4.209-2.947zM221.193 647.061c14.73 0 26.513 11.784 26.513 26.513s-11.784 26.513-26.513 26.513c-14.73 0-26.513-11.784-26.513-26.513s11.784-26.513 26.513-26.513zM179.107 573.411c14.73 0 26.513 11.784 26.513 26.513s-11.784 26.513-26.513 26.513c-14.73 0-26.513-11.784-26.513-26.513s11.784-26.513 26.513-26.513zM137.863 498.92c14.31 0 26.513 11.784 26.513 26.513s-12.203 26.935-26.513 26.935c-14.73 0-26.935-12.203-26.935-26.935s12.203-26.513 26.935-26.513zM95.779 425.273c14.73 0 26.513 11.784 26.513 26.513s-11.784 26.513-26.513 26.513c-14.73 0-26.513-11.784-26.513-26.513s11.784-26.513 26.513-26.513zM137.863 351.203c14.31 0 26.513 11.784 26.513 26.513s-12.203 26.513-26.513 26.513c-14.73 0-26.935-11.784-26.935-26.513s12.203-26.513 26.935-26.513zM179.107 276.712c14.73 0 26.513 11.784 26.513 26.513s-11.784 26.513-26.513 26.513c-14.73 0-26.513-11.784-26.513-26.513s11.784-26.513 26.513-26.513zM221.193 203.064c14.73 0 26.513 11.784 26.513 26.513s-11.784 26.513-26.513 26.513c-14.73 0-26.513-11.784-26.513-26.513s11.784-26.513 26.513-26.513zM263.276 128.994c14.31 0 26.513 11.784 26.513 26.513s-12.203 26.513-26.513 26.513c-14.73 0-26.935-11.784-26.935-26.513s12.203-26.513 26.935-26.513zM304.519 54.505c14.73 0 26.513 12.203 26.513 26.935s-11.784 26.513-26.513 26.513c-14.73 0-26.513-11.784-26.513-26.513s11.784-26.935 26.513-26.935z" />
<glyph unicode="&#xe92a;" glyph-name="icon43" d="M823.044 88.148c41.155 0 74.828 33.673 74.828 75.168 0 30.952-18.707 57.481-45.237 69.045l-13.264 319.717c27.891 10.884 47.957 38.434 47.957 70.406 0 41.495-33.673 75.168-74.828 75.168-27.209 0-51.019-14.286-64.284-36.054l-263.936 73.808c-1.361 40.135-34.693 72.447-74.828 72.447-41.495 0-75.507-33.673-75.507-75.168 0-21.768 9.524-41.495 24.489-55.1l-148.295-284.684c-2.721 0.341-5.782 0.68-8.504 0.68-41.495 0-75.507-34.012-75.507-75.168 0-41.495 34.012-75.507 75.507-75.507 28.911 0 54.421 17.006 66.665 41.495l482.297-141.152c8.843-31.631 38.094-55.1 72.447-55.1zM753.659 192.567l-478.896 140.811c-2.721 13.605-9.183 26.189-18.367 36.054l148.295 288.086h4.762c24.149 0 45.917 11.565 59.522 29.591l269.039-74.828c4.081-28.911 24.489-52.719 51.699-61.563l11.224-315.295c-21.088-6.802-38.434-22.448-47.278-42.856z" />
<glyph unicode="&#xe92b;" glyph-name="icon44" d="M512.231 0.001c244.909 0 447.768 202.859 447.768 448.23 0 244.909-203.321 447.768-448.23 447.768s-447.768-202.859-447.768-447.768c0-245.371 203.321-448.23 448.23-448.23zM512.231 79.944c-204.246 0-367.827 163.582-367.827 368.289 0 204.246 163.119 368.289 367.364 368.289s368.289-164.045 368.752-368.289c0.462-204.707-164.045-368.289-368.29-368.289z" />
<glyph unicode="&#xe92c;" glyph-name="icon281" d="M763.54 64.001c87.722 0 132.46 44.298 132.46 131.142v506.152c0 86.406-44.739 130.706-132.46 130.706h-503.082c-87.722 0-132.46-43.861-132.46-130.706v-506.152c0-86.844 44.739-131.142 132.46-131.142h503.082zM760.91 136.37h-497.818c-40.35 0-62.72 21.491-62.72 63.598v496.504c0 42.106 22.369 63.16 62.72 63.16h497.818c39.914 0 62.72-21.054 62.72-63.16v-496.504c0-42.106-22.807-63.598-62.72-63.598z" />
<glyph unicode="&#xe92d;" glyph-name="icon46" d="M685.151 449.761c79.455 0 144.497 70.312 144.497 156.8 0 85.081-64.69 152.583-144.497 152.583-79.455 0-144.497-68.556-144.147-153.287 0-86.136 64.691-156.099 144.147-156.099zM301.232 442.027c68.909 0 125.512 61.876 125.512 137.816 0 74.182-55.9 133.949-125.512 133.949-68.909 0-125.512-60.825-125.512-134.652 0.352-75.588 56.605-137.114 125.512-137.114zM685.151 502.497c-47.815 0-88.245 45.355-88.245 103.364-0.352 56.605 40.080 100.2 88.245 100.2 48.516 0 88.245-42.892 88.245-99.494 0-58.010-40.080-104.065-88.245-104.065zM301.232 494.059c-39.728 0-73.479 37.97-73.479 85.081 0 45.705 33.4 82.619 73.479 82.619 40.782 0 73.479-36.212 73.479-81.917 0-47.815-33.4-85.784-73.479-85.784zM376.82 136.861c-16.526 9.493-28.477 30.939-26.369 51.681h-240.125c-6.679 0-9.493 2.812-9.493 9.141 0 80.159 92.464 155.747 200.046 155.747 40.080 0 77.698-9.846 108.988-27.423 10.546 14.066 23.553 26.369 39.377 37.618-42.54 27.423-94.574 41.483-148.364 41.483-139.926 0-253.133-100.904-253.133-211.296 0-37.97 23.203-56.955 68.909-56.955h260.165zM893.282 136.861c56.255 0 82.971 17.227 82.971 54.495 0 88.596-111.449 213.405-291.103 213.405-180.005 0-291.454-124.808-291.454-213.405 0-37.267 27.072-54.495 82.971-54.495h416.616zM907.345 189.596h-444.741c-8.438 0-11.601 2.461-11.601 9.141 0 53.439 83.672 153.287 234.15 153.287s234.15-99.846 234.15-153.287c0-6.679-3.516-9.141-11.956-9.141z" />
<glyph unicode="&#xe92e;" glyph-name="icon47" d="M915.296 189.505c29.732 0 52.304 23.124 52.304 52.856 0 14.314-5.506 26.978-15.416 36.889l-400.817 410.178c-10.461 11.011-24.225 17.069-39.090 17.069-15.416 0-28.631-6.056-39.642-17.069l-400.817-410.178c-9.911-9.359-15.416-22.573-15.416-36.889 0-29.732 23.124-52.856 52.304-52.856 14.866 0 28.079 5.506 37.438 15.416l366.13 374.39 365.581-374.39c9.359-9.911 23.675-15.416 37.438-15.416z" />
<glyph unicode="&#xe92f;" glyph-name="icon48" d="M825.197 190.991c38.292 0 61.183 19.978 61.183 50.361 0 39.956-39.124 75.749-73.669 110.296-26.638 27.054-33.297 83.242-37.043 130.689-4.163 149.002-44.95 252.221-148.585 289.682-15.399 51.61-57.020 91.981-114.874 91.981-58.27 0-99.473-40.372-114.874-91.981-103.635-37.46-144.423-140.679-148.585-289.682-3.746-47.447-10.406-103.635-37.043-130.689-34.545-34.545-74.085-70.339-74.085-110.296 0-30.384 23.306-50.361 61.6-50.361h625.977zM512.208 32c67.842 0 117.37 49.113 122.364 104.884h-244.731c4.994-55.771 54.523-104.884 122.364-104.884z" />
<glyph unicode="&#xe930;" glyph-name="icon49" d="M512.16 190.479c243.464 0 409.925 196.495 409.925 257.521 0 61.345-167.102 257.521-409.925 257.521-239.949 0-410.243-196.178-410.243-257.521 0-61.026 170.298-257.521 410.243-257.521zM512.16 280.579c-93.295 0-167.421 76.362-168.060 167.421-0.318 93.615 74.765 167.102 168.060 167.102 92.977 0 168.060-73.807 168.060-167.102 0-91.059-75.083-167.421-168.060-167.421zM512.479 386.974c33.546 0 61.345 27.797 61.345 61.026 0 33.546-27.797 61.345-61.345 61.345-34.189 0-61.986-27.797-61.986-61.345 0-33.229 27.797-61.026 61.986-61.026z" />
<glyph unicode="&#xe931;" glyph-name="icon50" d="M786.296 173.014c10.079 10.079 9.431 24.388 0 33.819l-516.723 516.397c-9.431 9.431-24.715 9.431-34.146 0-9.105-9.105-9.105-24.715 0-33.819l517.047-516.397c9.431-9.431 24.388-10.079 33.819 0zM781.419 263.741c89.751 59.509 147.96 141.13 147.96 177.552 0 62.437-170.073 262.101-417.214 262.101-52.354 0-101.133-8.781-145.682-23.738l81.297-81.297c19.836 8.456 41.625 13.008 64.387 13.008 94.629 0 171.047-75.118 171.047-170.073 0-22.764-4.878-44.875-13.983-64.061l112.19-113.49zM512.163 179.193c56.906 0 109.264 10.079 155.765 27.317l-81.947 81.947c-22.112-11.382-47.151-17.56-73.818-17.56-94.955 0-170.723 77.719-171.047 170.399 0 26.991 6.179 52.354 17.234 74.794l-106.988 107.636c-96.58-60.81-156.741-145.682-156.741-182.43 0-62.111 173.325-262.101 417.54-262.101zM609.718 436.416c0.324 3.577 0.65 7.479 0.65 11.382 0 53.656-43.25 97.232-97.557 97.232-3.903 0-7.803 0-11.057-0.65l107.962-107.962zM512.163 349.916c3.903 0 7.803 0.324 12.031 0.65l-109.588 109.588c-0.324-4.228-0.65-8.456-0.65-12.682 0-53.656 44.551-97.557 98.207-97.557z" />
<glyph unicode="&#xe932;" glyph-name="icon51" d="M512 64c8.645 0 30.098 43.241 30.098 92.021v153.6h176.432c30.098 0 49.121 18.68 49.121 47.048 0 69.533-55.349 142.184-147.718 176.087l-10.721 150.833c48.433 27.329 87.178 57.773 104.129 79.913 8.993 11.417 12.797 22.487 12.797 32.865 0 20.411-15.568 35.633-39.089 35.633h-349.752c-23.871 0-39.437-15.221-39.437-35.633 0-10.378 4.151-21.449 12.797-32.865 16.949-22.14 56.044-52.584 104.129-79.913l-10.721-150.833c-92.021-33.904-147.718-106.553-147.718-176.087 0-28.367 19.373-47.048 49.121-47.048h176.432v-153.6c0-48.778 21.795-92.021 30.098-92.021z" />
<glyph unicode="&#xe933;" glyph-name="icon52" d="M813.101 481.553c55.266 0 82.896 27.63 82.896 84.653v181.145c0 57.457-27.63 84.653-82.896 84.653h-184.652c-55.266 0-82.896-27.194-82.896-84.653v-181.145c0-57.018 27.63-84.653 82.896-84.653h184.652zM395.549 481.553c55.266 0 82.896 27.63 82.896 84.653v181.145c0 57.457-27.63 84.653-82.896 84.653h-184.652c-55.266 0-82.896-27.194-82.896-84.653v-181.145c0-57.018 27.63-84.653 82.896-84.653h184.652zM395.111 542.957h-184.216c-14.474 0-21.93 7.457-21.93 22.807v182.46c0 15.352 7.457 22.807 21.93 22.807h184.216c14.474 0 21.93-7.457 21.93-22.807v-182.46c0-15.352-7.457-22.807-21.93-22.807zM813.101 542.957h-184.216c-14.912 0-22.369 7.457-22.369 22.807v182.46c0 15.352 7.457 22.807 22.369 22.807h184.216c14.474 0 21.93-7.457 21.93-22.807v-182.46c0-15.352-7.457-22.807-21.93-22.807zM338.968 612.255c6.139 0 8.771 2.632 8.771 10.086v69.738c0 6.581-2.632 9.21-8.771 9.21h-71.931c-6.139 0-8.334-2.632-8.334-9.21v-69.738c0-7.457 2.192-10.086 8.334-10.086h71.931zM758.715 612.255c6.139 0 8.771 2.632 8.771 10.086v69.738c0 6.581-2.632 9.21-8.771 9.21h-71.931c-6.139 0-8.334-2.632-8.334-9.21v-69.738c0-7.457 2.192-10.086 8.334-10.086h71.931zM395.549 64c55.266 0 82.896 27.63 82.896 84.653v181.145c0 57.457-27.63 84.653-82.896 84.653h-184.652c-55.266 0-82.896-27.194-82.896-84.653v-181.145c0-57.018 27.63-84.653 82.896-84.653h184.652zM645.993 305.671c6.139 0 8.771 2.632 8.771 10.086v69.738c0 6.581-2.632 9.21-8.771 9.21h-71.931c-6.139 0-8.334-2.632-8.334-9.21v-69.738c0-7.457 2.192-10.086 8.334-10.086h71.931zM867.051 305.671c6.139 0 8.771 2.632 8.771 10.086v69.738c0 6.581-2.632 9.21-8.771 9.21h-71.931c-6.581 0-8.334-2.632-8.334-9.21v-69.738c0-7.457 1.756-10.086 8.334-10.086h71.931zM395.111 125.404h-184.216c-14.474 0-21.93 7.457-21.93 22.369v182.899c0 15.352 7.457 22.807 21.93 22.807h184.216c14.474 0 21.93-7.457 21.93-22.807v-182.899c0-14.912-7.457-22.369-21.93-22.369zM757.397 195.141c6.139 0 8.771 2.632 8.771 10.086v69.738c0 6.581-2.632 9.21-8.771 9.21h-71.931c-6.139 0-8.334-2.632-8.334-9.21v-69.738c0-7.457 2.192-10.086 8.334-10.086h71.931zM338.968 194.704c6.139 0 8.771 2.632 8.771 10.086v69.738c0 6.581-2.632 9.21-8.771 9.21h-71.931c-6.139 0-8.334-2.632-8.334-9.21v-69.738c0-7.457 2.192-10.086 8.334-10.086h71.931zM645.993 84.614c6.139 0 8.771 2.632 8.771 10.086v69.738c0 6.581-2.632 9.21-8.771 9.21h-71.931c-6.139 0-8.334-2.632-8.334-9.21v-69.738c0-7.457 2.192-10.086 8.334-10.086h71.931zM867.051 84.614c6.139 0 8.771 2.632 8.771 10.086v69.738c0 6.581-2.632 9.21-8.771 9.21h-71.931c-6.581 0-8.334-2.632-8.334-9.21v-69.738c0-7.457 1.756-10.086 8.334-10.086h71.931z" />
<glyph unicode="&#xe934;" glyph-name="icon53" d="M796.212 142.877c69.703 0 105.252 35.199 105.252 104.205v402.186c0 68.658-35.549 103.857-105.252 103.857h-568.426c-69.703 0-105.252-34.851-105.252-103.857v-402.186c0-69.006 35.549-104.205 105.252-104.205h568.426zM180.040 285.767v359.666c0 33.457 17.774 50.187 49.837 50.187h564.245c31.715 0 49.837-16.729 49.837-50.187v-358.272l-172.514 162.059c-14.638 12.896-31.715 19.866-49.489 19.866-18.121 0-34.503-5.926-49.489-19.517l-148.815-133.133-60.99 55.066c-13.94 12.546-29.276 18.819-44.61 18.819-14.985 0-28.926-5.926-42.52-18.472l-95.492-86.082zM371.724 444.341c42.866 0 78.068 34.851 78.068 78.068 0 42.866-35.199 78.415-78.068 78.415-43.216 0-78.068-35.549-78.068-78.415 0-43.216 34.851-78.068 78.068-78.068z" />
<glyph unicode="&#xe935;" glyph-name="icon54" d="M512.231-0.001c244.909 0 447.768 202.859 447.768 448.23 0 244.909-203.321 447.768-448.23 447.768s-447.768-202.859-447.768-447.768c0-245.371 203.321-448.23 448.23-448.23zM512.231 79.942c-204.246 0-367.827 163.582-367.827 368.289 0 204.246 163.119 368.289 367.364 368.289s368.289-164.045 368.752-368.289c0.462-204.707-164.045-368.289-368.29-368.289zM511.769 371.060c21.718 0 34.657 12.477 35.119 36.043l6.469 223.655c0.463 23.568-17.56 40.664-42.050 40.664-24.954 0-42.050-16.635-41.587-40.201l6.008-224.115c0.463-23.568 13.4-36.043 36.043-36.043zM511.769 227.812c26.34 0 48.519 20.332 48.519 46.209 0 26.34-21.718 46.67-48.519 46.67s-48.519-20.795-48.519-46.67c0-25.877 22.181-46.209 48.519-46.209z" />
<glyph unicode="&#xe936;" glyph-name="icon55" d="M512.231-0.001c244.909 0 447.768 202.859 447.768 448.23 0 244.909-203.321 447.768-448.23 447.768s-447.768-202.859-447.768-447.768c0-245.371 203.321-448.23 448.23-448.23zM512.231 79.942c-204.246 0-367.827 163.582-367.827 368.289 0 204.246 163.119 368.289 367.364 368.289s368.289-164.045 368.752-368.289c0.462-204.707-164.045-368.289-368.29-368.289zM511.307 240.751c24.031 0 38.353 16.635 38.353 42.512v126.614h134.006c25.417 0 42.512 13.863 42.512 37.429 0 24.491-16.174 38.815-42.512 38.815h-134.006v134.006c0 25.877-14.326 42.512-38.353 42.512s-37.892-17.56-37.892-42.512v-134.006h-133.545c-25.877 0-42.973-14.326-42.973-38.815 0-23.568 18.022-37.429 42.973-37.429h133.545v-126.614c0-24.954 13.863-42.512 37.892-42.512z" />
<glyph unicode="&#xe937;" glyph-name="icon56" d="M910.772 795.486l29.972 31.275c14.333 14.769 14.769 36.053 0.436 50.387l-9.991 9.991c-13.032 13.032-34.316 11.292-48.215-2.607l-30.841-29.972 58.64-59.076zM439.913 371.537l81.23 34.749 359.225 359.225-58.64 58.206-358.793-359.225-36.923-78.621c-3.476-7.82 5.648-17.809 13.901-14.333zM748.75 64.003c75.147 0 119.451 43.87 119.451 129.445v454.787l-71.672-71.672v-378.339c0-41.7-22.588-62.984-50.387-62.984h-476.071c-39.962 0-62.116 21.285-62.116 62.984v463.040c0 41.7 22.153 62.984 62.116 62.984h347.496l71.672 71.235h-421.776c-86.873 0-131.179-43.438-131.179-129.445v-472.596c0-86.005 44.307-129.445 131.179-129.445h481.285z" />
<glyph unicode="&#xe938;" glyph-name="icon57" d="M695.859-0.001c58.887 0 97.437 36.856 100.402 95.743l27.536 581.235h47.024c17.368 0 31.774 14.404 31.774 31.774 0 17.793-14.404 32.196-31.774 32.196h-181.741v58.038c0 58.887-39.824 97.011-103.79 97.011h-147.425c-63.97 0-103.79-38.13-103.79-97.011v-58.038h-180.895c-17.368 0-31.774-14.404-31.774-32.196 0-17.368 14.404-31.774 31.774-31.774h47.024l27.536-581.658c2.542-58.887 41.094-95.317 100.402-95.317h367.72zM621.722 740.947h-219.869v54.226c0 22.452 16.522 38.551 40.67 38.551h138.531c24.147 0 40.67-16.098 40.67-38.551v-54.226zM688.659 63.97h-353.741c-22.877 0-39.824 16.948-41.094 40.67l-27.536 572.34h489.728l-26.266-572.34c-0.848-24.147-17.368-40.67-41.094-40.67zM630.618 132.6c13.557 0 23.724 11.438 24.572 27.113l11.863 417.287c0.425 15.251-10.168 27.536-24.147 27.536-13.134 0-24.147-12.286-24.572-27.113l-11.863-417.287c-0.425-15.251 9.743-27.536 24.147-27.536zM393.381 132.6c13.98 0 24.572 12.286 24.147 27.536l-11.863 417.287c-0.425 14.828-11.863 27.113-24.572 27.113-14.404 0-24.572-11.863-24.147-27.536l11.863-417.287c0.425-15.674 10.592-27.113 24.572-27.113zM511.999 132.6c13.557 0 24.998 12.286 24.998 27.536v416.862c0 15.251-11.438 27.536-24.998 27.536s-24.998-12.286-24.998-27.536v-416.862c0-15.251 11.438-27.536 24.998-27.536z" />
<glyph unicode="&#xe939;" glyph-name="icon58" d="M419.993 70.221c20.445 0 36.245 8.828 47.862 26.021l414.488 650.078c8.364 13.476 12.082 24.163 12.082 34.851 0 26.486-18.122 44.608-45.073 44.608-18.588 0-29.273-6.971-40.891-25.093l-390.324-620.803-201.669 262.54c-11.618 15.801-23.233 22.306-40.428 22.306-27.417 0-46.467-18.588-46.467-45.073 0-11.151 4.646-23.233 13.939-34.851l228.155-288.561c13.939-17.656 28.346-26.021 48.326-26.021z" />
<glyph unicode="&#xe93a;" glyph-name="icon59" d="M786.374 30.427c17.285 12.649 21.083 34.152 10.543 64.093l-82.647 246.678 211.678 151.798c25.3 18.132 35.84 37.531 29.096 58.19s-26.565 30.361-57.768 29.941l-259.747-1.687-78.855 247.938c-10.123 30.361-24.878 45.962-46.383 45.962-21.927 0-36.685-15.602-46.806-45.962l-78.855-247.938-259.747 1.687c-31.204 0.422-51.022-9.276-57.768-29.941-7.169-20.661 3.796-40.058 29.096-58.19l211.678-151.798-82.647-246.678c-10.543-29.941-6.747-51.444 10.543-64.093 17.285-13.494 38.791-8.856 64.515 9.695l209.99 153.909 209.568-153.909c25.723-18.553 47.228-23.192 64.515-9.695z" />
<glyph unicode="&#xe93b;" glyph-name="icon60" d="M786.375 30.426c17.287 12.649 21.083 34.154 10.543 64.093l-82.647 246.677 211.678 151.799c25.301 18.132 35.841 37.529 29.096 58.19s-26.564 30.361-57.768 29.939l-259.747-1.687-78.854 247.94c-10.121 30.361-24.878 45.962-46.382 45.962-21.927 0-36.685-15.602-46.806-45.962l-78.854-247.94-259.747 1.687c-31.203 0.422-51.021-9.276-57.768-29.939-7.169-20.662 3.795-40.058 29.096-58.19l211.678-151.799-82.647-246.677c-10.543-29.939-6.746-51.444 10.543-64.093 17.287-13.494 38.793-8.856 64.515 9.697l209.991 153.909 209.568-153.909c25.723-18.553 47.228-23.192 64.515-9.697zM720.595 116.024l-187.221 143.788c-7.169 5.483-14.336 8.434-21.083 8.011v500.519c0.843 0 1.687-0.843 2.108-2.952l67.467-226.013c5.059-18.132 15.602-24.457 33.732-24.035l236.134 4.638c2.108 0 2.952 0 3.373-1.265 0.422-0.843 0-1.687-2.108-2.952l-194.387-134.091c-15.602-10.543-18.132-22.77-12.227-39.637l78.008-223.062 0.425-2.065c0.132-0.669 0.081-0.971-0.425-1.731-0.843-0.843-1.687-0.422-3.795 0.843z" />
<glyph unicode="&#xe93c;" glyph-name="icon61" d="M512.45 459.267c91.944 0 170.817 82.48 170.817 188.845 0 105.014-79.325 183.887-170.817 183.887-91.944 0-171.268-80.676-171.268-184.789 0.45-105.464 78.873-187.943 171.268-187.943zM779.268 63.999c68.058 0 91.944 19.83 91.944 57.69 0 109.974-137.915 261.409-359.212 261.409-220.845 0-359.212-151.435-359.212-261.409 0-37.859 23.886-57.69 92.394-57.69h534.085z" />
<glyph unicode="&#xe93d;" glyph-name="icon62" d="M689.722 456.977c73.242 0 136.073 65.704 136.073 150.435 0 83.655-63.19 146.485-136.073 146.485-73.242 0-136.432-64.267-136.432-147.203 0-84.014 62.83-149.717 136.432-149.717zM298.019 449.079c63.548 0 118.481 57.445 118.481 131.405 0 72.883-54.931 127.097-118.481 127.097s-118.84-55.648-118.84-127.815c0-73.242 54.931-130.688 118.84-130.688zM366.234 142.106c-35.904 51.342 6.105 154.385 80.423 211.827-37.698 25.132-86.168 43.443-148.998 43.443-152.588 0-249.169-112.738-249.169-206.085 0-31.595 16.874-49.186 61.035-49.186h256.71zM902.269 142.106c54.214 0 73.242 15.798 73.242 45.955 0 87.604-109.863 208.239-286.15 208.239-175.927 0-286.15-120.635-286.15-208.239 0-30.158 19.029-45.955 73.242-45.955h425.813z" />
<glyph unicode="&#xe93e;" glyph-name="icon63" d="M512.231-0.001c244.909 0 447.768 202.859 447.768 448.23 0 244.909-203.321 447.768-448.23 447.768s-447.768-202.859-447.768-447.768c0-245.371 203.321-448.23 448.23-448.23zM512.231 79.942c-204.246 0-367.827 163.582-367.827 368.289 0 204.246 163.119 368.289 367.364 368.289s368.289-164.045 368.752-368.289c0.462-204.707-164.045-368.289-368.29-368.289zM457.24 228.737c14.788 0 27.265 7.394 36.505 21.257l214.873 337.329c6.008 8.78 11.091 18.946 11.091 28.651 0 20.795-18.485 34.195-37.892 34.195-12.014 0-23.105-6.932-31.423-20.795l-195.003-311.913-100.736 128.923c-9.705 12.94-20.332 18.022-32.809 18.022-19.871 0-35.581-16.174-35.581-36.505 0-9.705 3.697-19.409 10.628-28.189l121.529-149.719c12.014-14.788 23.568-21.257 38.815-21.257z" />
<glyph unicode="&#xe93f;" glyph-name="icon64" d="M512.231-0.001c244.909 0 447.768 202.859 447.768 448.23 0 244.909-203.321 447.768-448.23 447.768s-447.768-202.859-447.768-447.768c0-245.371 203.321-448.23 448.23-448.23zM512.231 79.942c-204.246 0-367.827 163.582-367.827 368.289 0 204.246 163.119 368.289 367.364 368.289s368.289-164.045 368.752-368.289c0.462-204.707-164.045-368.289-368.29-368.289zM552.433 263.855c9.705 0 18.022 3.235 24.491 9.705l147.869 147.408c8.318 8.318 12.94 16.635 12.94 27.726 0 9.705-3.697 18.022-12.94 27.265l-147.869 147.408c-6.469 6.469-14.788 9.242-24.491 9.242-18.485 0-32.347-13.863-32.347-32.809 0-9.705 4.158-18.485 10.166-24.491l54.064-53.141 51.292-42.512-91.033 3.697h-223.192c-19.871 0-34.657-14.788-34.657-35.119 0-19.871 14.326-34.657 34.657-34.657h223.192l91.495 3.697-51.755-42.973-54.064-52.678c-6.469-6.008-10.166-14.326-10.166-24.491 0-18.946 13.863-33.271 32.347-33.271z" />
<glyph unicode="&#xe940;" glyph-name="icon65" d="M733.687 0.003c86.738 0 131.208 44.91 131.208 132.969v378.213c0 55.037-6.605 79.253-40.946 114.476l-225.87 229.394c-32.582 33.462-59.881 40.946-108.753 40.946h-199.013c-86.738 0-131.208-44.91-131.208-132.53v-630.502c0-88.499 44.47-132.969 131.208-132.969h443.376zM728.844 72.211h-433.69c-42.269 0-63.401 22.455-63.401 62.963v625.657c0 40.067 21.134 62.963 63.401 62.963h182.282v-236.879c0-55.037 27.739-81.894 82.336-81.894h232.478v-369.846c0-40.508-21.574-62.963-63.401-62.963zM779.919 571.065h-212.663c-16.731 0-23.776 7.045-23.776 23.776v216.625l236.44-240.402zM511.779 125.047c8.805 0 16.291 3.083 25.096 11.446l118 108.753c7.045 6.164 11.009 13.21 11.009 23.334 0 17.172-13.21 29.5-30.381 29.5-8.805 0-17.172-3.522-23.334-10.127l-69.566-71.327 3.083 66.484v142.655c0 18.054-15.851 32.141-33.902 32.141-17.612 0-33.462-14.090-33.462-32.141v-142.655l3.083-66.484-34.343 35.223-35.666 36.105c-5.724 6.605-14.529 10.127-22.898 10.127-17.612 0-30.381-12.328-30.381-29.5 0-10.127 3.962-17.172 11.009-23.334l118-108.753c8.805-8.366 15.851-11.446 24.656-11.446z" />
<glyph unicode="&#xe941;" glyph-name="icon66" d="M593.998 0.001c73.461 0 108.706 37.845 108.706 111.676v63.44h68.636c73.461 0 110.564 38.214 110.564 112.047v293.473c0 44.523-8.905 72.347-35.617 99.802l-176.232 179.942c-25.971 25.971-55.653 35.617-94.239 35.617h-143.956c-73.089 0-110.564-37.845-110.564-112.047v-64.924h-68.636c-73.089 0-110.564-37.843-110.564-112.047v-495.304c0-74.205 37.472-111.676 110.564-111.676h341.333zM767.261 236.34h-64.557v157.682c0 46.007-5.566 66.41-33.762 95.349l-192.558 195.894c-27.084 27.824-50.084 33.76-90.529 33.76h-3.34v63.073c0 33.76 17.809 53.052 53.428 53.052h146.182v-179.942c0-41.922 21.146-62.331 62.331-62.331h176.604v-303.489c0-34.135-18.178-53.054-53.794-53.054zM809.558 646.31h-156.94c-12.244 0-17.068 4.824-17.068 17.068v159.907l174.006-176.973zM588.062 60.852h-331.316c-35.617 0-53.428 18.922-53.428 53.054v491.226c0 33.76 17.809 53.054 53.428 53.054h119.468v-199.606c0-46.376 23.374-69.009 69.378-69.009h196.269v-275.665c0-34.135-18.178-53.054-53.796-53.054zM631.466 445.222h-179.2c-14.468 0-20.035 5.936-20.035 20.035v182.538l199.236-202.572z" />
<glyph unicode="&#xe942;" glyph-name="icon67" d="M512.231-0.001c244.909 0 447.768 202.859 447.768 448.23 0 244.909-203.321 447.768-448.23 447.768s-447.768-202.859-447.768-447.768c0-245.371 203.321-448.23 448.23-448.23zM512.231 79.942c-204.246 0-367.827 163.582-367.827 368.289 0 204.246 163.119 368.289 367.364 368.289s368.289-164.045 368.752-368.289c0.462-204.707-164.045-368.289-368.29-368.289zM331.552 229.199l248.606 120.143c14.326 6.932 24.031 17.098 30.961 30.961l119.22 247.681c14.788 30.498-7.394 53.602-38.815 38.815l-247.681-119.682c-13.4-6.469-23.105-15.712-30.498-30.961l-120.143-248.143c-13.863-29.575 8.78-52.678 38.353-38.815zM512.231 393.703c-30.037 0-54.064 24.031-54.064 54.064 0 29.575 24.031 54.064 54.064 54.064 29.575 0 54.064-24.491 54.064-54.064 0-30.037-24.491-54.064-54.064-54.064z" />
<glyph unicode="&#xe943;" glyph-name="icon68" d="M512.418 311.471c17.954 0 32.985 14.613 32.985 32.567v402.908l-2.505 58.87 25.886-28.391 58.454-62.21c5.846-6.681 14.196-10.020 22.128-10.020 17.118 0 30.479 12.107 30.479 29.226 0 8.769-3.758 15.45-10.020 21.712l-132.771 128.597c-8.769 8.352-16.283 11.274-24.634 11.274-8.769 0-16.283-2.923-24.634-11.274l-133.189-128.597c-6.264-6.264-10.020-12.944-10.020-21.712 0-17.118 12.944-29.226 30.062-29.226 7.932 0 17.118 3.34 22.965 10.020l58.038 62.21 25.886 28.391-2.505-58.87v-402.908c0-17.954 15.030-32.567 33.401-32.567zM738.713 0c83.922 0 126.091 42.169 126.091 124.423v392.052c0 82.669-42.169 124.838-126.091 124.838h-108.555v-68.89h106.467c37.995 0 59.705-20.459 59.705-60.542v-382.866c0-40.083-21.712-60.542-59.705-60.542h-448.835c-38.411 0-59.705 20.459-59.705 60.542v382.866c0 40.083 21.294 60.542 59.705 60.542h106.885v68.89h-109.389c-83.504 0-126.091-42.169-126.091-124.838v-392.052c0-82.669 42.587-124.423 126.091-124.423h453.427z" />
<glyph unicode="&#xe944;" glyph-name="icon69" d="M714.751 0.003c29.235 0 51.431 22.197 51.431 51.431 0 14.076-5.956 27.069-15.16 36.813l-368.145 359.483 368.145 360.023c9.204 9.746 15.16 22.739 15.16 36.813 0 28.693-22.197 51.431-51.431 51.431-14.618 0-26.528-5.414-36.273-15.16l-403.335-394.131c-11.37-10.286-17.325-24.363-17.325-38.981s5.956-27.611 17.325-38.437l403.335-394.131c9.746-9.746 21.656-15.16 36.273-15.16z" />
<glyph unicode="&#xe945;" glyph-name="icon70" d="M309.249-0.001c14.618 0 26.528 5.414 36.273 14.618l403.335 394.673c11.37 10.828 17.325 23.821 17.325 38.437s-5.956 28.693-16.784 38.981l-403.335 394.131c-9.746 9.746-22.197 15.16-36.813 15.16-28.693 0-51.431-22.739-51.431-51.431 0-14.076 5.956-27.069 15.16-36.813l368.146-360.024-368.146-359.484c-9.204-9.746-15.16-22.739-15.16-36.813 0-29.236 22.739-51.431 51.431-51.431z" />
<glyph unicode="&#xe946;" glyph-name="icon71" d="M733.688 0.001c86.738 0 131.208 44.91 131.208 132.969v378.213c0 55.036-6.605 79.253-40.947 114.476l-225.871 229.393c-32.581 33.462-59.881 40.947-108.753 40.947h-199.013c-86.738 0-131.208-44.91-131.208-132.529v-630.502c0-88.499 44.469-132.969 131.208-132.969h443.377zM728.845 72.21h-433.69c-42.269 0-63.402 22.455-63.402 62.962v625.658c0 40.067 21.135 62.962 63.402 62.962h182.281v-236.879c0-55.036 27.738-81.895 82.336-81.895h232.476v-369.847c0-40.507-21.574-62.962-63.402-62.962zM779.919 571.063h-212.662c-16.731 0-23.776 7.045-23.776 23.776v216.625l236.438-240.4zM662.8 340.348c14.97 0 25.978 11.888 25.978 26.417 0 14.089-11.008 25.538-25.978 25.538h-310.848c-15.41 0-26.417-11.447-26.417-25.538 0-14.53 11.008-26.417 26.417-26.417h310.848zM662.8 197.254c14.97 0 25.978 11.008 25.978 25.538s-11.008 25.978-25.978 25.978h-310.848c-15.41 0-26.417-11.447-26.417-25.978s11.008-25.538 26.417-25.538h310.848z" />
<glyph unicode="&#xe947;" glyph-name="icon72" d="M473.282 74.932c28.665 0 49.628 21.391 49.628 49.628v151.88h11.123c154.018 0 250.281-41.072 318.306-168.992 14.546-26.953 33.8-32.088 52.195-32.088 23.958 0 44.495 22.248 44.495 62.463 0 297.34-127.922 481.309-414.996 481.309h-11.123v150.168c0 28.236-20.964 51.77-50.485 51.77-20.535 0-33.373-9.839-56.474-29.521l-320.017-298.624c-15.402-15.402-20.964-30.804-20.964-44.922 0-13.691 5.989-29.521 20.964-44.495l320.017-301.62c20.964-17.541 36.794-26.953 57.331-26.953zM448.896 167.772c-2.138 0-4.279 1.283-6.845 3.423l-284.079 269.105c-3.423 2.995-4.279 5.562-4.279 7.699 0 2.567 0.855 4.706 4.279 7.699l284.079 272.101c2.138 2.138 4.279 3.423 6.845 3.423 3.423 0 5.989-2.567 5.989-5.989v-157.87c0-9.412 4.279-13.263 13.263-13.263h53.478c272.101 0 358.523-186.106 365.795-377.773 0-2.995-0.855-4.279-2.567-4.279s-2.567 1.283-3.85 4.279c-46.634 101.823-169.421 165.57-359.377 165.57h-53.478c-8.984 0-13.263-4.279-13.263-13.691v-154.018c0-3.85-2.138-6.419-5.989-6.419z" />
<glyph unicode="&#xe948;" glyph-name="icon73" d="M503.329 298.439l50.187 50.946c-45.623 3.802-76.42 17.869-99.611 41.060-61.973 61.973-61.973 150.177 0 211.768l117.86 117.86c62.351 61.973 149.798 62.351 211.768 0.38 62.351-62.731 61.973-150.177 0.38-211.768l-67.295-67.295c10.266-24.332 13.307-52.848 8.743-77.941l104.554 104.554c87.065 86.683 87.445 210.248-0.38 298.073-88.205 88.205-211.389 87.445-298.073 0.38l-123.942-123.942c-86.683-86.683-87.445-210.248 0.38-298.073 22.433-22.051 50.946-38.021 95.429-46.003zM492.682 129.253l123.565 123.942c87.065 87.065 87.445 210.248-0.38 298.454-22.051 22.051-50.567 38.021-95.049 45.623l-50.567-50.567c46.003-4.182 76.8-18.249 99.611-41.060 62.351-61.973 61.973-150.177 0.38-211.768l-118.241-117.86c-61.973-61.973-149.417-62.351-211.389-0.38-62.731 62.351-61.973 150.177-0.38 211.768l67.295 67.295c-10.266 23.952-13.307 52.848-8.743 77.561l-104.554-104.175c-87.065-87.065-87.825-210.248 0.38-298.454 87.825-87.825 211.010-87.065 298.073-0.38z" />
<glyph unicode="&#xe949;" glyph-name="icon74" d="M786.296 19.67c17.287 12.649 21.083 34.154 10.543 64.093l-82.647 246.676 211.678 151.8c25.302 18.132 35.842 37.529 29.096 58.19s-26.563 30.361-57.768 29.939l-259.747-1.687-78.853 247.94c-10.121 30.361-24.878 45.962-46.381 45.962-21.927 0-36.685-15.602-46.806-45.962l-78.853-247.94-259.747 1.687c-31.202 0.422-51.020-9.276-57.768-29.939-7.169-20.663 3.794-40.058 29.096-58.19l211.678-151.8-82.647-246.676c-10.543-29.939-6.745-51.444 10.543-64.093 17.287-13.494 38.793-8.856 64.515 9.697l209.992 153.909 209.568-153.909c25.723-18.553 47.228-23.192 64.515-9.697zM720.515 105.268l-187.221 143.788c-13.915 10.962-28.674 10.962-42.588 0l-187.221-143.788c-2.108-1.265-2.952-1.687-3.794-0.843-0.843 1.265-0.422 1.265 0 3.794l78.008 223.062c5.903 16.867 3.373 29.096-12.227 39.637l-194.386 134.091c-2.108 1.265-2.53 2.108-2.108 2.952 0.422 1.265 1.265 1.265 3.794 1.265l235.712-4.638c18.132-0.422 28.674 5.903 33.732 24.035l67.467 226.013c0.422 2.108 1.265 2.952 2.53 2.952 0.843 0 1.687-0.843 2.108-2.952l67.467-226.013c5.059-18.132 15.602-24.457 33.732-24.035l236.134 4.638c2.108 0 2.952 0 3.373-1.265 0.422-0.843 0-1.687-2.108-2.952l-194.386-134.091c-15.602-10.543-18.132-22.77-12.227-39.637l78.008-223.062 0.425-2.065c0.132-0.669 0.081-0.971-0.425-1.731-0.843-0.843-1.687-0.422-3.794 0.843z" />
<glyph unicode="&#xe94a;" glyph-name="icon76" d="M536.133 64.265c29.916 0 46.27 27.923 60.632 59.037l288 621.475c7.579 15.557 11.17 29.12 11.17 41.086 0 26.328-19.545 45.874-46.27 45.874-11.566 0-25.529-3.591-41.086-10.771l-621.475-287.602c-29.916-13.962-59.037-30.715-59.037-61.032 0-31.513 30.316-47.865 69.807-47.865l281.62-1.196c5.583 0 7.978-2.392 7.978-7.978l0.797-281.219c0-38.296 15.557-69.807 47.865-69.807zM547.7 166.781l1.996 290.393c0 17.95-10.37 28.721-29.12 28.721l-289.995-1.996c-3.192 0-3.591 3.591 0 5.186l586.371 269.253c4.787 1.996 7.579-0.401 5.186-5.583l-269.253-586.371c-1.597-3.591-5.186-2.392-5.186 0.401z" />
<glyph unicode="&#xe94b;" glyph-name="icon77" d="M512.32-63.997c32.019 0 58.918 26.256 58.918 57.636v394.485h384.237c31.379 0 58.918 26.898 58.918 59.558 0 32.019-27.537 58.918-58.918 58.918h-384.237v395.125c0 32.019-26.898 58.278-58.918 58.278-32.662 0-59.558-26.256-59.558-58.278v-395.125h-384.237c-31.379 0-58.918-26.898-58.918-58.918 0-32.662 27.537-59.558 58.918-59.558h384.237v-394.485c0-31.379 26.898-57.636 59.558-57.636z" />
<glyph unicode="&#xe94c;" glyph-name="icon78" d="M963.958 387.631c31.979 0 60.043 27.412 60.043 60.695 0 32.631-28.064 60.043-60.043 60.043h-903.914c-31.979 0-60.043-27.412-60.043-60.043 0-33.285 28.064-60.695 60.043-60.695h903.914z" />
<glyph unicode="&#xe94d;" glyph-name="icon781" d="M512.003 378.78c17.702 0 34.496 5.901 55.83 18.157l335.433 194.722c34.95 20.426 49.476 36.766 49.476 61.732s-14.525 41.305-49.476 62.182l-335.433 194.269c-21.333 12.71-38.127 18.157-55.83 18.157s-34.496-5.446-55.83-18.157l-335.433-194.269c-34.95-20.879-49.476-37.221-49.476-62.182s14.525-41.305 49.476-61.732l335.433-194.722c21.333-12.255 38.127-18.157 55.83-18.157zM512.003 459.121c-5.901 0-11.8 1.816-18.609 5.901l-322.723 184.284c-1.816 0.907-3.178 2.27-3.178 4.085 0 2.27 1.361 3.178 3.178 4.085l322.723 184.737c6.809 3.631 12.71 5.901 18.609 5.901s11.347-2.27 18.609-5.901l322.723-184.737c1.816-0.907 3.178-1.816 3.178-4.085 0-1.816-1.361-3.178-3.178-4.085l-322.723-184.284c-7.263-4.085-12.71-5.901-18.609-5.901zM512.003 166.808c15.887 0 29.957 7.716 48.566 18.609l365.844 216.056c18.157 10.439 26.781 25.872 26.781 41.305 0 18.609-13.162 33.588-26.327 40.397l-395.348-228.767c-7.716-4.085-13.617-7.263-19.518-7.263s-11.8 3.178-19.518 7.263l-395.348 228.767c-13.162-6.809-26.327-21.787-26.327-40.397 0-15.433 9.078-31.32 26.327-41.305l366.298-216.056c18.609-10.894 32.681-18.609 48.566-18.609zM512.003-32.001c15.887 0 29.957 7.716 48.566 18.609l365.844 216.056c17.702 9.985 26.781 25.872 26.781 41.305 0 18.609-13.162 33.588-26.327 40.397l-395.348-228.767c-7.716-4.085-13.617-7.263-19.518-7.263s-11.8 3.178-19.518 7.263l-395.348 228.767c-13.162-6.809-26.327-21.787-26.327-40.397 0-15.433 9.078-31.32 26.327-41.305l366.298-216.056c18.609-10.894 32.681-18.609 48.566-18.609z" />
<glyph unicode="&#xe94e;" glyph-name="icon79" d="M512.185 404.902c7.336 0 13.937 2.569 21.273 9.535l115.536 111.867c5.502 5.502 8.434 11.003 8.434 18.705 0 14.672-11.372 25.308-26.040 25.308-7.336 0-14.672-2.933-19.806-8.434l-50.249-53.916-22.739-24.942 2.569 52.082v269.949c0 15.406-13.203 28.241-28.976 28.241-16.139 0-29.341-12.838-29.341-28.241v-269.949l2.569-52.082-22.739 24.942-50.249 53.916c-5.135 5.502-12.838 8.434-20.174 8.434-14.672 0-25.676-10.637-25.676-25.308 0-7.702 2.933-13.203 8.434-18.705l115.902-111.867c7.336-6.968 13.571-9.535 21.273-9.535zM811.108 62.697c73.357 0 110.768 37.043 110.768 109.3v205.030c0 33.009-4.401 49.882-20.174 70.054l-118.469 147.813c-40.713 50.983-66.021 79.592-128.371 79.592h-49.516v-51.348h53.183c24.942 0 50.615-21.641 67.121-42.913l121.772-155.514c13.203-16.873 8.434-23.841-10.27-23.841h-219.7c-17.971 0-26.409-13.203-26.409-27.508v-1.101c0-39.246-30.809-81.059-79.223-81.059-48.048 0-78.858 41.811-78.858 81.059v1.101c0 14.304-8.434 27.508-26.409 27.508h-219.7c-19.073 0-22.739 8.069-10.27 23.841l121.404 155.514c16.873 21.273 42.546 42.913 67.487 42.913h53.551v51.348h-49.882c-62.353 0-87.661-28.609-128.74-79.592l-118.103-147.813c-15.771-20.174-20.174-37.043-20.174-70.054v-205.030c0-72.623 37.412-109.3 110.768-109.3h598.217zM809.276 122.848h-594.55c-33.744 0-52.45 17.971-52.45 53.183v170.92h216.033c9.169-63.82 63.452-111.134 133.508-111.134 70.42 0 124.705 47.314 133.874 111.134h216.033v-170.92c0-35.212-19.073-53.183-52.45-53.183z" />
<glyph unicode="&#xe94f;" glyph-name="icon80" d="M638.457 432.538l257.574 149.544c33.045 19.064 46.178 34.315 46.178 57.616s-13.134 38.551-46.178 58.036l-313.071 181.318c-19.911 11.863-35.585 16.946-52.108 16.946s-32.196-5.083-52.108-16.946l-181.318-105.062 51.683-52.108 164.373 94.047c6.779 3.389 11.863 5.508 17.366 5.508s11.013-2.119 17.366-5.508l301.208-172.421c1.695-0.846 2.966-1.695 2.966-3.813 0-1.695-1.27-2.966-2.966-3.813l-263.505-150.394 52.532-52.954zM933.311 23.721c11.863 12.284 12.284 32.196 0 44.483l-798.563 798.14c-12.284 12.284-32.196 12.284-44.483 0-11.863-11.863-11.863-32.196 0-44.058l798.989-798.563c11.863-11.863 32.196-12.284 44.058 0zM368.598 464.734l-219.869 219.869c-21.181-14.828-29.232-27.96-29.232-45.753 0-22.028 12.284-36.854 43.634-55.496l205.465-118.619zM530.85 185.554c15.251 0 27.96 6.779 45.328 17.366l40.245 23.722-52.532 52.954-21.606-12.284c-5.508-3.389-10.168-5.508-14.404-5.508s-9.319 2.119-15.251 5.508l-368.993 213.516c-11.863-6.355-24.147-20.334-24.147-37.704 0-14.404 8.049-29.232 24.572-38.551l341.455-201.652c17.793-10.168 30.502-17.366 45.328-17.366zM759.619 310.952l158.442 93.624c16.522 9.743 24.572 24.147 24.572 38.551 0 17.366-12.284 31.349-24.572 37.704l-207.584-119.888 49.143-49.989zM530.85-0.001c15.251 0 27.96 7.202 45.328 17.366l157.17 92.35-49.989 49.989-134.294-77.949c-7.202-3.813-12.709-6.779-18.217-6.779-5.083 0-11.013 2.966-18.217 6.779l-368.993 213.516c-11.863-6.355-24.147-20.334-24.147-37.704 0-14.404 8.049-29.232 24.572-38.551l341.455-201.652c17.793-10.168 30.502-17.366 45.328-17.366zM876.543 194.451l43.634 25.842c14.828 9.319 22.452 23.722 22.452 37.281 0 17.366-12.284 31.349-24.572 37.704l-90.236-52.108 48.719-48.719z" />
<glyph unicode="&#xe950;" glyph-name="icon81" d="M879.331 80.138c22.425 21.213 21.82 57.58 0.606 79.398l-288.5 288.5 288.5 288.5c21.213 21.213 21.82 57.58-0.606 78.792-21.213 22.425-57.58 21.82-78.792 0.606l-288.5-289.11-288.5 289.11c-21.213 20.609-58.185 21.82-79.398-0.606-21.82-21.213-21.213-57.58 0-78.792l288.5-288.5-288.5-289.11c-21.213-20.609-21.82-57.58 0-78.792 21.213-21.82 58.185-21.213 79.398 0l288.5 288.5 288.5-288.5c21.213-21.213 57.58-21.82 78.792 0z" />
<glyph unicode="&#xe951;" glyph-name="icon82" d="M799.196 128.344c70.565 0 106.551 35.636 106.551 105.493v349.646c0 69.506-35.987 105.141-106.551 105.141h-76.21c-26.108 0-34.223 4.94-49.748 21.875l-26.462 29.283c-16.937 18.345-34.223 27.873-68.448 27.873h-134.778c-34.223 0-51.16-9.525-68.093-27.873l-26.815-29.283c-15.17-16.937-23.64-21.875-49.748-21.875h-74.093c-70.565 0-106.551-35.636-106.551-105.141v-349.646c0-69.86 35.987-105.493 106.551-105.493h574.394zM512 237.012c-101.26 0-182.408 81.148-182.408 182.761s81.148 182.761 182.408 182.761c101.26 0 182.408-81.148 182.408-182.761s-81.148-182.761-182.408-182.761zM753.329 499.865c-23.287 0-41.986 18.7-41.986 41.986s18.7 41.986 41.986 41.986c23.287 0 41.986-18.7 41.986-41.986s-18.7-41.986-41.986-41.986zM512 291.7c70.918 0 128.075 56.804 128.075 128.075s-57.157 128.427-128.075 128.427c-70.918 0-128.075-57.157-128.075-128.427s57.51-128.075 128.075-128.075z" />
<glyph unicode="&#xe952;" glyph-name="icon83" d="M164.112 562.055c23.778 0 36.549 13.21 36.549 36.99v96.883c0 41.835 22.458 63.414 62.971 63.414h99.081c23.338 0 36.549 13.21 36.549 36.112 0 23.338-13.21 36.549-36.549 36.549h-101.725c-88.075 0-132.991-44.478-132.991-131.229v-101.725c0-23.778 13.21-36.99 36.112-36.99zM859.888 562.055c23.778 0 36.112 13.21 36.112 36.99v101.725c0 86.753-44.478 131.229-132.55 131.229h-101.725c-23.778 0-36.99-13.21-36.99-36.549 0-22.901 13.21-36.112 36.99-36.112h99.081c40.074 0 62.971-21.578 62.971-63.414v-96.883c0-23.778 12.77-36.99 36.112-36.99zM475.89 465.614c10.568 0 18.497 7.926 18.497 18.054v144.439c0 10.128-7.926 18.497-18.497 18.497h-143.999c-10.128 0-18.497-8.368-18.497-18.497v-144.439c0-10.128 8.368-18.054 18.497-18.054h143.999zM692.549 465.614c10.128 0 18.054 7.926 18.054 18.054v144.439c0 10.128-7.926 18.497-18.054 18.497h-144.439c-10.128 0-18.054-8.368-18.054-18.497v-144.439c0-10.128 7.926-18.054 18.054-18.054h144.439zM674.495 501.724h-108.331v108.772h108.331v-108.772zM458.276 501.724h-108.772v108.772h108.772v-108.772zM642.789 533.432v45.357h-44.918v-45.357h44.918zM426.568 533.432v45.357h-45.357v-45.357h45.357zM475.89 249.394c10.568 0 18.497 7.926 18.497 18.054v144.439c0 10.128-7.926 18.054-18.497 18.054h-143.999c-10.128 0-18.497-7.926-18.497-18.054v-144.439c0-10.128 8.368-18.054 18.497-18.054h143.999zM705.32 379.744v44.918h-45.357v-44.918h45.357zM580.258 379.744v44.918h-44.918v-44.918h44.918zM458.276 285.065h-108.772v108.772h108.772v-108.772zM426.568 317.211v44.918h-45.357v-44.918h45.357zM642.789 317.211v44.918h-45.357v-44.918h45.357zM763.448 64.002c88.075 0 132.55 44.035 132.55 131.229v101.725c0 23.338-12.77 36.549-36.112 36.549-23.778 0-36.112-13.21-36.112-36.549v-96.883c0-42.275-22.901-63.854-62.971-63.854h-99.081c-23.778 0-36.99-12.77-36.99-36.112s13.21-36.112 36.99-36.112h101.725zM362.714 64.002c23.338 0 36.549 12.77 36.549 36.112s-13.21 36.112-36.549 36.112h-99.081c-40.514 0-62.971 21.578-62.971 63.854v96.883c0 23.338-13.21 36.549-36.549 36.549s-36.112-13.21-36.112-36.549v-101.725c0-87.192 44.918-131.229 132.991-131.229h101.725zM580.258 254.679v45.357h-44.918v-45.357h44.918zM705.32 254.679v45.357h-45.357v-45.357h45.357z" />
<glyph unicode="&#xe953;" glyph-name="icon84" d="M512.231 0c244.909 0 447.769 202.859 447.769 448.231 0 244.909-203.321 447.769-448.231 447.769s-447.769-202.859-447.769-447.769c0-245.371 203.321-448.231 448.231-448.231zM503.453 354.889c-25.417 0-39.278 12.477-39.278 36.967v5.545c0 43.436 24.491 67.927 57.299 90.571 40.201 27.726 59.147 42.973 59.147 73.473 0 32.809-25.877 55.913-66.079 55.913-29.575 0-51.292-14.788-65.618-38.815-14.326-17.098-19.409-30.498-45.747-30.498-17.098 0-33.733 12.014-33.733 32.809 0 7.855 1.386 15.249 3.697 23.105 12.477 42.973 65.618 79.018 144.635 79.018 79.481 0 147.408-41.587 147.408-117.833 0-54.527-30.961-80.404-75.782-110.439-30.498-21.257-46.67-36.967-47.133-61.919v-5.083c-0.923-18.485-14.788-32.809-38.815-32.809zM505.301 221.806c-26.34 0-50.369 20.332-50.369 48.056s23.568 48.056 50.369 48.056c26.803 0 50.369-19.871 50.369-48.056s-24.031-48.056-50.369-48.056z" />
<glyph unicode="&#xe954;" glyph-name="icon85" d="M512.231-0.001c244.909 0 447.768 202.859 447.768 448.23 0 244.909-203.321 447.768-448.23 447.768s-447.768-202.859-447.768-447.768c0-245.371 203.321-448.23 448.23-448.23zM508.535 601.182c-31.885 0-57.761 25.877-57.761 57.761 0 32.809 25.877 58.224 57.761 58.224 32.347 0 57.761-25.417 57.761-58.224 0-31.885-25.417-57.761-57.761-57.761zM612.967 208.405h-177.906c-18.022 0-32.809 13.4-32.809 32.347 0 17.56 14.788 31.423 32.809 31.423h53.602v194.079h-45.747c-18.485 0-32.809 13.4-32.809 32.347 0 17.56 14.326 31.423 32.809 31.423h82.715c22.643 0 35.119-16.174 35.119-40.664v-217.184h52.216c18.485 0 33.271-13.863 33.271-31.423 0-18.946-14.788-32.347-33.271-32.347z" />
<glyph unicode="&#xe955;" glyph-name="icon86" d="M522.683 0c69.436 0 134.422 9.347 174.481 22.702 28.487 9.347 37.836 24.035 37.836 40.505 0 16.024-12.464 28.932-29.377 28.932-5.342 0-12.020-1.338-20.476-3.116-48.961-11.572-91.246-20.030-148.666-20.030-230.565 0-386.352 138.874-386.352 374.78 0 226.114 147.778 384.123 369.437 384.123 197.184 0 359.647-121.962 359.647-339.169 0-124.63-41.84-208.31-109.496-208.31-44.955 0-70.772 26.261-70.772 72.108v279.528c0 24.035-13.353 38.724-36.054 38.724s-36.5-14.689-36.5-38.724v-45.401h-4.451c-21.366 52.077-73.442 84.125-135.757 84.125-108.606 0-185.164-92.582-185.164-226.114 0-134.422 76.112-228.34 187.39-228.34 64.985 0 114.837 35.164 138.874 94.362h4.451c8.901-58.754 58.754-94.362 125.519-94.362 118.843 0 192.285 114.392 192.285 276.41 0 244.361-179.824 403.267-429.082 403.267-262.168 0-445.996-178.933-445.996-450.002 0-276.855 188.28-445.996 448.222-445.996zM501.763 286.649c-73.442 0-119.736 60.978-119.736 158.013 0 96.589 46.737 157.567 120.179 157.567 74.778 0 122.405-60.090 122.405-155.343 0-97.924-48.071-160.238-122.849-160.238z" />
<glyph unicode="&#xe956;" glyph-name="icon87" d="M530.228 64.002c165.888 0 310.476 100.35 359.219 227.738 3.687 9.42 4.506 18.842 4.506 22.938 0 14.744-11.469 24.166-22.938 24.166-5.734 0-10.65-0.819-18.432-3.687-29.49-9.831-77.415-20.070-124.518-20.070-208.076 0-340.787 129.844-340.787 337.51 0 43.827 10.242 104.858 24.166 137.215 4.098 9.011 4.914 15.155 4.914 19.252 0 11.058-8.19 22.938-23.346 22.938-4.914 0-14.335-1.23-23.346-4.506-143.358-57.343-239.617-210.943-239.617-373.147 0-227.329 173.262-390.349 400.181-390.349z" />
<glyph unicode="&#xe957;" glyph-name="icon88" d="M512.217 735.722c20.305 0 37.584 17.282 37.584 37.584v85.107c0 20.305-17.282 37.584-37.584 37.584s-37.584-17.282-37.584-37.584v-85.107c0-20.305 17.282-37.584 37.584-37.584zM768.402 650.616l60.483 60.483c14.257 14.257 14.257 38.881-0.433 53.138-14.257 14.689-38.45 14.689-52.705 0l-60.483-60.483c-14.689-14.689-14.689-38.45 0-53.138 14.257-14.257 38.45-14.689 53.138 0zM308.739 650.616c14.257 13.825 14.257 38.881 0.433 53.138l-60.051 60.483c-14.257 14.257-38.881 14.689-53.138 0-14.257-14.257-14.257-38.881-0.433-52.705l60.051-60.914c14.257-14.257 38.45-14.257 53.138 0zM511.785 237.178c115.349 0 210.822 95.044 210.822 210.822 0 115.349-95.475 210.822-210.822 210.822-114.916 0-210.392-95.475-210.392-210.822 0-115.781 95.475-210.822 210.392-210.822zM921.337 410.416c20.305 0 37.584 17.282 37.584 37.584s-17.282 37.584-37.584 37.584h-84.244c-20.737 0-38.017-17.282-38.017-37.584s17.282-37.584 38.017-37.584h84.244zM187.341 410.416c20.305 0 37.584 17.282 37.584 37.584s-17.282 37.584-37.584 37.584h-84.676c-20.305 0-37.584-17.282-37.584-37.584s17.282-37.584 37.584-37.584h84.676zM828.883 131.334c14.257 14.689 14.257 38.45 0 53.138l-60.914 60.051c-14.257 14.689-38.45 14.689-52.705 0-14.689-14.257-14.689-38.45 0-52.705l60.483-60.914c14.689-14.257 38.45-13.825 53.138 0.433zM248.255 131.334l60.483 60.051c14.257 14.689 14.257 38.881 0.433 53.138-14.257 14.257-38.881 14.257-53.571 0l-60.051-59.619c-14.689-14.257-14.689-38.881-0.433-53.138s38.881-14.689 53.138-0.433zM512.217 0.001c20.305 0 37.584 17.282 37.584 37.584v84.676c0 20.737-17.282 38.017-37.584 38.017s-37.584-17.282-37.584-38.017v-84.676c0-20.305 17.282-37.584 37.584-37.584z" />
<glyph unicode="&#xe958;" glyph-name="icon89" d="M839.59 653.22c-27.55 10.81-226.767 82.637-306.020 111.41-164.326 59.66-353.87 148.947-383.033 162.119-4.978 2.237-10.755 1.364-14.83-1.832-3.6-2.835-4.805-6.155-5.282-8.568-10.604-63.454 13.579-173.375 71.666-213.66 35.545-24.619 268.666-99.815 363.59-129.785 2.69-0.835 1.595-4.818-1.16-4.175-99.017 22.168-359.279 81.85-364.516 82.51-5.065 0.635-9.29-0.661-12.805-4.241-2.345-2.43-4.548-7.139-3.62-12.299 12.825-71.215 80.825-162.655 140.359-174.527 34.831-6.948 179.54-3.496 239.248-2.067 2.759 0.080 3.103-3.943 0.344-4.325-67.55-9.485-231.745-34.145-235.798-34.87-5.023-0.873-8.41-4.241-10.001-7.46-1.488-2.942-2.759-7.565-0.107-13.085 10.064-20.935 39.44-48.896 39.44-48.896 64.122-64.755 134.238-57.123 151.72-53.927 16.381 2.965 57.418 15.837 79.945 25.79 1.7 0.746 3.491-0.81 2.996-2.579l-37.353-132.599c-0.388-1.385 0.67-2.755 2.112-2.755l111.565-0.768c1.488-0.025 2.545-1.45 2.112-2.835l-65.33-208.949c-0.715-2.323 2.327-3.899 3.836-2l244.635 307.017c1.12 1.427 0.107 3.515-1.724 3.515h-116.2c-1.705 0-2.802 1.832-1.9 3.282 15.67 25.535 118.288 193.006 151.285 257.801 10.535 18.305 14.915 44.973 7.63 65.030-7.285 20.080-22.96 36.020-52.81 47.725z" />
<glyph unicode="&#xe959;" glyph-name="icon90" d="M799.233 144.099c64.447 0 101.857 37.409 101.857 110.376v387.052c0 72.966-37.78 110.376-111.857 110.376h-564.466c-64.447 0-101.857-37.039-101.857-110.376v-387.052c0-72.966 37.78-110.376 111.857-110.376h564.466zM512.556 411.147c-13.705 0-26.668 6.296-41.484 21.112l-261.493 258.159c6.667 2.593 14.816 3.704 24.075 3.704h557.059c9.261 0 17.408-1.482 24.816-4.074l-261.493-257.789c-14.816-14.816-27.779-21.112-41.484-21.112zM180.689 252.623v389.644l197.416-194.083-197.416-195.565zM843.679 253.734l-196.676 194.453 196.676 192.972v-387.422zM790.714 201.879h-557.059c-8.889 0-16.668 1.111-23.334 3.704l206.676 204.453 21.483-21.112c24.816-24.816 48.891-34.817 74.077-34.817s49.262 10 74.077 34.817l21.483 21.112 206.305-204.083c-6.667-2.593-14.816-4.074-23.705-4.074z" />
<glyph unicode="&#xe95a;" glyph-name="icon91" d="M644.874 251.529c4.27 4.27 11.196 4.27 15.467 0v0l2.178-2.322 2.232-2.287c20.938-20.938 46.821-33.923 73.891-38.971 0.926-0.094 1.846-0.224 2.77-0.377 0.911-0.152 1.821-0.331 2.729-0.541 8.083-1.857 15.76-5.928 22.059-12.221 17.865-17.868 17.865-46.835 0-64.704-17.868-17.865-46.835-17.865-64.704 0-5.831 5.833-9.748 12.85-11.774 20.276-0.433 1.593-0.781 3.202-1.041 4.827-0.237 1.476-0.398 2.955-0.49 4.443-5.279 26.413-18.147 51.611-38.621 72.083-1.041 1.041-2.101 2.056-3.166 3.060-0.535 0.371-1.050 0.783-1.526 1.262-0.275 0.275-0.534 0.565-0.772 0.861-3.482 4.298-3.224 10.614 0.772 14.614zM444.053 779.296c14.024 0 28.579-0.843 43.269-2.51 81.812-9.303 156.087-44.643 209.144-99.516 20.995-21.725 38.093-45.995 50.817-72.144 17.108-35.157 25.783-72.424 25.783-110.762 0-6.451-0.28-12.885-0.783-19.301-0.702 0.812-1.349 1.655-2.12 2.424-15.251 15.251-38.536 17.368-56.157 6.584 0.152 3.122 0.351 6.241 0.351 9.373 0 30.111-6.84 59.431-20.325 87.155-10.168 20.893-23.886 40.342-40.773 57.813-43.601 45.097-105.023 74.184-172.949 81.907-12.341 1.402-24.541 2.113-36.253 2.113-11.158 0-22.836-0.655-34.717-1.948-68.241-7.42-130.019-36.361-173.951-81.495-16.965-17.435-30.757-36.841-40.997-57.681-13.704-27.898-20.656-57.463-20.656-87.86 0-39.17 12.005-77.924 34.724-112.076 9.648-14.509 21.134-28.053 34.215-40.46 4.655-4.415 9.494-8.704 14.552-12.823 3.305-2.686 6.446-5.129 9.593-7.456 6.183-4.503 9.893-11.832 9.893-19.588 0-2.808-0.591-5.305-1.171-7.388-2.674-10.183-6.273-23.904-8.908-33.934-1.064-4.063-1.943-7.407-2.567-9.781v0l-2.228-9.001c0-2.201 1.719-3.992 3.835-3.992 0.648 0 1.352 0.273 2.603 1v0l0.064 0.037 60.259 35.513c0.667 0.389 1.324 0.675 1.987 1.019 5.121 2.657 10.171 4.032 15.378 4.032 3.338 0 6.597-0.497 9.673-1.478 15.092-4.425 30.718-7.645 46.524-9.75 2.394-0.318 4.782-0.686 7.183-0.949 11.506-1.266 23.184-1.911 34.708-1.911 11.724 0 23.93 0.71 36.253 2.113 20.317 2.305 39.967 6.591 58.787 12.569-1.655-17.346 6.687-34.876 22.797-44.091 2.705-1.547 5.501-2.783 8.347-3.725-26.332-9.456-54.075-16.105-82.915-19.379-14.666-1.668-29.223-2.516-43.269-2.516-13.772 0-27.725 0.764-41.47 2.279-21.149 2.326-41.206 6.036-61.419 11.837v0l-93.917-47.141c-0.516-0.356-1.070-0.638-1.611-0.957-0.108-0.068-0.237-0.127-0.351-0.191-3.702-2.118-7.933-3.421-12.502-3.421-13.99 0-25.325 11.335-25.325 25.32 0 0.816 0.166 1.58 0.241 2.373 0.099 1.043 0.166 2.096 0.389 3.1 0.363 1.644 0.879 3.222 1.546 4.727v0l3.789 15.318 13.149 54.389-5.545 4.665c-22.398 19.458-47.183 48.049-62.157 70.56-28.684 43.125-43.843 92.252-43.843 142.078 0 38.698 8.812 76.265 26.196 111.654 12.813 26.077 30 50.293 51.095 71.968 53.444 54.907 128.133 90.066 210.31 98.999 14.123 1.538 28.061 2.313 41.427 2.313zM830.867 323.862c17.868 17.865 46.835 17.865 64.704 0 17.865-17.868 17.865-46.835 0-64.704-5.833-5.831-12.85-9.748-20.276-11.774-1.593-0.433-3.202-0.781-4.827-1.041-1.476-0.237-2.955-0.398-4.443-0.49-26.413-5.279-51.611-18.147-72.083-38.621-1.041-1.041-2.056-2.101-3.060-3.166-0.371-0.535-0.783-1.050-1.262-1.526-0.275-0.275-0.565-0.534-0.861-0.772-4.298-3.482-10.614-3.224-14.614 0.772-4.27 4.27-4.27 11.196 0 15.467v0l2.322 2.178 2.287 2.232c20.938 20.938 33.923 46.821 38.971 73.891 0.094 0.926 0.224 1.846 0.377 2.77 0.152 0.911 0.331 1.821 0.541 2.729 1.857 8.083 5.928 15.76 12.221 22.059zM679.252 381.576c4.298 3.482 10.614 3.224 14.614-0.772 4.27-4.27 4.27-11.196 0-15.467v0l-2.322-2.178-2.287-2.232c-20.938-20.938-33.923-46.821-38.971-73.891-0.094-0.926-0.224-1.846-0.377-2.77-0.152-0.911-0.331-1.821-0.541-2.729-1.857-8.083-5.928-15.76-12.221-22.059-17.868-17.865-46.835-17.865-64.704 0-17.865 17.868-17.865 46.835 0 64.704 5.833 5.831 12.85 9.748 20.276 11.774 1.593 0.433 3.202 0.781 4.827 1.041 1.476 0.237 2.955 0.398 4.443 0.49 26.413 5.279 51.611 18.147 72.083 38.621v0l3.060 3.166c0.371 0.535 0.783 1.050 1.262 1.526 0.275 0.275 0.565 0.534 0.861 0.772zM701.816 453.236c17.868 17.865 46.835 17.865 64.704 0 5.831-5.833 9.748-12.85 11.774-20.276 0.433-1.593 0.781-3.202 1.041-4.827 0.237-1.476 0.398-2.955 0.49-4.443 5.279-26.413 18.147-51.611 38.621-72.083 1.041-1.041 2.101-2.056 3.166-3.060 0.535-0.371 1.050-0.783 1.526-1.262 0.275-0.275 0.534-0.565 0.772-0.861 3.482-4.298 3.224-10.614-0.772-14.614-4.27-4.27-11.196-4.27-15.467 0v0l-2.178 2.322-2.232 2.287c-20.938 20.938-46.821 33.923-73.891 38.971-0.926 0.094-1.846 0.224-2.77 0.377-0.911 0.152-1.821 0.331-2.729 0.541-8.083 1.857-15.76 5.928-22.059 12.221-17.865 17.868-17.865 46.835 0 64.704z" />
<glyph unicode="&#xe95b;" glyph-name="icon92" d="M651.497 574.779c9.051 0 17.996-0.661 26.884-1.652-24.135 112.429-144.332 195.95-281.517 195.95-153.363 0-279.015-104.535-279.015-237.296 0-76.64 41.781-139.56 111.663-188.345l-27.917-83.914 97.552 48.889c34.88-6.921 62.919-14.032 97.717-14.032 8.741 0 17.44 0.435 26.055 1.116-5.474 18.658-8.615 38.227-8.615 58.456 0 121.913 104.659 220.827 237.192 220.827v0zM501.503 650.425c21.035 0 34.922-13.844 34.922-34.817 0-20.932-13.906-34.922-34.922-34.922-20.932 0-41.885 14.011-41.885 34.922-0.021 20.994 20.974 34.817 41.885 34.817v0zM306.236 580.689c-20.932 0-42.008 14.011-42.008 34.922 0 20.994 21.076 34.817 42.008 34.817s34.817-13.844 34.817-34.817c0-20.912-13.886-34.922-34.817-34.922zM906.15 357.34c0 111.54-111.643 202.457-237.008 202.457-132.76 0-237.296-90.939-237.296-202.457 0-111.768 104.535-202.499 237.296-202.499 27.792 0 55.812 7.026 83.768 14.011l76.495-41.925-21.015 69.697c56.039 42.028 97.759 97.759 97.759 160.719zM592.234 392.218c-13.906 0-27.895 13.823-27.895 27.917 0 13.906 13.991 27.937 27.895 27.937 21.096 0 34.922-14.011 34.922-27.937 0.021-14.112-13.781-27.917-34.922-27.917zM745.72 392.218c-13.803 0-27.75 13.823-27.75 27.917 0 13.906 13.928 27.937 27.75 27.937 20.912 0 34.922-14.011 34.922-27.937 0-14.112-14.032-27.917-34.922-27.917z" />
<glyph unicode="&#xe95c;" glyph-name="icon93" d="M722.342 64.001c53.4 0 100.289 18.667 137.622 60.346 21.706 24.311 35.166 52.53 35.166 80.316 0 21.272-7.816 41.679-27.786 55.569l-126.336 89.432c-19.101 13.892-35.599 20.406-50.36 20.406-18.667 0-35.599-10.854-54.269-29.522l-29.522-29.088c-4.775-4.775-10.421-6.078-15.63-6.078-6.512 0-12.59 2.171-16.931 4.341-25.182 13.458-69.030 51.23-109.839 91.603-40.374 40.809-78.147 84.223-91.603 109.839-2.171 4.341-4.341 10.421-4.341 16.496 0 5.21 1.302 10.854 6.078 15.63l29.088 29.958c18.667 18.667 29.522 35.599 29.522 54.702 0 14.762-6.946 30.822-20.406 50.36l-88.566 124.6c-14.762 19.971-35.599 29.088-58.174 29.088-27.352 0-55.135-12.59-79.447-35.599-40.374-38.638-57.741-85.961-57.741-138.491 0-118.956 90.737-262.657 210.126-381.613 119.39-119.824 264.827-212.297 383.347-212.297z" />
<glyph unicode="&#xe95d;" glyph-name="icon94" d="M606.016 484.834c-40.698 0-64.711 23.607-64.711 64.711v212.453c0 21.57 16.279 37.851 38.258 37.851 21.57 0 37.038-15.871 37.038-37.851v-30.524l-7.734-129.426 97.271 102.156 115.588 116.808c6.918 7.326 16.279 10.988 26.454 10.988 23.2 0 40.292-15.871 40.292-39.072 0-10.58-4.071-20.348-11.395-27.677l-115.995-115.995-102.562-97.271 129.833 8.141h31.338c21.978 0 38.258-15.465 38.665-37.445 0-21.978-16.686-37.851-38.665-37.851h-213.673zM175.821 63.999c-23.2 0-40.292 15.465-40.292 38.665 0 10.988 3.663 20.756 11.395 28.084l118.027 118.435 102.562 96.865-129.833-7.734h-35.407c-21.57 0-38.258 15.465-38.258 37.445s16.279 37.851 38.258 37.851h217.744c41.106 0 64.711-24.013 64.711-64.711v-216.522c0-21.57-15.871-38.258-37.851-38.258-21.57 0-37.445 16.279-37.445 38.258v34.595l8.141 129.018-97.679-102.156-117.621-118.842c-7.326-7.326-16.686-10.988-26.454-10.988z" />
<glyph unicode="&#xe95e;" glyph-name="icon95" d="M575.822 470.687c-24.173 0-41.982 16.114-41.982 40.288 0 11.024 4.242 21.203 11.874 29.262l120.861 120.861 106.866 100.929-135.281-8.058h-32.653c-22.901 0-40.288 16.114-40.288 39.016s17.386 39.016 40.288 39.016h222.639c42.407 0 67.428-24.596 67.428-67.428v-221.367c0-22.475-16.962-39.438-39.863-39.438-22.475 0-38.591 16.539-38.591 39.438v32.229l8.058 134.43-101.354-106.444-120.438-121.286c-7.208-7.634-16.962-11.451-27.565-11.451zM195.854 64.002c-42.832 0-67.428 25.021-67.428 67.428v221.367c0 22.475 16.539 39.863 39.438 39.863 22.475 0 39.016-16.962 39.016-39.863v-31.806l-8.48-134.856 101.354 106.866 120.438 121.286c7.634 7.634 16.962 11.451 27.565 11.451 24.173 0 41.982-16.114 41.982-40.288 0-11.451-4.242-21.629-11.874-29.262l-120.861-120.861-106.866-100.929 135.281 8.058h33.078c22.475 0 39.863-16.114 39.863-39.016s-16.962-39.438-39.863-39.438h-222.639z" />
<glyph unicode="&#xe95f;" glyph-name="icon96" d="M611.458 69.128c180.171 0 283.248 103.93 283.248 260.674 0 156.319-105.632 263.655-289.213 263.655h-264.506l-94.132-3.832 74.111 63.040 111.596 109.039c7.24 6.814 11.075 15.334 11.075 26.835 0 22.149-15.334 38.333-38.333 38.333-9.797 0-20.87-4.684-28.113-12.352l-235.118-230.857c-8.519-8.092-12.779-18.315-12.779-28.965s4.259-20.87 12.779-28.965l235.118-230.857c7.24-7.666 18.315-11.928 28.113-11.928 22.999 0 38.333 15.76 38.333 37.908 0 11.502-3.832 20.018-11.075 26.835l-111.596 109.039-74.111 63.040 94.132-3.832h269.194c134.597 0 207.005-74.963 207.005-182.302s-72.409-186.561-207.005-186.561h-93.279c-23.851 0-39.61-17.463-39.61-39.185 0-21.295 16.186-38.76 39.61-38.76h94.558z" />
<glyph unicode="&#xe960;" glyph-name="icon97" d="M512.401 306.802c20.573 0 34.412 13.466 34.785 34.785 1.122 125.674 2.618 259.95 3.74 384.13 0 22.068-17.579 37.404-38.899 37.404s-38.899-15.336-38.899-37.404c1.497-124.179 2.992-258.455 4.487-384.13 0.375-21.32 13.841-34.785 34.785-34.785zM195.223 473.247c63.959 68.447 144.003 111.461 233.77 127.544l-1.497 104.729c-124.552-20.198-237.135-84.157-304.461-164.201-4.862-5.984-4.862-14.214 1.497-20.198l46.753-48.249c6.732-7.106 17.206-6.732 23.938 0.375zM853.144 473.995l46.379 47.128c6.357 5.984 6.357 14.214 1.122 20.198-66.951 79.669-179.535 143.628-304.087 163.826l-1.122-104.729c89.392-16.458 169.062-60.593 234.143-127.544 6.357-6.357 16.458-6.357 23.563 1.122zM336.981 332.612c24.311 26.555 57.602 48.996 95.004 62.090l-2.244 109.216c-71.439-16.832-132.406-54.609-171.305-100.242-5.235-6.357-4.487-13.841 1.497-19.823l52.738-52.738c7.479-7.479 16.832-6.732 24.311 1.497zM711.762 331.863l52.364 51.99c5.984 5.61 6.732 13.841 1.122 19.823-38.526 45.631-99.492 83.41-170.933 99.867l-1.497-109.59c37.030-13.466 70.691-35.908 95.378-62.464 6.732-7.479 15.711-7.106 23.563 0.375zM512.028 132.879c31.419 0 56.48 25.433 56.48 56.48s-25.060 56.106-56.48 56.106c-31.044 0-56.48-25.060-56.48-56.106s25.433-56.48 56.48-56.48z" />
<glyph unicode="&#xe961;" glyph-name="icon98" d="M699.342 64c51.339 0 76.591 25.254 76.591 81.149v289.398c0 50.095-20.7 75.764-63.344 79.905v98.121c0 147.803-97.708 219.426-200.383 219.426-103.089 0-200.797-71.623-200.797-219.426v-99.778c-39.33-6.21-63.344-31.465-63.344-78.248v-289.398c0-55.891 25.254-81.149 76.591-81.149h374.682zM378.482 514.449v105.99c0 96.053 61.275 147.39 133.726 147.39 72.039 0 133.314-51.339 133.314-147.39v-105.161l-267.041-0.827z" />
<glyph unicode="&#xe962;" glyph-name="icon99" d="M512.231-0.001c244.909 0 447.768 202.859 447.768 448.23 0 244.909-203.321 447.768-448.23 447.768s-447.768-202.859-447.768-447.768c0-245.371 203.321-448.23 448.23-448.23zM512.231 79.942c-204.246 0-367.827 163.582-367.827 368.289 0 204.246 163.119 368.289 367.364 368.289s368.289-164.045 368.752-368.289c0.462-204.707-164.045-368.289-368.29-368.289zM625.443 237.054c30.498 0 44.822 15.249 44.822 48.056v173.747c0 28.651-10.628 44.361-33.733 47.595v51.292c0 85.025-51.755 140.477-124.302 140.477-73.010 0-124.302-55.45-124.302-140.477v-51.755c-23.105-3.235-34.195-18.485-34.195-47.133v-173.747c0-32.809 14.788-48.056 45.284-48.056h226.427zM435.523 506.916v55.45c0 53.602 30.498 89.185 76.708 89.185 45.747 0 76.708-35.119 76.708-89.185v-54.989l-153.415-0.463z" />
<glyph unicode="&#xe963;" glyph-name="icon100" d="M512.231-0.001c245.371 0 447.769 202.859 447.769 448.231 0 244.909-202.396 447.769-447.307 447.769-24.491 0-37.429-14.788-37.429-38.815v-166.354c0-19.871 13.863-36.043 34.195-36.043s34.195 16.174 34.195 36.043v124.302c189.92-15.712 336.403-173.285 336.403-366.903 0-204.246-163.582-368.289-367.827-368.289-204.707 0-368.752 164.045-368.289 368.289 0.463 90.108 32.347 172.361 85.95 235.669 14.326 18.946 15.712 40.664 0 57.299-16.174 16.635-42.512 14.788-59.61-6.469-65.618-78.095-106.281-178.367-106.281-286.497 0-245.371 202.859-448.231 448.231-448.231zM582.007 379.841c35.119 36.505 28.189 85.95-13.863 115.060l-228.275 158.499c-23.105 16.174-47.133-7.855-30.961-30.961l158.499-227.813c29.112-42.050 78.556-49.906 114.599-14.788z" />
<glyph unicode="&#xe964;" glyph-name="icon101" d="M589.637 7.908c10.436 1.671 17.531 9.6 19.201 20.453l6.679 47.584c19.201 5.008 37.984 12.522 56.767 20.453l35.061-31.722c7.513-7.513 17.949-8.765 28.384-3.339 8.765 5.427 12.522 15.026 10.436 25.88l-9.6 46.749c15.862 11.27 31.722 24.21 46.332 38.401l43.409-18.366c10.436-4.175 20.035-2.086 27.966 7.513 7.095 7.513 7.931 18.366 2.086 27.547l-25.462 40.488c11.27 16.278 20.87 33.809 29.636 52.175l48.001-2.086c10.852-0.833 20.035 5.427 23.374 15.445 3.339 10.436 0.419 20.453-8.347 27.132l-37.566 29.636c5.008 18.783 9.183 38.818 10.852 59.271l45.080 14.609c10.436 3.756 17.114 11.688 17.114 22.539s-6.679 18.783-17.114 22.539l-45.080 14.609c-1.671 20.453-5.843 40.071-10.852 59.271l37.566 29.636c8.347 6.679 11.688 16.278 8.347 26.714-3.339 10.018-12.522 16.278-23.374 15.445l-48.001-1.671c-8.765 18.366-18.366 35.48-29.636 52.175l25.462 40.488c5.843 8.765 5.008 19.618-2.086 27.132-7.931 9.183-17.531 11.688-27.966 7.513l-43.409-17.949c-14.609 13.774-30.47 27.132-46.332 38.401l9.6 46.332c2.086 11.27-1.671 20.87-10.436 25.88-10.436 5.427-20.453 4.591-28.384-3.339l-35.061-31.305c-18.783 8.347-37.566 15.026-56.767 20.453l-6.679 47.167c-1.671 10.852-8.765 18.366-19.201 20.453-11.27 1.252-20.87-3.339-25.043-12.104l-22.539-42.992c-10.436 0.833-20.035 1.252-30.053 1.252-10.436 0-19.618-0.419-30.47-1.252l-22.122 42.992c-4.591 8.765-14.192 13.357-25.462 12.104-10.436-2.086-17.531-9.6-19.201-20.453l-6.679-47.167c-19.201-5.427-37.984-12.104-56.35-20.453l-35.061 31.305c-8.347 7.931-18.366 8.765-28.384 3.339-9.183-5.008-12.94-14.609-10.852-25.88l10.018-46.332c-16.278-11.27-32.14-24.628-46.332-38.401l-43.828 17.949c-10.436 4.175-20.035 1.671-27.966-7.513-6.679-7.513-7.513-18.366-2.086-26.714l25.462-40.905c-11.27-16.697-20.453-33.809-29.636-52.175l-48.001 1.671c-10.436 0.833-19.618-5.427-23.374-15.445-3.339-10.436-0.419-20.035 8.347-26.714l37.566-29.636c-5.008-19.201-9.183-38.818-10.436-59.271l-45.497-14.609c-10.436-3.339-16.697-11.27-16.697-22.539s6.261-19.201 16.697-22.539l45.497-14.609c1.252-20.453 5.427-40.488 10.436-59.271l-37.566-29.636c-8.347-6.679-11.27-16.697-8.347-27.132 3.756-10.018 12.94-16.278 23.374-15.445l48.001 2.086c8.765-18.366 18.366-35.897 29.636-52.175l-25.462-40.488c-5.843-9.183-5.008-20.035 2.086-27.547 7.931-9.6 17.531-11.688 27.966-7.513l43.828 18.366c14.192-14.192 30.053-27.132 46.332-38.401l-10.018-46.749c-2.086-10.852 1.671-20.453 10.852-25.88 10.018-5.427 20.453-4.175 28.384 3.339l34.644 31.722c18.783-7.931 37.566-15.445 56.767-20.453l6.679-47.584c1.671-10.852 8.765-18.783 19.618-20.453s20.453 3.339 25.043 12.522l22.122 42.992c10.436-0.833 20.035-1.671 30.47-1.671 10.018 0 19.618 0.833 30.053 1.671l22.539-42.992c4.175-9.183 13.774-14.192 25.043-12.522zM829.225 475.395h-216.632c-18.783 50.088-56.35 77.637-101.847 77.637-7.095 0-14.609-0.833-27.132-3.756l-111.029 189.917c41.74 20.453 88.906 31.722 139.412 31.722 170.299 0 303.867-128.977 317.226-295.52zM321.666 187.806c-78.47 58.436-128.142 152.77-128.142 260.041 0 108.525 50.923 204.11 130.646 262.546l111.864-191.17c-20.87-22.539-30.888-46.749-30.888-72.627 0-25.043 9.183-48.001 30.888-71.375l-114.368-187.413zM511.164 399.011c-25.043 0-48.001 21.706-48.001 48.001 0 26.714 22.958 47.584 48.001 47.584 26.714 0 48.836-20.87 48.836-47.584 0-26.295-22.122-48.001-48.836-48.001zM512 125.196c-51.757 0-99.759 11.688-142.333 32.975l113.95 186.161c12.104-2.923 20.035-3.756 27.132-3.756 45.913 0 83.479 28.384 101.847 79.308h216.632c-13.357-165.709-146.926-294.685-317.226-294.685z" />
</font>
</defs>
</svg>
