<svg xmlns="http://www.w3.org/2000/svg" xmlns:xlink="http://www.w3.org/1999/xlink" width="176" height="176" viewBox="0 0 176 176">
  <defs>
    <path id="app9-b" d="M88.1685937,144.933594 C95.9810937,144.933594 103.324844,143.439453 110.199844,140.451172 C117.074844,137.462891 123.129531,133.351562 128.363906,128.117188 C133.598281,122.882812 137.699844,116.837891 140.668594,109.982422 C143.637344,103.126953 145.121719,95.7929688 145.121719,87.9804688 C145.121719,80.1679688 143.637344,72.8339844 140.668594,65.9785156 C137.699844,59.1230469 133.588516,53.0683594 128.334609,47.8144531 C123.080703,42.5605469 117.01625,38.4492188 110.14125,35.4804688 C103.26625,32.5117188 95.9225,31.0273438 88.11,31.0273438 C80.375625,31.0273438 73.0709375,32.5117188 66.1959375,35.4804688 C59.3209375,38.4492188 53.2564844,42.5605469 48.0025781,47.8144531 C42.7486719,53.0683594 38.6373437,59.1230469 35.6685937,65.9785156 C32.6998437,72.8339844 31.2154687,80.1679688 31.2154687,87.9804688 C31.2154687,95.7929688 32.7096094,103.126953 35.6978906,109.982422 C38.6861719,116.837891 42.7975,122.882812 48.031875,128.117188 C53.26625,133.351562 59.3209375,137.462891 66.1959375,140.451172 C73.0709375,143.439453 80.3951562,144.933594 88.1685937,144.933594 Z M88.1685937,134.445312 C81.7623437,134.445312 75.7467187,133.244141 70.1217187,130.841797 C64.4967187,128.439453 59.5650781,125.119141 55.3267969,120.880859 C51.0885156,116.642578 47.7779687,111.710938 45.3951562,106.085938 C43.0123437,100.460938 41.8209375,94.4257812 41.8209375,87.9804688 C41.8209375,81.5742188 43.0123437,75.5585938 45.3951562,69.9335938 C47.7779687,64.3085938 51.0885156,59.3671875 55.3267969,55.109375 C59.5650781,50.8515625 64.4869531,47.5214844 70.0924219,45.1191406 C75.6978906,42.7167969 81.70375,41.515625 88.11,41.515625 C94.594375,41.515625 100.639297,42.7167969 106.244766,45.1191406 C111.850234,47.5214844 116.781875,50.8515625 121.039687,55.109375 C125.2975,59.3671875 128.627578,64.3085938 131.029922,69.9335938 C133.432266,75.5585938 134.633437,81.5742188 134.633437,87.9804688 C134.6725,94.4257812 133.481094,100.460938 131.059219,106.085938 C128.637344,111.710938 125.317031,116.642578 121.098281,120.880859 C116.879531,125.119141 111.957656,128.439453 106.332656,130.841797 C100.707656,133.244141 94.6529687,134.445312 88.1685937,134.445312 Z M118.930312,77.4921875 L118.930312,75.3242188 C118.930312,72.5117188 118.197891,70.4023438 116.733047,68.9960938 C115.268203,67.5898438 113.149062,66.8867188 110.375625,66.8867188 L84.7115625,66.8867188 C83.735,66.8867188 82.9439844,66.7597656 82.3385156,66.5058594 C81.7330469,66.2519531 81.07875,65.8515625 80.375625,65.3046875 L78.735,64.015625 C77.7975,63.2734375 76.9283594,62.7558594 76.1275781,62.4628906 C75.3267969,62.1699219 74.2623437,62.0234375 72.9342187,62.0234375 L65.0240625,62.0234375 C62.64125,62.0234375 60.7857812,62.7265625 59.4576562,64.1328125 C58.1295312,65.5390625 57.4654687,67.5703125 57.4654687,70.2265625 L57.4654687,77.4921875 L118.930312,77.4921875 Z M111.07875,113 C113.539687,113 115.463516,112.296875 116.850234,110.890625 C118.236953,109.484375 118.930312,107.414062 118.930312,104.679688 L118.930312,82.0625 L57.4654687,82.0625 L57.4654687,104.679688 C57.4654687,107.414062 58.188125,109.484375 59.6334375,110.890625 C61.07875,112.296875 63.188125,113 65.9615625,113 L111.07875,113 Z"/>
    <filter id="app9-a" width="112.3%" height="112.3%" x="-6.1%" y="-4.4%" filterUnits="objectBoundingBox">
      <feOffset dy="2" in="SourceAlpha" result="shadowOffsetOuter1"/>
      <feGaussianBlur in="shadowOffsetOuter1" result="shadowBlurOuter1" stdDeviation="2"/>
      <feColorMatrix in="shadowBlurOuter1" values="0 0 0 0 0   0 0 0 0 0   0 0 0 0 0  0 0 0 0.163161058 0"/>
    </filter>
  </defs>
  <g fill="none" fill-rule="evenodd">
    <rect width="176" height="176" fill="#AAD400"/>
    <g fill-rule="nonzero">
      <use fill="#000" filter="url(#app9-a)" xlink:href="#app9-b"/>
      <use fill="#FFF" xlink:href="#app9-b"/>
    </g>
  </g>
</svg>
