<svg xmlns="http://www.w3.org/2000/svg" xmlns:xlink="http://www.w3.org/1999/xlink" width="176" height="176" viewBox="0 0 176 176">
  <defs>
    <linearGradient id="app1-a" x1="50%" x2="50%" y1="0%" y2="100%">
      <stop offset="0%" stop-color="#57F1AF"/>
      <stop offset="100%" stop-color="#2CDE78"/>
    </linearGradient>
    <path id="app1-c" d="M88.3984375,140.882812 C91.6015625,140.882812 93.828125,140.335938 95.078125,139.242188 C96.328125,138.148438 96.9335938,136.039062 96.8945312,132.914062 L96.8942031,103.826344 L121.855469,118.265625 C122.910156,118.851562 123.837891,119.300781 124.638672,119.613281 C125.439453,119.925781 126.210938,120.082031 126.953125,120.082031 C128.046875,120.082031 129.052734,119.691406 129.970703,118.910156 C130.888672,118.128906 131.894531,116.898438 132.988281,115.21875 L133.632812,114.222656 C135,112.152344 135.683594,110.375 135.683594,108.890625 C135.683594,107.71875 135.263672,106.654297 134.423828,105.697266 C133.583984,104.740234 132.34375,103.832031 130.703125,102.972656 L104.791203,87.9963438 L130.644531,73.8515625 C132.285156,72.953125 133.496094,72.0546875 134.277344,71.15625 C135.058594,70.2578125 135.449219,69.2226562 135.449219,68.0507812 C135.449219,66.6445312 134.824219,64.8671875 133.574219,62.71875 L132.929688,61.546875 C131.015625,58.3046875 129.023438,56.6835938 126.953125,56.6835938 C125.585938,56.6835938 123.847656,57.2890625 121.738281,58.5 L96.9012031,72.9583438 L96.953125,43.96875 C96.953125,40.84375 96.328125,38.734375 95.078125,37.640625 C93.828125,36.546875 91.6015625,36 88.3984375,36 L87.1679688,36 C84.0039062,36 81.7871094,36.546875 80.5175781,37.640625 C79.2480469,38.734375 78.6132812,40.84375 78.6132812,43.96875 L78.6642031,72.9323437 L53.7695312,58.5 C52.7148438,57.875 51.7382812,57.3964844 50.8398438,57.0644531 C49.9414062,56.7324219 49.0820312,56.5664062 48.2617188,56.5664062 C47.1679688,56.5664062 46.1425781,56.9570312 45.1855469,57.7382812 C44.2285156,58.5195312 43.3398438,59.7890625 42.5195312,61.546875 L41.9335938,62.6015625 C40.8398438,64.90625 40.2929688,66.7421875 40.2929688,68.109375 C40.2929688,69.2421875 40.6738281,70.2578125 41.4355469,71.15625 C42.1972656,72.0546875 43.3789062,72.9921875 44.9804688,73.96875 L70.7652031,88.0013438 L44.8632812,102.972656 C43.2617188,103.832031 42.0507812,104.720703 41.2304688,105.638672 C40.4101562,106.556641 40,107.601562 40,108.773438 C40,110.140625 40.6640625,111.957031 41.9921875,114.222656 L42.578125,115.160156 C44.453125,118.480469 46.4453125,120.140625 48.5546875,120.140625 C49.84375,120.140625 51.5625,119.515625 53.7109375,118.265625 L78.6642031,103.830344 L78.6132812,132.914062 C78.6132812,136.039062 79.2480469,138.148438 80.5175781,139.242188 C81.7871094,140.335938 84.0039062,140.882812 87.1679688,140.882812 L88.3984375,140.882812 Z"/>
    <filter id="app1-b" width="114.6%" height="113.3%" x="-7.3%" y="-4.8%" filterUnits="objectBoundingBox">
      <feOffset dy="2" in="SourceAlpha" result="shadowOffsetOuter1"/>
      <feGaussianBlur in="shadowOffsetOuter1" result="shadowBlurOuter1" stdDeviation="2"/>
      <feColorMatrix in="shadowBlurOuter1" values="0 0 0 0 0   0 0 0 0 0   0 0 0 0 0  0 0 0 0.16 0"/>
    </filter>
  </defs>
  <g fill="none" fill-rule="evenodd">
    <rect width="176" height="176" fill="url(#app1-a)"/>
    <g fill-rule="nonzero">
      <use fill="#000" filter="url(#app1-b)" xlink:href="#app1-c"/>
      <use fill="#FFF" xlink:href="#app1-c"/>
    </g>
  </g>
</svg>
