<svg xmlns="http://www.w3.org/2000/svg" xmlns:xlink="http://www.w3.org/1999/xlink" width="176" height="176" viewBox="0 0 176 176">
  <defs>
    <path id="app11-b" d="M130.170898,142.570312 C135.613607,142.570312 139.70459,141.218587 142.443848,138.515137 C145.183105,135.811686 146.552734,131.774414 146.552734,126.40332 L146.552734,49.2207031 C146.552734,43.8854167 145.183105,39.8481445 142.443848,37.1088867 C139.70459,34.3696289 135.613607,33 130.170898,33 L69.2089844,33 C63.766276,33 59.675293,34.3696289 56.9360352,37.1088867 C54.1967773,39.8481445 52.8271484,43.8854167 52.8271484,49.2207031 L52.8271484,132.257812 C52.8271484,134.907552 52.4511719,137.020182 51.6992188,138.595703 C50.9472656,140.171224 49.6044922,141.496094 47.6708984,142.570312 L130.170898,142.570312 Z M125.605469,64.0449219 L73.8818359,64.0449219 C72.9150391,64.0449219 72.109375,63.7316081 71.4648438,63.1049805 C70.8203125,62.4783529 70.4980469,61.6995443 70.4980469,60.7685547 C70.4980469,59.8733724 70.8203125,59.1124674 71.4648438,58.4858398 C72.109375,57.8592122 72.9150391,57.5458984 73.8818359,57.5458984 L125.605469,57.5458984 C126.536458,57.5458984 127.315267,57.8592122 127.941895,58.4858398 C128.568522,59.1124674 128.881836,59.8733724 128.881836,60.7685547 C128.881836,61.6995443 128.568522,62.4783529 127.941895,63.1049805 C127.315267,63.7316081 126.536458,64.0449219 125.605469,64.0449219 Z M36.4990234,134.459961 C37.6448568,134.459961 38.7011719,134.20931 39.6679688,133.708008 C40.6347656,133.206706 41.4046224,132.481608 41.9775391,131.532715 C42.5504557,130.583822 42.8369141,129.464844 42.8369141,128.175781 L42.8369141,72.53125 L40.6884766,72.53125 C38.5758464,72.53125 36.7138672,72.9430339 35.1025391,73.7666016 C33.4912109,74.5901693 32.2379557,75.7807617 31.3427734,77.3383789 C30.4475911,78.8959961 30,80.7848307 30,83.0048828 L30,128.175781 C30,129.464844 30.2954102,130.592773 30.8862305,131.55957 C31.4770508,132.526367 32.2558594,133.251465 33.2226563,133.734863 C34.1894531,134.218262 35.2815755,134.459961 36.4990234,134.459961 Z M125.605469,81.8232422 L73.8818359,81.8232422 C72.9150391,81.8232422 72.109375,81.5009766 71.4648438,80.8564453 C70.8203125,80.2119141 70.4980469,79.4420573 70.4980469,78.546875 C70.4980469,77.6158854 70.8203125,76.828125 71.4648438,76.1835938 C72.109375,75.5390625 72.9150391,75.2167969 73.8818359,75.2167969 L125.605469,75.2167969 C126.536458,75.2167969 127.315267,75.5390625 127.941895,76.1835938 C128.568522,76.828125 128.881836,77.6158854 128.881836,78.546875 C128.881836,79.4420573 128.568522,80.2119141 127.941895,80.8564453 C127.315267,81.5009766 126.536458,81.8232422 125.605469,81.8232422 Z M88.9208984,117.755859 L76.4599609,117.755859 C74.5979818,117.755859 73.1298828,117.21875 72.0556641,116.144531 C70.9814453,115.070312 70.4443359,113.58431 70.4443359,111.686523 L70.4443359,99.0644531 C70.4443359,97.1308594 70.9814453,95.6359049 72.0556641,94.5795898 C73.1298828,93.5232747 74.5979818,92.9951172 76.4599609,92.9951172 L88.9208984,92.9951172 C90.7828776,92.9951172 92.2509766,93.5232747 93.3251953,94.5795898 C94.3994141,95.6359049 94.9365234,97.1308594 94.9365234,99.0644531 L94.9365234,111.686523 C94.9365234,113.58431 94.3994141,115.070312 93.3251953,116.144531 C92.2509766,117.21875 90.7828776,117.755859 88.9208984,117.755859 Z M125.551758,99.5478516 L105.03418,99.5478516 C104.067383,99.5478516 103.261719,99.2345378 102.617188,98.6079102 C101.972656,97.9812826 101.650391,97.202474 101.650391,96.2714844 C101.650391,95.3763021 101.972656,94.6064453 102.617188,93.9619141 C103.261719,93.3173828 104.067383,92.9951172 105.03418,92.9951172 L125.551758,92.9951172 C126.482747,92.9951172 127.270508,93.3173828 127.915039,93.9619141 C128.55957,94.6064453 128.881836,95.3763021 128.881836,96.2714844 C128.881836,97.202474 128.55957,97.9812826 127.915039,98.6079102 C127.270508,99.2345378 126.482747,99.5478516 125.551758,99.5478516 Z M125.551758,117.487305 L105.03418,117.487305 C104.067383,117.487305 103.261719,117.173991 102.617188,116.547363 C101.972656,115.920736 101.650391,115.159831 101.650391,114.264648 C101.650391,113.333659 101.972656,112.545898 102.617188,111.901367 C103.261719,111.256836 104.067383,110.93457 105.03418,110.93457 L125.551758,110.93457 C126.482747,110.93457 127.270508,111.256836 127.915039,111.901367 C128.55957,112.545898 128.881836,113.333659 128.881836,114.264648 C128.881836,115.159831 128.55957,115.920736 127.915039,116.547363 C127.270508,117.173991 126.482747,117.487305 125.551758,117.487305 Z"/>
    <filter id="app11-a" width="112%" height="112.8%" x="-6%" y="-4.6%" filterUnits="objectBoundingBox">
      <feOffset dy="2" in="SourceAlpha" result="shadowOffsetOuter1"/>
      <feGaussianBlur in="shadowOffsetOuter1" result="shadowBlurOuter1" stdDeviation="2"/>
      <feColorMatrix in="shadowBlurOuter1" values="0 0 0 0 0   0 0 0 0 0   0 0 0 0 0  0 0 0 0.158817745 0"/>
    </filter>
  </defs>
  <g fill="none" fill-rule="evenodd">
    <rect width="176" height="176" fill="#FFF"/>
    <g fill-rule="nonzero">
      <use fill="#000" filter="url(#app11-a)" xlink:href="#app11-b"/>
      <use fill="#D7009E" xlink:href="#app11-b"/>
    </g>
  </g>
</svg>
