<svg xmlns="http://www.w3.org/2000/svg" width="176" height="176" viewBox="0 0 176 176">
  <defs>
    <linearGradient id="app12-a" x1="50%" x2="50%" y1="6.119%" y2="100%">
      <stop offset="0%"/>
      <stop offset="100%" stop-color="#404040"/>
    </linearGradient>
  </defs>
  <g fill="none" fill-rule="evenodd">
    <rect width="176" height="176" fill="url(#app12-a)"/>
    <g fill-rule="nonzero" transform="translate(31 28)">
      <path fill="#25DCFE" d="M56.484375,56.8359375 L108.925781,27.2460938 C108.105469,26.4648438 107.050781,25.703125 105.761719,24.9609375 L66.796875,2.9296875 C63.3203125,0.9765625 59.9023437,0 56.5429687,0 C53.1445312,0 49.7070312,0.9765625 46.2304687,2.9296875 L7.265625,24.9609375 C5.9765625,25.703125 4.921875,26.4648438 4.1015625,27.2460938 L56.484375,56.8359375 Z"/>
      <path fill="#FFBE00" d="M52.5585938,120.878906 L52.5585938,63.75 L0.41015625,34.1601562 C0.13671875,35.2148438 0,36.5234375 0,38.0859375 L0,81.9140625 C0,85.8984375 0.68359375,88.8574219 2.05078125,90.7910156 C3.41796875,92.7246094 5.4296875,94.4335938 8.0859375,95.9179688 L51.2109375,120.292969 C51.40625,120.410156 51.6308594,120.527344 51.8847656,120.644531 C52.1386719,120.761719 52.3632812,120.839844 52.5585938,120.878906 Z"/>
      <path fill="#F51E8E" d="M60.46875,120.878906 C60.703125,120.839844 60.9375,120.761719 61.171875,120.644531 C61.40625,120.527344 61.6210937,120.410156 61.8164062,120.292969 L104.941406,95.9179688 C107.597656,94.4335938 109.609375,92.7246094 110.976562,90.7910156 C112.34375,88.8574219 113.027344,85.8984375 113.027344,81.9140625 L113.027344,38.0859375 C113.027344,36.5234375 112.890625,35.2148438 112.617187,34.1601562 L60.46875,63.75 L60.46875,120.878906 Z"/>
    </g>
  </g>
</svg>
