<svg xmlns="http://www.w3.org/2000/svg" width="176" height="176" viewBox="0 0 176 176">
  <g fill="none" fill-rule="evenodd">
    <rect width="176" height="176" fill="#1F2964"/>
    <path fill="#53B135" fill-rule="nonzero" d="M127.555312,35.375 C127.36,32.953125 126.559219,31.1074219 125.152969,29.8378906 C123.746719,28.5683594 121.735,27.9335938 119.117812,27.9335938 L64.3326562,27.9335938 C61.6764062,27.9335938 59.6549219,28.5683594 58.2682031,29.8378906 C56.8814844,31.1074219 56.0709375,32.953125 55.8365625,35.375 L127.555312,35.375 Z"/>
    <path fill="#E55656" fill-rule="nonzero" d="M138.45375,51.1367188 C138.024062,48.5195312 137.115859,46.5078125 135.729141,45.1015625 C134.342422,43.6953125 132.20375,42.9921875 129.313125,42.9921875 L53.14125,42.9921875 C50.250625,42.9921875 48.1119531,43.6953125 46.7252344,45.1015625 C45.3385156,46.5078125 44.4303125,48.5195312 44.000625,51.1367188 L138.45375,51.1367188 Z"/>
    <path fill="#9171CB" fill-rule="nonzero" d="M133.121719,60.1601562 C138.981094,60.1601562 143.404922,61.6445312 146.393203,64.6132812 C149.381484,67.5820312 150.875625,71.9960938 150.875625,77.8554688 L150.875625,77.8554688 L150.875625,136.859375 C150.875625,142.679688 149.381484,147.074219 146.393203,150.042969 C143.404922,153.011719 138.981094,154.496094 133.121719,154.496094 L133.121719,154.496094 L49.2740625,154.496094 C43.3365625,154.496094 38.8736719,153.011719 35.8853906,150.042969 C32.8971094,147.074219 31.4029688,142.679688 31.4029688,136.859375 L31.4029688,136.859375 L31.4029688,77.8554688 C31.4029688,71.9960938 32.8971094,67.5820312 35.8853906,64.6132812 C38.8736719,61.6445312 43.3365625,60.1601562 49.2740625,60.1601562 L49.2740625,60.1601562 Z M91.1685938,124.261719 C87.2623438,124.261719 83.5514063,124.759766 80.0357813,125.755859 C76.5201563,126.751953 73.3170313,128.158203 70.4264063,129.974609 C67.5357813,131.791016 65.0357813,133.939453 62.9264063,136.419922 C60.8170313,138.900391 59.2154688,141.625 58.1217188,144.59375 L58.1217188,144.59375 L124.156875,144.59375 C123.063125,141.625 121.471328,138.900391 119.381484,136.419922 C117.291641,133.939453 114.801406,131.791016 111.910781,129.974609 C109.020156,128.158203 105.817031,126.751953 102.301406,125.755859 C98.7857813,124.759766 95.0748438,124.261719 91.1685938,124.261719 Z M91.1685938,78.734375 C87.9654688,78.734375 85.0650781,79.5742188 82.4674219,81.2539062 C79.8697656,82.9335938 77.7994531,85.1699219 76.2564844,87.9628906 C74.7135156,90.7558594 73.9615625,93.8515625 74.000625,97.25 C74.000625,100.765625 74.7721094,103.939453 76.3150781,106.771484 C77.8580469,109.603516 79.9185938,111.839844 82.4967188,113.480469 C85.0748438,115.121094 87.9654688,115.960938 91.1685938,116 C94.3717188,116.039062 97.2721094,115.228516 99.8697656,113.568359 C102.467422,111.908203 104.537734,109.652344 106.080703,106.800781 C107.623672,103.949219 108.395156,100.765625 108.395156,97.25 C108.395156,93.8515625 107.623672,90.7558594 106.080703,87.9628906 C104.537734,85.1699219 102.467422,82.9335938 99.8697656,81.2539062 C97.2721094,79.5742188 94.3717188,78.734375 91.1685938,78.734375 Z"/>
  </g>
</svg>
