<svg xmlns="http://www.w3.org/2000/svg" xmlns:xlink="http://www.w3.org/1999/xlink" width="176" height="176" viewBox="0 0 176 176">
  <defs>
    <linearGradient id="app23-a" x1="50%" x2="50%" y1="0%" y2="100%">
      <stop offset="0%" stop-color="#13D1FF"/>
      <stop offset="100%" stop-color="#08A5FF"/>
    </linearGradient>
    <path id="app23-c" d="M122.019531,139.832031 C127.957031,139.832031 132.419922,138.347656 135.408203,135.378906 C138.396484,132.410156 139.890625,128.015625 139.890625,122.195312 L139.890625,54.6367188 C139.890625,48.8164062 138.396484,44.421875 135.408203,41.453125 C132.419922,38.484375 127.957031,37 122.019531,37 L54.8710937,37 C48.9726562,37 44.5195312,38.4746094 41.5117187,41.4238281 C38.5039062,44.3730469 37,48.7773438 37,54.6367188 L37,122.195312 C37,128.054688 38.5039062,132.458984 41.5117187,135.408203 C44.5195312,138.357422 48.9726562,139.832031 54.8710937,139.832031 L122.019531,139.832031 Z M72.3320312,82.703125 C72.1757812,82.703125 71.9707031,82.6445312 71.7167969,82.5273438 C71.4628906,82.4101562 71.1992188,82.2734375 70.9257812,82.1171875 C69.6757812,81.21875 68.2988281,80.1738281 66.7949219,78.9824219 C65.2910156,77.7910156 63.8652344,76.453125 62.5175781,74.96875 C61.1699219,73.484375 60.046875,71.9023438 59.1484375,70.2226562 C58.25,68.5429688 57.8007812,66.765625 57.8007812,64.890625 C57.8007812,62.46875 58.5527344,60.4667969 60.0566406,58.8847656 C61.5605469,57.3027344 63.4453125,56.5117188 65.7109375,56.5117188 C67.1953125,56.5117188 68.5039062,56.9121094 69.6367188,57.7128906 C70.7695312,58.5136719 71.6679688,59.5 72.3320312,60.671875 C72.9960938,59.5 73.8945312,58.5136719 75.0273438,57.7128906 C76.1601562,56.9121094 77.4296875,56.5117188 78.8359375,56.5117188 C81.140625,56.5117188 83.0546875,57.3027344 84.578125,58.8847656 C86.1015625,60.4667969 86.8632812,62.46875 86.8632812,64.890625 C86.8632812,66.765625 86.4238281,68.5625 85.5449219,70.28125 C84.6660156,72 83.5625,73.6113281 82.234375,75.1152344 C80.90625,76.6191406 79.4902344,77.9667969 77.9863281,79.1582031 C76.4824219,80.3496094 75.0859375,81.3359375 73.796875,82.1171875 C73.5234375,82.2734375 73.2695312,82.4101562 73.0351562,82.5273438 C72.8007812,82.6445312 72.5664062,82.703125 72.3320312,82.703125 Z M115.515625,98.9335938 L61.4335937,98.9335938 C60.3789062,98.9335938 59.5097656,98.5917969 58.8261719,97.9082031 C58.1425781,97.2246094 57.8007812,96.375 57.8007812,95.359375 C57.8007812,94.421875 58.1425781,93.6210938 58.8261719,92.9570312 C59.5097656,92.2929688 60.3789062,91.9609375 61.4335937,91.9609375 L115.515625,91.9609375 C116.53125,91.9609375 117.380859,92.2929688 118.064453,92.9570312 C118.748047,93.6210938 119.089844,94.421875 119.089844,95.359375 C119.089844,96.375 118.748047,97.2246094 118.064453,97.9082031 C117.380859,98.5917969 116.53125,98.9335938 115.515625,98.9335938 Z M101.277344,117.625 L61.4335937,117.625 C60.3789062,117.625 59.5097656,117.292969 58.8261719,116.628906 C58.1425781,115.964844 57.8007812,115.144531 57.8007812,114.167969 C57.8007812,113.152344 58.1425781,112.302734 58.8261719,111.619141 C59.5097656,110.935547 60.3789062,110.59375 61.4335937,110.59375 L101.277344,110.59375 C102.292969,110.59375 103.142578,110.935547 103.826172,111.619141 C104.509766,112.302734 104.851562,113.152344 104.851562,114.167969 C104.851562,115.144531 104.509766,115.964844 103.826172,116.628906 C103.142578,117.292969 102.292969,117.625 101.277344,117.625 Z"/>
    <filter id="app23-b" width="113.6%" height="113.6%" x="-6.8%" y="-4.9%" filterUnits="objectBoundingBox">
      <feOffset dy="2" in="SourceAlpha" result="shadowOffsetOuter1"/>
      <feGaussianBlur in="shadowOffsetOuter1" result="shadowBlurOuter1" stdDeviation="2"/>
      <feColorMatrix in="shadowBlurOuter1" values="0 0 0 0 0   0 0 0 0 0   0 0 0 0 0  0 0 0 0.158080201 0"/>
    </filter>
  </defs>
  <g fill="none" fill-rule="evenodd">
    <rect width="176" height="176" fill="url(#app23-a)"/>
    <g fill-rule="nonzero">
      <use fill="#000" filter="url(#app23-b)" xlink:href="#app23-c"/>
      <use fill="#FFF" xlink:href="#app23-c"/>
    </g>
  </g>
</svg>
