<svg xmlns="http://www.w3.org/2000/svg" xmlns:xlink="http://www.w3.org/1999/xlink" width="176" height="176" viewBox="0 0 176 176">
  <defs>
    <linearGradient id="app10-a" x1="50%" x2="50%" y1="6.119%" y2="100%">
      <stop offset="0%" stop-color="#F00"/>
      <stop offset="100%" stop-color="#CE0000"/>
    </linearGradient>
    <linearGradient id="app10-d" x1="50%" x2="50%" y1="0%" y2="100%">
      <stop offset="0%" stop-color="#FFF"/>
      <stop offset="100%" stop-color="#FFFFB8"/>
    </linearGradient>
    <path id="app10-c" d="M87.6685938,158.878906 C91.9264063,158.878906 95.7838281,157.228516 99.2408594,153.927734 C102.697891,150.626953 105.676406,145.871094 108.176406,139.660156 C109.337121,136.776507 110.373635,133.623406 111.285948,130.200853 L111.377,129.853 L111.560195,129.904297 C115.271133,130.939453 118.781875,131.691406 122.092422,132.160156 C128.713516,133.097656 134.318984,132.892578 138.908828,131.544922 C143.498672,130.197266 146.848281,127.6875 148.957656,124.015625 C151.106094,120.34375 151.613906,116.173828 150.481094,111.505859 C149.348281,106.837891 146.721328,101.876953 142.600234,96.6230469 C140.686869,94.1837333 138.476687,91.7149484 135.969686,89.2166922 L135.392,88.647 L135.451797,88.5883789 C138.195938,85.8979492 140.598281,83.234375 142.658828,80.5976562 C146.779922,75.3242188 149.397109,70.3632812 150.510391,65.7148438 C151.623672,61.0664062 151.106094,56.8867188 148.957656,53.1757812 C146.848281,49.5039062 143.498672,46.9941406 138.908828,45.6464844 C134.318984,44.2988281 128.723281,44.0839844 122.121719,45.0019531 C119.056708,45.4281529 115.819079,46.0985431 112.408833,47.0131238 L111.645,47.222 L111.494277,46.6279297 C110.532363,42.9072266 109.426406,39.5039062 108.176406,36.4179688 C105.676406,30.2460938 102.697891,25.5195312 99.2408594,22.2382812 C95.7838281,18.9570312 91.9264063,17.3164062 87.6685938,17.3164062 C83.4498438,17.3164062 79.6021875,18.9570312 76.125625,22.2382812 C72.6490625,25.5195312 69.6607813,30.2460938 67.1607813,36.4179688 C65.9107813,39.5039062 64.8048242,42.9072266 63.8429102,46.6279297 L63.691,47.222 L62.9283544,47.0131238 C59.5181085,46.0985431 56.2804799,45.4281529 53.2154688,45.0019531 C46.6139063,44.0839844 41.0182031,44.2988281 36.4283594,45.6464844 C31.8385156,46.9941406 28.469375,49.5039062 26.3209375,53.1757812 C24.2115625,56.8867188 23.7232813,61.0664062 24.8560938,65.7148438 C25.9889063,70.3632812 28.5963281,75.3242188 32.6783594,80.5976562 C34.719375,83.234375 37.1070703,85.8979492 39.8414453,88.5883789 L39.9,88.647 L39.3236305,89.2166922 C36.8172779,91.7149484 34.6119531,94.1837333 32.7076563,96.6230469 C28.6060938,101.876953 25.9889063,106.837891 24.8560938,111.505859 C23.7232813,116.173828 24.2115625,120.34375 26.3209375,124.015625 C28.469375,127.6875 31.8385156,130.197266 36.4283594,131.544922 C41.0182031,132.892578 46.6236719,133.097656 53.2447656,132.160156 C56.5553125,131.691406 60.0660547,130.939453 63.7769922,129.904297 L63.959,129.853 L64.0512393,130.200853 C64.963553,133.623406 66.000067,136.776507 67.1607813,139.660156 C69.6607813,145.871094 72.6490625,150.626953 76.125625,153.927734 C79.6021875,157.228516 83.4498438,158.878906 87.6685938,158.878906 Z M87.668,56.537 L87.1426368,56.2800365 C83.11527,54.3322277 79.2085577,52.6236478 75.4225,51.1542969 C74.5435938,50.8131975 73.6738801,50.4851024 72.8133592,50.1700116 L72.08,49.905 L72.1096021,49.7697935 C73.579811,42.9318365 75.4555946,37.4753689 77.7369531,33.4003906 C80.5689844,28.3417969 83.8795313,25.8125 87.6685938,25.8125 C91.4576563,25.8125 94.7682031,28.3417969 97.6002344,33.4003906 C99.8815929,37.4753689 101.757377,42.9318365 103.227585,49.7697935 L103.256,49.905 L102.523828,50.1700116 C101.663307,50.4851024 100.793594,50.8131975 99.9146875,51.1542969 C96.1286298,52.6236478 92.2219175,54.3322277 88.1945507,56.2800365 L87.668,56.537 Z M128.862,82.723 L128.268495,82.2231097 C127.563501,81.6340332 126.842701,81.0433873 126.106094,80.4511719 C122.933017,77.9000901 119.493668,75.3635702 115.788046,72.841612 L115.467,72.625 L115.464,72.5849609 C115.12709,67.7119141 114.621719,63.0976563 113.947891,58.7421875 C113.803499,57.8088728 113.652493,56.8901317 113.494873,55.9859644 L113.464,55.815 L113.705558,55.7372685 C120.0672,53.7388117 125.519071,52.7092014 130.061172,52.6484375 C135.901016,52.5703125 139.758437,54.171875 141.633437,57.453125 C143.508438,60.734375 142.961563,64.875 139.992812,69.875 C137.683785,73.7638889 134.069177,77.959973 129.14899,82.4632523 L128.862,82.723 Z M46.456,82.708 L46.1867506,82.4632523 C41.2631877,77.959973 37.6392969,73.7638889 35.3150781,69.875 C32.3267969,64.875 31.7896875,60.734375 33.70375,57.453125 C35.57875,54.171875 39.4361719,52.5703125 45.2760156,52.6484375 C49.8181163,52.7092014 55.2758951,53.7388117 61.6493519,55.7372685 L61.873,55.809 L61.8423148,55.9859644 C61.6846946,56.8901317 61.5336886,57.8088728 61.3892969,58.7421875 C60.7154688,63.0976563 60.2100977,67.7119141 59.8731836,72.5849609 L59.871,72.619 L59.5406467,72.841612 C55.8301715,75.3635702 52.3838882,77.9000901 49.2017969,80.4511719 C48.4630971,81.0433873 47.7404284,81.6340332 47.0337908,82.2231097 L46.456,82.708 Z M69.647,66.4 L69.6697839,66.1565857 C69.8860773,63.8414459 70.1402219,61.6071491 70.4322179,59.4536953 L70.507,58.91 L70.7102808,58.9902954 C72.7065881,59.79245 74.7524294,60.668438 76.8478044,61.6182594 L77.441,61.89 L76.8151417,62.239567 C75.753,62.8361657 74.6833173,63.4477163 73.6060938,64.0742188 C72.524363,64.6962139 71.4591442,65.3191192 70.4104374,65.9429347 L69.647,66.4 Z M105.689,66.4 L104.92636,65.9429347 C103.877913,65.3191192 102.812825,64.6962139 101.731094,64.0742188 C100.65387,63.4477163 99.5841875,62.8361657 98.5220458,62.239567 L97.912,61.9 L97.9556708,61.8791322 C100.288229,60.8116391 102.558231,59.8348255 104.765674,58.9486915 L104.831,58.923 L104.90497,59.4536953 C105.196966,61.6071491 105.45111,63.8414459 105.667404,66.1565857 L105.689,66.4 Z M87.682,110.169 L86.9494886,109.78146 C84.1050284,108.273034 81.1806676,106.650568 78.1764063,104.914062 C75.1721449,103.18821 72.30662,101.47398 69.5798315,99.7713714 L68.973,99.392 L68.9607231,99.089069 C68.8154494,95.542237 68.7428125,91.8393703 68.7428125,87.9804688 C68.7428125,84.8066406 68.792251,81.7384033 68.8911279,78.7757568 L68.925,77.801 L69.669417,77.3326285 C72.4039534,75.6208193 75.278679,73.8966619 78.2935938,72.1601562 C81.2872017,70.4236506 84.2016355,68.8019112 87.036895,67.294938 L87.681,66.954 L88.0607256,67.1539955 C90.9731325,68.7006645 93.9674219,70.3693848 97.0435938,72.1601562 C100.141738,73.9509277 103.093112,75.7285671 105.897716,77.4930744 L106.411,77.819 L106.44606,78.7757568 C106.544937,81.7384033 106.594375,84.8066406 106.594375,87.9804688 C106.594375,91.8393703 106.521738,95.542237 106.376464,99.089069 L106.362,99.41 L106.042856,99.6117859 C103.247693,101.366852 100.306533,103.134277 97.219375,104.914062 C94.2044602,106.650568 91.2708988,108.273034 88.4186906,109.78146 L87.682,110.169 Z M88.313125,99.6992188 C91.4771875,99.6992188 94.1822656,98.5566406 96.4283594,96.2714844 C98.6744531,93.9863281 99.7975,91.2421875 99.7975,88.0390625 C99.7975,84.8359375 98.6744531,82.1113281 96.4283594,79.8652344 C94.1822656,77.6191406 91.4771875,76.4960938 88.313125,76.4960938 C85.0709375,76.4960938 82.3170313,77.6191406 80.0514063,79.8652344 C77.7857813,82.1113281 76.6529688,84.8359375 76.6529688,88.0390625 C76.6529688,91.2421875 77.7857813,93.9863281 80.0514063,96.2714844 C82.3170313,98.5566406 85.0709375,99.6992188 88.313125,99.6992188 Z M59.418,93.027 C57.5813177,91.7241343 55.8303606,90.4296588 54.1651287,89.1435735 L53.466,88.601 L53.5160509,88.5617521 C55.158308,87.2730304 56.8853709,85.9768387 58.6972396,84.6731771 L59.396,84.174 L59.3947258,84.2898426 C59.3767836,85.5062696 59.3678125,86.7364784 59.3678125,87.9804688 C59.3678125,89.6451322 59.3837611,91.2848327 59.4156583,92.8995701 L59.418,93.027 Z M115.918,93.032 L115.921529,92.8995701 C115.953426,91.2848327 115.969375,89.6451322 115.969375,87.9804688 C115.969375,86.7364784 115.960404,85.5062696 115.942462,84.2898426 L115.94,84.202 L116.333354,84.4810658 C118.2103,85.8262234 119.998458,87.1634369 121.69783,88.4927063 L121.852,88.615 L121.793502,88.6616211 C120.098937,89.986084 118.316053,91.3180237 116.444848,92.6574402 L115.918,93.032 Z M130.061172,124.484375 C125.519071,124.423611 120.061292,123.388093 113.687836,121.377821 L113.277,121.247 L113.335048,120.934072 C113.551087,119.740673 113.755368,118.521763 113.947891,117.277344 C114.518053,113.591947 114.967604,109.717768 115.296544,105.654805 L115.373,104.671 L115.909221,104.308189 C119.601667,101.795939 123.029922,99.2732873 126.193984,96.7402344 C126.928499,96.1522042 127.647319,95.5654073 128.350444,94.9798435 L128.881,94.535 L129.07412,94.7104311 C134.009498,99.2255257 137.639297,103.427517 139.963516,107.316406 C142.951797,112.316406 143.508438,116.457031 141.633437,119.738281 C139.758437,122.980469 135.901016,124.5625 130.061172,124.484375 Z M33.70375,119.738281 C31.7896875,116.457031 32.3365625,112.316406 35.344375,107.316406 C37.6837847,103.427517 41.3169589,99.2255257 46.2438976,94.7104311 L46.418,94.552 L46.9288227,94.9798435 C47.6314993,95.5654073 48.3500949,96.1522042 49.0846094,96.7402344 C52.2486719,99.2732873 55.6769263,101.795939 59.3693727,104.308189 L59.966,104.713 L60.0406438,105.654805 C60.3695836,109.717768 60.8191346,113.591947 61.3892969,117.277344 C61.5818192,118.521763 61.7861001,119.740673 62.0021397,120.934072 L62.059,121.247 L61.6493519,121.377821 C55.2758951,123.388093 49.8181163,124.423611 45.2760156,124.484375 C39.4361719,124.5625 35.57875,122.980469 33.70375,119.738281 Z M104.686,118.132 L103.896103,117.810068 C102.224702,117.125452 100.517789,116.390152 98.7753646,115.604167 L98.007,115.255 L98.6846955,114.880894 C99.7510844,114.288022 100.825144,113.680589 101.906875,113.058594 C102.984099,112.436599 104.04481,111.813953 105.08901,111.190658 L105.566,110.904 L105.539688,111.183594 C105.315966,113.404238 105.056652,115.548425 104.761747,117.616154 L104.686,118.132 Z M70.65,118.132 L70.575441,117.616154 C70.2805353,115.548425 70.0212216,113.404238 69.7975,111.183594 L69.773,110.942 L70.1895841,111.190658 C71.2337836,111.813953 72.2944952,112.436599 73.3717188,113.058594 C74.4579567,113.680589 75.5362638,114.288022 76.6066398,114.880894 L77.309,115.268 L76.5683333,115.604167 C74.8235417,116.390152 73.114907,117.125452 71.4424294,117.810068 L70.65,118.132 Z M87.6685938,150.382812 C83.8795313,150.382812 80.5689844,147.833984 77.7369531,142.736328 C75.6129297,138.913086 73.8404688,133.897827 72.4195703,127.690552 L72.299,127.157 L72.8949719,126.939782 C73.7575855,126.622598 74.6293917,126.292411 75.5103906,125.949219 C79.3054627,124.470853 83.2232697,122.7595 87.2638115,120.815158 L87.661,120.623 L88.0608945,120.815158 C92.1097573,122.7595 96.0317248,124.470853 99.8267969,125.949219 C100.707796,126.292411 101.579602,126.622598 102.442216,126.939782 L103.038,127.157 L102.917617,127.690552 C101.496719,133.897827 99.7242578,138.913086 97.6002344,142.736328 C94.7682031,147.833984 91.4576563,150.382812 87.6685938,150.382812 Z"/>
    <filter id="app10-b" width="111%" height="109.9%" x="-5.5%" y="-3.5%" filterUnits="objectBoundingBox">
      <feOffset dy="2" in="SourceAlpha" result="shadowOffsetOuter1"/>
      <feGaussianBlur in="shadowOffsetOuter1" result="shadowBlurOuter1" stdDeviation="2"/>
      <feColorMatrix in="shadowBlurOuter1" values="0 0 0 0 0   0 0 0 0 0   0 0 0 0 0  0 0 0 0.157643138 0"/>
    </filter>
  </defs>
  <g fill="none" fill-rule="evenodd">
    <rect width="176" height="176" fill="url(#app10-a)"/>
    <g fill-rule="nonzero">
      <use fill="#000" filter="url(#app10-b)" xlink:href="#app10-c"/>
      <use fill="url(#app10-d)" xlink:href="#app10-c"/>
    </g>
  </g>
</svg>
