<svg xmlns="http://www.w3.org/2000/svg" xmlns:xlink="http://www.w3.org/1999/xlink" width="176" height="176" viewBox="0 0 176 176">
  <defs>
    <radialGradient id="app5-a" cy="28.313%" r="100%" fx="50%" fy="28.313%">
      <stop offset="0%" stop-color="#FEB137"/>
      <stop offset="100%" stop-color="#EA8500"/>
    </radialGradient>
    <path id="app5-c" d="M44.8320312,72.6992188 L44.8320312,64.90625 C44.8320312,62.25 45.5449219,60.21875 46.9707031,58.8125 C48.3964844,57.40625 50.4375,56.703125 53.09375,56.703125 L73.6601562,56.703125 C76.3554687,56.703125 78.40625,57.40625 79.8125,58.8125 C81.21875,60.21875 81.921875,62.25 81.921875,64.90625 L81.921875,72.6992188 L94.4023437,72.6992188 L94.4023437,64.90625 C94.4023437,62.25 95.1347656,60.21875 96.5996094,58.8125 C98.0644531,57.40625 100.203125,56.703125 103.015625,56.703125 L122.351562,56.703125 C125.164062,56.703125 127.302734,57.40625 128.767578,58.8125 C130.232422,60.21875 130.964844,62.25 130.964844,64.90625 L130.964844,72.6992188 L145.261719,72.6992188 L145.261719,56.8203125 C145.261719,51.5859375 143.914063,47.640625 141.21875,44.984375 C138.523438,42.328125 134.617188,41 129.5,41 L46.2382812,41 C41.1601562,41 37.2734375,42.328125 34.578125,44.984375 C31.8828125,47.640625 30.5351562,51.5859375 30.5351562,56.8203125 L30.5351562,72.6992188 L44.8320312,72.6992188 Z M25.203125,135.863281 C26.6484375,135.863281 27.8105469,135.433594 28.6894531,134.574219 C29.5683594,133.714844 30.0078125,132.542969 30.0078125,131.058594 L30.0078125,122.972656 C30.3203125,123.050781 30.8769531,123.119141 31.6777344,123.177734 C32.4785156,123.236328 33.2109375,123.265625 33.875,123.265625 L141.921875,123.265625 C142.585938,123.265625 143.308594,123.236328 144.089844,123.177734 C144.871094,123.119141 145.417969,123.050781 145.730469,122.972656 L145.730469,131.058594 C145.730469,132.542969 146.169922,133.714844 147.048828,134.574219 C147.927734,135.433594 149.089844,135.863281 150.535156,135.863281 L153.933594,135.863281 C155.417969,135.863281 156.589844,135.433594 157.449219,134.574219 C158.308594,133.714844 158.738281,132.542969 158.738281,131.058594 L158.738281,97.6601562 C158.738281,92.2695312 157.292969,88.1289062 154.402344,85.2382812 C151.511719,82.3476562 147.351563,80.9023438 141.921875,80.9023438 L33.875,80.9023438 C28.4453125,80.9023438 24.2753906,82.3476562 21.3652344,85.2382812 C18.4550781,88.1289062 17,92.2695312 17,97.6601562 L17,131.058594 C17,132.542969 17.4394531,133.714844 18.3183594,134.574219 C19.1972656,135.433594 20.3789062,135.863281 21.8632812,135.863281 L25.203125,135.863281 Z"/>
    <filter id="app5-b" width="109.9%" height="114.8%" x="-4.9%" y="-5.3%" filterUnits="objectBoundingBox">
      <feOffset dy="2" in="SourceAlpha" result="shadowOffsetOuter1"/>
      <feGaussianBlur in="shadowOffsetOuter1" result="shadowBlurOuter1" stdDeviation="2"/>
      <feColorMatrix in="shadowBlurOuter1" values="0 0 0 0 0   0 0 0 0 0   0 0 0 0 0  0 0 0 0.157288024 0"/>
    </filter>
  </defs>
  <g fill="none" fill-rule="evenodd">
    <rect width="176" height="176" fill="url(#app5-a)"/>
    <g fill-rule="nonzero">
      <use fill="#000" filter="url(#app5-b)" xlink:href="#app5-c"/>
      <use fill="#FFF" xlink:href="#app5-c"/>
    </g>
  </g>
</svg>
