<svg xmlns="http://www.w3.org/2000/svg" width="176" height="176" viewBox="0 0 176 176">
  <defs>
    <linearGradient id="app6-a" x1="50%" x2="50%" y1="6.119%" y2="100%">
      <stop offset="0%" stop-color="#474747"/>
      <stop offset="100%" stop-color="#212121"/>
    </linearGradient>
    <linearGradient id="app6-b" x1="50%" x2="50%" y1="0%" y2="100%">
      <stop offset="0%" stop-color="#3EDEFF"/>
      <stop offset="100%" stop-color="#1DBAFF"/>
    </linearGradient>
  </defs>
  <g fill="none" fill-rule="evenodd">
    <rect width="176" height="176" fill="url(#app6-a)"/>
    <path fill="url(#app6-b)" fill-rule="nonzero" d="M42.2739219,85.8671875 L52.0590781,61.9609375 C52.4887656,60.8671875 53.2211875,60.125 54.2563438,59.734375 C55.2915,59.34375 56.307125,59.3339844 57.3032188,59.7050781 C58.2993125,60.0761719 58.9536094,60.8085938 59.2661094,61.9023438 L71.7465781,99.6367188 L75.4965781,88.9726562 C76.3168906,86.9023438 77.7622031,85.8671875 79.8325156,85.8671875 L92.9575156,85.8671875 L102.742672,61.9609375 C103.172359,60.8671875 103.904781,60.125 104.939938,59.734375 C105.975094,59.34375 106.990719,59.3339844 107.986813,59.7050781 C108.982906,60.0761719 109.637203,60.8085938 109.949703,61.9023438 L122.430172,99.6367188 L126.238766,88.9726562 C127.020016,86.9023438 128.445797,85.8671875 130.516109,85.8671875 L153.074703,85.8676562 L153.074703,54.6367188 C153.074703,48.8164062 151.580563,44.421875 148.592281,41.453125 C145.604,38.484375 141.141109,37 135.203609,37 L39.8715781,37 C33.9731406,37 29.5200156,38.4746094 26.5122031,41.4238281 C23.5043906,44.3730469 22,48.7773438 22,54.6367188 L22,85.8676562 L42.2739219,85.8671875 Z M22,122.195312 C22,128.054688 23.5043906,132.458984 26.5122031,135.408203 C29.5200156,138.357422 33.9731406,139.832031 39.8715781,139.832031 L135.203609,139.832031 C141.141109,139.832031 145.604,138.347656 148.592281,135.378906 C151.580563,132.410156 153.074703,128.015625 153.074703,122.195312 L153.074703,93.484375 L132.684078,93.484375 L126.180172,114.167969 C125.789547,115.300781 125.076656,116.0625 124.0415,116.453125 C123.006344,116.84375 121.961422,116.863281 120.906734,116.511719 C119.852047,116.160156 119.168453,115.4375 118.855953,114.34375 L106.375484,74.3242188 L99.4614219,90.3789062 C99.0317344,91.3945312 98.494625,92.1660156 97.8500938,92.6933594 C97.2055625,93.2207031 96.3168906,93.484375 95.1840781,93.484375 L82.0004844,93.484375 L75.4379844,114.167969 C75.0864219,115.300781 74.3930625,116.0625 73.3579063,116.453125 C72.32275,116.84375 71.2778281,116.863281 70.2231406,116.511719 C69.1684531,116.160156 68.4848594,115.4375 68.1723594,114.34375 L55.6918906,74.3242188 L49.0707969,90.3789062 C48.6411094,91.3945312 48.0551719,92.1660156 47.3129844,92.6933594 C46.5707969,93.2207031 45.3793906,93.484375 43.7387656,93.484375 L22,93.4846563 L22,122.195312 Z"/>
  </g>
</svg>
