<svg xmlns="http://www.w3.org/2000/svg" xmlns:xlink="http://www.w3.org/1999/xlink" width="176" height="176" viewBox="0 0 176 176">
  <defs>
    <linearGradient id="app2-a" x1="50%" x2="50%" y1="0%" y2="100%">
      <stop offset="0%" stop-color="#FC855C"/>
      <stop offset="100%" stop-color="#F84D2F"/>
    </linearGradient>
    <path id="app2-c" d="M88.1978906,139.183594 C88.8619531,139.183594 89.6139063,138.988281 90.45375,138.597656 C91.2935938,138.207031 92.1041406,137.757812 92.8853906,137.25 C103.236953,130.609375 112.221328,123.626953 119.838516,116.302734 C127.455703,108.978516 133.354141,101.458984 137.533828,93.7441406 C141.713516,86.0292969 143.803359,78.2265625 143.803359,70.3359375 C143.803359,65.3359375 142.992813,60.7558594 141.371719,56.5957031 C139.750625,52.4355469 137.514297,48.8320312 134.662734,45.7851562 C131.811172,42.7382812 128.481094,40.3847656 124.6725,38.7246094 C120.863906,37.0644531 116.772109,36.234375 112.397109,36.234375 C106.928359,36.234375 102.143203,37.6210938 98.0416406,40.3945312 C93.9400781,43.1679688 90.6588281,46.859375 88.1978906,51.46875 C85.7369531,46.8984375 82.4459375,43.2167969 78.3248438,40.4238281 C74.20375,37.6308594 69.4283594,36.234375 63.9986719,36.234375 C59.5846094,36.234375 55.4732813,37.0644531 51.6646875,38.7246094 C47.8560938,40.3847656 44.5260156,42.7382812 41.6744531,45.7851562 C38.8228906,48.8320312 36.5963281,52.4355469 34.9947656,56.5957031 C33.3932031,60.7558594 32.5924219,65.3359375 32.5924219,70.3359375 C32.5924219,78.2265625 34.6725,86.0292969 38.8326563,93.7441406 C42.9928125,101.458984 48.89125,108.978516 56.5279688,116.302734 C64.1646875,123.626953 73.1392969,130.609375 83.4517969,137.25 C84.2330469,137.757812 85.0533594,138.207031 85.9127344,138.597656 C86.7721094,138.988281 87.5338281,139.183594 88.1978906,139.183594 Z M80.5221094,118.060547 C79.7799219,118.041016 79.2135156,117.738281 78.8228906,117.152344 C78.4322656,116.566406 78.4127344,115.804688 78.7642969,114.867188 L86.2057031,94.9453125 L72.2603906,94.9453125 C71.7135156,94.9453125 71.235,94.7695312 70.8248438,94.4179688 C70.4146875,94.0664062 70.2096094,93.6367188 70.2096094,93.1289062 C70.2096094,92.5429688 70.4439844,91.9570312 70.9127344,91.3710938 L93.7057031,62.953125 C94.3307031,62.171875 94.9947656,61.8007812 95.6978906,61.8398438 C96.4010156,61.8789062 96.9576563,62.1816406 97.3678125,62.7480469 C97.7779688,63.3144531 97.8072656,64.0664062 97.4557031,65.0039062 L90.0142969,84.8671875 L103.959609,84.8671875 C104.506484,84.8671875 104.985,85.0527344 105.395156,85.4238281 C105.805313,85.7949219 106.010391,86.2539062 106.010391,86.8007812 C106.010391,87.4257812 105.736953,87.9921875 105.190078,88.5 L82.5142969,116.976562 C81.9283594,117.71875 81.2642969,118.080078 80.5221094,118.060547 Z"/>
    <filter id="app2-b" width="112.6%" height="113.6%" x="-6.3%" y="-4.9%" filterUnits="objectBoundingBox">
      <feOffset dy="2" in="SourceAlpha" result="shadowOffsetOuter1"/>
      <feGaussianBlur in="shadowOffsetOuter1" result="shadowBlurOuter1" stdDeviation="2"/>
      <feColorMatrix in="shadowBlurOuter1" values="0 0 0 0 0   0 0 0 0 0   0 0 0 0 0  0 0 0 0.16 0"/>
    </filter>
  </defs>
  <g fill="none" fill-rule="evenodd">
    <rect width="176" height="176" fill="url(#app2-a)"/>
    <g fill-rule="nonzero">
      <use fill="#000" filter="url(#app2-b)" xlink:href="#app2-c"/>
      <use fill="#FFF" xlink:href="#app2-c"/>
    </g>
  </g>
</svg>
