<svg xmlns="http://www.w3.org/2000/svg" width="176" height="176" viewBox="0 0 176 176">
  <g fill="none" fill-rule="evenodd">
    <rect width="176" height="176" fill="#893FFF"/>
    <path fill="#FFF" fill-rule="nonzero" d="M113.161765,86.2543962 C116.589783,86.2543962 119.743228,85.3326495 122.622098,83.4891559 C125.500967,81.6456624 127.805728,79.1461508 129.536378,75.9906213 C131.267028,72.8350918 132.132353,69.2809691 132.132353,65.3282532 C132.132353,61.5084017 131.267028,58.0622313 129.536378,54.9897421 C127.805728,51.9172528 125.492647,49.4841735 122.597136,47.6905041 C119.701625,45.8968347 116.556502,45 113.161765,45 C109.767028,45 106.630224,45.9051387 103.751354,47.7154162 C100.872485,49.5256936 98.559404,51.975381 96.812113,55.0644783 C95.064822,58.1535756 94.1911765,61.60805 94.1911765,65.4279015 C94.1911765,69.3141852 95.064822,72.8350918 96.812113,75.9906213 C98.559404,79.1461508 100.872485,81.6456624 103.751354,83.4891559 C106.630224,85.3326495 109.767028,86.2543962 113.161765,86.2543962 Z M58.6962074,87.3007034 C61.6582817,87.3007034 64.3957043,86.503517 66.9084752,84.9091442 C69.4212461,83.3147714 71.434791,81.1391168 72.9491099,78.3821805 C74.4634288,75.6252442 75.2205882,72.5361469 75.2205882,69.1148886 C75.2205882,65.7600625 74.4634288,62.7457014 72.9491099,60.0718054 C71.434791,57.3979093 69.4212461,55.288687 66.9084752,53.7441383 C64.3957043,52.1995897 61.6582817,51.4273154 58.6962074,51.4273154 C55.7674149,51.4273154 53.0466331,52.2078937 50.5338622,53.7690504 C48.0210913,55.3302071 45.999226,57.4560375 44.4682663,60.1465416 C42.9373065,62.8370457 42.1718266,65.8597108 42.1718266,69.2145369 C42.1718266,72.6025791 42.9289861,75.6667644 44.443305,78.4070926 C45.9576238,81.1474209 47.9711687,83.3147714 50.4839396,84.9091442 C52.9967105,86.503517 55.7341331,87.3007034 58.6962074,87.3007034 Z M68.1815015,130 C66.9167957,128.239547 66.2927632,126.097108 66.309404,123.572685 C66.3260449,121.048261 66.8751935,118.390973 67.9568498,115.600821 C69.0385062,112.810668 70.5528251,110.095252 72.4998065,107.454572 C74.4467879,104.813892 76.7349071,102.480461 79.3641641,100.454279 C76.7016254,98.7270418 73.6729876,97.3070535 70.2782508,96.1943142 C66.8835139,95.0815748 63.0228328,94.5252052 58.6962074,94.5252052 C53.37113,94.5252052 48.5785604,95.3888238 44.3184985,97.116061 C40.0584365,98.8432982 36.4140867,101.118601 33.3854489,103.94197 C30.3568111,106.765338 28.0354102,109.846131 26.4212461,113.184349 C24.807082,116.522567 24,119.802657 24,123.024619 C24,125.250098 24.6489938,126.969031 25.9469814,128.181419 C27.244969,129.393806 29.4582043,130 32.5866873,130 L68.1815015,130 Z M142.715944,130 C146.510062,130 149.172601,129.451934 150.70356,128.355803 C152.23452,127.259672 153,125.648691 153,123.52286 C153,120.466979 152.076432,117.26993 150.229296,113.931712 C148.382159,110.593494 145.727941,107.462876 142.266641,104.539859 C138.805341,101.616843 134.620163,99.2418914 129.711107,97.4150059 C124.802051,95.5881204 119.285604,94.6746776 113.161765,94.6746776 C107.037926,94.6746776 101.521478,95.5881204 96.6124226,97.4150059 C91.7033669,99.2418914 87.5181889,101.616843 84.0568885,104.539859 C80.5955882,107.462876 77.94137,110.593494 76.0942337,113.931712 C74.2470975,117.26993 73.3235294,120.466979 73.3235294,123.52286 C73.3235294,125.648691 74.0890093,127.259672 75.619969,128.355803 C77.1509288,129.451934 79.8134675,130 83.6075851,130 L142.715944,130 Z"/>
  </g>
</svg>
