<svg xmlns="http://www.w3.org/2000/svg" width="176" height="176" viewBox="0 0 176 176">
  <defs>
    <linearGradient id="app4-a" x1="50%" x2="50%" y1="0%" y2="100%">
      <stop offset="0%" stop-color="#FFF"/>
      <stop offset="100%" stop-color="#F1F1F1"/>
    </linearGradient>
    <filter id="app4-b" width="118%" height="121.1%" x="-9%" y="-10.5%" filterUnits="objectBoundingBox">
      <feOffset dy="2" in="SourceAlpha" result="shadowOffsetOuter1"/>
      <feGaussianBlur in="shadowOffsetOuter1" result="shadowBlurOuter1" stdDeviation="2"/>
      <feColorMatrix in="shadowBlurOuter1" result="shadowMatrixOuter1" values="0 0 0 0 0   0 0 0 0 0   0 0 0 0 0  0 0 0 0.156386582 0"/>
      <feMerge>
        <feMergeNode in="shadowMatrixOuter1"/>
        <feMergeNode in="SourceGraphic"/>
      </feMerge>
    </filter>
  </defs>
  <g fill="none" fill-rule="evenodd">
    <rect width="176" height="176" fill="url(#app4-a)"/>
    <g fill-rule="nonzero" filter="url(#app4-b)" transform="translate(26.046 35.716)">
      <path fill="#FF5353" d="M67.03125,58.4869026 L100.488281,25.0298713 L83.6132812,8.03768382 C80.1367188,4.56112132 76.3964844,2.2076057 72.3925781,0.977136949 C68.3886719,-0.253331801 64.4042969,-0.321691176 60.4394531,0.772058824 C56.4746094,1.86580882 52.7929688,4.07284007 49.3945313,7.39315257 C46.0742188,10.7525276 43.8769531,14.4048713 42.8027344,18.3501838 C41.7285156,22.2954963 41.796875,26.2896369 43.0078125,30.3326057 C44.21875,34.3755744 46.5625,38.1353401 50.0390625,41.6119026 L67.03125,58.4869026 Z"/>
      <path fill="#FFB61D" d="M113.818359,89.4829963 C117.783203,88.4283088 121.445312,86.2017463 124.804687,82.8033088 C128.203125,79.5220588 130.429687,75.8892463 131.484375,71.9048713 C132.539062,67.9204963 132.460937,63.9165901 131.25,59.8931526 C130.039062,55.8697151 127.675781,52.1197151 124.160156,48.6431526 L107.226562,31.6509651 L73.6523437,65.2251838 L90.6445312,82.1587776 C94.1210937,85.6744026 97.8613281,88.0376838 101.865234,89.2486213 C105.869141,90.4595588 109.853516,90.5376838 113.818359,89.4829963 Z"/>
      <path fill="#30CB82" d="M58.359375,78.8775276 C57.65625,74.1900276 55.9277344,69.9517463 53.1738281,66.1626838 C50.4199219,62.3736213 46.9726562,59.3853401 42.8320312,57.1978401 C38.6914062,55.0103401 34.1601562,53.9165901 29.2382812,53.9165901 C24.2773438,53.9165901 19.7167969,55.0103401 15.5566406,57.1978401 C11.3964844,59.3853401 7.93945312,62.3736213 5.18554688,66.1626838 C2.43164062,69.9517463 0.703125,74.1900276 0,78.8775276 L58.359375,78.8775276 Z"/>
      <path fill="#2DAED3" d="M29.2382812,113.096278 C34.1601562,113.096278 38.6914062,111.992762 42.8320312,109.785731 C46.9726562,107.578699 50.4199219,104.580653 53.1738281,100.79159 C55.9277344,97.0025276 57.65625,92.7447151 58.359375,88.0181526 L0,88.0181526 C0.703125,92.7447151 2.43164062,97.0025276 5.18554688,100.79159 C7.93945312,104.580653 11.3867188,107.578699 15.5273437,109.785731 C19.6679688,111.992762 24.2382812,113.096278 29.2382812,113.096278 Z"/>
    </g>
  </g>
</svg>
