<?xml version="1.0" encoding="UTF-8"?>
<svg width="36px" height="39px" viewBox="0 0 36 39" version="1.1" xmlns="http://www.w3.org/2000/svg" xmlns:xlink="http://www.w3.org/1999/xlink">
    <title>CloudRainThunder</title>
    <g id="页面-1" stroke="none" stroke-width="1" fill="none" fill-rule="evenodd">
        <g id="Apple-TV" transform="translate(-32.000000, -33.000000)">
            <g id="icon" transform="translate(32.861386, 33.641026)">
                <g id="cloud-w/-light" fill="#FFFFFF">
                    <path d="M21.3172329,0 C27.2844625,0 32.1218579,4.79717021 32.1218579,10.7147795 C32.1218579,10.8102249 32.1205994,10.9053787 32.1180981,11.0002256 L32.1158722,11.0772242 C33.8577291,12.0052825 35.0420268,13.829175 35.0420268,15.927375 C35.0420268,18.4753675 33.2955476,20.6188398 30.9249699,21.2447447 L32.5826342,18.0591082 L33.2049507,16.8634596 L29.9746047,16.8634598 L31.3758385,13.1103263 L31.7950574,12.0025432 L24.3521266,12.0025432 L24.1874901,12.6113138 L21.9029264,21.0588666 L21.802,21.429 L7.59243913,21.4295591 C3.48147016,21.4295591 0.133609196,18.1894741 0.00390106412,14.143934 L2.88086386e-14,13.9002545 C2.88086386e-14,9.74193447 3.39925079,6.37095 7.59243913,6.37095 C8.8582165,6.37095 10.0516483,6.67812274 11.1010707,7.22140049 C12.5603043,3.01924506 16.5832208,0 21.3172329,0 Z" id="Oval-4"></path>
                </g>
                <g id="raindrops-2" transform="translate(4.990099, 22.769231)" fill="#ADE8FF">
                    <path d="M9.33855474,0.2187174 L9.40453811,0.230875334 L9.46919906,0.253084748 C9.76128221,0.377927509 9.92425978,0.698847296 9.83579212,1.02457861 L6.0376703,15.0089805 C5.95092508,15.32837 5.64813273,15.5317246 5.32989131,15.4962952 L5.26153811,15.4828753 L5.19924699,15.4619278 C4.90716385,15.3370851 4.74418628,15.0161653 4.83265393,14.690434 L8.63077575,0.70603209 C8.71752097,0.386642631 9.02031332,0.183287965 9.33855474,0.2187174 Z M5.82107969,0.211588609 L5.88653811,0.222875334 L5.95168059,0.246115837 C6.2437378,0.371054092 6.40673191,0.691912955 6.32176654,1.00474913 L3.59294738,11.0520582 C3.50795304,11.365001 3.2066102,11.5630187 2.88861785,11.5266722 L2.81953811,11.5128753 L2.75801696,11.492145 C2.46595975,11.3672067 2.30296563,11.0463479 2.387931,10.7335117 L5.11675016,0.686202614 C5.2017445,0.373259775 5.50308734,0.175242091 5.82107969,0.211588609 Z M15.6618401,0.165635481 L15.7275381,0.177875334 L15.792441,0.200162709 C16.0844982,0.325100965 16.2474923,0.645959828 16.1625269,0.958796004 L13.4337078,11.0061051 C13.3487134,11.3190479 13.0473706,11.5170656 12.7293782,11.4807191 L12.6605381,11.4668753 L12.5987773,11.4461919 C12.3067201,11.3212536 12.143726,11.0003947 12.2286914,10.6875586 L14.9575106,0.640249487 C15.0425049,0.327306648 15.3438477,0.129288963 15.6618401,0.165635481 Z M12.6034291,0.162648775 L12.6825381,0.176875334 L12.7566401,0.203235874 C13.0420874,0.325654786 13.2010788,0.640643335 13.1192703,0.941856192 L11.349899,7.45654953 C11.2672147,7.76098728 10.9677842,7.95196383 10.6607239,7.91721043 L10.5855381,7.90287533 L10.5075129,7.87662333 C10.2220656,7.75420442 10.0630742,7.43921587 10.1448827,7.13800301 L11.9142539,0.623309675 C11.9969383,0.318871927 12.2963688,0.127895376 12.6034291,0.162648775 Z M2.63471891,0.122719171 L2.71553811,0.137875334 L2.78792998,0.163306271 C3.0733772,0.285725183 3.23236867,0.600713732 3.15056016,0.901926589 L1.38118889,7.41661993 C1.29850451,7.72105768 0.999074018,7.91203423 0.692013766,7.87728083 L0.616538114,7.86287533 L0.538802692,7.83669373 C0.253355472,7.71427482 0.0943640006,7.39928627 0.176172514,7.09807341 L1.94554378,0.583380072 C2.02822817,0.278942324 2.32765865,0.087965773 2.63471891,0.122719171 Z M18.65277,0.0930861626 L18.7502943,0.11034624 C19.0830504,0.198310432 19.2804708,0.535939333 19.1878366,0.877011634 L18.1724219,4.61569314 C18.0904245,4.91760121 17.7960182,5.10821826 17.5024721,5.08107209 L17.4049478,5.06381202 C17.0721917,4.97584782 16.8747713,4.63821892 16.9674055,4.29714662 L17.9828202,0.558465117 C18.0648176,0.256557044 18.3592239,0.0659399998 18.65277,0.0930861626 Z" id="Rectangle-100"></path>
                </g>
                <g id="light" transform="translate(22.663366, 12.923077)" fill="#FFF467">
                    <polygon id="Path-13" points="2.28712873 0 1.41634318e-08 8.4475528 3.74257417 8.4475528 2.70297031 17.2307692 9.14851485 4.86091653 6.05940594 4.86091686 7.90099021 0"></polygon>
                </g>
            </g>
        </g>
    </g>
</svg>