<?xml version="1.0" encoding="UTF-8"?>
<svg width="914px" height="75px" viewBox="0 0 914 75" version="1.1" xmlns="http://www.w3.org/2000/svg" xmlns:xlink="http://www.w3.org/1999/xlink">
    <title>编组 6备份 8</title>
    <defs>
        <linearGradient x1="50%" y1="0%" x2="50%" y2="98.1435069%" id="linearGradient-1">
            <stop stop-color="#0093CE" stop-opacity="0" offset="0%"></stop>
            <stop stop-color="#006FA0" stop-opacity="0.166408299" offset="100%"></stop>
        </linearGradient>
        <linearGradient x1="50%" y1="0%" x2="50%" y2="100%" id="linearGradient-2">
            <stop stop-color="#197F7E" stop-opacity="0.240299252" offset="0%"></stop>
            <stop stop-color="#00B0BA" stop-opacity="0.8" offset="100%"></stop>
        </linearGradient>
        <linearGradient x1="50%" y1="0%" x2="50%" y2="98.4364756%" id="linearGradient-3">
            <stop stop-color="#00E5F2" offset="0%"></stop>
            <stop stop-color="#43FFF0" stop-opacity="0.2488446" offset="100%"></stop>
        </linearGradient>
        <path d="M290.42,47.36 L292.58,36.92 L307.66,36.92 L309.18,26.28 L301.62,26.28 L301.86,24.56 L309.5,24.56 L310.02,20.72 L302.42,20.72 L302.74,18.64 L293.78,18.64 L295.06,20.2 L294.18,26.28 L287.86,26.28 L283.58,47.36 L290.42,47.36 Z M286.34,26.16 L285.78,19.32 L278.94,19.32 L279.5,26.16 L286.34,26.16 Z M285.06,34.52 L284.58,27.68 L277.74,27.68 L278.22,34.52 L285.06,34.52 Z M301.46,33.32 L293.3,33.32 L293.9,29.72 L301.98,29.72 L301.46,33.32 Z M280.58,47.36 L284.46,36.04 L277.62,36.04 L273.74,47.36 L280.58,47.36 Z M318.38,47.32 L325.78,18.6 L317.74,18.6 L319.18,20 L311.98,47.32 L318.38,47.32 Z M342.22,47.32 L346.3,18.6 L339.1,18.6 L340.38,20.12 L336.54,47.32 L342.22,47.32 Z M332.1,45.92 L335.7,20.04 L328.34,20.04 L329.46,21.6 L326.06,45.92 L332.1,45.92 Z M326.38,36.36 L327.86,25.4 L324.54,25.4 L323.06,36.36 L326.38,36.36 Z M337.5,36.36 L338.58,25.4 L335.38,25.4 L334.22,36.36 L337.5,36.36 Z M314.3,36.4 L317.1,25.4 L313.98,25.4 L311.1,36.4 L314.3,36.4 Z M355.42,33.04 L357.82,30.16 L359.5,33 L366.34,33 L363.82,28.68 L366.46,28.68 L366.98,24.92 L361.62,24.92 L361.74,24.12 L367.02,24.12 L367.62,20.04 L356.98,20.04 L357.98,18.56 L351.1,18.56 L352.14,19.12 L348.74,24.32 L354.14,24.32 L354.26,24.12 L355.42,24.12 L355.3,24.92 L348.74,24.92 L348.22,28.68 L352.34,28.68 L348.1,33.04 L355.42,33.04 Z M380.98,32.88 L382.86,19.6 L368.46,19.6 L366.58,32.88 L380.98,32.88 Z M375.9,29.16 L373.14,29.16 L373.9,23.52 L376.66,23.52 L375.9,29.16 Z M377.26,46.88 L379.1,33.84 L350.74,33.84 L348.9,46.88 L377.26,46.88 Z M371.7,38.88 L357.02,38.88 L357.26,37.28 L371.94,37.28 L371.7,38.88 Z M371.06,43.4 L356.38,43.4 L356.58,41.96 L371.26,41.96 L371.06,43.4 Z M398.74,29.2 L398.86,28.4 L402.7,28.4 L403.06,26.04 L399.18,26.04 L399.3,25.2 L403.18,25.2 L403.46,23 L399.58,23 L399.7,22.16 L403.58,22.16 L403.94,19.8 L400.06,19.8 L400.26,18.36 L392.14,18.36 L393.46,19.76 L393.46,19.8 L389.14,19.8 L388.78,22.16 L393.1,22.16 L392.98,23 L388.66,23 L388.38,25.2 L392.7,25.2 L392.58,26.04 L388.26,26.04 L387.9,28.4 L392.26,28.4 L392.14,29.2 L398.74,29.2 Z M415.1,29.2 L415.22,28.4 L419.02,28.4 L419.38,26.04 L415.54,26.04 L415.66,25.2 L419.5,25.2 L419.78,23 L415.94,23 L416.06,22.16 L419.9,22.16 L420.26,19.8 L416.42,19.8 L416.62,18.36 L408.46,18.36 L409.82,19.76 L409.82,19.8 L405.5,19.8 L405.14,22.16 L409.46,22.16 L409.34,23 L405.02,23 L404.74,25.2 L409.06,25.2 L408.94,26.04 L404.62,26.04 L404.26,28.4 L408.62,28.4 L408.5,29.2 L415.1,29.2 Z M417.06,39.4 L418.42,29.76 L388.54,29.76 L388.18,32.28 L410.9,32.28 L410.74,33.28 L388.66,33.28 L388.34,35.64 L410.42,35.64 L410.26,36.76 L387.34,36.76 L386.98,39.4 L417.06,39.4 Z M408.42,42.96 L408.14,40.24 L401.74,40.24 L402.02,42.96 L408.42,42.96 Z M409.7,46.68 L410.26,42.76 L408.62,43.76 L399.94,43.76 L400.38,40.4 L393.54,40.4 L392.66,46.68 L409.7,46.68 Z M417.62,46.64 L417.1,40.6 L410.9,40.6 L411.42,46.64 L417.62,46.64 Z M390.38,46.64 L392.7,40.88 L386.62,40.88 L384.3,46.64 L390.38,46.64 Z M456.02,23.88 L456.5,20.48 L444.3,20.48 L444.58,18.56 L435.46,18.56 L436.82,19.76 L436.7,20.48 L424.58,20.48 L424.1,23.88 L456.02,23.88 Z M427.34,46.68 L428.98,34.88 L435.46,34.88 L438.22,31.48 L431.38,31.48 L429.06,34.32 L429.58,30.72 L448.62,30.72 L448.1,34.36 L446.58,31.48 L439.74,31.48 L441.54,34.88 L448.02,34.88 L446.86,43.12 L443.34,46.68 L449.34,46.68 C450.113333,46.68 450.793333,46.42 451.38,45.9 C451.966667,45.38 452.313333,44.7333333 452.42,43.96 L452.42,43.96 L454.78,27.28 L450.34,27.28 L452.1,24.64 L444.5,24.64 L442.74,27.28 L436.5,27.28 L435.38,24.64 L427.78,24.64 L428.9,27.28 L424.38,27.28 L421.66,46.68 L427.34,46.68 Z M445.22,43.64 L446.34,35.64 L430.38,35.64 L429.26,43.64 L445.22,43.64 Z M440.74,40.6 L434.66,40.6 L434.94,38.68 L441.02,38.68 L440.74,40.6 Z M489.18,46.68 L493.02,19.32 L461.14,19.32 L462.42,20.8 L458.78,46.68 L489.18,46.68 Z M483.62,42.88 L465.38,42.88 L468.18,23.12 L486.42,23.12 L484.5,36.64 L481.98,32.32 L484.5,32.32 L484.9,29.64 L476.38,29.64 L477.14,28.64 L484.34,28.64 L484.7,26.16 L483.94,26.16 L485.38,24.12 L481.34,24.12 L479.78,26.16 L479.1,26.16 L481.1,23.6 L476.46,23.6 L474.46,26.16 L474.26,26.16 L473.74,24.08 L469.14,24.08 L469.78,26.16 L469.02,26.16 L468.66,28.64 L472.54,28.64 L471.74,29.64 L467.94,29.64 L467.54,32.32 L469.66,32.32 L466.3,36.68 L468.58,36.68 L467.82,42.16 L482.02,42.16 L482.5,38.76 L481.22,39.52 L473.22,39.52 L473.66,36.28 L476.5,36.28 L476.34,37.64 L475.06,38.88 L479.38,38.88 C479.753333,38.8266667 480.106667,38.7133333 480.44,38.54 C480.773333,38.3666667 480.993333,38.04 481.1,37.56 L481.1,37.56 L481.22,36.72 L484.5,36.72 L483.62,42.88 Z M478.22,33.6 L473.26,33.6 L474.26,32.32 L477.42,32.32 L478.22,33.6 Z M518.94,25.4 L520.1,23.4 L521.22,25.4 L527.3,25.4 L526.06,23.12 L529.9,23.12 L530.3,20.08 L522.06,20.08 L522.94,18.56 L514.58,18.56 L515.46,19.6 L512.1,25.4 L518.94,25.4 Z M502.98,25.4 L504.14,23.4 L505.26,25.4 L511.34,25.4 L510.06,23.12 L513.18,23.12 L513.58,20.08 L506.06,20.08 L506.98,18.56 L498.62,18.56 L499.5,19.6 L496.14,25.4 L502.98,25.4 Z M523.42,47.36 L524.46,40.2 L504.66,40.2 L504.82,39.08 L523.86,39.08 L524.7,33 L528.5,33 L529.34,26.92 L517.06,26.92 L516.9,25.84 L508.06,25.84 L508.22,26.92 L495.9,26.92 L495.06,33 L498.1,33 L496.06,47.36 L523.42,47.36 Z M521.06,31.84 L502.82,31.84 L502.98,30.72 L521.22,30.72 L521.06,31.84 Z M516.66,36.04 L505.26,36.04 L505.42,34.88 L516.82,34.88 L516.66,36.04 Z M516.26,44.4 L504.06,44.4 L504.22,43.24 L516.42,43.24 L516.26,44.4 Z M564.46,46.64 L564.98,42.84 L556.86,42.84 L557.18,40.56 L564.42,40.56 L564.98,36.76 L557.7,36.76 L558.02,34.44 L565.38,34.44 L567.5,19.28 L547.42,19.28 L545.3,34.44 L551.94,34.44 L551.62,36.76 L544.9,36.76 L544.34,40.56 L551.1,40.56 L550.78,42.84 L543.26,42.84 L542.74,46.64 L564.46,46.64 Z M531.46,46.64 L542.5,44.68 L543.02,40.8 L540.7,41.24 L541.74,33.68 L544.14,33.68 L544.74,29.64 L542.3,29.64 L543.26,22.84 L545.58,22.84 L546.06,19.28 L535.5,19.28 L535.02,22.84 L536.94,22.84 L535.98,29.64 L533.94,29.64 L533.34,33.68 L535.42,33.68 L534.18,42.44 L531.98,42.84 L531.46,46.64 Z M553.3,25.04 L551.02,25.04 L551.34,22.88 L553.58,22.88 L553.3,25.04 Z M561.58,25.04 L559.38,25.04 L559.66,22.88 L561.9,22.88 L561.58,25.04 Z M560.82,30.8 L558.54,30.8 L558.86,28.64 L561.1,28.64 L560.82,30.8 Z M552.46,30.8 L550.26,30.8 L550.54,28.64 L552.78,28.64 L552.46,30.8 Z M587.74,47.36 L589.18,37.16 L601.34,37.16 L603.18,24.28 L590.98,24.28 L591.82,18.56 L582.7,18.56 L583.98,20.08 L583.38,24.28 L571.26,24.28 L569.42,37.16 L581.58,37.16 L580.14,47.36 L587.74,47.36 Z M594.3,33.36 L589.7,33.36 L590.46,28.08 L595.02,28.08 L594.3,33.36 Z M582.1,33.36 L577.58,33.36 L578.3,28.08 L582.86,28.08 L582.1,33.36 Z M632.14,27.88 L631.74,18.64 L625.66,18.64 L626.06,27.88 L632.14,27.88 Z M631.38,46.48 L632.3,40.08 L630.5,41.92 L621.38,41.92 L624.38,20.56 L616.06,20.56 L617.38,22.04 L613.94,46.48 L631.38,46.48 Z M639.34,43.92 L640.18,25.72 L634.02,25.72 L633.18,43.92 L639.34,43.92 Z M612.06,41.72 L615.42,26.68 L609.34,26.68 L605.98,41.72 L612.06,41.72 Z" id="path-4"></path>
        <filter x="-3.5%" y="-37.9%" width="107.1%" height="189.7%" filterUnits="objectBoundingBox" id="filter-5">
            <feOffset dx="0" dy="2" in="SourceAlpha" result="shadowOffsetOuter1"></feOffset>
            <feGaussianBlur stdDeviation="4" in="shadowOffsetOuter1" result="shadowBlurOuter1"></feGaussianBlur>
            <feColorMatrix values="0 0 0 0 0   0 0 0 0 0   0 0 0 0 0  0 0 0 0.320104212 0" type="matrix" in="shadowBlurOuter1"></feColorMatrix>
        </filter>
        <linearGradient x1="100%" y1="47.1355001%" x2="0%" y2="52.8644999%" id="linearGradient-6">
            <stop stop-color="#00D8DE" stop-opacity="0" offset="0%"></stop>
            <stop stop-color="#00B0BA" offset="100%"></stop>
        </linearGradient>
    </defs>
    <g id="页面-1" stroke="none" stroke-width="1" fill="none" fill-rule="evenodd">
        <g id="编组-6备份" transform="translate(-0.000000, 1.000000)">
            <path d="M707,0 L669.0085,52.0140836 C664.30254,60.1290083 662.366878,62.6992882 659.907562,65.1694663 C657.448247,67.6396444 654.849437,69.3472779 651.890461,70.4373668 C648.931485,71.5274556 646.236339,72 638.592375,72 L275.407625,72 C267.763661,72 265.068515,71.5274556 262.109539,70.4373668 C259.150563,69.3472779 256.551753,67.6396444 254.092438,65.1694663 C251.633122,62.6992882 249.69746,60.1290083 244.9915,52.0140836 L207,0" id="路径" stroke="url(#linearGradient-2)" stroke-width="3" fill="url(#linearGradient-1)"></path>
            <g id="泸州智慧商圈管理中心" fill-rule="nonzero">
                <use fill="black" fill-opacity="1" filter="url(#filter-5)" xlink:href="#path-4"></use>
                <use fill="url(#linearGradient-3)" xlink:href="#path-4"></use>
            </g>
            <path d="M739.495,3.99926254 L704.199,54.2072625 L680,59.9999995 L723.966858,3.99991806 L739.495,3.99926254 Z M763.694,3.99926254 L733.294,47.2432625 L714.123,51.8322625 L747.748,3.99926254 L763.694,3.99926254 Z M788.944,3.99926254 L763.652,39.9772625 L743.218,44.8682625 L771.948,3.99926254 L788.944,3.99926254 Z M815.394,3.99926254 L795.452,32.3652625 L773.576,37.6012625 L797.198,3.99926254 L815.394,3.99926254 Z M842.394,3.99926254 L827.914,24.5962625 L805.376,29.9902625 L823.647,3.99926254 L842.394,3.99926254 Z M870.394,3.99926254 L861.579,16.5382625 L837.838,22.2202625 L850.647,3.99926254 L870.394,3.99926254 Z M913.966858,3.99991806 L871.502,14.1632625 L878.647,3.99926254 L913.966858,3.99991806 Z" id="形状结合" fill="url(#linearGradient-6)" opacity="0.316341"></path>
            <path d="M59.495,3.99926254 L24.199,54.2072625 L0,59.9999995 L43.9668579,3.99991806 L59.495,3.99926254 Z M83.694,3.99926254 L53.294,47.2432625 L34.123,51.8322625 L67.748,3.99926254 L83.694,3.99926254 Z M108.944,3.99926254 L83.652,39.9772625 L63.218,44.8682625 L91.948,3.99926254 L108.944,3.99926254 Z M135.394,3.99926254 L115.452,32.3652625 L93.576,37.6012625 L117.198,3.99926254 L135.394,3.99926254 Z M162.394,3.99926254 L147.914,24.5962625 L125.376,29.9902625 L143.647,3.99926254 L162.394,3.99926254 Z M190.394,3.99926254 L181.579,16.5382625 L157.838,22.2202625 L170.647,3.99926254 L190.394,3.99926254 Z M233.966858,3.99991806 L191.502,14.1632625 L198.647,3.99926254 L233.966858,3.99991806 Z" id="形状结合备份" fill="url(#linearGradient-6)" opacity="0.316341" transform="translate(116.983429, 31.999631) scale(-1, 1) translate(-116.983429, -31.999631) "></path>
        </g>
    </g>
</svg>