<?xml version="1.0" encoding="UTF-8"?>
<svg width="55px" height="70px" viewBox="0 0 55 70" version="1.1" xmlns="http://www.w3.org/2000/svg" xmlns:xlink="http://www.w3.org/1999/xlink">
    <title>file10</title>
    <g id="页面-1" stroke="none" stroke-width="1" fill="none" fill-rule="evenodd">
        <g id="文件类型及后缀" transform="translate(-161.000000, -882.000000)" fill-rule="nonzero">
            <g id="file10" transform="translate(161.000000, 882.000000)">
                <polygon id="Shape" fill="#BE54C8" points="42.5 0 55 12.5 55 70 0 70 0 0"></polygon>
                <polygon id="Shape" fill="#000000" opacity="0.2" points="42.25 12.5 54.75 25 54.75 12.5"></polygon>
                <polyline id="Shape" fill="#FFFFFF" opacity="0.4" points="42.25 0 42.25 12.5 54.75 12.5 42.25 0"></polyline>
                <path d="M37.6,33 L34,33 L31.6,28 L29.2,28 L31.6,33 L28,33 L25.6,28 L23.2,28 L25.6,33 L22,33 L19.6,28 L18.4,28 C17.0745166,28 16,29.1192881 16,30.5 L16,45.5 C16,46.8807118 17.0745166,48 18.4,48 L37.6,48 C38.9254834,48 40,46.8807118 40,45.5 L40,28 L35.2,28 L37.6,33 L37.6,33 Z" id="Shape" fill="#FFFFFF"></path>
            </g>
        </g>
    </g>
</svg>