<?xml version="1.0" encoding="UTF-8"?>
<svg width="55px" height="70px" viewBox="0 0 55 70" version="1.1" xmlns="http://www.w3.org/2000/svg" xmlns:xlink="http://www.w3.org/1999/xlink">
    <title>file7</title>
    <g id="页面-1" stroke="none" stroke-width="1" fill="none" fill-rule="evenodd">
        <g id="文件类型及后缀" transform="translate(-161.000000, -612.000000)" fill-rule="nonzero">
            <g id="file7" transform="translate(161.000000, 612.000000)">
                <polyline id="Shape" fill="#E6E7E8" points="32.4 0 0 0 0 70 55 70 55 12.5 42.5 0 32.4 0"></polyline>
                <polygon id="Shape" fill="#CFD1D3" points="42.5 12.5 55 25 55 12.5"></polygon>
                <polygon id="Shape" stroke="#E6E7E8" fill="#DF4431" points="16.7 30.85 13.35 30.85 13.35 39.15 16.7 39.15 26.1 47.8 26.1 22.2"></polygon>
                <path d="M29.4,40.3 C32.35,40.3 34.55,37.9 34.55,35 C34.55,32.05 32.35,29.7 29.4,29.7 L29.4,40.3 L29.4,40.3 Z" id="Shape" stroke="#E6E7E8" fill="#DF4431"></path>
                <path d="M29.4,21.55 L29.4,25.1 C34.35,25.65 38.1,29.9 38.1,35 C38.1,40.1 34.4,44.35 29.4,44.9 L29.4,48.45 C36.3,47.9 41.65,42.05 41.65,35 C41.65,27.9 36.3,22.1 29.4,21.55 L29.4,21.55 Z" id="Shape" stroke="#E6E7E8" fill="#DF4431"></path>
                <polyline id="Shape" fill="#F1F2F2" points="42.5 0 42.5 12.5 55 12.5 42.5 0"></polyline>
            </g>
        </g>
    </g>
</svg>