<?xml version="1.0" encoding="UTF-8"?>
<svg width="55px" height="70px" viewBox="0 0 55 70" version="1.1" xmlns="http://www.w3.org/2000/svg" xmlns:xlink="http://www.w3.org/1999/xlink">
    <title>file6</title>
    <g id="页面-1" stroke="none" stroke-width="1" fill="none" fill-rule="evenodd">
        <g id="文件类型及后缀" transform="translate(-161.000000, -522.000000)">
            <g id="file6" transform="translate(161.000000, 522.000000)">
                <polygon id="Shape" fill="#E6E7E8" fill-rule="nonzero" points="32.4 0 0 0 0 70 55 70 55 12.5 42.5 0"></polygon>
                <polygon id="Shape" fill="#CFD1D3" fill-rule="nonzero" points="42.5 12.5 55 25 55 12.5"></polygon>
                <polygon id="Shape" fill="#F1F2F2" fill-rule="nonzero" points="42.5 12.5 55 12.5 42.5 0"></polygon>
                <path d="M46.5,51.65 C46.5,52.95 45.45,54 44.15,54 L11.35,54 C10.05,54 9,52.95 9,51.65 L9,18.85 C9,17.55 10.05,16.5 11.35,16.5 L44.15,16.5 C45.45,16.5 46.5,17.55 46.5,18.85 L46.5,51.65 L46.5,51.65 Z" id="Shape"></path>
                <path d="M22.8,37.3 C23.65,35.6 24.65,33.75 25.4,31.85 L25.4,31.85 L25.7,31.1 C24.7,27.25 24.05,24.1 24.6,22.1 L24.6,22.1 C24.75,21.6 25.35,21.25 26,21.25 L26,21.25 L26.4,21.25 L26.5,21.25 C27.4,21.25 27.8,22.35 27.85,22.8 L27.85,22.8 C27.95,23.55 27.6,24.75 27.6,24.75 L27.6,24.75 C27.6,24.25 27.6,23.45 27.3,22.75 L27.3,22.75 C26.95,21.95 26.6,21.45 26.25,21.4 L26.25,21.4 C26.1,21.5 25.95,21.75 25.9,22.15 L25.9,22.15 C25.8,22.75 25.75,23.5 25.75,23.85 L25.75,23.85 C25.75,25.2 26,27 26.55,28.85 L26.55,28.85 C26.65,28.55 26.75,28.3 26.8,28.05 L26.8,28.05 C26.9,27.65 27.6,24.95 27.6,24.95 L27.6,24.95 C27.6,24.95 27.45,28.55 27.2,29.6 L27.2,29.6 C27.15,29.85 27.1,30.05 27.05,30.3 L27.05,30.3 C27.9,32.75 29.3,34.9 31,36.45 L31,36.45 C31.65,37.05 32.5,37.55 33.3,38 L33.3,38 C35,37.75 36.6,37.65 37.9,37.65 L37.9,37.65 C39.65,37.7 40.95,37.95 41.45,38.45 L41.45,38.45 C41.7,38.7 41.8,39 41.85,39.35 L41.85,39.35 C41.85,39.5 41.8,39.8 41.75,39.85 L41.75,39.85 C41.75,39.75 41.75,39.3 40.35,38.85 L40.35,38.85 C39.25,38.5 37.15,38.5 34.7,38.8 L34.7,38.8 C37.55,40.2 40.4,40.9 41.25,40.5 L41.25,40.5 C41.45,40.4 41.75,40.05 41.75,40.05 L41.75,40.05 C41.75,40.05 41.6,40.75 41.5,40.95 L41.5,40.95 C41.35,41.15 41.1,41.35 40.8,41.45 L40.8,41.45 C39.4,41.8 35.75,40.95 32.55,39.15 L32.55,39.15 C29,39.65 25.1,40.65 21.95,41.65 L21.95,41.65 C18.85,47 16.5,49.5 14.65,48.55 L14.65,48.55 L13.95,48.2 C13.65,48.05 13.65,47.65 13.7,47.35 L13.7,47.35 C13.9,46.3 15.25,44.65 17.95,43.05 L17.95,43.05 C18.25,42.9 19.55,42.2 19.55,42.2 L19.55,42.2 C19.55,42.2 18.6,43.15 18.35,43.3 L18.35,43.3 C16.2,45.05 14.6,47.3 14.65,48.15 L14.65,48.15 L14.65,48.25 C16.5,47.95 19.25,44.2 22.8,37.3 M23.9,37.85 C23.3,38.95 22.75,40 22.2,40.95 L22.2,40.95 C25.15,39.7 28.3,38.9 31.35,38.35 L31.35,38.35 C30.95,38.05 30.55,37.75 30.2,37.45 L30.2,37.45 C28.55,36.05 27.25,34.3 26.35,32.45 L26.35,32.45 C25.75,34.05 25.05,35.7 23.9,37.85" id="path4463_1_" stroke="#DF4431" stroke-width="0.9375" fill="#DF4431" fill-rule="nonzero"></path>
            </g>
        </g>
    </g>
</svg>