<?xml version="1.0" encoding="UTF-8"?>
<svg width="55px" height="70px" viewBox="0 0 55 70" version="1.1" xmlns="http://www.w3.org/2000/svg" xmlns:xlink="http://www.w3.org/1999/xlink">
    <title>file3</title>
    <g id="页面-1" stroke="none" stroke-width="1" fill="none" fill-rule="evenodd">
        <g id="文件类型及后缀" transform="translate(-161.000000, -252.000000)">
            <g id="file3" transform="translate(161.000000, 252.000000)">
                <polyline id="Shape" fill="#3980FC" fill-rule="nonzero" points="32.4 0 0 0 0 70 55 70 55 12.5 42.5 0 32.4 0"></polyline>
                <rect id="Rectangle-path" x="7.5" y="15" width="40" height="40"></rect>
                <polygon id="Shape" fill="#FFFFFF" fill-rule="nonzero" points="34.25 25.75 33.05 25.75 30.6 25.75 30.6 28.25 32.55 28.25 30.7 37.5 28.75 25.75 26.25 25.75 24.3 37.5 21.95 25.75 18.25 25.75 22.6 44.25 25.05 44.25 27.5 33.15 29.95 44.25 32.4 44.25 36.75 25.75"></polygon>
                <polygon id="Shape" fill="#2054B2" fill-rule="nonzero" points="42.5 12.5 55 25 55 12.5"></polygon>
                <polyline id="Shape" fill="#9EC2FF" fill-rule="nonzero" points="42.5 0 42.5 12.5 55 12.5 42.5 0"></polyline>
            </g>
        </g>
    </g>
</svg>