<?xml version="1.0" encoding="UTF-8"?>
<svg width="893px" height="75px" viewBox="0 0 893 75" version="1.1" xmlns="http://www.w3.org/2000/svg" xmlns:xlink="http://www.w3.org/1999/xlink">
    <title>编组备份</title>
    <defs>
        <linearGradient x1="50%" y1="0%" x2="50%" y2="98.1435069%" id="linearGradient-1">
            <stop stop-color="#0093CE" stop-opacity="0" offset="0%"></stop>
            <stop stop-color="#006FA0" stop-opacity="0.166408299" offset="100%"></stop>
        </linearGradient>
        <linearGradient x1="50%" y1="0%" x2="50%" y2="100%" id="linearGradient-2">
            <stop stop-color="#197F7E" stop-opacity="0.240299252" offset="0%"></stop>
            <stop stop-color="#00B0BA" stop-opacity="0.8" offset="100%"></stop>
        </linearGradient>
        <linearGradient x1="50%" y1="0%" x2="50%" y2="98.4364756%" id="linearGradient-3">
            <stop stop-color="#00E5F2" offset="0%"></stop>
            <stop stop-color="#43FFF0" stop-opacity="0.2488446" offset="100%"></stop>
        </linearGradient>
        <path d="M311.45,51.405 L323.15,33.54 L323.555,33.54 L330.26,51.405 L339.665,51.405 L332.915,33.54 L340.925,33.54 L341.51,29.265 L325.94,29.265 L332.105,19.86 L320.99,19.86 L321.98,20.985 L316.535,29.265 L306.455,29.265 L305.87,33.54 L313.745,33.54 L302.045,51.405 L311.45,51.405 Z M351.095,51.405 L352.535,50.37 L353.66,51.405 L368.195,51.405 L371.66,46.365 L374.18,51.405 L381.02,51.405 L375.62,40.605 L381.11,32.64 L381.92,26.7 L383.225,26.7 L383.81,22.425 L374.99,22.425 L376.205,19.005 L368.105,19.005 L368.96,20.04 L365.09,30.975 L371.93,30.975 L373.46,26.7 L375.08,26.7 L374.27,32.64 L374.27,32.685 L372.785,34.845 L371.705,32.685 L364.865,32.685 L368.78,40.605 L361.67,50.955 L357.305,46.905 L361.58,43.8 L362.165,39.525 L363.92,39.525 L364.505,35.25 L362.75,35.25 L362.975,33.81 L356.99,33.81 L356.765,35.25 L352.49,35.25 L352.715,33.81 L346.73,33.81 L346.505,35.25 L344.84,35.25 L344.255,39.525 L345.92,39.525 L345.335,43.8 L348.71,46.905 L342.545,51.405 L351.095,51.405 Z M350.195,33.54 L352.4,30.12 L351.905,33.54 L357.89,33.54 L358.34,30.435 L359.6,33.54 L364.73,33.54 L362.66,28.41 L365.45,28.41 L366.08,24.135 L359.24,24.135 L359.96,19.005 L352.985,19.005 L353.75,20.67 L353.255,24.135 L346.415,24.135 L345.785,28.41 L348.35,28.41 L345.065,33.54 L350.195,33.54 Z M365.315,23.28 L366.665,19.86 L361.535,19.86 L360.185,23.28 L365.315,23.28 Z M352.49,23.28 L352.13,19.86 L347,19.86 L347.36,23.28 L352.49,23.28 Z M353.525,43.44 L351.635,41.685 L351.905,39.525 L356.18,39.525 L355.91,41.685 L353.525,43.44 Z M390.92,51.36 C391.79,51.36 392.555,51.0825 393.215,50.5275 C393.875,49.9725 394.265,49.26 394.385,48.39 L394.385,48.39 L395.735,38.58 L397.67,37.995 L398.345,33.315 L396.41,33.9 L397.175,28.455 L399.155,28.455 L399.74,24.495 L397.715,24.495 L398.48,19.095 L390.155,19.095 L391.28,20.4 L390.695,24.495 L388.04,24.495 L387.455,28.455 L390.155,28.455 L389.075,36.105 L386.33,36.915 L385.655,41.64 L388.4,40.83 L387.5,47.31 L384.035,51.36 L390.92,51.36 Z M402.305,51.315 L406.265,30.39 L423.635,30.39 L425.12,19.86 L401.72,19.86 L395.825,51.315 L402.305,51.315 Z M418.1,26.835 L407.39,26.835 L407.84,23.865 L418.55,23.865 L418.1,26.835 Z M420.53,50.55 L422.15,38.985 L417.155,38.985 L417.515,36.51 L422.96,36.51 L423.5,32.55 L418.055,32.55 L418.28,31.155 L412.115,31.155 L411.89,32.55 L406.4,32.55 L405.86,36.51 L411.35,36.51 L410.99,38.985 L405.32,38.985 L403.7,50.55 L420.53,50.55 Z M415.445,46.86 L410.045,46.86 L410.585,42.99 L415.985,42.99 L415.445,46.86 Z M434.39,51.405 L436.46,40.83 L439.295,40.83 L437.81,51.405 L450.005,49.785 L450.59,45.51 L446.225,46.14 L446.99,40.83 L449.015,40.83 L455.765,51.405 L463.505,51.405 L460.4,46.545 L463.37,45.915 L463.955,41.64 L458.06,42.9 L456.755,40.83 L464.945,40.83 L465.485,36.96 L460.31,36.96 L460.58,35.25 L464,35.25 L464.495,31.83 L461.03,31.83 L461.3,30.12 L454.46,30.12 L454.19,31.83 L449.06,31.83 L449.33,30.12 L442.49,30.12 L442.22,31.83 L438.845,31.83 L438.35,35.25 L441.77,35.25 L441.5,36.96 L437.18,36.96 L438.71,29.265 L464.855,29.265 L466.16,19.86 L430.25,19.86 L431.645,21.48 L425.84,51.405 L434.39,51.405 Z M456.845,25.44 L439.43,25.44 L439.745,23.685 L457.07,23.685 L456.845,25.44 Z M453.47,36.96 L448.34,36.96 L448.61,35.25 L453.74,35.25 L453.47,36.96 Z M505.175,24.135 L505.76,19.86 L474.98,19.86 L474.395,24.135 L505.175,24.135 Z M487.175,51.405 C488.045,51.405 488.81,51.1275 489.47,50.5725 C490.13,50.0175 490.52,49.305 490.64,48.435 L490.64,48.435 L492.845,32.685 L506.525,32.685 L507.155,28.41 L471.245,28.41 L470.615,32.685 L484.295,32.685 L482.27,47.22 L478.265,51.405 L487.175,51.405 Z M505.22,48.075 L503.915,36.105 L495.815,36.105 L497.525,48.075 L505.22,48.075 Z M475.295,48.075 L480.425,36.105 L472.73,36.105 L467.6,48.075 L475.295,48.075 Z M530.42,51.405 L532.04,39.93 L545.72,39.93 L547.79,25.44 L534.065,25.44 L535.01,19.005 L524.75,19.005 L526.19,20.715 L525.515,25.44 L511.88,25.44 L509.81,39.93 L523.49,39.93 L521.87,51.405 L530.42,51.405 Z M537.8,35.655 L532.625,35.655 L533.48,29.715 L538.61,29.715 L537.8,35.655 Z M524.075,35.655 L518.99,35.655 L519.8,29.715 L524.93,29.715 L524.075,35.655 Z M580.37,29.49 L579.92,19.095 L573.08,19.095 L573.53,29.49 L580.37,29.49 Z M579.515,50.415 L580.55,43.215 L578.525,45.285 L568.265,45.285 L571.64,21.255 L562.28,21.255 L563.765,22.92 L559.895,50.415 L579.515,50.415 Z M588.47,47.535 L589.415,27.06 L582.485,27.06 L581.54,47.535 L588.47,47.535 Z M557.78,45.06 L561.56,28.14 L554.72,28.14 L550.94,45.06 L557.78,45.06 Z" id="path-4"></path>
        <filter x="-4.5%" y="-34.0%" width="109.0%" height="180.2%" filterUnits="objectBoundingBox" id="filter-5">
            <feOffset dx="0" dy="2" in="SourceAlpha" result="shadowOffsetOuter1"></feOffset>
            <feGaussianBlur stdDeviation="4" in="shadowOffsetOuter1" result="shadowBlurOuter1"></feGaussianBlur>
            <feColorMatrix values="0 0 0 0 0   0 0 0 0 0   0 0 0 0 0  0 0 0 0.320104212 0" type="matrix" in="shadowBlurOuter1"></feColorMatrix>
        </filter>
        <linearGradient x1="100%" y1="47.1355001%" x2="0%" y2="52.8644999%" id="linearGradient-6">
            <stop stop-color="#00D8DE" stop-opacity="0" offset="0%"></stop>
            <stop stop-color="#00B0BA" offset="100%"></stop>
        </linearGradient>
    </defs>
    <g id="页面-1" stroke="none" stroke-width="1" fill="none" fill-rule="evenodd">
        <g id="编组备份" transform="translate(0.000000, 1.000000)">
            <path d="M687,0 L650.52816,52.0140836 C646.010438,60.1290083 644.152203,62.6992882 641.79126,65.1694663 C639.430317,67.6396444 636.935459,69.3472779 634.094842,70.4373668 C631.254225,71.5274556 628.666886,72 621.32868,72 L272.67132,72 C265.333114,72 262.745775,71.5274556 259.905158,70.4373668 C257.064541,69.3472779 254.569683,67.6396444 252.20874,65.1694663 C249.847797,62.6992882 247.989562,60.1290083 243.47184,52.0140836 L207,0" id="路径" stroke="url(#linearGradient-2)" stroke-width="3" fill="url(#linearGradient-1)"></path>
            <g id="大数据展示中心" fill-rule="nonzero">
                <use fill="black" fill-opacity="1" filter="url(#filter-5)" xlink:href="#path-4"></use>
                <use fill="url(#linearGradient-3)" xlink:href="#path-4"></use>
            </g>
            <path d="M718.495,3.99926254 L683.199,54.2072625 L659,59.9999995 L702.966858,3.99991806 L718.495,3.99926254 Z M742.694,3.99926254 L712.294,47.2432625 L693.123,51.8322625 L726.748,3.99926254 L742.694,3.99926254 Z M767.944,3.99926254 L742.652,39.9772625 L722.218,44.8682625 L750.948,3.99926254 L767.944,3.99926254 Z M794.394,3.99926254 L774.452,32.3652625 L752.576,37.6012625 L776.198,3.99926254 L794.394,3.99926254 Z M821.394,3.99926254 L806.914,24.5962625 L784.376,29.9902625 L802.647,3.99926254 L821.394,3.99926254 Z M849.394,3.99926254 L840.579,16.5382625 L816.838,22.2202625 L829.647,3.99926254 L849.394,3.99926254 Z M892.966858,3.99991806 L850.502,14.1632625 L857.647,3.99926254 L892.966858,3.99991806 Z" id="形状结合" fill="url(#linearGradient-6)" opacity="0.316341"></path>
            <path d="M59.495,3.99926254 L24.199,54.2072625 L0,59.9999995 L43.9668579,3.99991806 L59.495,3.99926254 Z M83.694,3.99926254 L53.294,47.2432625 L34.123,51.8322625 L67.748,3.99926254 L83.694,3.99926254 Z M108.944,3.99926254 L83.652,39.9772625 L63.218,44.8682625 L91.948,3.99926254 L108.944,3.99926254 Z M135.394,3.99926254 L115.452,32.3652625 L93.576,37.6012625 L117.198,3.99926254 L135.394,3.99926254 Z M162.394,3.99926254 L147.914,24.5962625 L125.376,29.9902625 L143.647,3.99926254 L162.394,3.99926254 Z M190.394,3.99926254 L181.579,16.5382625 L157.838,22.2202625 L170.647,3.99926254 L190.394,3.99926254 Z M233.966858,3.99991806 L191.502,14.1632625 L198.647,3.99926254 L233.966858,3.99991806 Z" id="形状结合备份" fill="url(#linearGradient-6)" opacity="0.316341" transform="translate(116.983429, 31.999631) scale(-1, 1) translate(-116.983429, -31.999631) "></path>
        </g>
    </g>
</svg>