<?xml version="1.0" encoding="UTF-8"?>
<svg width="842px" height="75px" viewBox="0 0 842 75" version="1.1" xmlns="http://www.w3.org/2000/svg" xmlns:xlink="http://www.w3.org/1999/xlink">
    <title>编组 19备份</title>
    <defs>
        <linearGradient x1="50%" y1="0%" x2="50%" y2="98.1435069%" id="linearGradient-1">
            <stop stop-color="#0093CE" stop-opacity="0" offset="0%"></stop>
            <stop stop-color="#006FA0" stop-opacity="0.166408299" offset="100%"></stop>
        </linearGradient>
        <linearGradient x1="50%" y1="0%" x2="50%" y2="100%" id="linearGradient-2">
            <stop stop-color="#197F7E" stop-opacity="0.240299252" offset="0%"></stop>
            <stop stop-color="#00B0BA" stop-opacity="0.8" offset="100%"></stop>
        </linearGradient>
        <linearGradient x1="100%" y1="46.6249976%" x2="0%" y2="53.3750024%" id="linearGradient-3">
            <stop stop-color="#00D8DE" stop-opacity="0" offset="0%"></stop>
            <stop stop-color="#00B0BA" offset="100%"></stop>
        </linearGradient>
        <linearGradient x1="50%" y1="0%" x2="50%" y2="98.4364756%" id="linearGradient-4">
            <stop stop-color="#00E5F2" offset="0%"></stop>
            <stop stop-color="#43FFF0" stop-opacity="0.2488446" offset="100%"></stop>
        </linearGradient>
        <path d="M307.84,41.48 L306.72,36.92 L301.2,36.92 L301.4,37.76 L295.92,37.84 L296.12,36.44 L307.52,36.44 L308.92,26.56 L297.52,26.56 L297.64,25.64 L309.96,25.64 L310.36,22.92 L298,22.92 L298.28,21.04 L289.72,21.04 L290.64,22.52 L290.56,22.92 L278.44,22.92 L278.04,25.64 L290.2,25.64 L290.08,26.56 L278.72,26.56 L277.32,36.44 L288.72,36.44 L288.52,37.96 L276.52,38.16 L276.12,40.96 L302.08,40.56 L302.32,41.48 L307.84,41.48 Z M301.4,29.88 L297.04,29.88 L297.2,28.84 L301.56,28.84 L301.4,29.88 Z M289.6,29.88 L285.56,29.88 L285.72,28.84 L289.76,28.84 L289.6,29.88 Z M300.8,34.12 L296.44,34.12 L296.6,33.12 L300.92,33.12 L300.8,34.12 Z M289.04,34.12 L284.96,34.12 L285.08,33.12 L289.16,33.12 L289.04,34.12 Z M298.08,45.52 L298.04,41.36 L291.88,41.36 L291.88,45.52 L298.08,45.52 Z M299.4,49.12 L299.96,45.16 L298.28,46.28 L289.6,46.28 L290.24,41.76 L283.4,41.76 L282.36,49.12 L299.4,49.12 Z M307.32,49.08 L306.88,42.24 L300.68,42.24 L301.12,49.08 L307.32,49.08 Z M280.08,49.08 L282.56,42.24 L276.48,42.24 L274,49.08 L280.08,49.08 Z M343.96,49.8 L344.6,45.32 L344.8,43.8 L343.08,45.32 L340.04,45.32 L338.12,40 L344.16,40 L344.72,36.2 L336.76,36.2 L335.64,33.16 L344.76,33.16 L346.36,21.76 L314.44,21.76 L315.4,22.88 L311.64,49.8 L326.28,48.36 L326.8,44.56 L319.88,45.28 L320.6,40 L330.52,40 L334.08,49.8 L343.96,49.8 Z M337.72,29.36 L322.12,29.36 L322.64,25.56 L338.24,25.56 L337.72,29.36 Z M329.16,36.2 L321.12,36.2 L321.56,33.16 L328.04,33.16 L329.16,36.2 Z M359.12,29.2 L359.44,27.08 L374.64,27.08 L374.32,29.2 L382.68,29.2 L383.52,23.32 L371.76,23.32 L372.08,21 L362.2,21 L363.52,22.48 L363.4,23.32 L351.64,23.32 L350.8,29.2 L359.12,29.2 Z M379.84,49 L380.36,45.2 L378,45.2 L377.24,42.44 L370.8,42.44 L371.56,45.2 L368.36,45.2 L368.92,41 L379.44,41 L379.96,37.2 L369.48,37.2 L369.96,33.76 L380.48,33.76 L381.04,29.96 L352.32,29.96 L351.76,33.76 L361.88,33.76 L361.4,37.2 L351.24,37.2 L350.72,41 L360.84,41 L360.28,45.2 L348.6,45.2 L348.08,49 L379.84,49 Z M393.4,49.8 L403.8,33.92 L404.16,33.92 L410.12,49.8 L418.48,49.8 L412.48,33.92 L419.6,33.92 L420.12,30.12 L406.28,30.12 L411.76,21.76 L401.88,21.76 L402.76,22.76 L397.92,30.12 L388.96,30.12 L388.44,33.92 L395.44,33.92 L385.04,49.8 L393.4,49.8 Z M428.64,49.8 L429.92,48.88 L430.92,49.8 L443.84,49.8 L446.92,45.32 L449.16,49.8 L455.24,49.8 L450.44,40.2 L455.32,33.12 L456.04,27.84 L457.2,27.84 L457.72,24.04 L449.88,24.04 L450.96,21 L443.76,21 L444.52,21.92 L441.08,31.64 L447.16,31.64 L448.52,27.84 L449.96,27.84 L449.24,33.12 L449.24,33.16 L447.92,35.08 L446.96,33.16 L440.88,33.16 L444.36,40.2 L438.04,49.4 L434.16,45.8 L437.96,43.04 L438.48,39.24 L440.04,39.24 L440.56,35.44 L439,35.44 L439.2,34.16 L433.88,34.16 L433.68,35.44 L429.88,35.44 L430.08,34.16 L424.76,34.16 L424.56,35.44 L423.08,35.44 L422.56,39.24 L424.04,39.24 L423.52,43.04 L426.52,45.8 L421.04,49.8 L428.64,49.8 Z M427.84,33.92 L429.8,30.88 L429.36,33.92 L434.68,33.92 L435.08,31.16 L436.2,33.92 L440.76,33.92 L438.92,29.36 L441.4,29.36 L441.96,25.56 L435.88,25.56 L436.52,21 L430.32,21 L431,22.48 L430.56,25.56 L424.48,25.56 L423.92,29.36 L426.2,29.36 L423.28,33.92 L427.84,33.92 Z M441.28,24.8 L442.48,21.76 L437.92,21.76 L436.72,24.8 L441.28,24.8 Z M429.88,24.8 L429.56,21.76 L425,21.76 L425.32,24.8 L429.88,24.8 Z M430.8,42.72 L429.12,41.16 L429.36,39.24 L433.16,39.24 L432.92,41.16 L430.8,42.72 Z M464.04,49.76 C464.813333,49.76 465.493333,49.5133333 466.08,49.02 C466.666667,48.5266667 467.013333,47.8933333 467.12,47.12 L467.12,47.12 L468.32,38.4 L470.04,37.88 L470.64,33.72 L468.92,34.24 L469.6,29.4 L471.36,29.4 L471.88,25.88 L470.08,25.88 L470.76,21.08 L463.36,21.08 L464.36,22.24 L463.84,25.88 L461.48,25.88 L460.96,29.4 L463.36,29.4 L462.4,36.2 L459.96,36.92 L459.36,41.12 L461.8,40.4 L461,46.16 L457.92,49.76 L464.04,49.76 Z M474.16,49.72 L477.68,31.12 L493.12,31.12 L494.44,21.76 L473.64,21.76 L468.4,49.72 L474.16,49.72 Z M488.2,27.96 L478.68,27.96 L479.08,25.32 L488.6,25.32 L488.2,27.96 Z M490.36,49.04 L491.8,38.76 L487.36,38.76 L487.68,36.56 L492.52,36.56 L493,33.04 L488.16,33.04 L488.36,31.8 L482.88,31.8 L482.68,33.04 L477.8,33.04 L477.32,36.56 L482.2,36.56 L481.88,38.76 L476.84,38.76 L475.4,49.04 L490.36,49.04 Z M485.84,45.76 L481.04,45.76 L481.52,42.32 L486.32,42.32 L485.84,45.76 Z M514.44,49.8 L515.88,39.6 L528.04,39.6 L529.88,26.72 L517.68,26.72 L518.52,21 L509.4,21 L510.68,22.52 L510.08,26.72 L497.96,26.72 L496.12,39.6 L508.28,39.6 L506.84,49.8 L514.44,49.8 Z M521,35.8 L516.4,35.8 L517.16,30.52 L521.72,30.52 L521,35.8 Z M508.8,35.8 L504.28,35.8 L505,30.52 L509.56,30.52 L508.8,35.8 Z M558.84,30.32 L558.44,21.08 L552.36,21.08 L552.76,30.32 L558.84,30.32 Z M558.08,48.92 L559,42.52 L557.2,44.36 L548.08,44.36 L551.08,23 L542.76,23 L544.08,24.48 L540.64,48.92 L558.08,48.92 Z M566.04,46.36 L566.88,28.16 L560.72,28.16 L559.88,46.36 L566.04,46.36 Z M538.76,44.16 L542.12,29.12 L536.04,29.12 L532.68,44.16 L538.76,44.16 Z" id="path-5"></path>
        <filter x="-4.4%" y="-38.2%" width="108.9%" height="190.3%" filterUnits="objectBoundingBox" id="filter-6">
            <feOffset dx="0" dy="2" in="SourceAlpha" result="shadowOffsetOuter1"></feOffset>
            <feGaussianBlur stdDeviation="4" in="shadowOffsetOuter1" result="shadowBlurOuter1"></feGaussianBlur>
            <feColorMatrix values="0 0 0 0 0   0 0 0 0 0   0 0 0 0 0  0 0 0 0.320104212 0" type="matrix" in="shadowBlurOuter1"></feColorMatrix>
        </filter>
    </defs>
    <g id="页面-1" stroke="none" stroke-width="1" fill="none" fill-rule="evenodd">
        <g id="编组-19备份" transform="translate(0.000000, 1.000000)">
            <g id="编组-6备份-2">
                <path d="M651,0 L615.971837,52.0140836 C611.632942,60.1290083 609.848261,62.6992882 607.580772,65.1694663 C605.313283,67.6396444 602.917181,69.3472779 600.189005,70.4373668 C597.460829,71.5274556 594.975905,72 587.92817,72 L253.07183,72 C246.024095,72 243.539171,71.5274556 240.810995,70.4373668 C238.082819,69.3472779 235.686717,67.6396444 233.419228,65.1694663 C231.151739,62.6992882 229.367058,60.1290083 225.028163,52.0140836 L190,0" id="路径" stroke="url(#linearGradient-2)" stroke-width="3" fill="url(#linearGradient-1)"></path>
                <g id="编组-18" transform="translate(0.000000, 4.000000)" fill="url(#linearGradient-3)" opacity="0.316341">
                    <path d="M681.264976,0 L648.749976,50.207 L626.455976,56 L666.96083,0.000655515336 L681.264976,0 Z M703.559976,0 L675.553976,43.243 L657.891976,47.832 L688.869976,0 L703.559976,0 Z M726.820976,0 L703.520976,35.977 L684.695976,40.868 L711.163976,0 L726.820976,0 Z M751.187976,0 L732.817976,28.366 L712.663976,33.602 L734.425976,0 L751.187976,0 Z M776.061976,0 L762.723976,20.596 L741.959976,25.991 L758.792976,0 L776.061976,0 Z M801.856976,0 L793.736976,12.539 L771.865976,18.221 L783.666976,0 L801.856976,0 Z M842,0.000655515336 L802.878976,10.164 L809.461976,0 L842,0.000655515336 Z" id="形状结合"></path>
                    <path d="M54.809,0 L22.294,50.207 L0,56 L40.5048543,0.000655515336 L54.809,0 Z M77.104,0 L49.098,43.243 L31.436,47.832 L62.414,0 L77.104,0 Z M100.365,0 L77.065,35.977 L58.24,40.868 L84.708,0 L100.365,0 Z M124.732,0 L106.362,28.366 L86.208,33.602 L107.97,0 L124.732,0 Z M149.606,0 L136.268,20.596 L115.504,25.991 L132.337,0 L149.606,0 Z M175.401,0 L167.281,12.539 L145.41,18.221 L157.211,0 L175.401,0 Z M215.544024,0.000655515336 L176.423,10.164 L183.006,0 L215.544024,0.000655515336 Z" id="形状结合备份" transform="translate(107.772012, 28.000000) scale(-1, 1) translate(-107.772012, -28.000000) "></path>
                </g>
            </g>
            <g id="惠民宝大数据中心" fill-rule="nonzero">
                <use fill="black" fill-opacity="1" filter="url(#filter-6)" xlink:href="#path-5"></use>
                <use fill="url(#linearGradient-4)" xlink:href="#path-5"></use>
            </g>
        </g>
    </g>
</svg>