<svg xmlns="http://www.w3.org/2000/svg" xmlns:xlink="http://www.w3.org/1999/xlink" width="914" height="75" viewBox="0 0 914 75">
  <defs>
    <linearGradient id="logo-b" x1="50%" x2="50%" y1="0%" y2="98.144%">
      <stop offset="0%" stop-color="#0093CE" stop-opacity="0"/>
      <stop offset="100%" stop-color="#006FA0" stop-opacity=".166"/>
    </linearGradient>
    <linearGradient id="logo-a" x1="50%" x2="50%" y1="0%" y2="100%">
      <stop offset="0%" stop-color="#197F7E" stop-opacity=".24"/>
      <stop offset="100%" stop-color="#00B0BA" stop-opacity=".8"/>
    </linearGradient>
    <linearGradient id="logo-e" x1="50%" x2="50%" y1="0%" y2="98.436%">
      <stop offset="0%" stop-color="#00E5F2"/>
      <stop offset="100%" stop-color="#43FFF0" stop-opacity=".249"/>
    </linearGradient>
    <path id="logo-d" d="M26.04,20.52 L25.92,20.64 L33.2,28.72 L24.68,28.72 L21.48,24.56 L16.84,28.72 L8.84,28.72 L18.88,19.56 L19.64,14.2 L26.96,14.2 L26.04,20.52 Z M27.76,5.92 L35.52,13.2 L26.84,13.2 L23.6,9.72 L19.12,13.2 L11.56,13.2 L21.08,5.2 L21.6,1.52 L20.36,0.04 L28.56,0.04 L27.76,5.92 Z M0,28.72 L3.68,17.44 L10.16,17.44 L6.44,28.72 L0,28.72 Z M3.84,15.92 L3.36,9.08 L9.8,9.08 L10.28,15.92 L3.84,15.92 Z M5,7.6 L4.52,0.76 L10.96,0.76 L11.44,7.6 L5,7.6 Z M27.24,21.44 L29.28,14.64 L34.6,14.64 L32.36,21.44 L27.24,21.44 Z M11.88,14.68 L16.96,14.68 L16.68,21.44 L11.4,21.44 L11.88,14.68 Z M29.48,7.08 L31.24,0.84 L36.52,0.84 L34.56,7.08 L29.48,7.08 Z M13.64,0.84 L18.68,0.84 L18.8,7.08 L13.56,7.08 L13.64,0.84 Z"/>
    <filter id="logo-c" width="171.2%" height="190.7%" x="-35.6%" y="-38.4%" filterUnits="objectBoundingBox">
      <feOffset dy="2" in="SourceAlpha" result="shadowOffsetOuter1"/>
      <feGaussianBlur in="shadowOffsetOuter1" result="shadowBlurOuter1" stdDeviation="4"/>
      <feColorMatrix in="shadowBlurOuter1" values="0 0 0 0 0   0 0 0 0 0   0 0 0 0 0  0 0 0 0.320104212 0"/>
    </filter>
    <linearGradient id="logo-h" x1="50%" x2="50%" y1="0%" y2="98.436%">
      <stop offset="0%" stop-color="#00E5F2"/>
      <stop offset="100%" stop-color="#43FFF0" stop-opacity=".249"/>
    </linearGradient>
    <path id="logo-g" d="M52.68,5.32 L45.12,26.6 L37.52,26.6 L43.76,9.12 L40.36,9.12 L40.88,5.32 L52.68,5.32 Z M47.04,28.8 L50.68,25.08 L53.96,1.52 L52.68,0 L61.8,0 L58.12,26.16 C58.0133333,26.9066667 57.6466667,27.5333333 57.02,28.04 C56.3933333,28.5466667 55.6933333,28.8 54.92,28.8 L47.04,28.8 Z M72.64,3.8 L69.64,9.12 L71.72,26.6 L64.12,26.6 L62.04,9.12 L65.04,3.8 L72.64,3.8 Z"/>
    <filter id="logo-f" width="174%" height="190.3%" x="-37%" y="-38.2%" filterUnits="objectBoundingBox">
      <feOffset dy="2" in="SourceAlpha" result="shadowOffsetOuter1"/>
      <feGaussianBlur in="shadowOffsetOuter1" result="shadowBlurOuter1" stdDeviation="4"/>
      <feColorMatrix in="shadowBlurOuter1" values="0 0 0 0 0   0 0 0 0 0   0 0 0 0 0  0 0 0 0.320104212 0"/>
    </filter>
    <linearGradient id="logo-k" x1="50%" x2="50%" y1="0%" y2="98.436%">
      <stop offset="0%" stop-color="#00E5F2"/>
      <stop offset="100%" stop-color="#43FFF0" stop-opacity=".249"/>
    </linearGradient>
    <path id="logo-j" d="M83.24,10.64 L80.68,28.8 L74.68,28.8 L77.04,12.08 L74.8,12.56 L75.44,8 L83.88,6.08 L83.24,10.64 Z M97.48,13.72 L84.32,13.72 L84.88,10 L88.24,10 L88.72,6.76 L85.68,6.76 L86.16,3.28 L89.2,3.28 L89.48,1.44 L88.4,0.04 L96.04,0.04 L95.56,3.28 L98.52,3.28 L98.04,6.76 L95.08,6.76 L94.6,10 L98.04,10 L97.48,13.72 Z M108.52,9.72 L108,13.4 L106.32,13.4 L104.52,26.16 C104.386667,26.9333333 104.026667,27.5666667 103.44,28.06 C102.853333,28.5533333 102.173333,28.8 101.4,28.8 L95.16,28.8 L98.72,25.12 L100.36,13.4 L98.28,13.4 L98.8,9.72 L108.52,9.72 Z M95.68,26.68 L82.28,28.28 L82.84,24.52 L86.28,24.12 L86.72,20.84 L83.76,20.84 L84.28,17.32 L87.24,17.32 L87.64,14.44 L94,14.44 L93.6,17.32 L96.56,17.32 L96.04,20.84 L93.08,20.84 L92.72,23.36 L96.2,22.92 L95.68,26.68 Z M84.12,4.56 L75.64,6.48 L76.28,1.92 L84.76,0 L84.12,4.56 Z M109.08,1.08 L108.56,4.76 L100.04,4.76 L100.56,1.08 L109.08,1.08 Z"/>
    <filter id="logo-i" width="175.6%" height="190.3%" x="-37.8%" y="-38.2%" filterUnits="objectBoundingBox">
      <feOffset dy="2" in="SourceAlpha" result="shadowOffsetOuter1"/>
      <feGaussianBlur in="shadowOffsetOuter1" result="shadowBlurOuter1" stdDeviation="4"/>
      <feColorMatrix in="shadowBlurOuter1" values="0 0 0 0 0   0 0 0 0 0   0 0 0 0 0  0 0 0 0.320104212 0"/>
    </filter>
    <linearGradient id="logo-n" x1="50%" x2="50%" y1="0%" y2="98.436%">
      <stop offset="0%" stop-color="#00E5F2"/>
      <stop offset="100%" stop-color="#43FFF0" stop-opacity=".249"/>
    </linearGradient>
    <path id="logo-m" d="M130.92,7.6 L131.52,6.48 L123.88,6.48 L124.36,3.04 L126.92,3.04 L126.64,2.16 L125.44,0.76 L133.04,0.76 L133.72,3.04 L137.84,3.04 L138.52,1.84 L137.6,0.76 L145.96,0.76 L144.68,3.04 L146.4,3.04 L145.92,6.48 L136.8,6.48 L136.2,7.6 L145,7.6 L142.88,22.8 L122.36,22.8 L124.48,7.6 L130.92,7.6 Z M110.96,28.12 L113,24.32 L114.92,10.64 L113.4,10.64 L113.96,6.84 L122.32,6.84 L120.08,22.68 L125.56,24.32 L144.16,24.32 L143.64,28.12 L122.36,28.12 L118.44,26.96 L117.8,28.12 L110.96,28.12 Z M120.88,0.76 L122.52,5.32 L116.44,5.32 L114.8,0.76 L120.88,0.76 Z M128.24,15.96 L138.92,15.96 L139.12,14.44 L128.44,14.44 L128.24,15.96 Z M128.84,11.76 L139.52,11.76 L139.72,10.28 L129.04,10.28 L128.84,11.76 Z M138.32,20.12 L138.52,18.64 L127.84,18.64 L127.64,20.12 L138.32,20.12 Z"/>
    <filter id="logo-l" width="173.4%" height="195%" x="-36.7%" y="-40.2%" filterUnits="objectBoundingBox">
      <feOffset dy="2" in="SourceAlpha" result="shadowOffsetOuter1"/>
      <feGaussianBlur in="shadowOffsetOuter1" result="shadowBlurOuter1" stdDeviation="4"/>
      <feColorMatrix in="shadowBlurOuter1" values="0 0 0 0 0   0 0 0 0 0   0 0 0 0 0  0 0 0 0.320104212 0"/>
    </filter>
    <linearGradient id="logo-q" x1="50%" x2="50%" y1="0%" y2="98.436%">
      <stop offset="0%" stop-color="#00E5F2"/>
      <stop offset="100%" stop-color="#43FFF0" stop-opacity=".249"/>
    </linearGradient>
    <path id="logo-p" d="M184,0.76 L183.48,4.64 L175.28,4.64 L174.4,6.56 L182.32,6.56 L180.32,20.84 L175.44,20.84 L174.64,19.92 L176,10.12 L167.4,10.12 L166.04,19.92 L165,20.84 L160.12,20.84 L162.12,6.56 L168.44,6.56 L169.32,4.64 L161.64,4.64 L162.16,0.76 L184,0.76 Z M149.88,21.56 L152.16,5.24 L149.96,5.24 L150.52,1.52 L161.24,1.52 L160.68,5.24 L158.56,5.24 L156.52,19.76 L159.48,18.96 L158.84,23.64 L146.96,26.84 L147.6,22.16 L149.88,21.56 Z M174.48,11.72 L173.36,19.72 L173.28,19.8 L179.72,28.72 L172.64,28.72 L169.92,23.56 L165.32,28.72 L158.48,28.72 L167.36,19.72 L168.48,11.72 L174.48,11.72 Z"/>
    <filter id="logo-o" width="170.2%" height="193%" x="-35.1%" y="-39.3%" filterUnits="objectBoundingBox">
      <feOffset dy="2" in="SourceAlpha" result="shadowOffsetOuter1"/>
      <feGaussianBlur in="shadowOffsetOuter1" result="shadowBlurOuter1" stdDeviation="4"/>
      <feColorMatrix in="shadowBlurOuter1" values="0 0 0 0 0   0 0 0 0 0   0 0 0 0 0  0 0 0 0.320104212 0"/>
    </filter>
    <linearGradient id="logo-t" x1="50%" x2="50%" y1="0%" y2="98.436%">
      <stop offset="0%" stop-color="#00E5F2"/>
      <stop offset="100%" stop-color="#43FFF0" stop-opacity=".249"/>
    </linearGradient>
    <path id="logo-s" d="M188.8,2.28 L187.48,0.76 L219.4,0.76 L215.56,28.12 L185.16,28.12 L188.8,2.28 Z M194.4,16.36 L209.6,16.36 L210.2,12.16 L195,12.16 L194.4,16.36 Z M208.48,24.32 L209.04,20.16 L193.84,20.16 L193.28,24.32 L208.48,24.32 Z M195.52,8.36 L210.72,8.36 L211.28,4.56 L196.08,4.56 L195.52,8.36 Z"/>
    <filter id="logo-r" width="175.9%" height="195%" x="-38%" y="-40.2%" filterUnits="objectBoundingBox">
      <feOffset dy="2" in="SourceAlpha" result="shadowOffsetOuter1"/>
      <feGaussianBlur in="shadowOffsetOuter1" result="shadowBlurOuter1" stdDeviation="4"/>
      <feColorMatrix in="shadowBlurOuter1" values="0 0 0 0 0   0 0 0 0 0   0 0 0 0 0  0 0 0 0.320104212 0"/>
    </filter>
    <linearGradient id="logo-w" x1="50%" x2="50%" y1="0%" y2="98.436%">
      <stop offset="0%" stop-color="#00E5F2"/>
      <stop offset="100%" stop-color="#43FFF0" stop-opacity=".249"/>
    </linearGradient>
    <path id="logo-v" d="M251.08,14.44 L250.24,20.52 L231.2,20.52 L231.04,21.64 L250.84,21.64 L249.8,28.8 L222.44,28.8 L224.48,14.44 L221.44,14.44 L222.28,8.36 L234.6,8.36 L234.44,7.28 L243.28,7.28 L243.44,8.36 L255.72,8.36 L254.88,14.44 L251.08,14.44 Z M248.44,1.52 L256.68,1.52 L256.28,4.56 L252.44,4.56 L253.68,6.84 L247.6,6.84 L246.48,4.84 L245.32,6.84 L238.48,6.84 L241.84,1.04 L240.96,0 L249.32,0 L248.44,1.52 Z M232.44,1.52 L239.96,1.52 L239.56,4.56 L236.44,4.56 L237.72,6.84 L231.64,6.84 L230.52,4.84 L229.36,6.84 L222.52,6.84 L225.88,1.04 L225,0 L233.36,0 L232.44,1.52 Z M229.2,13.28 L247.44,13.28 L247.6,12.16 L229.36,12.16 L229.2,13.28 Z M230.6,24.68 L230.44,25.84 L242.64,25.84 L242.8,24.68 L230.6,24.68 Z M231.8,16.32 L231.64,17.48 L243.04,17.48 L243.2,16.32 L231.8,16.32 Z"/>
    <filter id="logo-u" width="173.8%" height="190.3%" x="-36.9%" y="-38.2%" filterUnits="objectBoundingBox">
      <feOffset dy="2" in="SourceAlpha" result="shadowOffsetOuter1"/>
      <feGaussianBlur in="shadowOffsetOuter1" result="shadowBlurOuter1" stdDeviation="4"/>
      <feColorMatrix in="shadowBlurOuter1" values="0 0 0 0 0   0 0 0 0 0   0 0 0 0 0  0 0 0 0.320104212 0"/>
    </filter>
    <linearGradient id="logo-z" x1="50%" x2="50%" y1="0%" y2="98.436%">
      <stop offset="0%" stop-color="#00E5F2"/>
      <stop offset="100%" stop-color="#43FFF0" stop-opacity=".249"/>
    </linearGradient>
    <path id="logo-y" d="M262.92,5.16 L263.48,1.24 L262.48,0.08 L270.36,0.08 L269.64,5.16 L271.04,5.16 L270.52,8.72 L269.12,8.72 L268.52,13.04 L269.6,12.72 L269,16.88 L267.96,17.2 L266.72,26.12 C266.613333,26.8933333 266.26,27.5266667 265.66,28.02 C265.06,28.5133333 264.386667,28.76 263.64,28.76 L257.44,28.76 L260.12,25.16 L260.92,19.44 L258.68,20.12 L259.28,15.92 L261.52,15.24 L262.44,8.72 L260.32,8.72 L260.84,5.16 L262.92,5.16 Z M276.72,24.36 L277.48,18.84 L271.4,18.84 L271.92,15.24 L291.68,15.24 L291.16,18.84 L284.96,18.84 L284.2,24.36 L291.4,24.36 L290.88,28.08 L269.44,28.08 L269.96,24.36 L276.72,24.36 Z M287.56,5.8 L278.64,5.8 L278.24,8.6 L271.68,8.6 L272.52,2.84 L279.6,2.84 L279.8,1.56 L278.28,0.04 L287.56,0.04 L287.16,2.84 L294.36,2.84 L293.52,8.6 L287.16,8.6 L287.56,5.8 Z M271.16,14.48 L274.4,9.44 L281.28,9.44 L278.04,14.48 L271.16,14.48 Z M285.84,14.48 L283.96,9.44 L290.84,9.44 L292.72,14.48 L285.84,14.48 Z"/>
    <filter id="logo-x" width="170.4%" height="190.5%" x="-35.2%" y="-38.3%" filterUnits="objectBoundingBox">
      <feOffset dy="2" in="SourceAlpha" result="shadowOffsetOuter1"/>
      <feGaussianBlur in="shadowOffsetOuter1" result="shadowBlurOuter1" stdDeviation="4"/>
      <feColorMatrix in="shadowBlurOuter1" values="0 0 0 0 0   0 0 0 0 0   0 0 0 0 0  0 0 0 0.320104212 0"/>
    </filter>
    <linearGradient id="logo-C" x1="50%" x2="50%" y1="0%" y2="98.436%">
      <stop offset="0%" stop-color="#00E5F2"/>
      <stop offset="100%" stop-color="#43FFF0" stop-opacity=".249"/>
    </linearGradient>
    <path id="logo-B" d="M329.84,0.76 L329.32,4.56 L317.88,4.56 L316.52,14.44 L329.44,14.44 L328.92,18.24 L316,18.24 L314.52,28.8 L306.92,28.8 L308.4,18.24 L295.48,18.24 L296,14.44 L308.92,14.44 L310.28,4.56 L298.92,4.56 L299.44,0.76 L329.84,0.76 Z M320.76,6.08 L327.6,6.08 L325.12,12.92 L318.28,12.92 L320.76,6.08 Z M307.64,12.92 L300.8,12.92 L300.24,6.08 L307.08,6.08 L307.64,12.92 Z"/>
    <filter id="logo-A" width="175.7%" height="192.7%" x="-37.8%" y="-39.2%" filterUnits="objectBoundingBox">
      <feOffset dy="2" in="SourceAlpha" result="shadowOffsetOuter1"/>
      <feGaussianBlur in="shadowOffsetOuter1" result="shadowBlurOuter1" stdDeviation="4"/>
      <feColorMatrix in="shadowBlurOuter1" values="0 0 0 0 0   0 0 0 0 0   0 0 0 0 0  0 0 0 0.320104212 0"/>
    </filter>
    <linearGradient id="logo-F" x1="50%" x2="50%" y1="0%" y2="98.436%">
      <stop offset="0%" stop-color="#00E5F2"/>
      <stop offset="100%" stop-color="#43FFF0" stop-opacity=".249"/>
    </linearGradient>
    <path id="logo-E" d="M364.84,14.44 L362.92,28 L333.52,28 L335.44,14.44 L364.84,14.44 Z M362.6,1.56 L365.44,12.92 L358.96,12.92 L358.8,12.32 L335.64,12.32 L336.04,9.44 L341.8,0.96 L340.84,0.04 L350.72,0.04 L344.72,8.64 L357.88,8.64 L356.12,1.56 L362.6,1.56 Z M355.92,24.2 L356.76,18.2 L342.36,18.2 L341.52,24.2 L355.92,24.2 Z"/>
    <filter id="logo-D" width="181.5%" height="193%" x="-40.7%" y="-39.3%" filterUnits="objectBoundingBox">
      <feOffset dy="2" in="SourceAlpha" result="shadowOffsetOuter1"/>
      <feGaussianBlur in="shadowOffsetOuter1" result="shadowBlurOuter1" stdDeviation="4"/>
      <feColorMatrix in="shadowBlurOuter1" values="0 0 0 0 0   0 0 0 0 0   0 0 0 0 0  0 0 0 0.320104212 0"/>
    </filter>
    <linearGradient id="logo-G" x1="100%" x2="0%" y1="47.136%" y2="52.864%">
      <stop offset="0%" stop-color="#00D8DE" stop-opacity="0"/>
      <stop offset="100%" stop-color="#00B0BA"/>
    </linearGradient>
  </defs>
  <g fill="none" fill-rule="evenodd" transform="translate(0 1)">
    <path fill="url(#logo-b)" stroke="url(#logo-a)" stroke-width="3" d="M707,0 L669.0085,52.0140836 C664.30254,60.1290083 662.366878,62.6992882 659.907562,65.1694663 C657.448247,67.6396444 654.849437,69.3472779 651.890461,70.4373668 C648.931485,71.5274556 646.236339,72 638.592375,72 L275.407625,72 C267.763661,72 265.068515,71.5274556 262.109539,70.4373668 C259.150563,69.3472779 256.551753,67.6396444 254.092438,65.1694663 C251.633122,62.6992882 249.69746,60.1290083 244.9915,52.0140836 L207,0"/>
    <g fill-rule="nonzero" transform="translate(273.62 18.56)">
      <use fill="#000" filter="url(#logo-c)" xlink:href="#logo-d"/>
      <use fill="url(#logo-e)" xlink:href="#logo-d"/>
      <use fill="#000" filter="url(#logo-f)" xlink:href="#logo-g"/>
      <use fill="url(#logo-h)" xlink:href="#logo-g"/>
      <use fill="#000" filter="url(#logo-i)" xlink:href="#logo-j"/>
      <use fill="url(#logo-k)" xlink:href="#logo-j"/>
      <use fill="#000" filter="url(#logo-l)" xlink:href="#logo-m"/>
      <use fill="url(#logo-n)" xlink:href="#logo-m"/>
      <use fill="#000" filter="url(#logo-o)" xlink:href="#logo-p"/>
      <use fill="url(#logo-q)" xlink:href="#logo-p"/>
      <g>
        <use fill="#000" filter="url(#logo-r)" xlink:href="#logo-s"/>
        <use fill="url(#logo-t)" xlink:href="#logo-s"/>
      </g>
      <g>
        <use fill="#000" filter="url(#logo-u)" xlink:href="#logo-v"/>
        <use fill="url(#logo-w)" xlink:href="#logo-v"/>
      </g>
      <g>
        <use fill="#000" filter="url(#logo-x)" xlink:href="#logo-y"/>
        <use fill="url(#logo-z)" xlink:href="#logo-y"/>
      </g>
      <g>
        <use fill="#000" filter="url(#logo-A)" xlink:href="#logo-B"/>
        <use fill="url(#logo-C)" xlink:href="#logo-B"/>
      </g>
      <g>
        <use fill="#000" filter="url(#logo-D)" xlink:href="#logo-E"/>
        <use fill="url(#logo-F)" xlink:href="#logo-E"/>
      </g>
    </g>
    <path fill="url(#logo-G)" d="M739.495,3.99926254 L704.199,54.2072625 L680,59.9999995 L723.966858,3.99991806 L739.495,3.99926254 Z M763.694,3.99926254 L733.294,47.2432625 L714.123,51.8322625 L747.748,3.99926254 L763.694,3.99926254 Z M788.944,3.99926254 L763.652,39.9772625 L743.218,44.8682625 L771.948,3.99926254 L788.944,3.99926254 Z M815.394,3.99926254 L795.452,32.3652625 L773.576,37.6012625 L797.198,3.99926254 L815.394,3.99926254 Z M842.394,3.99926254 L827.914,24.5962625 L805.376,29.9902625 L823.647,3.99926254 L842.394,3.99926254 Z M870.394,3.99926254 L861.579,16.5382625 L837.838,22.2202625 L850.647,3.99926254 L870.394,3.99926254 Z M913.966858,3.99991806 L871.502,14.1632625 L878.647,3.99926254 L913.966858,3.99991806 Z" opacity=".316"/>
    <path fill="url(#logo-G)" d="M59.495,3.99926254 L24.199,54.2072625 L0,59.9999995 L43.9668579,3.99991806 L59.495,3.99926254 Z M83.694,3.99926254 L53.294,47.2432625 L34.123,51.8322625 L67.748,3.99926254 L83.694,3.99926254 Z M108.944,3.99926254 L83.652,39.9772625 L63.218,44.8682625 L91.948,3.99926254 L108.944,3.99926254 Z M135.394,3.99926254 L115.452,32.3652625 L93.576,37.6012625 L117.198,3.99926254 L135.394,3.99926254 Z M162.394,3.99926254 L147.914,24.5962625 L125.376,29.9902625 L143.647,3.99926254 L162.394,3.99926254 Z M190.394,3.99926254 L181.579,16.5382625 L157.838,22.2202625 L170.647,3.99926254 L190.394,3.99926254 Z M233.966858,3.99991806 L191.502,14.1632625 L198.647,3.99926254 L233.966858,3.99991806 Z" opacity=".316" transform="matrix(-1 0 0 1 233.967 0)"/>
  </g>
</svg>
