<?xml version="1.0" encoding="UTF-8"?>
<svg width="914px" height="75px" viewBox="0 0 914 75" version="1.1" xmlns="http://www.w3.org/2000/svg" xmlns:xlink="http://www.w3.org/1999/xlink">
    <title>编组 6</title>
    <defs>
        <linearGradient x1="50%" y1="0%" x2="50%" y2="98.1435069%" id="linearGradient-1">
            <stop stop-color="#0093CE" stop-opacity="0" offset="0%"></stop>
            <stop stop-color="#006FA0" stop-opacity="0.166408299" offset="100%"></stop>
        </linearGradient>
        <linearGradient x1="50%" y1="0%" x2="50%" y2="100%" id="linearGradient-2">
            <stop stop-color="#197F7E" stop-opacity="0.240299252" offset="0%"></stop>
            <stop stop-color="#00B0BA" stop-opacity="0.8" offset="100%"></stop>
        </linearGradient>
        <linearGradient x1="50%" y1="0%" x2="50%" y2="98.4364756%" id="linearGradient-3">
            <stop stop-color="#00E5F2" offset="0%"></stop>
            <stop stop-color="#43FFF0" stop-opacity="0.2488446" offset="100%"></stop>
        </linearGradient>
        <path d="M307.54,39.04 L306.42,34.48 L300.9,34.48 L301.1,35.32 L295.62,35.4 L295.82,34 L307.22,34 L308.62,24.12 L297.22,24.12 L297.34,23.2 L309.66,23.2 L310.06,20.48 L297.7,20.48 L297.98,18.6 L289.42,18.6 L290.34,20.08 L290.26,20.48 L278.14,20.48 L277.74,23.2 L289.9,23.2 L289.78,24.12 L278.42,24.12 L277.02,34 L288.42,34 L288.22,35.52 L276.22,35.72 L275.82,38.52 L301.78,38.12 L302.02,39.04 L307.54,39.04 Z M301.1,27.44 L296.74,27.44 L296.9,26.4 L301.26,26.4 L301.1,27.44 Z M289.3,27.44 L285.26,27.44 L285.42,26.4 L289.46,26.4 L289.3,27.44 Z M300.5,31.68 L296.14,31.68 L296.3,30.68 L300.62,30.68 L300.5,31.68 Z M288.74,31.68 L284.66,31.68 L284.78,30.68 L288.86,30.68 L288.74,31.68 Z M297.78,43.08 L297.74,38.92 L291.58,38.92 L291.58,43.08 L297.78,43.08 Z M299.1,46.68 L299.66,42.72 L297.98,43.84 L289.3,43.84 L289.94,39.32 L283.1,39.32 L282.06,46.68 L299.1,46.68 Z M307.02,46.64 L306.58,39.8 L300.38,39.8 L300.82,46.64 L307.02,46.64 Z M279.78,46.64 L282.26,39.8 L276.18,39.8 L273.7,46.64 L279.78,46.64 Z M318.38,47.32 L325.78,18.6 L317.74,18.6 L319.18,20 L311.98,47.32 L318.38,47.32 Z M342.22,47.32 L346.3,18.6 L339.1,18.6 L340.38,20.12 L336.54,47.32 L342.22,47.32 Z M332.1,45.92 L335.7,20.04 L328.34,20.04 L329.46,21.6 L326.06,45.92 L332.1,45.92 Z M326.38,36.36 L327.86,25.4 L324.54,25.4 L323.06,36.36 L326.38,36.36 Z M337.5,36.36 L338.58,25.4 L335.38,25.4 L334.22,36.36 L337.5,36.36 Z M314.3,36.4 L317.1,25.4 L313.98,25.4 L311.1,36.4 L314.3,36.4 Z M366.34,31.76 L370.82,28.28 L374.06,31.76 L382.74,31.76 L374.98,24.48 L375.78,18.6 L367.58,18.6 L368.82,20.08 L368.3,23.76 L358.78,31.76 L366.34,31.76 Z M358.66,26.16 L358.18,19.32 L351.74,19.32 L352.22,26.16 L358.66,26.16 Z M381.78,25.64 L383.74,19.4 L378.46,19.4 L376.7,25.64 L381.78,25.64 Z M366.02,25.64 L365.9,19.4 L360.86,19.4 L360.78,25.64 L366.02,25.64 Z M357.5,34.48 L357.02,27.64 L350.58,27.64 L351.06,34.48 L357.5,34.48 Z M364.06,47.28 L368.7,43.12 L371.9,47.28 L380.42,47.28 L373.14,39.2 L373.26,39.08 L374.18,32.76 L366.86,32.76 L366.1,38.12 L356.06,47.28 L364.06,47.28 Z M379.58,40 L381.82,33.2 L376.5,33.2 L374.46,40 L379.58,40 Z M363.9,40 L364.18,33.24 L359.1,33.24 L358.62,40 L363.9,40 Z M353.66,47.28 L357.38,36 L350.9,36 L347.22,47.28 L353.66,47.28 Z M402.14,47.36 C402.913333,47.36 403.613333,47.1066667 404.24,46.6 C404.866667,46.0933333 405.233333,45.4666667 405.34,44.72 L405.34,44.72 L409.02,18.56 L399.9,18.56 L401.18,20.08 L397.9,43.64 L394.26,47.36 L402.14,47.36 Z M418.94,45.16 L416.86,27.68 L419.86,22.36 L412.26,22.36 L409.26,27.68 L411.34,45.16 L418.94,45.16 Z M392.34,45.16 L399.9,23.88 L388.1,23.88 L387.58,27.68 L390.98,27.68 L384.74,45.16 L392.34,45.16 Z M438.62,39.4 L439.66,38.48 L441.02,28.68 L449.62,28.68 L448.26,38.48 L449.06,39.4 L453.94,39.4 L455.94,25.12 L448.02,25.12 L448.9,23.2 L457.1,23.2 L457.62,19.32 L435.78,19.32 L435.26,23.2 L442.94,23.2 L442.06,25.12 L435.74,25.12 L433.74,39.4 L438.62,39.4 Z M420.58,45.4 L432.46,42.2 L433.1,37.52 L430.14,38.32 L432.18,23.8 L434.3,23.8 L434.86,20.08 L424.14,20.08 L423.58,23.8 L425.78,23.8 L423.5,40.12 L421.22,40.72 L420.58,45.4 Z M438.94,47.28 L443.54,42.12 L446.26,47.28 L453.34,47.28 L446.9,38.36 L446.98,38.28 L448.1,30.28 L442.1,30.28 L440.98,38.28 L432.1,47.28 L438.94,47.28 Z M489.18,46.68 L493.02,19.32 L461.1,19.32 L462.42,20.84 L458.78,46.68 L489.18,46.68 Z M484.34,26.92 L469.14,26.92 L469.7,23.12 L484.9,23.12 L484.34,26.92 Z M483.22,34.92 L468.02,34.92 L468.62,30.72 L483.82,30.72 L483.22,34.92 Z M482.1,42.88 L466.9,42.88 L467.46,38.72 L482.66,38.72 L482.1,42.88 Z M518.94,25.4 L520.1,23.4 L521.22,25.4 L527.3,25.4 L526.06,23.12 L529.9,23.12 L530.3,20.08 L522.06,20.08 L522.94,18.56 L514.58,18.56 L515.46,19.6 L512.1,25.4 L518.94,25.4 Z M502.98,25.4 L504.14,23.4 L505.26,25.4 L511.34,25.4 L510.06,23.12 L513.18,23.12 L513.58,20.08 L506.06,20.08 L506.98,18.56 L498.62,18.56 L499.5,19.6 L496.14,25.4 L502.98,25.4 Z M523.42,47.36 L524.46,40.2 L504.66,40.2 L504.82,39.08 L523.86,39.08 L524.7,33 L528.5,33 L529.34,26.92 L517.06,26.92 L516.9,25.84 L508.06,25.84 L508.22,26.92 L495.9,26.92 L495.06,33 L498.1,33 L496.06,47.36 L523.42,47.36 Z M521.06,31.84 L502.82,31.84 L502.98,30.72 L521.22,30.72 L521.06,31.84 Z M516.66,36.04 L505.26,36.04 L505.42,34.88 L516.82,34.88 L516.66,36.04 Z M516.26,44.4 L504.06,44.4 L504.22,43.24 L516.42,43.24 L516.26,44.4 Z M551.86,27.16 L552.26,24.36 L561.18,24.36 L560.78,27.16 L567.14,27.16 L567.98,21.4 L560.78,21.4 L561.18,18.6 L551.9,18.6 L553.42,20.12 L553.22,21.4 L546.14,21.4 L545.3,27.16 L551.86,27.16 Z M537.26,47.32 C538.006667,47.32 538.68,47.0733333 539.28,46.58 C539.88,46.0866667 540.233333,45.4533333 540.34,44.68 L540.34,44.68 L541.58,35.76 L542.62,35.44 L543.22,31.28 L542.14,31.6 L542.74,27.28 L544.14,27.28 L544.66,23.72 L543.26,23.72 L543.98,18.64 L536.1,18.64 L537.1,19.8 L536.54,23.72 L534.46,23.72 L533.94,27.28 L536.06,27.28 L535.14,33.8 L532.9,34.48 L532.3,38.68 L534.54,38 L533.74,43.72 L531.06,47.32 L537.26,47.32 Z M551.66,33.04 L554.9,28 L548.02,28 L544.78,33.04 L551.66,33.04 Z M566.34,33.04 L564.46,28 L557.58,28 L559.46,33.04 L566.34,33.04 Z M564.5,46.64 L565.02,42.92 L557.82,42.92 L558.58,37.4 L564.78,37.4 L565.3,33.8 L545.54,33.8 L545.02,37.4 L551.1,37.4 L550.34,42.92 L543.58,42.92 L543.06,46.64 L564.5,46.64 Z M587.74,47.36 L589.18,37.16 L601.34,37.16 L603.18,24.28 L590.98,24.28 L591.82,18.56 L582.7,18.56 L583.98,20.08 L583.38,24.28 L571.26,24.28 L569.42,37.16 L581.58,37.16 L580.14,47.36 L587.74,47.36 Z M594.3,33.36 L589.7,33.36 L590.46,28.08 L595.02,28.08 L594.3,33.36 Z M582.1,33.36 L577.58,33.36 L578.3,28.08 L582.86,28.08 L582.1,33.36 Z M632.14,27.88 L631.74,18.64 L625.66,18.64 L626.06,27.88 L632.14,27.88 Z M631.38,46.48 L632.3,40.08 L630.5,41.92 L621.38,41.92 L624.38,20.56 L616.06,20.56 L617.38,22.04 L613.94,46.48 L631.38,46.48 Z M639.34,43.92 L640.18,25.72 L634.02,25.72 L633.18,43.92 L639.34,43.92 Z M612.06,41.72 L615.42,26.68 L609.34,26.68 L605.98,41.72 L612.06,41.72 Z" id="path-4"></path>
        <filter x="-3.5%" y="-38.2%" width="107.1%" height="190.3%" filterUnits="objectBoundingBox" id="filter-5">
            <feOffset dx="0" dy="2" in="SourceAlpha" result="shadowOffsetOuter1"></feOffset>
            <feGaussianBlur stdDeviation="4" in="shadowOffsetOuter1" result="shadowBlurOuter1"></feGaussianBlur>
            <feColorMatrix values="0 0 0 0 0   0 0 0 0 0   0 0 0 0 0  0 0 0 0.320104212 0" type="matrix" in="shadowBlurOuter1"></feColorMatrix>
        </filter>
        <linearGradient x1="100%" y1="47.1355001%" x2="0%" y2="52.8644999%" id="linearGradient-6">
            <stop stop-color="#00D8DE" stop-opacity="0" offset="0%"></stop>
            <stop stop-color="#00B0BA" offset="100%"></stop>
        </linearGradient>
    </defs>
    <g id="页面-1" stroke="none" stroke-width="1" fill="none" fill-rule="evenodd">
        <g id="编组-6" transform="translate(0.000000, 1.000000)">
            <path d="M707,0 L669.0085,52.0140836 C664.30254,60.1290083 662.366878,62.6992882 659.907562,65.1694663 C657.448247,67.6396444 654.849437,69.3472779 651.890461,70.4373668 C648.931485,71.5274556 646.236339,72 638.592375,72 L275.407625,72 C267.763661,72 265.068515,71.5274556 262.109539,70.4373668 C259.150563,69.3472779 256.551753,67.6396444 254.092438,65.1694663 C251.633122,62.6992882 249.69746,60.1290083 244.9915,52.0140836 L207,0" id="路径" stroke="url(#linearGradient-2)" stroke-width="3" fill="url(#linearGradient-1)"></path>
            <g id="惠州淡水项目管控中心" fill-rule="nonzero">
                <use fill="black" fill-opacity="1" filter="url(#filter-5)" xlink:href="#path-4"></use>
                <use fill="url(#linearGradient-3)" xlink:href="#path-4"></use>
            </g>
            <path d="M739.495,3.99926254 L704.199,54.2072625 L680,59.9999995 L723.966858,3.99991806 L739.495,3.99926254 Z M763.694,3.99926254 L733.294,47.2432625 L714.123,51.8322625 L747.748,3.99926254 L763.694,3.99926254 Z M788.944,3.99926254 L763.652,39.9772625 L743.218,44.8682625 L771.948,3.99926254 L788.944,3.99926254 Z M815.394,3.99926254 L795.452,32.3652625 L773.576,37.6012625 L797.198,3.99926254 L815.394,3.99926254 Z M842.394,3.99926254 L827.914,24.5962625 L805.376,29.9902625 L823.647,3.99926254 L842.394,3.99926254 Z M870.394,3.99926254 L861.579,16.5382625 L837.838,22.2202625 L850.647,3.99926254 L870.394,3.99926254 Z M913.966858,3.99991806 L871.502,14.1632625 L878.647,3.99926254 L913.966858,3.99991806 Z" id="形状结合" fill="url(#linearGradient-6)" opacity="0.316341"></path>
            <path d="M59.495,3.99926254 L24.199,54.2072625 L0,59.9999995 L43.9668579,3.99991806 L59.495,3.99926254 Z M83.694,3.99926254 L53.294,47.2432625 L34.123,51.8322625 L67.748,3.99926254 L83.694,3.99926254 Z M108.944,3.99926254 L83.652,39.9772625 L63.218,44.8682625 L91.948,3.99926254 L108.944,3.99926254 Z M135.394,3.99926254 L115.452,32.3652625 L93.576,37.6012625 L117.198,3.99926254 L135.394,3.99926254 Z M162.394,3.99926254 L147.914,24.5962625 L125.376,29.9902625 L143.647,3.99926254 L162.394,3.99926254 Z M190.394,3.99926254 L181.579,16.5382625 L157.838,22.2202625 L170.647,3.99926254 L190.394,3.99926254 Z M233.966858,3.99991806 L191.502,14.1632625 L198.647,3.99926254 L233.966858,3.99991806 Z" id="形状结合备份" fill="url(#linearGradient-6)" opacity="0.316341" transform="translate(116.983429, 31.999631) scale(-1, 1) translate(-116.983429, -31.999631) "></path>
        </g>
    </g>
</svg>