<svg width="226" height="226" xmlns="http://www.w3.org/2000/svg"><path d="M113 0c62.408 0 113 50.592 113 113s-50.592 113-113 113S0 175.408 0 113 50.592 0 113 0ZM20.005 114 2.008 114l.007.837c.977 60.29 50.023 108.896 110.484 109.163l.001-18.004-1.038-.007c-50.32-.816-90.926-41.598-91.457-91.987Zm203.99 0L205.993 114l-.004.539c-.819 50.487-41.868 91.194-92.487 91.46l-.001 17.998 1.336-.01C174.96 223.01 223.464 174.23 223.996 114Zm-183.988 0-18.999-.001.004.522c.81 49.943 41.415 90.211 91.488 90.478v-19.003l-.707-.006c-39.428-.639-71.257-32.536-71.786-71.99Zm164.988 0L185.992 114l-.002.208c-.642 39.594-32.806 71.525-72.49 71.791v18.997l1.021-.007c49.776-.807 89.943-41.145 90.474-90.988Zm-144.986 0-19.001-.001.002.192c.633 39.049 32.352 70.54 71.49 70.807v-19.003l-.376-.002C83.589 165.53 60.537 142.518 60.009 114Zm124.984 0h-19.002c-.53 28.643-23.783 51.732-52.49 51.998l-.001 18.998.69-.006c38.883-.63 70.274-32.083 70.803-70.99Zm-104.978 0H61.009c.53 28.091 23.336 50.732 51.49 50.998l.001-19.003h-.046c-17.64-.285-31.916-14.413-32.44-31.995Zm84.976 0h-19.006c-.523 17.597-14.823 31.734-32.484 31.996l-.001 19 .36-.003c27.99-.454 50.603-23.022 51.13-50.993Zm-63.95 0H81.015c.523 17.045 14.376 30.734 31.486 30.996V124.99c-6.063-.249-10.966-4.995-11.46-10.99Zm43.944 0h-20.026c-.494 5.995-5.396 10.741-11.458 10.99l-.001 20.005h.03c17.095-.276 30.932-13.96 31.455-30.996Zm-32.485-.001h-10.455c.49 5.444 4.945 9.743 10.455 9.99v-9.99Zm11.455 0H113.5l.001 9.99c5.51-.247 9.964-4.547 10.454-9.99ZM112.5 2.005 113 2C51.697 2 2 51.696 2 112.999L20 113c0-51.196 41.367-92.73 92.5-92.999V2.004Zm1-.003v18.002l1.038.01C165.19 20.832 206 62.15 206 113l18-.001-.015-1.835c-.977-60.29-50.023-108.896-110.484-109.163Zm-1 19.002L113 21c-50.81 0-92 41.19-92 92h19c0-40.15 32.413-72.73 72.5-72.998V21.003Zm1-.002v19.002l.707.007C153.967 40.654 186 73.086 186 113h19c0-50.643-40.92-91.73-91.5-91.999Zm-1 20.002L113 41c-39.765 0-72 32.235-72 72l19-.001.007-.875c.465-28.701 23.744-51.856 52.493-52.122V41.003Zm1-.001v19.002l.376.003C142.743 60.475 166 84.021 166 113l19 .001c0-39.597-31.965-71.729-71.5-71.998Zm-1 20.001L113 61c-28.718 0-52 23.28-52 51.999h19l.004-.545c.29-17.807 14.683-32.186 32.496-32.45V61.003Zm1 0v19.001h.046C131.519 80.296 145.999 94.956 146 113h19l-.007-.859c-.456-28.156-23.29-50.871-51.492-51.138Zm-1 20.001L113 81c-17.673 0-32 14.326-32 31.999l20 .001c0-6.46 5.105-11.728 11.5-11.99V81.004Zm1 0v20.006c6.396.263 11.5 5.53 11.5 11.99l20-.001-.004-.528c-.28-17.263-14.23-31.203-31.496-31.467ZM102 113l10.5-.001v-10.988c-5.843.262-10.5 5.081-10.5 10.989Zm11.501-10.989L113.5 113 124 113c0-5.907-4.656-10.727-10.499-10.989Z" fill="#00B0BA" fill-rule="nonzero"/></svg>