<?xml version="1.0" encoding="UTF-8"?>
<svg width="800px" height="64px" viewBox="0 0 800 64" version="1.1" xmlns="http://www.w3.org/2000/svg" xmlns:xlink="http://www.w3.org/1999/xlink">
    <title>wave2</title>
    <defs>
        <linearGradient x1="50%" y1="1.33304196%" x2="50%" y2="100%" id="linearGradient-1">
            <stop stop-color="#30B3FF" stop-opacity="0.316121775" offset="0%"></stop>
            <stop stop-color="#0088FF" stop-opacity="0.5" offset="100%"></stop>
        </linearGradient>
    </defs>
    <g id="页面-1" stroke="none" stroke-width="1" fill="none" fill-rule="evenodd">
        <g id="wave2" transform="translate(0.000000, 0.000031)" fill="url(#linearGradient-1)">
            <path d="M533.333333,19.555642 C533.333333,24.2425016 533.333333,32.0000622 533.333333,32.0000622 L266.666667,32.0000622 L266.666667,19.555642 C314.833333,19.555642 331.5,6.22021525e-05 398.166667,6.22021525e-05 C465.017,-0.0402793648 481.5,19.555642 533.333333,19.555642 Z M800,19.555642 C800,24.2425016 800,32.0000622 800,32.0000622 L533.333333,32.0000622 L533.333333,19.555642 C581.5,19.555642 598.166667,6.22021525e-05 664.833333,6.22021525e-05 C731.683667,-0.0402793648 748.166667,19.555642 800,19.555642 Z M266.666667,19.555642 C266.666667,24.2425016 266.666667,32.0000622 266.666667,32.0000622 L0,32.0000622 L0,19.555642 C48.1666667,19.555642 64.8333333,6.22021525e-05 131.5,6.22021525e-05 C198.350333,-0.0402793648 214.833333,19.555642 266.666667,19.555642 Z M0,32.0000622 L800,32.0000622 L800,64.0000622 L0,64.0000622 L0,32.0000622 Z" id="形状"></path>
        </g>
    </g>
</svg>