<?xml version="1.0" encoding="UTF-8"?>
<svg width="800px" height="48px" viewBox="0 0 800 48" version="1.1" xmlns="http://www.w3.org/2000/svg" xmlns:xlink="http://www.w3.org/1999/xlink">
    <title>wave3</title>
    <defs>
        <linearGradient x1="50%" y1="0%" x2="50%" y2="100%" id="linearGradient-1">
            <stop stop-color="#0065AD" stop-opacity="0.4" offset="0%"></stop>
            <stop stop-color="#003A91" stop-opacity="0.595445326" offset="100%"></stop>
        </linearGradient>
    </defs>
    <g id="页面-1" stroke="none" stroke-width="1" fill="none" fill-rule="evenodd">
        <g id="wave3" transform="translate(0.000000, 0.000047)" fill="url(#linearGradient-1)">
            <path d="M0,14.6667316 C36.125,14.6667316 48.625,4.66516144e-05 98.625,4.66516144e-05 C125.699385,-0.016291683 141.758434,4.2618207 156.925233,8.20114129 L158.607275,8.63721397 L158.607275,8.63721397 L160.285059,9.06908589 C172.021849,12.0741911 183.6725,14.6667316 200,14.6667316 C236.125,14.6667316 248.625,4.66516144e-05 298.625,4.66516144e-05 C325.699385,-0.016291683 341.758434,4.2618207 356.925233,8.20114129 L358.607275,8.63721397 L358.607275,8.63721397 L360.285059,9.06908589 C372.021849,12.0741911 383.6725,14.6667316 400,14.6667316 C436.125,14.6667316 448.625,4.66516144e-05 498.625,4.66516144e-05 C525.699385,-0.016291683 541.758434,4.2618207 556.925233,8.20114129 L558.607275,8.63721397 L558.607275,8.63721397 L560.285059,9.06908589 C572.021849,12.0741911 583.6725,14.6667316 600,14.6667316 C636.125,14.6667316 648.625,4.66516144e-05 698.625,4.66516144e-05 C725.699385,-0.016291683 741.758434,4.2618207 756.925233,8.20114129 L758.607275,8.63721397 L758.607275,8.63721397 L760.285059,9.06908589 C772.021849,12.0741911 783.6725,14.6667316 800,14.6667316 L800,33.3333618 C782.895,33.3333618 770.922868,36.1786895 758.607275,39.3628793 L756.925233,39.798952 C741.758434,43.7382726 725.699385,48.016385 698.625,48.0000466 C648.625,48.0000466 636.125,33.3333618 600,33.3333618 L600,33.3333618 L598.84164,33.3377414 C582.350635,33.4628699 570.642969,36.2510575 558.607275,39.3628793 L556.925233,39.798952 C541.758434,43.7382726 525.699385,48.016385 498.625,48.0000466 C448.625,48.0000466 436.125,33.3333618 400,33.3333618 L400,33.3333618 L398.84164,33.3377414 C382.350635,33.4628699 370.642969,36.2510575 358.607275,39.3628793 L356.925233,39.798952 C341.758434,43.7382726 325.699385,48.016385 298.625,48.0000466 C248.625,48.0000466 236.125,33.3333618 200,33.3333618 L200,33.3333618 L198.84164,33.3377414 C182.350635,33.4628699 170.642969,36.2510575 158.607275,39.3628793 L156.925233,39.798952 C141.758434,43.7382726 125.699385,48.016385 98.625,48.0000466 C48.625,48.0000466 36.125,33.3333618 -3.26577569e-16,33.3333618 L-3.26577569e-16,33.3333618 L0,14.6667316 Z" id="形状结合"></path>
        </g>
    </g>
</svg>