<svg xmlns="http://www.w3.org/2000/svg" xmlns:xlink="http://www.w3.org/1999/xlink" width="914" height="75" viewBox="0 0 914 75">
  <defs>
    <linearGradient id="编组-6-b" x1="50%" x2="50%" y1="0%" y2="98.144%">
      <stop offset="0%" stop-color="#0093CE" stop-opacity="0"/>
      <stop offset="100%" stop-color="#006FA0" stop-opacity=".166"/>
    </linearGradient>
    <linearGradient id="编组-6-a" x1="50%" x2="50%" y1="0%" y2="100%">
      <stop offset="0%" stop-color="#197F7E" stop-opacity=".24"/>
      <stop offset="100%" stop-color="#00B0BA" stop-opacity=".8"/>
    </linearGradient>
    <linearGradient id="编组-6-e" x1="50%" x2="50%" y1="0%" y2="98.436%">
      <stop offset="0%" stop-color="#00E5F2"/>
      <stop offset="100%" stop-color="#43FFF0" stop-opacity=".249"/>
    </linearGradient>
    <path id="编组-6-d" d="M16.08,5.56 L16.2,4.64 L4.04,4.64 L4.44,1.92 L16.56,1.92 L16.64,1.52 L15.72,0.04 L24.28,0.04 L24,1.92 L36.36,1.92 L35.96,4.64 L23.64,4.64 L23.52,5.56 L34.92,5.56 L33.52,15.44 L22.12,15.44 L21.92,16.84 L27.4,16.76 L27.2,15.92 L32.72,15.92 L33.84,20.48 L28.32,20.48 L28.08,19.56 L2.12,19.96 L2.52,17.16 L14.52,16.96 L14.72,15.44 L3.32,15.44 L4.72,5.56 L16.08,5.56 Z M8.36,28.12 L9.4,20.76 L16.24,20.76 L15.6,25.28 L24.28,25.28 L25.96,24.16 L25.4,28.12 L8.36,28.12 Z M26.68,21.24 L32.88,21.24 L33.32,28.08 L27.12,28.08 L26.68,21.24 Z M6.08,28.08 L0,28.08 L2.48,21.24 L8.56,21.24 L6.08,28.08 Z M17.88,20.36 L24.04,20.36 L24.08,24.52 L17.88,24.52 L17.88,20.36 Z M23.2,7.84 L23.04,8.88 L27.4,8.88 L27.56,7.84 L23.2,7.84 Z M26.8,13.12 L26.92,12.12 L22.6,12.12 L22.44,13.12 L26.8,13.12 Z M11.56,8.88 L15.6,8.88 L15.76,7.84 L11.72,7.84 L11.56,8.88 Z M15.04,13.12 L15.16,12.12 L11.08,12.12 L10.96,13.12 L15.04,13.12 Z M55.36,2.08 L54.24,0.88 L72.84,0.88 L69,28 L51.68,28 L55.36,2.08 Z M46.12,4.36 L42.68,28.72 L37.12,28.72 L41.04,0.76 L53.56,0.76 L53.08,4.16 L51.4,10.64 L52.92,10.64 L52.44,14.08 L50.24,24.32 L44.16,24.32 L44.64,20.92 L45.84,20.92 L47.28,14.08 L45.8,14.08 L46.28,10.64 L47.96,4.36 L46.12,4.36 Z M63.52,24 L64.64,16.04 L59.48,16.04 L58.36,24 L63.52,24 Z M60.04,12.04 L65.2,12.04 L66.2,4.88 L61.04,4.88 L60.04,12.04 Z M75.56,28.08 L79.16,2.44 L77.56,0.72 L108.04,0.72 L107.52,4.36 L85.76,4.36 L82.96,24.4 L105.92,24.4 L105.4,28.08 L75.56,28.08 Z M96,9.76 L99.56,6.04 L106.16,6.04 L98.96,13.52 L98.84,13.56 L104.84,22.76 L98.24,22.76 L95.2,17.6 L91.6,22.76 L84.96,22.76 L92.2,13.84 L92.04,13.76 L87.24,5.92 L93.84,5.92 L96,9.76 Z M125.72,7.96 L125.88,6.84 L113.76,6.84 L114.28,3.04 L120.32,3.04 L119.8,1.52 L118.52,0 L126.88,0 L127.88,3.04 L132.52,3.04 L133.8,1 L132.96,0 L142.08,0 L140.12,3.04 L146.2,3.04 L145.68,6.84 L133.48,6.84 L133.32,7.96 L144.76,7.96 L144.32,11 L132.88,11 L132.72,12.16 L145.28,12.16 L144.76,15.96 L140.48,15.96 L144.44,20.88 L139.12,20.88 L138,28.8 L130.4,28.8 L131.92,18.24 L133.96,18.24 L132.12,15.96 L124.56,15.96 L122.16,18.24 L124.32,18.24 L121.28,28.8 L113.68,28.8 L115.96,20.88 L111,20.88 L116.2,15.96 L112.12,15.96 L112.64,12.16 L125.12,12.16 L125.28,11 L113.92,11 L114.36,7.96 L125.72,7.96 Z M161.96,9.88 L162.52,6.08 L151.88,6.08 L152.4,2.28 L163.04,2.28 L163.16,1.52 L161.84,0 L170.96,0 L170.64,2.28 L174.52,2.28 L174.96,1.52 L182.56,1.52 L177.8,9.88 L181.76,9.88 L181.2,13.68 L161.08,13.68 L160.04,15.2 L163.52,15.2 L163.2,17.48 L179.72,15.96 L179.08,20.52 L162.56,22.04 L162.36,23.56 L177.92,23.56 L179.64,22.04 L178.8,28.12 L154.12,28.12 L155.08,21.28 L148.24,21.28 L153.48,13.68 L149.28,13.68 L149.84,9.88 L161.96,9.88 Z M170.2,9.88 L172.36,6.08 L170.12,6.08 L169.56,9.88 L170.2,9.88 Z M201.36,23.32 L196.24,18.96 L196.52,17.04 L203,17.04 L206.4,20.04 L210.44,17.4 L210.6,16.24 L196.64,16.24 L197.16,12.52 L217.4,12.52 L216.4,19.76 L210.36,23.48 L216.52,28.8 L207.8,28.8 L205.24,26.64 L201.68,28.8 L193,28.8 L201.36,23.32 Z M210.04,11.48 L211,4.52 L205.52,4.52 L204.04,11.48 L197.4,11.48 L199.36,2.2 L198.12,0.76 L217.76,0.76 L216.84,7.48 L217.56,7.48 L218.88,5.96 L218.12,11.48 L210.04,11.48 Z M185.52,28.08 L187.88,11.4 L185.52,11.4 L186.04,7.6 L195.08,7.6 L193,22.56 L195.96,21.76 L195.4,25.72 L185.52,28.08 Z M194.2,0.76 L195.36,6.08 L189.24,6.08 L188.08,0.76 L194.2,0.76 Z M243.8,15.4 L242.48,15.76 L241.32,24.2 L253.2,24.2 L254.64,22.68 L253.88,28.08 L235.84,28.08 L237.36,17.16 L236.4,17.44 L236.96,13.64 L237.92,13.4 L238.44,9.64 L238.6,8.48 L243.52,8.48 L243.04,11.96 L244.32,11.6 L244.68,9.16 L244.92,7.64 L249.96,7.64 L249.6,10.12 L255.96,8.32 L255.76,9.8 L254.32,20.08 C254.213333,20.8533333 253.9,21.5066667 253.38,22.04 C252.86,22.5733333 252.293333,22.84 251.68,22.84 L248.4,22.84 L249.52,21.68 L250.68,13.48 L249.04,13.92 L247.8,22.8 L242.76,22.8 L243.8,15.4 Z M229.36,25.8 L230.96,14.28 L229.2,14.28 L225.64,28.72 L220.56,28.72 L225.92,7.32 L223.52,7.32 L224.04,3.68 L228.32,3.68 L228.64,1.56 L227.12,0.04 L234.72,0.04 L234.2,3.68 L237.36,3.68 L236.84,7.32 L230.96,7.32 L230.12,10.56 L236.64,10.56 L234.48,26.08 C234.373333,26.8533333 233.986667,27.4866667 233.32,27.98 C232.653333,28.4733333 231.893333,28.72 231.04,28.72 L226.96,28.72 L229.36,25.8 Z M245.92,0.12 L245.04,2.36 L257.48,2.36 L256.96,6.16 L243.52,6.16 L243,7.52 L237.4,7.52 L240.04,1.2 L239.28,0.12 L245.92,0.12 Z M292.92,0.76 L289.08,28.12 L258.68,28.12 L262.32,2.24 L261.04,0.76 L292.92,0.76 Z M283.52,24.32 L286.32,4.56 L268.08,4.56 L265.28,24.32 L283.52,24.32 Z M277.2,15.2 L275.8,14.32 L274.16,15.2 L267.68,15.2 L268.08,12.56 L271.56,12.56 L272.36,12.16 L270,10.64 L267.96,10.64 L269.88,5.32 L274.44,5.32 L274.24,5.88 L284.6,5.88 L284.04,9.88 L279.88,12.12 L280.6,12.56 L284.08,12.56 L283.68,15.2 L277.2,15.2 Z M282.12,23.56 L267.04,22.8 L267.44,19.76 L282.56,20.52 L282.12,23.56 Z M281.44,19.76 L268.76,19 L269.2,15.96 L281.88,16.72 L281.44,19.76 Z M274.24,8.56 L276.44,9.96 L278.96,8.56 L274.24,8.56 Z M304.48,28.8 L308.04,25.08 L309.84,12.16 L297.68,12.16 L298.24,8.36 L330.16,8.36 L329.6,12.16 L317.44,12.16 L315.48,26.16 C315.373333,26.9333333 315.026667,27.5666667 314.44,28.06 C313.853333,28.5533333 313.173333,28.8 312.4,28.8 L304.48,28.8 Z M328.92,0.76 L328.4,4.56 L301.04,4.56 L301.56,0.76 L328.92,0.76 Z M327.28,15.2 L328.44,25.84 L321.6,25.84 L320.08,15.2 L327.28,15.2 Z M306.4,15.2 L301.84,25.84 L295,25.84 L299.56,15.2 L306.4,15.2 Z"/>
    <filter id="编组-6-c" width="107.9%" height="190.3%" x="-3.9%" y="-38.2%" filterUnits="objectBoundingBox">
      <feOffset dy="2" in="SourceAlpha" result="shadowOffsetOuter1"/>
      <feGaussianBlur in="shadowOffsetOuter1" result="shadowBlurOuter1" stdDeviation="4"/>
      <feColorMatrix in="shadowBlurOuter1" values="0 0 0 0 0   0 0 0 0 0   0 0 0 0 0  0 0 0 0.320104212 0"/>
    </filter>
    <linearGradient id="编组-6-f" x1="100%" x2="0%" y1="47.136%" y2="52.864%">
      <stop offset="0%" stop-color="#00D8DE" stop-opacity="0"/>
      <stop offset="100%" stop-color="#00B0BA"/>
    </linearGradient>
  </defs>
  <g fill="none" fill-rule="evenodd" transform="translate(0 1)">
    <path fill="url(#编组-6-b)" stroke="url(#编组-6-a)" stroke-width="3" d="M707,0 L669.0085,52.0140836 C664.30254,60.1290083 662.366878,62.6992882 659.907562,65.1694663 C657.448247,67.6396444 654.849437,69.3472779 651.890461,70.4373668 C648.931485,71.5274556 646.236339,72 638.592375,72 L275.407625,72 C267.763661,72 265.068515,71.5274556 262.109539,70.4373668 C259.150563,69.3472779 256.551753,67.6396444 254.092438,65.1694663 C251.633122,62.6992882 249.69746,60.1290083 244.9915,52.0140836 L207,0"/>
    <g fill-rule="nonzero" transform="translate(292.1 18.56)">
      <use fill="#000" filter="url(#编组-6-c)" xlink:href="#编组-6-d"/>
      <use fill="url(#编组-6-e)" xlink:href="#编组-6-d"/>
    </g>
    <path fill="url(#编组-6-f)" d="M739.495,3.99926254 L704.199,54.2072625 L680,59.9999995 L723.966858,3.99991806 L739.495,3.99926254 Z M763.694,3.99926254 L733.294,47.2432625 L714.123,51.8322625 L747.748,3.99926254 L763.694,3.99926254 Z M788.944,3.99926254 L763.652,39.9772625 L743.218,44.8682625 L771.948,3.99926254 L788.944,3.99926254 Z M815.394,3.99926254 L795.452,32.3652625 L773.576,37.6012625 L797.198,3.99926254 L815.394,3.99926254 Z M842.394,3.99926254 L827.914,24.5962625 L805.376,29.9902625 L823.647,3.99926254 L842.394,3.99926254 Z M870.394,3.99926254 L861.579,16.5382625 L837.838,22.2202625 L850.647,3.99926254 L870.394,3.99926254 Z M913.966858,3.99991806 L871.502,14.1632625 L878.647,3.99926254 L913.966858,3.99991806 Z" opacity=".316"/>
    <path fill="url(#编组-6-f)" d="M59.495,3.99926254 L24.199,54.2072625 L0,59.9999995 L43.9668579,3.99991806 L59.495,3.99926254 Z M83.694,3.99926254 L53.294,47.2432625 L34.123,51.8322625 L67.748,3.99926254 L83.694,3.99926254 Z M108.944,3.99926254 L83.652,39.9772625 L63.218,44.8682625 L91.948,3.99926254 L108.944,3.99926254 Z M135.394,3.99926254 L115.452,32.3652625 L93.576,37.6012625 L117.198,3.99926254 L135.394,3.99926254 Z M162.394,3.99926254 L147.914,24.5962625 L125.376,29.9902625 L143.647,3.99926254 L162.394,3.99926254 Z M190.394,3.99926254 L181.579,16.5382625 L157.838,22.2202625 L170.647,3.99926254 L190.394,3.99926254 Z M233.966858,3.99991806 L191.502,14.1632625 L198.647,3.99926254 L233.966858,3.99991806 Z" opacity=".316" transform="matrix(-1 0 0 1 233.967 0)"/>
  </g>
</svg>
