<svg width="200" height="35" viewBox="0 0 200 35" fill="none" xmlns="http://www.w3.org/2000/svg">
<path fill-rule="evenodd" clip-rule="evenodd" d="M140.11 9.96036C141.015 12.555 141.178 15.2684 141.207 17.9965C141.207 18.5413 140.931 18.5127 140.652 18.4839C140.589 18.4774 140.526 18.4709 140.466 18.4709C136.789 18.4783 133.108 18.4783 129.427 18.4783C125.747 18.4783 122.066 18.4783 118.389 18.4858C118.233 18.4858 118.102 18.4794 117.992 18.474C117.432 18.4466 117.418 18.4459 117.455 19.4495C117.692 24.5796 119.546 28.7459 124.527 30.9996C126.959 32.0968 129.494 32.1412 132.074 31.7557C134.298 31.4295 136.478 30.9106 138.628 29.9765C138.632 30.2586 138.66 30.5449 138.688 30.8242C138.75 31.4552 138.809 32.0506 138.583 32.4822C138.322 32.9724 137.668 33.0545 137.034 33.1341C136.805 33.1628 136.578 33.1912 136.374 33.2384C133.75 33.8908 131.11 34.3504 128.397 34.217C122.437 33.9204 118.167 31.0885 116.017 25.484C113.852 19.8202 113.897 14.1119 116.728 8.62595C120.02 2.25043 127.419 -0.225639 133.942 2.75454C137.086 4.19274 138.998 6.75778 140.11 9.96036ZM95.3186 16.8993C95.3305 16.9171 95.3376 16.9349 95.3447 16.9527C95.3554 16.9794 95.366 17.0061 95.3927 17.0327C97.0575 18.8371 98.7239 20.6414 100.391 22.4463L100.459 22.5202L100.477 22.5397C103.74 26.0727 107.005 29.6078 110.264 33.1495C110.294 33.1799 110.323 33.2151 110.352 33.2508L110.352 33.2509C110.435 33.3543 110.521 33.4608 110.664 33.4608C111.337 33.4706 112.002 33.4675 112.708 33.4643C113.076 33.4626 113.456 33.4608 113.852 33.4608C113.511 33.0901 113.303 32.8529 113.096 32.6157C112.184 31.6263 111.272 30.6363 110.36 29.6462C106.556 25.517 102.748 21.3839 98.9215 17.27C98.5212 16.84 98.536 16.6472 98.9511 16.2617C102.53 12.9403 106.092 9.61049 109.655 6.27858L109.679 6.25613C110.833 5.17804 111.986 4.09973 113.14 3.02143C113.182 2.98261 113.227 2.94662 113.273 2.91022L113.273 2.91018C113.435 2.77973 113.605 2.644 113.674 2.35422C113.436 2.35422 113.198 2.35667 112.962 2.3591C112.377 2.36514 111.798 2.3711 111.228 2.33939C110.753 2.32457 110.397 2.45801 110.042 2.7842C108.419 4.31712 106.78 5.84159 105.143 7.36399C104.611 7.85893 104.079 8.35364 103.547 8.84835C101.146 11.0872 98.7584 13.3409 96.3713 15.5945C96.1718 15.7039 96.0114 15.8664 95.8477 16.0322C95.6342 16.2485 95.4151 16.4704 95.0962 16.5879V3.62932C95.0962 3.4402 95.1199 3.23239 95.1437 3.02286V3.0228C95.2022 2.50959 95.2618 1.9861 94.9776 1.70184C94.7125 1.44625 94.2661 1.49286 93.8082 1.54067C93.5489 1.56774 93.2859 1.5952 93.0501 1.5684C92.4125 1.49427 92.2346 1.67219 92.2346 2.35422C92.2569 9.67124 92.2541 16.9883 92.2513 24.3053C92.2504 26.7443 92.2494 29.1833 92.2494 31.6223C92.2494 31.7891 92.2342 31.9699 92.2189 32.1517C92.1797 32.6162 92.1401 33.0864 92.3532 33.3422C92.6007 33.6309 93.0634 33.5754 93.5267 33.5198L93.5267 33.5198L93.5269 33.5198L93.527 33.5198C93.7298 33.4955 93.9326 33.4711 94.1176 33.4756C95.0962 33.5053 95.0962 33.4756 95.0962 32.5119C95.0962 27.5301 95.0962 22.5335 95.111 17.5517C95.111 17.4959 95.0961 17.4318 95.0808 17.3658C95.0349 17.1686 94.9853 16.9549 95.3186 16.8993ZM64.3306 6.7133C65.6502 4.54859 67.4442 3.0066 69.861 2.25043C73.0932 1.25704 76.3403 1.28669 79.5429 2.38387C82.6417 3.4514 84.1985 5.883 84.9695 8.90766C85.4143 10.6276 85.4884 12.3771 85.4884 14.1267C85.4958 17.2247 85.4995 20.3264 85.5033 23.4281C85.507 26.5314 85.5107 29.6347 85.5181 32.7343C85.5181 33.2977 85.3995 33.5498 84.7916 33.4756C84.5393 33.4434 84.258 33.4734 83.9805 33.5029C83.4914 33.555 83.0145 33.6058 82.7307 33.3125C82.4466 33.018 82.5059 32.4772 82.5643 31.9442L82.5644 31.944C82.5883 31.7259 82.612 31.509 82.612 31.3109V14.186C82.612 12.1696 82.3452 10.1976 81.6038 8.31459C80.5066 5.52715 78.3716 4.13344 75.4655 3.94069C69.6089 3.54036 65.6205 6.75778 64.6272 12.555C64.3899 13.9784 64.2713 15.387 64.2713 16.8252C64.2755 18.3292 64.2774 19.8333 64.2792 21.3374C64.2837 25.0968 64.2882 28.8563 64.3306 32.6157C64.3306 33.357 64.123 33.5646 63.4262 33.4756C63.1914 33.4483 62.9304 33.4753 62.6744 33.5018C62.2353 33.5473 61.8109 33.5912 61.558 33.357C61.2619 33.0821 61.3203 32.5807 61.3782 32.0845C61.4014 31.8851 61.4246 31.6865 61.4246 31.5037C61.4171 26.7739 61.4171 22.0405 61.4171 17.307C61.4171 12.5736 61.4171 7.84013 61.4097 3.11039C61.4097 2.45801 61.5728 2.22078 62.2252 2.30974C62.4669 2.34197 62.7417 2.31193 63.0122 2.28236C63.4884 2.23031 63.9513 2.17971 64.1972 2.47284C64.4249 2.75238 64.3852 3.26326 64.3456 3.77327C64.3284 3.99364 64.3113 4.21384 64.3158 4.41514C64.338 4.99292 64.3353 5.56238 64.3325 6.13598C64.3315 6.3278 64.3306 6.52008 64.3306 6.7133ZM15.4561 29.0404L14.9722 30.1693C14.2786 28.4916 13.6025 26.8666 12.9344 25.2609L12.9344 25.2608C12.3744 23.9147 11.82 22.5822 11.2656 21.2435C9.93858 18.0633 8.61161 14.8793 7.28464 11.6953C5.95762 8.51117 4.63059 5.32706 3.30357 2.14665C3.28426 2.097 3.26855 2.04377 3.2527 1.99009C3.18336 1.75521 3.11153 1.51185 2.72532 1.52392C2.047 1.54616 1.36867 1.54338 0.690347 1.5406C0.464239 1.53967 0.23813 1.53875 0.0120216 1.53875C-0.0247241 1.73473 0.0295985 1.86999 0.0830384 2.00306C0.0942869 2.03107 0.105496 2.05898 0.115809 2.08734C1.84704 6.36305 3.58083 10.6388 5.31506 14.9155L5.31646 14.919L5.31713 14.9206L5.31741 14.9213L5.31827 14.9235L5.31983 14.9273L5.3228 14.9346C7.75952 20.9438 10.1971 26.9552 12.6296 32.9715C12.7779 33.3422 12.9706 33.5053 13.3858 33.4905C14.2309 33.4608 15.076 33.446 15.9063 33.5053C16.5439 33.5646 16.8404 33.3422 17.0925 32.7343C19.6531 26.5851 22.2255 20.4418 24.7985 14.2969L24.7992 14.2953L24.7998 14.2938L24.7999 14.2937C26.3086 10.6905 27.8176 7.08679 29.3246 3.48106C29.4816 3.11459 29.6284 2.74812 29.78 2.36957L29.7801 2.36942L29.7801 2.36935C29.8861 2.10471 29.9945 1.83416 30.1104 1.55357C29.871 1.55357 29.6406 1.55613 29.4165 1.55862C28.8771 1.5646 28.3743 1.57017 27.8715 1.53875C27.3526 1.50909 27.1006 1.68702 26.893 2.1763C24.1649 8.62595 21.4219 15.0608 18.6789 21.4956C17.6292 23.9709 16.5681 26.4463 15.4561 29.0404ZM54.708 13.326C54.6932 19.8053 54.6932 26.2698 54.708 32.7491C54.708 33.3125 54.5894 33.5498 53.9815 33.4905C53.4478 33.4312 52.8992 33.4608 52.3506 33.4905C51.9651 33.5053 51.8465 33.3719 51.8465 32.9864C51.8563 32.1766 51.8531 31.3735 51.8498 30.5681V30.5679V30.5676V30.5674C51.8481 30.1638 51.8465 29.7596 51.8465 29.3538V28.4938C51.6788 28.697 51.5304 28.888 51.3909 29.0674L51.3908 29.0675C51.1232 29.4117 50.8887 29.7134 50.6158 29.9765C46.6719 33.876 42.0163 35.1659 36.6935 33.5201C33.7726 32.6157 31.9044 30.6289 31.3855 27.4856C30.8962 24.5647 31.3114 21.8811 33.1202 19.494C34.3657 17.863 36.1152 16.9586 37.9834 16.2469C40.7709 15.1794 43.6917 14.9125 46.6274 14.7791C48.1842 14.7049 49.7411 14.6753 51.2979 14.6456C51.6982 14.6456 51.8613 14.5418 51.8761 14.1119C51.8761 12.4513 51.8761 10.8055 51.4758 9.17454C50.7493 6.17953 48.8514 4.47445 45.7823 4.08895C41.6308 3.55519 37.8203 4.63755 34.1729 6.5502C34.121 6.57985 34.0691 6.61321 34.0173 6.64658C33.9654 6.67994 33.9135 6.7133 33.8616 6.74295C33.8542 6.75036 33.843 6.75036 33.8189 6.75036C33.7948 6.75036 33.7578 6.75036 33.6985 6.75778C33.6392 6.40193 33.5799 6.06092 33.5206 5.73473C33.2833 4.38549 33.2833 4.37066 34.5288 3.80725C38.0724 2.22078 41.7346 1.31635 45.6637 1.70184C50.6307 2.19113 54.0853 5.60129 54.5894 10.6127C54.6635 11.5023 54.708 12.4068 54.708 13.326ZM51.8465 20.1464C52.1578 24.4906 50.3193 27.797 46.8498 30.2582C44.0772 32.2154 41.0229 32.3933 37.8945 31.4295C35.1218 30.5696 33.6836 28.1083 33.8912 25.0837C34.1285 21.8663 35.8335 19.7905 38.7396 18.6192C40.8302 17.7741 43.069 17.4924 45.3078 17.3144C47.2798 17.1514 49.2518 17.1069 51.2237 17.1069C51.7427 17.1069 51.8909 17.27 51.8613 17.7741C51.8295 18.3359 51.8356 18.9053 51.8416 19.4714V19.4719C51.844 19.6975 51.8465 19.9225 51.8465 20.1464ZM138.509 15.5501C138.568 16.158 138.361 16.2321 137.827 16.2321C135.37 16.2099 132.904 16.2126 130.436 16.2154C129.613 16.2163 128.79 16.2173 127.967 16.2173V16.2024C127.044 16.2024 126.12 16.2 125.197 16.1976C122.888 16.1915 120.579 16.1855 118.27 16.2173C117.544 16.2321 117.425 15.98 117.425 15.3425C117.485 9.53039 122.229 4.26688 127.893 3.89621C131.778 3.64415 134.654 5.37889 136.567 8.70009C137.783 10.8055 138.257 13.1481 138.509 15.5501Z" fill="#E30013"/>
<path fill-rule="evenodd" clip-rule="evenodd" d="M196.62 15.8373V15.8387V15.8402C196.618 16.4819 196.615 17.1241 196.615 17.7676C196.615 18.2245 196.615 18.6815 196.614 19.1383L196.614 19.1467C196.612 20.9846 196.609 22.8207 196.645 24.6472C196.645 25.1662 196.482 25.2996 195.978 25.2996C194.859 25.2861 193.737 25.288 192.615 25.2898H192.615H192.615C191.269 25.292 189.922 25.2942 188.579 25.2699C187.931 25.2562 187.924 25.5628 187.914 25.9874C187.914 26.0194 187.913 26.0521 187.912 26.0854C187.897 26.6044 187.956 26.8861 188.609 26.8712C189.927 26.847 191.245 26.8492 192.563 26.8514H192.563C193.662 26.8532 194.76 26.8551 195.859 26.8416C196.452 26.8268 196.66 26.9602 196.645 27.5977C196.624 28.3934 196.629 29.1858 196.635 29.9764V29.9768V29.977C196.641 30.8658 196.647 31.7523 196.615 32.6389C196.586 33.2886 196.909 33.2775 197.337 33.2628L197.371 33.2616C197.42 33.2616 197.468 33.263 197.515 33.2644C197.871 33.2749 198.168 33.2837 198.142 32.6685C198.101 31.5471 198.11 30.4185 198.119 29.2927V29.2926V29.2923V29.2921C198.123 28.8105 198.127 28.3295 198.127 27.8498C198.127 26.8564 198.127 26.8268 199.091 26.8712C199.744 26.9009 199.996 26.7526 199.981 26.0409C199.951 25.4034 199.758 25.2551 199.165 25.2848C198.127 25.3292 198.127 25.2996 198.127 24.2321C198.127 23.1363 198.127 22.0396 198.126 20.9424V20.941V20.9396V20.938V20.9378C198.123 17.6422 198.12 14.3425 198.142 11.0511C198.142 10.4876 197.95 10.369 197.46 10.4283C197.375 10.4378 197.287 10.4352 197.2 10.4326C196.88 10.4231 196.589 10.4145 196.6 11.0214C196.632 12.6306 196.626 14.2322 196.62 15.8371V15.8372V15.8373ZM149.629 33.0688C152.417 28.5022 153.588 23.5204 154.092 18.331C154.204 17.152 154.246 15.9671 154.287 14.7838V14.7837C154.311 14.092 154.335 13.4008 154.374 12.7117C154.403 12.2224 154.255 12.0741 153.766 12.0889C153.149 12.1016 152.536 12.098 151.922 12.0944H151.922H151.922H151.922C151.105 12.0895 150.288 12.0847 149.466 12.1186C148.846 12.1455 148.851 11.8417 148.857 11.4633C148.857 11.4254 148.858 11.3867 148.858 11.3476C148.86 11.2888 148.86 11.2309 148.859 11.1749C148.856 10.8349 148.853 10.5618 149.451 10.5618C156.583 10.5914 163.729 10.5914 170.861 10.5618C171.484 10.5618 171.528 10.8138 171.513 11.3031C171.512 11.3482 171.511 11.3922 171.511 11.4351C171.505 11.8291 171.501 12.1186 170.846 12.1186C168.268 12.0939 165.689 12.092 163.108 12.0902C161.044 12.0887 158.978 12.0873 156.909 12.0741C156.316 12.0741 156.108 12.2075 156.094 12.8303C156.064 14.0312 155.975 15.247 155.841 16.448C155.782 16.9818 155.96 17.1004 156.479 17.1004C160.705 17.0856 164.93 17.0856 169.156 17.0856C170.327 17.0856 170.55 17.2931 170.55 18.4644C170.564 22.8383 170.564 27.2122 170.564 31.5861C170.564 32.8019 170.238 33.1133 169.023 33.1281C168.613 33.1281 168.205 33.1241 167.797 33.1201H167.797H167.797H167.796H167.796C166.846 33.1108 165.899 33.1015 164.945 33.143C164.275 33.1703 164.261 32.87 164.239 32.428L164.239 32.4278C164.238 32.3904 164.236 32.352 164.233 32.3127C164.204 31.7196 164.411 31.5565 164.975 31.5861C165.565 31.6104 166.16 31.6082 166.754 31.606H166.754H166.754H166.754C167.25 31.6042 167.745 31.6023 168.237 31.6158C168.8 31.6306 169.023 31.4082 169.023 30.83C169.008 27.0047 169.008 23.1794 169.023 19.3392C169.023 18.7906 168.8 18.5979 168.266 18.6127C164.233 18.6275 160.215 18.6275 156.183 18.6127C155.689 18.6127 155.665 18.8274 155.625 19.1802L155.619 19.2354C155.159 23.7428 154.151 28.087 151.987 32.1051C151.408 33.2764 151.408 33.2764 149.629 33.0688ZM180.943 23.6538C179.327 26.5154 177.77 28.517 176.377 29.3621L176.377 29.296C176.376 28.4633 176.376 27.7269 176.91 27.0047C178.571 24.751 179.727 22.2601 180.261 19.5023C180.38 18.8944 180.321 18.5979 179.579 18.6572C179.079 18.6906 178.578 18.6817 178.078 18.6728C177.689 18.6659 177.3 18.659 176.91 18.672C176.347 18.6955 176.378 18.3845 176.408 18.0847C176.416 18.0057 176.424 17.9276 176.421 17.8565C176.419 17.8113 176.415 17.7648 176.411 17.7181C176.384 17.413 176.357 17.1023 176.91 17.1152C177.452 17.13 177.996 17.1263 178.541 17.1226C179.086 17.1189 179.631 17.1152 180.172 17.13C180.617 17.1449 180.825 17.0559 180.81 16.537C180.765 15.2767 180.765 14.0164 180.795 12.7561C180.81 12.2372 180.602 12.1482 180.157 12.1631C179.7 12.1758 179.245 12.1721 178.79 12.1685C178.185 12.1637 177.58 12.1588 176.97 12.1927C176.346 12.2211 176.373 11.8695 176.402 11.4885L176.406 11.4365C176.412 11.3594 176.408 11.2778 176.403 11.1969C176.385 10.889 176.368 10.5914 176.955 10.5914C180.143 10.6211 183.33 10.6062 186.518 10.5914C187.102 10.5914 187.056 10.8941 187.011 11.1835C186.996 11.2837 186.981 11.3823 186.993 11.4662L186.998 11.5066C187.042 11.8506 187.087 12.2064 186.474 12.1779C185.948 12.1557 185.418 12.1594 184.886 12.1631C184.354 12.1668 183.82 12.1705 183.286 12.1482C182.752 12.1334 182.633 12.3113 182.633 12.8154C182.663 14.0461 182.663 15.2915 182.633 16.5221C182.619 16.9669 182.722 17.13 183.197 17.1152C183.661 17.1025 184.127 17.1061 184.594 17.1098C185.217 17.1146 185.84 17.1194 186.459 17.0856C187.047 17.0582 187.017 17.3715 186.985 17.6995C186.983 17.7271 186.98 17.7548 186.978 17.7824C186.971 17.8615 186.982 17.9517 186.992 18.0433C187.028 18.3468 187.066 18.6651 186.474 18.6424C186.044 18.6275 185.61 18.635 185.176 18.6424H185.176H185.176C184.743 18.6498 184.309 18.6572 183.879 18.6424C183.33 18.6275 183.197 18.7462 183.39 19.3096C184.072 21.326 185.139 23.1349 186.637 24.6472C187.259 25.2848 187.319 25.9223 187.23 26.8268C185.32 25.4301 183.972 23.6773 182.593 21.8843L182.426 21.667V22.3639C182.438 23.7095 182.445 25.0528 182.452 26.3956C182.463 28.4113 182.473 30.4261 182.5 32.4461C182.5 32.9799 182.411 33.2171 181.818 33.1578C181.742 33.1509 181.668 33.1483 181.596 33.1458H181.596L181.596 33.1458C181.202 33.1319 180.886 33.1208 180.899 32.4313C180.94 30.5631 180.931 28.695 180.922 26.8268C180.918 26.0261 180.914 25.2255 180.914 24.4248C180.943 24.1876 180.943 23.9207 180.943 23.6538ZM192.612 23.7428C192.019 23.9355 191.767 23.55 191.589 22.9421C191.159 21.5336 190.684 20.125 190.195 18.7313C190.017 18.2124 190.032 18.0345 190.67 17.99C191.485 17.9455 191.885 18.1679 192.108 19.013C192.325 19.873 192.622 20.7066 192.918 21.5402C193.067 21.957 193.215 22.3738 193.353 22.7939C193.513 23.2595 193.595 23.4966 193.51 23.6174C193.422 23.7428 193.156 23.7428 192.612 23.7428ZM193.328 16.8199C193.606 17.0173 194.043 16.9914 194.955 16.9373C194.361 15.1432 193.783 13.3937 193.22 11.659C193.146 11.4514 193.057 11.3179 192.805 11.3179C192.493 11.3277 192.182 11.3246 191.85 11.3214C191.676 11.3197 191.496 11.3179 191.307 11.3179C191.675 12.4427 192.025 13.4923 192.372 14.5293C192.487 14.873 192.601 15.2152 192.716 15.5584C192.95 16.2685 193.072 16.6385 193.328 16.8199Z" fill="white"/>
</svg>
