<svg width="48" height="48" viewBox="0 0 48 48" fill="none" xmlns="http://www.w3.org/2000/svg">
<path d="M24.0006 4V9" stroke="#E30013" stroke-linecap="square"/>
<path d="M43.3945 24H38.546" stroke="white" stroke-linecap="square"/>
<path d="M24.0004 44V39" stroke="white" stroke-linecap="square"/>
<path d="M4.60645 24H9.45493" stroke="white" stroke-linecap="square"/>
<path d="M21.984 21.2324V24.5564H18.804V25.3844H21.984V29.2364C20.916 29.7404 19.8 30.1244 18.624 30.3884L18.828 31.2404C19.944 30.9284 21 30.5564 21.984 30.1004V32.1164H22.872V21.2324H21.984ZM27.864 32.0084C28.38 32.0084 28.74 31.8644 28.932 31.5764C29.124 31.2764 29.244 30.4244 29.316 29.0204L28.5 28.7564C28.464 29.9804 28.392 30.6884 28.296 30.9044C28.176 31.0964 27.984 31.1924 27.72 31.1924H26.22C25.92 31.1924 25.776 31.0124 25.776 30.6764V26.0684C26.892 25.6844 28.068 25.1204 29.316 24.3644L28.812 23.6564C27.828 24.3404 26.82 24.8684 25.776 25.2524V21.2324H24.9V30.8084C24.9 31.6004 25.272 32.0084 26.028 32.0084H27.864Z" fill="white"/>
<path fill-rule="evenodd" clip-rule="evenodd" d="M24 12L27 18H21L24 12Z" fill="#E30013"/>
</svg>
