<?xml version="1.0" encoding="UTF-8"?>
<svg width="146px" height="22px" viewBox="0 0 146 22" version="1.1" xmlns="http://www.w3.org/2000/svg" xmlns:xlink="http://www.w3.org/1999/xlink">
    <title>logo</title>
    <g id="页面-1" stroke="none" stroke-width="1" fill="none" fill-rule="evenodd">
        <g id="添加新位置" transform="translate(-161.000000, -15.000000)">
            <g id="logo" transform="translate(161.000000, 16.000000)">
                <path d="M25.504127,9.96920635 L25.504127,5.71015873 C27.8622952,5.71015873 29.7739683,7.62183178 29.7739683,9.98 C29.7739683,12.3381682 27.8622952,14.2498413 25.504127,14.2498413 L25.504127,9.96920635 Z" id="路径" fill="#1D95D4"></path>
                <path d="M33.8114286,19.921164 L41.1699471,0.0173544974 L46.4832804,0.0173544974 L53.8624339,19.921164 L48.7604233,19.921164 L43.8266667,6.6378836 L38.9139683,19.921164 L33.8114286,19.921164 Z M0.0336507937,19.9212172 L7.41354497,0.0173013511 L12.7268783,0.0173013511 L18.3141799,15.1350265 L25.7149206,15.1350265 C27.0862745,15.144189 28.4026184,14.5963425 29.3625397,13.6169312 C30.3337521,12.6514395 30.8800956,11.3386688 30.8806349,9.96920635 C30.8718401,8.60143892 30.3267515,7.29172165 29.3625397,6.3215873 C28.3947378,5.35645266 27.0816962,4.817599 25.7149206,4.82465608 L22.7837037,4.82465608 L22.7837037,11.6982011 L17.9980952,11.6982011 L17.9980952,0.0173013511 L25.7150265,0.0173013511 C29.2782299,0.00573540533 32.5757483,1.90001254 34.3607126,4.98391534 C36.1456769,8.06781814 36.1456769,11.8707004 34.3607126,14.9546032 C32.5757483,18.038506 29.2782299,19.9327831 25.7150265,19.9212172 L14.982963,19.9212172 L10.0702646,6.6378836 L5.13650794,19.9212172 L0.0336507937,19.9212172 Z" id="形状" fill="#FFFFFF" fill-rule="nonzero"></path>
                <path d="M142.882963,2.92835979 C141.032878,1.06538183 138.516024,0.0174510554 135.890476,0.0169312169 L128.228254,0.0169312169 L128.228254,19.788995 L135.890476,19.788995 C139.885555,19.7898955 143.48795,17.3845711 145.018404,13.6942641 C146.548858,10.0039571 145.706092,5.75512402 142.882963,2.92835979 Z M139.512381,13.526455 C138.559425,14.4993329 137.252289,15.0435818 135.890476,15.0344974 L132.980423,15.0344974 L132.980423,4.79231497 L135.890476,4.79231497 C137.247736,4.7854756 138.551567,5.32080575 139.512381,6.2794709 C140.469811,7.24339583 141.010995,8.54438015 141.019683,9.90296296 C141.019193,11.2631974 140.476762,12.5671804 139.512381,13.526455 L139.512381,13.526455 Z" id="形状" fill="#FFFFFF" fill-rule="nonzero"></path>
                <path d="M53.5314286,9.90338624 C53.5314286,4.7447619 57.4549206,0.945291005 62.7620106,0.945291005 C65.3273016,0.945291005 67.6412698,1.80084656 69.2007407,3.51185185 L68.0185185,4.69428571 C66.5848677,3.23492063 64.8242328,2.60582011 62.8121693,2.60582011 C58.5616931,2.60582011 55.3673016,5.72656085 55.3673016,9.90338624 C55.3673016,14.0802116 58.5616931,17.2001058 62.8121693,17.2001058 C64.824127,17.2001058 66.5847619,16.5710053 68.0185185,15.0868783 L69.2007407,16.2697354 C67.6412698,17.9807407 65.3277249,18.8614815 62.7367196,18.8614815 C57.4549206,18.8614815 53.5314286,15.061164 53.5314286,9.90338624 Z" id="路径" stroke="#FFFFFF" stroke-width="2.58910053" fill="#FFFFFF" fill-rule="nonzero"></path>
                <polygon id="路径" stroke="#FFFFFF" stroke-width="2.58910053" fill="#FFFFFF" fill-rule="nonzero" points="73.6787302 1.29820106 75.54 1.29820106 75.54 17.1005291 85.3992593 17.1005291 85.3992593 18.7104762 73.6787302 18.7104762"></polygon>
                <path d="M87.0851852,9.90338624 C87.0851852,4.77005291 91.0089947,0.945291005 96.341164,0.945291005 C101.622751,0.945291005 105.571429,4.7442328 105.571429,9.90338624 C105.571429,15.0625397 101.622751,18.8614815 96.341164,18.8614815 C91.0089947,18.8614815 87.0851852,15.0364021 87.0851852,9.90338624 Z M103.710159,9.90338624 C103.710159,5.70084656 100.566561,2.60582011 96.341164,2.60582011 C92.0903704,2.60582011 88.9215873,5.70084656 88.9215873,9.90338624 C88.9215873,14.1059259 92.0903704,17.2001058 96.341164,17.2001058 C100.566561,17.2001058 103.710159,14.1050794 103.710159,9.90338624 Z" id="形状" stroke="#FFFFFF" stroke-width="2.58910053" fill="#FFFFFF" fill-rule="nonzero"></path>
                <path d="M110.100212,11.186455 L110.100212,1.29227513 L111.961376,1.29227513 L111.961376,11.1111111 C111.961376,15.2880423 113.923175,17.2001058 117.343915,17.2001058 C120.78963,17.2001058 122.751323,15.2880423 122.751323,11.1111111 L122.751323,1.29185185 L124.562011,1.29185185 L124.562011,11.1860317 C124.562011,16.2435979 121.845714,18.8610582 117.343915,18.8610582 C112.842116,18.8610582 110.100212,16.2440212 110.100212,11.186455 Z" id="路径" stroke="#FFFFFF" stroke-width="2.58910053" fill="#FFFFFF" fill-rule="nonzero"></path>
            </g>
        </g>
    </g>
</svg>