<svg width="11" height="17" xmlns="http://www.w3.org/2000/svg"><path d="M5.665 3.445c.292 0 .56-.073.807-.219a1.66 1.66 0 00.588-.584 1.51 1.51 0 00.22-.79c0-.301-.074-.575-.22-.821a1.651 1.651 0 00-.588-.589 1.555 1.555 0 00-.807-.218c-.297 0-.566.073-.807.218a1.64 1.64 0 00-.578.589c-.144.246-.215.52-.215.821 0 .283.071.546.215.79.143.244.336.438.578.584.241.146.51.22.807.22zM7.96 16.224a.723.723 0 00.491-.194c.146-.13.219-.313.219-.553 0-.157-.048-.334-.143-.53L7.1 12.062a7.541 7.541 0 00-.205-.37 2.83 2.83 0 00-.211-.311L5.8 10.11l.05-.173c.125-.382.216-.715.273-.997a7.34 7.34 0 00.122-.983l.15-2.088a1.988 1.988 0 00-.14-.922 1.482 1.482 0 00-.537-.667c-.242-.165-.54-.248-.894-.248-.387 0-.734.1-1.04.302-.306.2-.639.478-.997.832l-1.105 1.09a1.746 1.746 0 00-.399.539 1.803 1.803 0 00-.132.603l-.137 1.714c-.019.23.03.415.147.556a.66.66 0 00.485.234.649.649 0 00.495-.155c.134-.117.21-.3.23-.549l.164-1.887.646-.566c.062-.058.128-.073.198-.047.069.026.099.085.09.176L3.34 8.56c-.029.406.03.763.176 1.069.146.306.32.586.52.84l1.442 1.8c.072.091.119.16.14.208l.083.173 1.535 3.1c.09.176.199.3.323.369s.258.104.402.104zm1.901-7.936c.23 0 .413-.06.549-.183a.627.627 0 00.204-.491.646.646 0 00-.204-.502c-.136-.125-.322-.187-.556-.187H8.169L6.992 5.648l-.13 1.83.51.495a.93.93 0 00.377.25c.132.044.3.065.506.065h1.607zm-8.409 7.936c.24 0 .435-.091.588-.273l2.153-2.569c.105-.129.176-.227.212-.294a3.174 3.174 0 00.212-.563l.07-.27-1.226-1.513-.366 1.7-2.03 2.404c-.096.11-.174.216-.234.32a.708.708 0 00-.09.362.66.66 0 00.205.502c.137.13.305.194.506.194z" fill="#FFF" fill-rule="nonzero"/></svg>