<?xml version="1.0" encoding="UTF-8"?>
<svg width="11px" height="17px" viewBox="0 0 11 17" version="1.1" xmlns="http://www.w3.org/2000/svg" xmlns:xlink="http://www.w3.org/1999/xlink">
    <title>􀝢</title>
    <g id="控件" stroke="none" stroke-width="1" fill="none" fill-rule="evenodd">
        <g id="地标/人员" transform="translate(-8.000000, -4.000000)" fill="#FFFFFF" fill-rule="nonzero">
            <g id="编组-8备份">
                <path d="M13.664727,7.44515748 C13.9565058,7.44515748 14.2255641,7.37221278 14.4719019,7.2263234 C14.7182397,7.08043401 14.9143533,6.88551622 15.0602427,6.64157003 C15.2061321,6.39762384 15.2790768,6.13454462 15.2790768,5.85233236 C15.2790768,5.55098707 15.2061321,5.27714552 15.0602427,5.0308077 C14.9143533,4.78446988 14.7182397,4.58835628 14.4719019,4.44246689 C14.2255641,4.29657751 13.9565058,4.22363281 13.664727,4.22363281 C13.368165,4.22363281 13.0991067,4.29657751 12.8575521,4.44246689 C12.6159976,4.58835628 12.4234714,4.78446988 12.2799736,5.0308077 C12.1364759,5.27714552 12.064727,5.55098707 12.064727,5.85233236 C12.064727,6.13454462 12.1364759,6.39762384 12.2799736,6.64157003 C12.4234714,6.88551622 12.6159976,7.08043401 12.8575521,7.2263234 C13.0991067,7.37221278 13.368165,7.44515748 13.664727,7.44515748 Z M15.9606911,20.2236328 C16.142455,20.2236328 16.3062816,20.1590588 16.4521709,20.0299108 C16.5980603,19.9007629 16.671005,19.7166074 16.671005,19.4774445 C16.671005,19.3195969 16.6231724,19.1426164 16.5275073,18.9465028 L15.0997046,16.0621978 C15.032739,15.9330499 14.9645775,15.8098809 14.8952203,15.6926911 C14.825863,15.5755013 14.75531,15.4714654 14.6835611,15.3805835 L13.8010499,14.1106283 L13.8512741,13.938431 C13.9756388,13.5557703 14.0665207,13.2233339 14.1239198,12.9411216 C14.1813189,12.6589093 14.2219766,12.3312561 14.2458929,11.958162 L14.3965656,9.87026958 C14.4204819,9.53544148 14.3738451,9.22811712 14.2566553,8.94829649 C14.1394654,8.66847586 13.9600932,8.44605434 13.7185387,8.28103192 C13.4769841,8.11600949 13.1792263,8.03349828 12.8252651,8.03349828 C12.4378212,8.03349828 12.0910349,8.13394671 11.7849064,8.33484357 C11.4787778,8.53574044 11.1463414,8.81316943 10.787597,9.16713057 L9.68266422,10.2577135 C9.49133388,10.4442606 9.35859845,10.6236328 9.28445794,10.7958301 C9.21031744,10.9680274 9.16607229,11.1689243 9.15172252,11.3985207 L9.01539965,13.1133189 C8.99626661,13.3429153 9.04529501,13.5282666 9.16248485,13.6693727 C9.27967469,13.8104789 9.44110966,13.8882068 9.64678978,13.9025566 C9.84290338,13.9169064 10.0079258,13.8654863 10.141857,13.7482965 C10.2757883,13.6311067 10.3523204,13.448147 10.3714535,13.1994176 L10.5364759,11.3124221 L11.1822158,10.7456059 C11.2443982,10.6882068 11.310168,10.6726612 11.3795252,10.6989691 C11.4488825,10.7252771 11.4787778,10.783872 11.4692113,10.8747539 L11.3400633,12.5608525 C11.3113638,12.9674295 11.3699587,13.3237823 11.5158481,13.6299108 C11.6617375,13.9360394 11.8351306,14.21586 12.0360275,14.4693727 L13.4781799,16.2702696 C13.5499288,16.3611515 13.5965656,16.4305087 13.6180902,16.4783413 C13.6396149,16.5261739 13.6671186,16.583573 13.7006014,16.6505386 L15.2360275,19.7500902 C15.3269094,19.9270708 15.4345327,20.0502397 15.5588974,20.1195969 C15.6832621,20.1889542 15.8171934,20.2236328 15.9606911,20.2236328 Z M17.8620364,12.2882068 C18.0916328,12.2882068 18.2745925,12.2272203 18.4109153,12.1052472 C18.5472382,11.9832741 18.6153996,11.8194475 18.6153996,11.6137673 C18.6153996,11.403304 18.5472382,11.2358899 18.4109153,11.1115252 C18.2745925,10.9871605 18.0892412,10.9249781 17.8548615,10.9249781 L16.1687629,10.9249781 L14.9920813,9.64784806 L14.8629333,11.4774445 L15.3723503,11.9725117 C15.4919318,12.0968765 15.6174923,12.1805835 15.7490319,12.2236328 C15.8805715,12.2666821 16.0491814,12.2882068 16.2548615,12.2882068 L17.8620364,12.2882068 Z M9.45306781,20.2236328 C9.69223074,20.2236328 9.88834434,20.1327509 10.0414086,19.9509871 L12.193875,17.3823772 C12.2991067,17.2532292 12.3696597,17.1551724 12.4055342,17.0882068 C12.4414086,17.0212412 12.4832621,16.9231844 12.5310947,16.7940364 C12.5645775,16.7031545 12.5932771,16.6134684 12.6171934,16.5249781 C12.6411097,16.4364878 12.665026,16.3468017 12.6889422,16.2559198 L11.4620364,14.7420185 L11.0961171,16.4424669 L9.06562386,18.8460543 C8.96995869,18.9560693 8.89223074,19.0624968 8.83244001,19.1653368 C8.77264927,19.2681769 8.74275391,19.3889542 8.74275391,19.5276687 C8.74275391,19.7333488 8.81091534,19.9007629 8.94723821,20.0299108 C9.08356108,20.1590588 9.25217095,20.2236328 9.45306781,20.2236328 Z" id="􀝢"></path>
            </g>
        </g>
    </g>
</svg>