<?xml version="1.0" encoding="UTF-8"?>
<svg width="13px" height="19px" viewBox="0 0 13 19" version="1.1" xmlns="http://www.w3.org/2000/svg" xmlns:xlink="http://www.w3.org/1999/xlink">
    <title>􀝢</title>
    <defs>
        <path d="M11.432207,6.29296875 C11.7102018,6.29296875 11.9665495,6.22347005 12.20125,6.08447266 C12.4359505,5.94547526 12.6227995,5.75976562 12.7617969,5.52734375 C12.9007943,5.29492188 12.970293,5.04427083 12.970293,4.77539062 C12.970293,4.48828125 12.9007943,4.2273763 12.7617969,3.99267578 C12.6227995,3.75797526 12.4359505,3.5711263 12.20125,3.43212891 C11.9665495,3.29313151 11.7102018,3.22363281 11.432207,3.22363281 C11.1496549,3.22363281 10.8933073,3.29313151 10.6631641,3.43212891 C10.4330208,3.5711263 10.2495898,3.75797526 10.1128711,3.99267578 C9.97615235,4.2273763 9.90779297,4.48828125 9.90779297,4.77539062 C9.90779297,5.04427083 9.97615235,5.29492188 10.1128711,5.52734375 C10.2495898,5.75976562 10.4330208,5.94547526 10.6631641,6.08447266 C10.8933073,6.22347005 11.1496549,6.29296875 11.432207,6.29296875 Z M13.619707,18.4677734 C13.7928841,18.4677734 13.9489714,18.40625 14.0879688,18.2832031 C14.2269661,18.1601562 14.2964648,17.9847005 14.2964648,17.7568359 C14.2964648,17.6064453 14.2508919,17.4378255 14.1597461,17.2509766 L12.7993945,14.5029297 C12.7355924,14.3798828 12.670651,14.2625326 12.6045703,14.1508789 C12.5384896,14.0392253 12.4712695,13.9401042 12.4029102,13.8535156 L11.5620898,12.6435547 L11.6099414,12.4794922 C11.728431,12.1149089 11.8150195,11.7981771 11.869707,11.5292969 C11.9243945,11.2604167 11.9631315,10.9482422 11.985918,10.5927734 L12.1294727,8.60351562 C12.1522591,8.28450521 12.1078255,7.99169922 11.9961719,7.72509766 C11.8845182,7.45849609 11.7136198,7.24658203 11.4834766,7.08935547 C11.2533333,6.93212891 10.9696419,6.85351562 10.6324023,6.85351562 C10.2632617,6.85351562 9.93285807,6.94921875 9.64119141,7.140625 C9.34952474,7.33203125 9.03279297,7.59635417 8.6909961,7.93359375 L7.63826172,8.97265625 C7.45597005,9.15039062 7.32950521,9.32128906 7.25886719,9.48535156 C7.18822917,9.64941406 7.14607422,9.84082031 7.13240235,10.0595703 L7.00251953,11.6933594 C6.98429037,11.9121094 7.03100261,12.0887044 7.14265625,12.2231445 C7.2543099,12.3575846 7.40811849,12.4316406 7.60408203,12.4453125 C7.79093099,12.4589844 7.94815755,12.4099935 8.07576172,12.2983398 C8.20336589,12.1866862 8.27628255,12.0123698 8.29451172,11.7753906 L8.45173828,9.97753906 L9.06697266,9.4375 C9.12621745,9.3828125 9.18888021,9.3680013 9.25496094,9.39306641 C9.32104167,9.41813151 9.34952474,9.47395833 9.34041016,9.56054688 L9.21736328,11.1669922 C9.19001953,11.554362 9.24584636,11.8938802 9.38484375,12.1855469 C9.52384115,12.4772135 9.68904297,12.7438151 9.88044922,12.9853516 L11.2544727,14.7011719 C11.322832,14.7877604 11.3672656,14.8538411 11.3877734,14.8994141 C11.4082813,14.944987 11.4344857,14.9996745 11.4663867,15.0634766 L12.9292773,18.0166016 C13.0158659,18.1852214 13.1184049,18.3025716 13.2368945,18.3686523 C13.3553841,18.4347331 13.4829883,18.4677734 13.619707,18.4677734 Z M15.4312305,10.9072266 C15.6499805,10.9072266 15.8242969,10.8491211 15.9541797,10.7329102 C16.0840625,10.6166992 16.1490039,10.460612 16.1490039,10.2646484 C16.1490039,10.0641276 16.0840625,9.9046224 15.9541797,9.78613281 C15.8242969,9.66764323 15.6477018,9.60839844 15.4243945,9.60839844 L13.8179492,9.60839844 L12.6968555,8.39160156 L12.5738086,10.1347656 L13.0591602,10.6064453 C13.1730924,10.7249349 13.2927214,10.8046875 13.4180469,10.8457031 C13.5433724,10.8867188 13.7040169,10.9072266 13.8999805,10.9072266 L15.4312305,10.9072266 Z M7.41951172,18.4677734 C7.6473763,18.4677734 7.83422526,18.3811849 7.9800586,18.2080078 L10.0308398,15.7607422 C10.1311003,15.6376953 10.1983203,15.5442708 10.2325,15.4804688 C10.2666797,15.4166667 10.306556,15.3232422 10.3521289,15.2001953 C10.3840299,15.1136068 10.4113737,15.0281576 10.4341602,14.9438477 C10.4569466,14.8595378 10.4797331,14.7740885 10.5025195,14.6875 L9.33357422,13.2451172 L8.98494141,14.8652344 L7.0503711,17.1552734 C6.95922526,17.2600911 6.88516927,17.3614909 6.82820313,17.4594727 C6.77123698,17.5574544 6.74275391,17.672526 6.74275391,17.8046875 C6.74275391,18.000651 6.80769531,18.1601562 6.93757813,18.2832031 C7.06746094,18.40625 7.22810547,18.4677734 7.41951172,18.4677734 Z" id="path-1"></path>
        <filter x="-37.2%" y="-16.4%" width="174.4%" height="145.9%" filterUnits="objectBoundingBox" id="filter-2">
            <feOffset dx="0" dy="1" in="SourceAlpha" result="shadowOffsetOuter1"></feOffset>
            <feGaussianBlur stdDeviation="1" in="shadowOffsetOuter1" result="shadowBlurOuter1"></feGaussianBlur>
            <feColorMatrix values="0 0 0 0 0   0 0 0 0 0   0 0 0 0 0  0 0 0 0.3 0" type="matrix" in="shadowBlurOuter1"></feColorMatrix>
        </filter>
    </defs>
    <g id="编辑组件" stroke="none" stroke-width="1" fill="none" fill-rule="evenodd">
        <g id="Dashboard" transform="translate(-459.000000, -676.000000)" fill-rule="nonzero">
            <g id="􀝢" transform="translate(454.000000, 674.000000)">
                <use fill="black" fill-opacity="1" filter="url(#filter-2)" xlink:href="#path-1"></use>
                <use fill="#FFFFFF" xlink:href="#path-1"></use>
            </g>
        </g>
    </g>
</svg>